<svg id="svg" version="1.1" xmlns="http://www.w3.org/2000/svg" xmlns:xlink="http://www.w3.org/1999/xlink" width="400" height="400" viewBox="0, 0, 400,400"><g id="svgg"><path id="path0" d="M82.811 44.220 C 82.047 44.759,81.597 45.199,81.811 45.198 C 82.025 45.197,82.740 44.753,83.400 44.212 C 84.941 42.949,84.605 42.953,82.811 44.220 M267.766 70.932 C 265.547 73.169,262.985 75.720,262.073 76.600 C 260.876 77.756,232.668 105.918,227.854 110.764 C 227.604 111.016,211.875 126.775,192.900 145.784 C 173.925 164.794,158.400 180.513,158.400 180.714 C 158.400 180.916,157.860 181.646,157.200 182.337 C 156.540 183.028,156.000 183.864,156.000 184.196 C 156.000 184.528,155.847 184.800,155.660 184.800 C 155.473 184.800,154.709 186.015,153.962 187.500 C 153.215 188.985,152.468 190.260,152.302 190.333 C 151.849 190.533,151.938 192.400,152.400 192.400 C 152.620 192.400,152.800 192.051,152.800 191.624 C 152.800 191.197,152.980 190.736,153.200 190.600 C 153.420 190.464,153.600 190.003,153.600 189.576 C 153.600 189.149,153.780 188.800,154.000 188.800 C 154.220 188.800,154.400 188.530,154.400 188.200 C 154.400 187.870,154.580 187.600,154.800 187.600 C 155.020 187.600,155.200 187.240,155.200 186.800 C 155.200 186.360,155.380 186.000,155.600 186.000 C 155.820 186.000,156.000 185.730,156.000 185.400 C 156.000 185.070,156.180 184.800,156.400 184.800 C 156.620 184.800,156.800 184.570,156.800 184.288 C 156.800 184.007,157.160 183.517,157.600 183.200 C 158.040 182.883,158.400 182.393,158.400 182.112 C 158.400 181.830,158.580 181.600,158.800 181.600 C 159.020 181.600,159.200 181.424,159.200 181.209 C 159.200 180.672,218.689 121.200,219.227 121.200 C 220.164 121.200,222.305 124.373,224.626 129.200 C 226.783 133.685,226.936 134.363,226.927 139.400 C 226.921 143.160,226.751 144.338,225.566 148.800 C 224.905 151.290,224.641 158.724,225.173 159.875 C 225.408 160.384,225.822 161.295,226.093 161.900 C 226.731 163.326,232.644 169.239,234.200 170.007 C 234.860 170.333,236.808 171.455,238.529 172.500 C 240.251 173.545,241.748 174.400,241.857 174.400 C 245.142 174.400,255.591 187.860,253.907 189.921 C 250.760 193.775,209.922 233.885,208.662 234.361 C 208.428 234.449,207.879 234.854,207.443 235.261 C 207.006 235.667,206.428 236.000,206.158 236.000 C 205.888 236.000,205.607 236.135,205.533 236.300 C 205.345 236.724,200.401 239.200,199.744 239.200 C 199.445 239.200,199.200 239.386,199.200 239.613 C 199.200 240.250,200.400 240.560,200.907 240.053 C 201.156 239.804,201.684 239.600,202.080 239.600 C 202.476 239.600,202.800 239.420,202.800 239.200 C 202.800 238.980,203.048 238.800,203.351 238.800 C 203.654 238.800,204.124 238.532,204.396 238.204 C 204.668 237.877,205.050 237.707,205.245 237.828 C 205.440 237.949,205.600 237.857,205.600 237.624 C 205.600 237.391,205.836 237.200,206.125 237.200 C 206.413 237.200,207.036 236.840,207.508 236.400 C 207.980 235.960,208.541 235.600,208.754 235.600 C 208.967 235.600,210.205 234.520,211.505 233.200 C 212.804 231.880,214.062 230.800,214.299 230.800 C 214.863 230.800,237.164 208.497,236.882 208.215 C 236.764 208.097,236.870 208.000,237.119 208.000 C 237.663 208.000,261.200 184.478,261.200 183.934 C 261.200 183.724,261.335 183.626,261.500 183.716 C 261.896 183.930,268.408 177.342,268.103 177.036 C 267.973 176.906,268.050 176.800,268.275 176.800 C 268.781 176.800,276.800 168.821,276.800 168.318 C 276.800 168.117,276.980 168.064,277.200 168.200 C 277.420 168.336,277.600 168.156,277.600 167.800 C 277.600 167.444,277.735 167.226,277.900 167.316 C 278.296 167.531,284.009 161.742,283.703 161.436 C 283.573 161.306,283.777 161.200,284.157 161.200 C 284.537 161.200,284.736 161.020,284.600 160.800 C 284.464 160.580,284.544 160.400,284.778 160.400 C 285.011 160.400,286.417 159.111,287.901 157.536 C 289.386 155.961,290.829 154.476,291.108 154.236 C 293.255 152.395,294.000 151.616,294.000 151.216 C 294.000 150.961,294.135 150.826,294.300 150.916 C 294.696 151.130,301.208 144.542,300.903 144.236 C 300.773 144.106,300.894 144.000,301.173 144.000 C 301.611 144.000,302.371 143.282,304.236 141.108 C 304.476 140.829,305.961 139.386,307.536 137.901 C 309.111 136.417,310.400 135.011,310.400 134.778 C 310.400 134.544,310.580 134.464,310.800 134.600 C 311.020 134.736,311.200 134.556,311.200 134.200 C 311.200 133.844,311.335 133.626,311.500 133.716 C 311.896 133.931,317.609 128.142,317.303 127.836 C 317.173 127.706,317.377 127.600,317.757 127.600 C 318.137 127.600,318.336 127.420,318.200 127.200 C 318.064 126.980,318.136 126.800,318.360 126.800 C 319.102 126.800,325.179 120.219,325.190 119.403 C 325.204 118.281,273.690 66.788,272.597 66.832 C 272.144 66.850,270.058 68.620,267.766 70.932 M54.093 70.800 C 53.818 71.240,53.731 71.600,53.900 71.600 C 54.069 71.600,54.432 71.240,54.707 70.800 C 54.982 70.360,55.069 70.000,54.900 70.000 C 54.731 70.000,54.368 70.360,54.093 70.800 M113.600 113.400 C 113.083 113.950,112.790 114.400,112.948 114.400 C 113.107 114.400,113.686 113.950,114.236 113.400 C 114.786 112.850,115.080 112.400,114.888 112.400 C 114.696 112.400,114.117 112.850,113.600 113.400 M151.200 193.153 C 151.200 193.593,151.020 194.064,150.800 194.200 C 150.580 194.336,150.400 194.876,150.400 195.400 C 150.400 195.924,150.220 196.464,150.000 196.600 C 149.394 196.975,149.488 199.705,150.100 199.494 C 150.375 199.399,150.589 198.799,150.575 198.161 C 150.561 197.522,150.763 196.785,151.024 196.523 C 151.284 196.260,151.405 195.558,151.291 194.963 C 151.148 194.214,151.225 193.968,151.542 194.164 C 151.828 194.341,152.000 194.146,152.000 193.647 C 152.000 193.207,151.820 192.736,151.600 192.600 C 151.380 192.464,151.200 192.713,151.200 193.153 M149.047 200.671 C 148.694 201.759,148.850 204.816,149.246 204.572 C 149.772 204.247,150.009 202.226,149.666 201.000 C 149.352 199.879,149.311 199.858,149.047 200.671 M322.400 207.200 C 322.400 209.333,322.237 210.800,322.000 210.800 C 321.767 210.800,321.600 212.133,321.600 214.000 C 321.600 215.867,321.433 217.200,321.200 217.200 C 320.980 217.200,320.800 218.179,320.800 219.376 C 320.800 220.573,320.620 221.664,320.400 221.800 C 320.180 221.936,320.000 222.836,320.000 223.800 C 320.000 224.764,319.820 225.664,319.600 225.800 C 319.380 225.936,319.200 226.757,319.200 227.624 C 319.200 228.491,319.020 229.200,318.800 229.200 C 318.580 229.200,318.400 229.819,318.400 230.576 C 318.400 231.333,318.220 232.064,318.000 232.200 C 317.780 232.336,317.600 232.977,317.600 233.624 C 317.600 234.271,317.420 234.800,317.200 234.800 C 316.980 234.800,316.800 235.329,316.800 235.976 C 316.800 236.623,316.620 237.264,316.400 237.400 C 316.180 237.536,316.000 238.087,316.000 238.624 C 316.000 239.161,315.820 239.600,315.600 239.600 C 315.380 239.600,315.200 240.140,315.200 240.800 C 315.200 241.460,315.020 242.000,314.800 242.000 C 314.580 242.000,314.400 242.450,314.400 243.000 C 314.400 243.550,314.220 244.000,314.000 244.000 C 313.780 244.000,313.600 244.349,313.600 244.776 C 313.600 245.203,313.420 245.664,313.200 245.800 C 312.980 245.936,312.800 246.487,312.800 247.024 C 312.800 247.561,312.620 248.000,312.400 248.000 C 312.180 248.000,312.000 248.360,312.000 248.800 C 312.000 249.240,311.820 249.600,311.600 249.600 C 311.380 249.600,311.200 249.860,311.200 250.178 C 311.200 250.496,310.570 252.011,309.800 253.546 C 309.030 255.080,308.400 256.620,308.400 256.968 C 308.400 257.315,308.254 257.600,308.075 257.600 C 307.896 257.600,307.502 258.230,307.200 259.000 C 306.898 259.770,306.504 260.400,306.325 260.400 C 306.146 260.400,306.000 260.670,306.000 261.000 C 306.000 261.330,305.820 261.600,305.600 261.600 C 305.380 261.600,305.200 261.870,305.200 262.200 C 305.200 262.530,305.020 262.800,304.800 262.800 C 304.580 262.800,304.400 263.120,304.400 263.512 C 304.400 263.903,304.040 264.483,303.600 264.800 C 303.160 265.117,302.800 265.697,302.800 266.088 C 302.800 266.480,302.650 266.800,302.468 266.800 C 302.285 266.800,301.881 267.295,301.570 267.900 C 301.260 268.505,300.689 269.291,300.303 269.647 C 299.916 270.003,299.600 270.453,299.599 270.647 C 299.599 270.841,299.059 271.630,298.400 272.400 C 297.741 273.170,297.201 273.953,297.201 274.140 C 297.200 274.326,296.692 274.956,296.072 275.540 C 295.451 276.123,294.775 276.904,294.570 277.275 C 294.089 278.144,288.722 284.008,286.447 286.150 C 285.483 287.057,283.540 288.922,282.129 290.294 C 280.718 291.665,278.896 293.285,278.082 293.892 C 277.267 294.500,276.123 295.493,275.540 296.099 C 274.956 296.704,274.263 297.200,274.000 297.200 C 273.737 297.200,273.017 297.740,272.400 298.400 C 271.783 299.060,271.031 299.600,270.728 299.600 C 270.425 299.600,269.917 299.960,269.600 300.400 C 269.283 300.840,268.743 301.200,268.400 301.200 C 268.057 301.200,267.517 301.560,267.200 302.000 C 266.883 302.440,266.380 302.800,266.083 302.800 C 265.546 302.800,264.400 303.734,264.400 304.171 C 264.400 304.297,264.628 304.400,264.906 304.400 C 265.184 304.400,266.396 305.975,267.598 307.900 C 270.923 313.225,286.438 337.002,288.255 339.560 C 288.505 339.912,290.108 342.360,291.815 345.000 C 293.523 347.640,296.963 352.910,299.460 356.711 C 301.957 360.512,304.000 363.797,304.000 364.011 C 304.000 364.225,304.270 364.400,304.600 364.400 C 304.930 364.400,305.200 364.220,305.200 364.000 C 305.200 363.780,305.436 363.600,305.725 363.600 C 306.013 363.600,306.636 363.240,307.108 362.800 C 307.580 362.360,308.114 362.000,308.295 362.000 C 308.476 362.000,308.883 361.640,309.200 361.200 C 309.517 360.760,310.057 360.400,310.400 360.400 C 310.743 360.400,311.283 360.040,311.600 359.600 C 311.917 359.160,312.414 358.800,312.705 358.800 C 313.201 358.800,313.621 358.523,314.985 357.300 C 315.292 357.025,315.709 356.800,315.912 356.800 C 316.115 356.800,316.846 356.260,317.537 355.600 C 318.228 354.940,318.974 354.400,319.196 354.400 C 319.418 354.400,319.600 354.220,319.600 354.000 C 319.600 353.780,319.798 353.600,320.040 353.600 C 320.281 353.600,320.983 353.060,321.600 352.400 C 322.217 351.740,322.828 351.200,322.958 351.200 C 323.089 351.200,324.115 350.300,325.239 349.200 C 326.362 348.100,327.437 347.200,327.628 347.200 C 328.422 347.200,347.200 328.440,347.200 327.647 C 347.200 327.446,348.100 326.362,349.200 325.239 C 350.300 324.115,351.200 323.089,351.200 322.958 C 351.200 322.828,351.740 322.217,352.400 321.600 C 353.060 320.983,353.600 320.281,353.600 320.040 C 353.600 319.798,353.780 319.600,354.000 319.600 C 354.220 319.600,354.400 319.410,354.400 319.178 C 354.400 318.946,354.939 318.181,355.598 317.478 C 356.257 316.775,356.797 316.052,356.798 315.871 C 356.799 315.691,357.025 315.292,357.300 314.985 C 358.523 313.621,358.800 313.201,358.800 312.705 C 358.800 312.414,359.160 311.917,359.600 311.600 C 360.040 311.283,360.400 310.743,360.400 310.400 C 360.400 310.057,360.760 309.517,361.200 309.200 C 361.640 308.883,362.000 308.433,362.000 308.200 C 362.000 307.967,362.360 307.517,362.800 307.200 C 363.240 306.883,363.600 306.343,363.600 306.000 C 363.600 305.657,363.960 305.117,364.400 304.800 C 364.840 304.483,365.200 303.986,365.200 303.695 C 365.200 303.404,365.560 302.780,366.000 302.308 C 366.440 301.836,366.800 301.213,366.800 300.925 C 366.800 300.636,366.980 300.400,367.200 300.400 C 367.420 300.400,367.600 300.040,367.600 299.600 C 367.600 299.160,367.758 298.800,367.951 298.800 C 368.145 298.800,368.527 298.260,368.800 297.600 C 369.073 296.940,369.455 296.400,369.649 296.400 C 369.842 296.400,370.000 296.040,370.000 295.600 C 370.000 295.160,370.180 294.800,370.400 294.800 C 370.620 294.800,370.800 294.440,370.800 294.000 C 370.800 293.560,370.980 293.200,371.200 293.200 C 371.420 293.200,371.600 292.855,371.600 292.433 C 371.600 292.012,371.742 291.607,371.916 291.533 C 372.089 291.460,372.918 289.960,373.757 288.200 C 374.595 286.440,375.443 284.687,375.641 284.305 C 375.838 283.923,376.000 283.338,376.000 283.005 C 376.000 282.672,376.180 282.400,376.400 282.400 C 376.620 282.400,376.800 282.040,376.800 281.600 C 376.800 281.160,376.980 280.800,377.200 280.800 C 377.420 280.800,377.600 280.440,377.600 280.000 C 377.600 279.560,377.780 279.200,378.000 279.200 C 378.220 279.200,378.400 278.840,378.400 278.400 C 378.400 277.960,378.580 277.600,378.800 277.600 C 379.020 277.600,379.200 277.060,379.200 276.400 C 379.200 275.740,379.380 275.200,379.600 275.200 C 379.820 275.200,380.000 274.840,380.000 274.400 C 380.000 273.960,380.180 273.600,380.400 273.600 C 380.620 273.600,380.800 273.150,380.800 272.600 C 380.800 272.050,380.980 271.600,381.200 271.600 C 381.420 271.600,381.600 271.240,381.600 270.800 C 381.600 270.360,381.780 270.000,382.000 270.000 C 382.220 270.000,382.400 269.460,382.400 268.800 C 382.400 268.140,382.580 267.600,382.800 267.600 C 383.020 267.600,383.200 267.060,383.200 266.400 C 383.200 265.740,383.380 265.200,383.600 265.200 C 383.820 265.200,384.000 264.761,384.000 264.224 C 384.000 263.687,384.180 263.136,384.400 263.000 C 384.620 262.864,384.800 262.324,384.800 261.800 C 384.800 261.276,384.980 260.736,385.200 260.600 C 385.420 260.464,385.600 259.823,385.600 259.176 C 385.600 258.529,385.780 258.000,386.000 258.000 C 386.220 258.000,386.400 257.561,386.400 257.024 C 386.400 256.487,386.580 255.936,386.800 255.800 C 387.020 255.664,387.200 255.034,387.200 254.400 C 387.200 253.766,387.380 253.136,387.600 253.000 C 387.820 252.864,388.000 252.234,388.000 251.600 C 388.000 250.966,388.180 250.336,388.400 250.200 C 388.620 250.064,388.800 249.344,388.800 248.600 C 388.800 247.856,388.961 247.148,389.158 247.026 C 389.355 246.905,389.615 246.129,389.737 245.303 C 389.859 244.476,390.140 242.900,390.361 241.800 C 390.582 240.700,390.941 238.900,391.158 237.800 C 391.375 236.700,391.563 234.855,391.576 233.700 C 391.589 232.545,391.780 231.600,392.000 231.600 C 392.229 231.600,392.400 230.400,392.400 228.800 C 392.400 227.200,392.571 226.000,392.800 226.000 C 393.033 226.000,393.200 224.667,393.200 222.800 C 393.200 220.933,393.367 219.600,393.600 219.600 C 393.848 219.600,394.000 217.408,394.000 213.824 C 394.000 210.404,394.163 207.946,394.400 207.800 C 394.620 207.664,394.800 206.663,394.800 205.576 L 394.800 203.600 358.600 203.600 L 322.400 203.600 322.400 207.200 M148.048 208.200 C 147.959 210.397,148.503 211.167,149.011 209.565 C 149.319 208.595,148.911 206.000,148.450 206.000 C 148.278 206.000,148.097 206.990,148.048 208.200 M147.262 212.706 C 147.208 213.514,146.967 214.297,146.727 214.445 C 146.487 214.594,146.380 215.184,146.490 215.757 C 146.618 216.426,146.512 216.800,146.195 216.800 C 145.923 216.800,145.700 217.270,145.700 217.845 C 145.700 218.421,145.536 219.006,145.337 219.145 C 144.811 219.514,144.915 220.505,145.500 220.700 C 145.814 220.805,146.000 220.482,146.000 219.833 C 146.000 219.265,146.180 218.800,146.400 218.800 C 146.620 218.800,146.800 218.361,146.800 217.824 C 146.800 217.287,146.995 216.727,147.232 216.580 C 147.470 216.433,147.562 215.903,147.436 215.402 C 147.296 214.844,147.439 214.300,147.804 213.997 C 148.538 213.387,148.576 212.244,147.881 211.667 C 147.473 211.328,147.340 211.552,147.262 212.706 M144.150 221.415 C 144.280 221.753,144.139 222.125,143.837 222.241 C 143.522 222.362,143.375 222.781,143.491 223.226 C 143.604 223.657,143.491 224.000,143.237 224.000 C 142.986 224.000,142.605 224.405,142.391 224.900 C 141.828 226.202,141.100 227.295,140.300 228.041 C 139.915 228.400,139.600 228.885,139.600 229.120 C 139.600 229.354,138.176 230.983,136.435 232.741 C 134.694 234.498,133.374 236.040,133.501 236.168 C 133.629 236.296,133.423 236.400,133.043 236.400 C 132.663 236.400,132.464 236.580,132.600 236.800 C 132.736 237.020,132.643 237.200,132.393 237.200 C 131.823 237.200,125.600 243.607,125.600 244.193 C 125.600 244.430,125.240 244.883,124.800 245.200 C 124.360 245.517,124.000 246.097,124.000 246.488 C 124.000 246.880,123.820 247.200,123.600 247.200 C 123.380 247.200,123.200 247.560,123.200 248.000 C 123.200 248.440,123.020 248.800,122.800 248.800 C 122.580 248.800,122.400 249.419,122.400 250.176 C 122.400 250.933,122.580 251.664,122.800 251.800 C 123.038 251.947,123.200 251.471,123.200 250.624 C 123.200 249.841,123.380 249.200,123.600 249.200 C 123.820 249.200,124.000 248.840,124.000 248.400 C 124.000 247.960,124.180 247.600,124.400 247.600 C 124.620 247.600,124.800 247.280,124.800 246.888 C 124.800 246.497,125.160 245.917,125.600 245.600 C 126.040 245.283,126.400 244.831,126.400 244.596 C 126.400 244.360,129.550 240.996,133.400 237.119 C 137.250 233.242,140.400 229.824,140.400 229.523 C 140.400 229.223,140.760 228.717,141.200 228.400 C 141.640 228.083,142.000 227.543,142.000 227.200 C 142.000 226.857,142.360 226.317,142.800 226.000 C 143.240 225.683,143.600 225.103,143.600 224.712 C 143.600 224.320,143.780 224.000,144.000 224.000 C 144.220 224.000,144.400 223.640,144.400 223.200 C 144.400 222.760,144.580 222.400,144.800 222.400 C 145.020 222.400,145.200 222.040,145.200 221.600 C 145.200 221.132,144.933 220.800,144.557 220.800 C 144.143 220.800,143.998 221.019,144.150 221.415 M197.200 240.400 C 197.200 240.620,196.660 240.800,196.000 240.800 C 195.340 240.800,194.800 240.980,194.800 241.200 C 194.800 241.420,195.223 241.600,195.740 241.600 C 197.104 241.600,199.237 240.783,198.976 240.361 C 198.672 239.869,197.200 239.902,197.200 240.400 M191.200 242.000 C 191.200 242.220,191.819 242.400,192.576 242.400 C 193.333 242.400,194.064 242.220,194.200 242.000 C 194.349 241.758,193.804 241.600,192.824 241.600 C 191.931 241.600,191.200 241.780,191.200 242.000 M186.000 242.800 C 186.000 243.022,187.067 243.200,188.400 243.200 C 189.733 243.200,190.800 243.022,190.800 242.800 C 190.800 242.578,189.733 242.400,188.400 242.400 C 187.067 242.400,186.000 242.578,186.000 242.800 M180.600 243.600 C 180.448 243.847,181.129 244.000,182.376 244.000 C 183.489 244.000,184.400 243.820,184.400 243.600 C 184.400 243.380,183.601 243.200,182.624 243.200 C 181.647 243.200,180.736 243.380,180.600 243.600 M177.200 244.400 C 177.200 244.620,177.830 244.800,178.600 244.800 C 179.370 244.800,180.000 244.620,180.000 244.400 C 180.000 244.180,179.370 244.000,178.600 244.000 C 177.830 244.000,177.200 244.180,177.200 244.400 M174.800 245.200 C 174.800 245.420,175.250 245.600,175.800 245.600 C 176.350 245.600,176.800 245.420,176.800 245.200 C 176.800 244.980,176.350 244.800,175.800 244.800 C 175.250 244.800,174.800 244.980,174.800 245.200 M172.800 246.000 C 172.800 246.220,173.160 246.400,173.600 246.400 C 174.040 246.400,174.400 246.220,174.400 246.000 C 174.400 245.780,174.040 245.600,173.600 245.600 C 173.160 245.600,172.800 245.780,172.800 246.000 M170.800 246.800 C 170.800 247.020,170.440 247.200,170.000 247.200 C 169.560 247.200,169.200 247.380,169.200 247.600 C 169.200 247.820,168.864 248.000,168.454 248.000 C 168.044 248.000,167.279 248.320,166.754 248.711 C 166.229 249.101,165.350 249.648,164.800 249.926 C 164.250 250.204,162.990 251.141,162.000 252.009 C 161.010 252.877,160.076 253.590,159.925 253.594 C 159.773 253.597,156.536 256.660,152.730 260.400 C 148.924 264.140,145.592 267.200,145.325 267.200 C 145.058 267.200,144.696 267.425,144.520 267.700 C 144.344 267.975,143.975 268.200,143.700 268.200 C 142.804 268.200,142.975 268.996,143.900 269.128 C 144.395 269.198,144.800 269.063,144.800 268.828 C 144.800 268.593,145.076 268.400,145.413 268.400 C 145.751 268.400,148.766 265.651,152.113 262.291 C 155.461 258.931,158.830 255.746,159.600 255.213 C 160.370 254.681,161.431 253.740,161.958 253.122 C 162.485 252.505,163.132 252.000,163.396 252.000 C 163.660 252.000,164.202 251.640,164.600 251.200 C 164.998 250.760,165.613 250.400,165.966 250.400 C 166.319 250.400,166.832 250.040,167.107 249.600 C 167.382 249.160,167.965 248.800,168.403 248.800 C 168.842 248.800,169.201 248.665,169.203 248.500 C 169.207 248.089,171.191 247.200,172.103 247.200 C 172.512 247.200,172.736 247.020,172.600 246.800 C 172.464 246.580,172.003 246.400,171.576 246.400 C 171.149 246.400,170.800 246.580,170.800 246.800 M121.600 254.576 C 121.600 255.553,121.780 256.464,122.000 256.600 C 122.247 256.752,122.400 256.071,122.400 254.824 C 122.400 253.711,122.220 252.800,122.000 252.800 C 121.780 252.800,121.600 253.599,121.600 254.576 M122.400 259.200 C 122.400 259.860,122.580 260.400,122.800 260.400 C 123.020 260.400,123.200 260.760,123.200 261.200 C 123.200 261.640,123.380 262.000,123.600 262.000 C 123.820 262.000,124.000 262.225,124.000 262.500 C 124.001 262.775,124.406 263.478,124.900 264.063 C 125.395 264.647,126.065 265.502,126.388 265.963 C 126.712 266.423,127.217 266.800,127.512 266.800 C 127.806 266.800,127.949 266.959,127.829 267.154 C 127.709 267.348,128.148 267.730,128.805 268.002 C 129.462 268.274,130.000 268.655,130.000 268.849 C 130.000 269.042,130.450 269.200,131.000 269.200 C 131.622 269.200,132.000 268.973,132.000 268.600 C 132.000 268.267,131.644 268.000,131.200 268.000 C 130.760 268.000,130.400 267.820,130.400 267.600 C 130.400 267.380,130.114 267.200,129.765 267.200 C 128.906 267.200,125.087 263.297,124.377 261.692 C 124.062 260.982,123.669 260.400,123.502 260.400 C 123.336 260.400,123.200 259.860,123.200 259.200 C 123.200 258.540,123.020 258.000,122.800 258.000 C 122.580 258.000,122.400 258.540,122.400 259.200 M132.685 269.048 C 132.049 269.684,132.476 270.020,133.806 269.930 C 134.579 269.878,135.150 269.648,135.075 269.418 C 134.913 268.921,133.093 268.640,132.685 269.048 M139.800 269.438 C 139.045 270.016,139.088 270.043,140.569 269.925 C 141.432 269.856,142.212 269.575,142.302 269.300 C 142.535 268.591,140.780 268.688,139.800 269.438 " stroke="none" fill="#e57eba" fill-rule="evenodd"></path><path id="path1" d="M192.400 5.600 C 192.070 5.813,189.426 5.991,186.524 5.994 C 183.104 5.998,181.151 6.156,180.974 6.443 C 180.783 6.751,180.596 6.721,180.356 6.343 C 180.103 5.943,180.011 5.932,180.006 6.300 C 180.002 6.655,179.135 6.800,177.024 6.800 C 175.387 6.800,173.936 6.980,173.800 7.200 C 173.664 7.420,172.519 7.600,171.256 7.600 C 169.993 7.600,168.789 7.767,168.580 7.970 C 168.371 8.174,167.210 8.382,166.000 8.434 C 164.790 8.486,163.576 8.700,163.302 8.911 C 163.028 9.122,162.451 9.202,162.018 9.089 C 161.586 8.976,160.554 9.116,159.725 9.401 C 158.897 9.686,157.900 9.858,157.509 9.783 C 157.119 9.707,156.800 9.777,156.800 9.938 C 156.800 10.098,156.249 10.272,155.575 10.323 C 153.900 10.451,153.434 10.556,153.200 10.860 C 153.090 11.003,152.370 11.173,151.600 11.239 C 150.830 11.305,149.990 11.512,149.733 11.701 C 149.476 11.889,148.846 12.092,148.333 12.152 C 147.301 12.274,146.186 12.650,145.058 13.259 C 144.519 13.549,144.394 13.533,144.600 13.200 C 144.804 12.870,144.675 12.849,144.142 13.124 C 142.322 14.063,141.324 14.440,140.493 14.503 C 140.002 14.540,139.600 14.712,139.600 14.885 C 139.600 15.058,139.148 15.200,138.595 15.200 C 138.042 15.200,137.277 15.359,136.895 15.553 C 135.063 16.485,134.113 16.841,133.293 16.903 C 132.802 16.940,132.400 17.112,132.400 17.285 C 132.400 17.458,131.961 17.600,131.424 17.600 C 130.887 17.600,130.336 17.780,130.200 18.000 C 130.064 18.220,129.603 18.400,129.176 18.400 C 128.749 18.400,128.400 18.580,128.400 18.800 C 128.400 19.020,128.051 19.200,127.624 19.200 C 127.197 19.200,126.736 19.380,126.600 19.600 C 126.464 19.820,126.003 20.000,125.576 20.000 C 125.149 20.000,124.800 20.180,124.800 20.400 C 124.800 20.620,124.476 20.800,124.080 20.800 C 123.186 20.800,121.207 21.694,121.203 22.100 C 121.201 22.265,120.851 22.400,120.424 22.400 C 119.997 22.400,119.536 22.580,119.400 22.800 C 119.264 23.020,118.803 23.200,118.376 23.200 C 117.949 23.200,117.600 23.380,117.600 23.600 C 117.600 23.820,117.240 24.000,116.800 24.000 C 116.360 24.000,116.000 24.159,116.000 24.353 C 116.000 24.677,115.118 25.070,113.607 25.419 C 113.281 25.495,112.951 25.746,112.874 25.978 C 112.797 26.210,112.388 26.400,111.967 26.400 C 111.545 26.400,111.200 26.610,111.200 26.867 C 111.200 27.123,111.085 27.218,110.945 27.078 C 110.804 26.938,109.573 27.447,108.210 28.210 C 106.846 28.972,105.582 29.462,105.401 29.298 C 105.220 29.134,105.201 29.225,105.359 29.500 C 105.546 29.824,105.384 30.000,104.899 30.000 C 104.488 30.000,103.797 30.315,103.363 30.700 C 102.103 31.820,100.140 32.804,99.792 32.489 C 99.616 32.330,99.601 32.425,99.759 32.700 C 99.937 33.009,99.809 33.200,99.424 33.200 C 99.081 33.200,98.800 33.380,98.800 33.600 C 98.800 33.820,98.612 34.000,98.383 34.000 C 98.154 34.000,97.587 34.354,97.123 34.786 C 96.659 35.219,96.137 35.485,95.964 35.378 C 95.791 35.271,95.503 35.423,95.325 35.715 C 95.146 36.008,94.417 36.482,93.705 36.770 C 92.993 37.058,92.509 37.452,92.629 37.646 C 92.749 37.841,92.601 38.000,92.299 38.000 C 91.998 38.000,91.402 38.315,90.975 38.700 C 90.549 39.085,89.705 39.655,89.100 39.968 C 88.495 40.280,88.000 40.685,88.000 40.868 C 88.000 41.050,87.683 41.200,87.296 41.200 C 86.909 41.200,86.357 41.578,86.069 42.039 C 85.780 42.500,85.443 42.776,85.319 42.653 C 85.195 42.529,84.736 42.882,84.299 43.438 C 83.846 44.013,83.257 44.354,82.931 44.229 C 82.616 44.108,82.458 44.169,82.579 44.365 C 82.700 44.561,82.214 45.095,81.499 45.552 C 78.840 47.250,77.264 48.552,73.332 52.300 C 72.120 53.455,71.010 54.402,70.865 54.404 C 70.719 54.406,69.299 55.639,67.708 57.145 C 66.117 58.650,64.767 59.847,64.708 59.804 C 64.649 59.760,63.472 60.867,62.093 62.262 C 60.714 63.658,59.666 64.800,59.764 64.800 C 59.861 64.800,58.874 65.894,57.571 67.230 C 56.267 68.567,55.200 69.790,55.200 69.949 C 55.200 70.108,54.255 71.244,53.100 72.472 C 50.590 75.142,49.800 76.088,49.716 76.530 C 49.631 76.971,47.967 78.400,47.539 78.400 C 47.352 78.400,47.239 78.535,47.286 78.700 C 47.441 79.237,45.016 82.369,44.433 82.385 C 44.122 82.393,43.978 82.511,44.114 82.648 C 44.250 82.784,44.145 83.138,43.881 83.434 C 42.729 84.723,42.383 85.200,42.600 85.200 C 42.727 85.200,42.464 85.594,42.016 86.075 C 41.567 86.557,41.200 87.147,41.200 87.387 C 41.200 87.627,40.840 88.083,40.400 88.400 C 39.960 88.717,39.600 89.257,39.600 89.600 C 39.600 89.943,39.240 90.483,38.800 90.800 C 38.360 91.117,38.000 91.707,38.000 92.112 C 38.000 92.516,37.820 92.736,37.600 92.600 C 37.380 92.464,37.200 92.633,37.200 92.976 C 37.200 93.319,37.020 93.600,36.800 93.600 C 36.580 93.600,36.400 93.788,36.400 94.017 C 36.400 94.246,36.040 94.820,35.600 95.292 C 35.160 95.764,34.800 96.387,34.800 96.675 C 34.800 96.964,34.620 97.200,34.400 97.200 C 34.180 97.200,34.000 97.560,34.000 98.000 C 34.000 98.440,33.820 98.800,33.600 98.800 C 33.380 98.800,33.200 99.036,33.200 99.325 C 33.200 99.613,32.840 100.236,32.400 100.708 C 31.960 101.180,31.600 101.829,31.600 102.150 C 31.600 102.471,31.433 102.793,31.230 102.867 C 31.026 102.940,30.801 103.270,30.730 103.600 C 30.658 103.930,30.285 104.491,29.900 104.847 C 29.515 105.203,29.200 105.788,29.200 106.147 C 29.200 106.506,29.020 106.800,28.800 106.800 C 28.580 106.800,28.400 107.145,28.400 107.567 C 28.400 107.988,28.265 108.393,28.100 108.467 C 27.691 108.649,25.467 113.214,25.467 113.872 C 25.467 114.162,25.317 114.400,25.133 114.400 C 24.950 114.400,24.800 114.760,24.800 115.200 C 24.800 115.640,24.620 116.000,24.400 116.000 C 24.180 116.000,24.000 116.360,24.000 116.800 C 24.000 117.240,23.820 117.600,23.600 117.600 C 23.380 117.600,23.200 117.960,23.200 118.400 C 23.200 118.840,23.020 119.200,22.800 119.200 C 22.580 119.200,22.400 119.560,22.400 120.000 C 22.400 120.440,22.220 120.800,22.000 120.800 C 21.780 120.800,21.600 121.239,21.600 121.776 C 21.600 122.313,21.420 122.864,21.200 123.000 C 20.980 123.136,20.800 123.597,20.800 124.024 C 20.800 124.451,20.620 124.800,20.400 124.800 C 20.180 124.800,20.000 125.160,20.000 125.600 C 20.000 126.040,19.820 126.400,19.600 126.400 C 19.380 126.400,19.200 126.850,19.200 127.400 C 19.200 127.950,19.020 128.400,18.800 128.400 C 18.580 128.400,18.400 128.940,18.400 129.600 C 18.400 130.260,18.220 130.800,18.000 130.800 C 17.780 130.800,17.600 131.261,17.600 131.824 C 17.600 132.387,17.458 132.760,17.285 132.652 C 17.112 132.545,16.930 132.940,16.881 133.529 C 16.833 134.118,16.615 134.660,16.397 134.733 C 16.178 134.807,16.000 135.392,16.000 136.033 C 16.000 136.675,15.820 137.200,15.600 137.200 C 15.380 137.200,15.200 137.740,15.200 138.400 C 15.200 139.060,15.020 139.600,14.800 139.600 C 14.580 139.600,14.400 140.140,14.400 140.800 C 14.400 141.460,14.220 142.000,14.000 142.000 C 13.780 142.000,13.600 142.540,13.600 143.200 C 13.600 143.860,13.420 144.400,13.200 144.400 C 12.980 144.400,12.800 145.030,12.800 145.800 C 12.800 146.570,12.620 147.200,12.400 147.200 C 12.180 147.200,12.000 147.819,12.000 148.576 C 12.000 149.333,11.840 150.052,11.644 150.173 C 11.291 150.391,10.966 151.840,10.541 155.100 C 10.419 156.035,10.176 156.800,10.000 156.800 C 9.824 156.800,9.586 157.565,9.471 158.500 C 9.356 159.435,9.160 160.740,9.036 161.400 C 8.912 162.060,8.692 163.905,8.547 165.500 C 8.401 167.095,8.129 168.400,7.941 168.400 C 7.754 168.400,7.600 169.660,7.600 171.200 C 7.600 172.800,7.429 174.000,7.200 174.000 C 6.963 174.000,6.800 175.475,6.800 177.624 C 6.800 179.937,6.655 181.158,6.400 181.000 C 6.139 180.839,6.000 183.070,6.000 187.400 C 6.000 191.730,5.861 193.961,5.600 193.800 C 5.340 193.639,5.200 195.855,5.200 200.153 C 5.200 204.121,5.359 206.851,5.600 207.000 C 5.838 207.147,6.000 209.671,6.000 213.224 C 6.000 216.941,6.151 219.200,6.400 219.200 C 6.635 219.200,6.800 220.600,6.800 222.600 C 6.800 224.600,6.965 226.000,7.200 226.000 C 7.425 226.000,7.600 227.125,7.600 228.576 C 7.600 229.993,7.753 231.247,7.940 231.363 C 8.127 231.479,8.400 232.884,8.545 234.487 C 8.691 236.089,8.896 237.850,8.999 238.400 C 9.103 238.950,9.293 240.030,9.421 240.800 C 9.550 241.570,9.811 242.560,10.002 243.000 C 10.194 243.440,10.452 244.475,10.575 245.300 C 11.089 248.728,11.306 249.600,11.644 249.600 C 11.840 249.600,12.000 250.219,12.000 250.976 C 12.000 251.733,12.180 252.464,12.400 252.600 C 12.620 252.736,12.800 253.366,12.800 254.000 C 12.800 254.634,12.980 255.264,13.200 255.400 C 13.420 255.536,13.600 256.177,13.600 256.824 C 13.600 257.471,13.780 258.000,14.000 258.000 C 14.220 258.000,14.400 258.540,14.400 259.200 C 14.400 259.860,14.580 260.400,14.800 260.400 C 15.020 260.400,15.200 260.839,15.200 261.376 C 15.200 261.913,15.380 262.464,15.600 262.600 C 15.820 262.736,16.000 263.276,16.000 263.800 C 16.000 264.324,16.180 264.864,16.400 265.000 C 16.620 265.136,16.800 265.676,16.800 266.200 C 16.800 266.724,16.980 267.264,17.200 267.400 C 17.420 267.536,17.600 267.997,17.600 268.424 C 17.600 268.851,17.780 269.200,18.000 269.200 C 18.220 269.200,18.400 269.751,18.400 270.424 C 18.400 271.137,18.567 271.544,18.800 271.400 C 19.033 271.256,19.200 271.663,19.200 272.376 C 19.200 273.049,19.380 273.600,19.600 273.600 C 19.820 273.600,20.000 273.960,20.000 274.400 C 20.000 274.840,20.180 275.200,20.400 275.200 C 20.620 275.200,20.800 275.560,20.800 276.000 C 20.800 276.440,20.980 276.800,21.200 276.800 C 21.420 276.800,21.600 277.072,21.600 277.405 C 21.600 277.738,21.780 278.368,22.000 278.805 C 22.220 279.242,22.580 279.958,22.800 280.395 C 23.020 280.832,23.200 281.462,23.200 281.795 C 23.200 282.128,23.380 282.400,23.600 282.400 C 23.820 282.400,24.000 282.760,24.000 283.200 C 24.000 283.640,24.180 284.000,24.400 284.000 C 24.620 284.000,24.800 284.272,24.800 284.605 C 24.800 285.353,27.638 291.350,28.079 291.533 C 28.256 291.607,28.400 291.946,28.400 292.286 C 28.400 292.627,28.715 293.197,29.100 293.553 C 29.485 293.909,29.859 294.470,29.930 294.800 C 30.002 295.130,30.227 295.460,30.430 295.533 C 30.634 295.607,30.800 296.012,30.800 296.433 C 30.800 296.855,30.980 297.200,31.200 297.200 C 31.420 297.200,31.600 297.560,31.600 298.000 C 31.600 298.440,31.780 298.800,32.000 298.800 C 32.220 298.800,32.400 299.036,32.400 299.325 C 32.400 299.613,32.760 300.236,33.200 300.708 C 33.640 301.180,34.000 301.804,34.000 302.095 C 34.000 302.386,34.360 302.883,34.800 303.200 C 35.240 303.517,35.600 304.097,35.600 304.488 C 35.600 304.880,35.780 305.200,36.000 305.200 C 36.220 305.200,36.400 305.470,36.400 305.800 C 36.400 306.130,36.538 306.400,36.706 306.400 C 36.874 306.400,37.456 307.120,38.000 308.000 C 38.544 308.880,39.126 309.600,39.294 309.600 C 39.462 309.600,39.600 309.825,39.601 310.100 C 39.601 310.375,40.141 311.230,40.800 312.000 C 41.459 312.770,41.999 313.594,41.999 313.830 C 42.000 314.067,42.450 314.683,43.000 315.200 C 43.550 315.717,44.000 316.351,44.000 316.610 C 44.000 316.869,44.540 317.646,45.200 318.337 C 45.860 319.028,46.400 319.753,46.400 319.948 C 46.400 320.144,47.120 321.045,48.000 321.952 C 48.880 322.859,49.600 323.684,49.600 323.786 C 49.600 323.888,50.860 325.270,52.400 326.856 C 53.940 328.443,55.200 329.894,55.200 330.081 C 55.200 331.015,59.180 334.395,59.226 333.500 C 59.240 333.225,60.095 332.304,61.126 331.454 C 62.156 330.603,64.888 328.173,67.197 326.054 C 69.505 323.934,72.295 321.394,73.397 320.410 C 74.498 319.425,76.571 317.535,78.002 316.210 C 82.509 312.036,90.105 305.072,92.192 303.200 C 93.295 302.210,95.369 300.305,96.799 298.966 C 101.955 294.139,109.827 286.982,110.902 286.142 C 112.404 284.969,112.355 284.829,109.400 281.815 C 107.970 280.357,106.800 279.018,106.800 278.841 C 106.800 278.664,105.928 277.595,104.861 276.465 C 103.795 275.335,102.973 274.360,103.035 274.299 C 103.096 274.237,102.529 273.472,101.773 272.598 C 101.018 271.724,100.400 270.822,100.400 270.593 C 100.400 270.364,100.040 269.917,99.600 269.600 C 99.160 269.283,98.800 268.827,98.800 268.587 C 98.800 268.347,98.485 267.794,98.100 267.358 C 97.212 266.353,96.017 264.409,95.729 263.500 C 95.607 263.115,95.348 262.800,95.153 262.800 C 94.959 262.800,94.800 262.564,94.800 262.275 C 94.800 261.987,94.440 261.364,94.000 260.892 C 93.560 260.420,93.200 259.756,93.200 259.417 C 93.200 259.078,93.020 258.800,92.800 258.800 C 92.580 258.800,92.400 258.530,92.400 258.200 C 92.400 257.870,92.220 257.600,92.000 257.600 C 91.780 257.600,91.600 257.329,91.600 256.998 C 91.600 256.667,91.150 255.463,90.600 254.323 C 90.050 253.183,89.600 252.014,89.600 251.725 C 89.600 251.436,89.420 251.200,89.200 251.200 C 88.980 251.200,88.800 250.840,88.800 250.400 C 88.800 249.960,88.620 249.600,88.400 249.600 C 88.180 249.600,88.000 249.328,88.000 248.995 C 88.000 248.662,87.820 248.032,87.600 247.595 C 87.380 247.158,87.020 246.442,86.800 246.005 C 86.580 245.568,86.400 244.938,86.400 244.605 C 86.400 244.272,86.220 244.000,86.000 244.000 C 85.780 244.000,85.600 243.550,85.600 243.000 C 85.600 242.450,85.420 242.000,85.200 242.000 C 84.980 242.000,84.800 241.460,84.800 240.800 C 84.800 240.140,84.620 239.600,84.400 239.600 C 84.180 239.600,84.000 239.060,84.000 238.400 C 84.000 237.740,83.820 237.200,83.600 237.200 C 83.380 237.200,83.200 236.660,83.200 236.000 C 83.200 235.340,83.020 234.800,82.800 234.800 C 82.580 234.800,82.400 234.159,82.400 233.376 C 82.400 232.529,82.238 232.053,82.000 232.200 C 81.758 232.349,81.600 231.804,81.600 230.824 C 81.600 229.931,81.420 229.200,81.200 229.200 C 80.980 229.200,80.800 228.390,80.800 227.400 C 80.800 226.410,80.620 225.600,80.400 225.600 C 80.180 225.600,80.000 224.801,80.000 223.824 C 80.000 222.847,79.820 221.936,79.600 221.800 C 79.380 221.664,79.200 220.563,79.200 219.353 C 79.200 217.988,79.048 217.247,78.800 217.400 C 78.545 217.557,78.400 216.412,78.400 214.247 C 78.400 212.377,78.220 210.736,78.000 210.600 C 77.485 210.282,77.456 189.908,77.970 189.380 C 78.173 189.171,78.439 187.650,78.560 186.000 C 78.976 180.306,79.272 177.997,79.562 178.177 C 79.722 178.275,79.896 177.511,79.948 176.478 C 80.000 175.445,80.213 174.540,80.421 174.467 C 80.630 174.393,80.800 173.549,80.800 172.590 C 80.800 171.632,80.980 170.736,81.200 170.600 C 81.420 170.464,81.600 169.924,81.600 169.400 C 81.600 168.876,81.780 168.336,82.000 168.200 C 82.220 168.064,82.400 167.333,82.400 166.576 C 82.400 165.819,82.580 165.200,82.800 165.200 C 83.020 165.200,83.200 164.671,83.200 164.024 C 83.200 163.377,83.380 162.736,83.600 162.600 C 83.820 162.464,84.000 161.913,84.000 161.376 C 84.000 160.839,84.180 160.400,84.400 160.400 C 84.620 160.400,84.800 159.860,84.800 159.200 C 84.800 158.540,84.980 158.000,85.200 158.000 C 85.420 158.000,85.600 157.651,85.600 157.224 C 85.600 156.797,85.780 156.336,86.000 156.200 C 86.220 156.064,86.400 155.603,86.400 155.176 C 86.400 154.749,86.547 154.400,86.728 154.400 C 86.908 154.400,87.300 153.500,87.600 152.400 C 87.900 151.300,88.292 150.400,88.472 150.400 C 88.653 150.400,88.800 150.040,88.800 149.600 C 88.800 149.160,88.980 148.800,89.200 148.800 C 89.420 148.800,89.600 148.440,89.600 148.000 C 89.600 147.560,89.780 147.200,90.000 147.200 C 90.220 147.200,90.400 146.851,90.400 146.424 C 90.400 145.997,90.583 145.534,90.807 145.396 C 91.030 145.258,91.117 144.990,91.000 144.800 C 90.883 144.610,90.970 144.342,91.193 144.204 C 91.417 144.066,91.600 143.603,91.600 143.176 C 91.600 142.749,91.780 142.400,92.000 142.400 C 92.220 142.400,92.400 142.130,92.400 141.800 C 92.400 141.470,92.580 141.200,92.800 141.200 C 93.020 141.200,93.200 140.930,93.200 140.600 C 93.200 140.270,93.380 140.000,93.600 140.000 C 93.820 140.000,94.000 139.730,94.000 139.400 C 94.000 139.070,94.180 138.800,94.400 138.800 C 94.620 138.800,94.800 138.522,94.800 138.183 C 94.800 137.844,95.160 137.180,95.600 136.708 C 96.040 136.236,96.400 135.613,96.400 135.325 C 96.400 135.036,96.580 134.800,96.800 134.800 C 97.020 134.800,97.200 134.564,97.200 134.275 C 97.200 133.987,97.560 133.364,98.000 132.892 C 98.440 132.420,98.800 131.873,98.800 131.676 C 98.800 131.479,99.295 130.784,99.900 130.132 C 100.505 129.479,101.057 128.694,101.128 128.389 C 101.198 128.084,101.828 127.286,102.528 126.618 C 103.227 125.949,103.734 125.337,103.653 125.257 C 103.573 125.177,104.068 124.517,104.753 123.791 C 105.439 123.064,106.000 122.317,106.000 122.131 C 106.000 121.945,106.378 121.557,106.839 121.269 C 107.300 120.980,107.584 120.651,107.470 120.536 C 107.355 120.422,107.788 119.778,108.431 119.105 C 109.074 118.432,109.600 117.717,109.600 117.517 C 109.600 117.317,109.780 117.264,110.000 117.400 C 110.220 117.536,110.400 117.468,110.400 117.249 C 110.400 116.847,114.018 113.097,116.300 111.135 C 116.980 110.550,117.432 109.965,117.302 109.835 C 117.173 109.706,117.263 109.600,117.503 109.600 C 117.742 109.600,118.672 108.851,119.569 107.936 C 120.466 107.021,121.203 106.436,121.206 106.636 C 121.209 106.836,121.383 106.730,121.592 106.400 C 121.800 106.070,122.140 105.800,122.348 105.800 C 122.555 105.800,123.372 105.134,124.162 104.320 C 124.953 103.506,125.605 102.966,125.612 103.120 C 125.619 103.274,125.808 103.085,126.032 102.700 C 126.256 102.315,126.701 102.000,127.020 102.000 C 127.339 102.000,127.600 101.820,127.600 101.600 C 127.600 101.380,127.780 101.200,128.000 101.200 C 128.220 101.200,128.747 100.885,129.171 100.500 C 130.676 99.134,131.172 98.800,131.695 98.800 C 131.986 98.800,132.483 98.440,132.800 98.000 C 133.117 97.560,133.607 97.200,133.888 97.200 C 134.170 97.200,134.400 97.020,134.400 96.800 C 134.400 96.580,134.771 96.400,135.224 96.400 C 135.677 96.400,135.936 96.220,135.800 96.000 C 135.664 95.780,135.799 95.600,136.101 95.600 C 136.402 95.600,136.998 95.275,137.425 94.878 C 138.266 94.094,138.480 94.000,139.424 94.000 C 139.767 94.000,139.936 93.820,139.800 93.600 C 139.664 93.380,139.923 93.200,140.376 93.200 C 140.829 93.200,141.200 93.020,141.200 92.800 C 141.200 92.580,141.470 92.400,141.800 92.400 C 142.130 92.400,142.400 92.241,142.400 92.047 C 142.400 91.748,143.507 91.277,144.230 91.267 C 144.347 91.266,144.883 90.976,145.421 90.623 C 145.959 90.270,146.400 90.089,146.400 90.219 C 146.400 90.350,146.693 90.164,147.052 89.806 C 147.410 89.447,147.938 89.244,148.226 89.355 C 148.513 89.465,148.805 89.399,148.874 89.208 C 148.943 89.016,149.270 88.802,149.600 88.730 C 149.930 88.659,150.290 88.510,150.400 88.400 C 150.911 87.889,154.510 86.400,155.234 86.400 C 155.681 86.400,155.936 86.220,155.800 86.000 C 155.662 85.777,155.969 85.600,156.496 85.600 C 157.015 85.600,157.611 85.436,157.820 85.235 C 158.029 85.034,158.650 84.809,159.200 84.735 C 159.750 84.661,160.300 84.466,160.422 84.302 C 160.545 84.138,161.117 83.965,161.694 83.917 C 162.270 83.869,162.655 83.688,162.548 83.515 C 162.440 83.342,162.813 83.200,163.376 83.200 C 163.939 83.200,164.400 83.020,164.400 82.800 C 164.400 82.580,165.105 82.400,165.967 82.400 C 166.828 82.400,167.593 82.228,167.667 82.018 C 167.740 81.807,168.463 81.591,169.274 81.537 C 170.085 81.484,170.659 81.296,170.551 81.120 C 170.442 80.944,170.957 80.800,171.696 80.800 C 172.435 80.800,173.282 80.575,173.579 80.300 C 174.016 79.894,174.058 79.912,173.800 80.400 C 173.542 80.888,173.584 80.906,174.021 80.500 C 174.318 80.225,175.154 80.000,175.880 80.000 C 176.606 80.000,177.200 79.820,177.200 79.600 C 177.200 79.379,178.240 79.200,179.520 79.200 C 180.796 79.200,182.012 79.028,182.222 78.818 C 182.433 78.607,184.089 78.404,185.902 78.365 C 187.716 78.326,189.200 78.138,189.200 77.947 C 189.200 77.756,191.720 77.600,194.800 77.600 C 198.475 77.600,200.400 77.454,200.400 77.176 C 200.400 76.943,200.578 76.863,200.796 76.997 C 201.055 77.158,201.191 64.930,201.191 41.400 C 201.191 19.684,201.046 5.648,200.823 5.786 C 200.621 5.911,200.342 5.830,200.204 5.607 C 199.884 5.088,193.201 5.083,192.400 5.600 M188.900 151.041 C 172.565 167.418,159.200 180.994,159.200 181.209 C 159.200 181.424,159.020 181.600,158.800 181.600 C 158.580 181.600,158.400 181.830,158.400 182.112 C 158.400 182.393,158.040 182.883,157.600 183.200 C 157.160 183.517,156.800 184.007,156.800 184.288 C 156.800 184.570,156.620 184.800,156.400 184.800 C 156.180 184.800,156.000 185.070,156.000 185.400 C 156.000 185.730,155.820 186.000,155.600 186.000 C 155.380 186.000,155.200 186.360,155.200 186.800 C 155.200 187.240,155.020 187.600,154.800 187.600 C 154.580 187.600,154.400 187.870,154.400 188.200 C 154.400 188.530,154.220 188.800,154.000 188.800 C 153.780 188.800,153.600 189.149,153.600 189.576 C 153.600 190.003,153.420 190.464,153.200 190.600 C 152.980 190.736,152.800 191.216,152.800 191.666 C 152.800 192.222,152.611 192.413,152.214 192.261 C 151.747 192.081,151.678 192.289,151.876 193.280 C 152.056 194.180,151.994 194.444,151.654 194.233 C 151.323 194.029,151.212 194.329,151.282 195.241 C 151.339 195.989,151.173 196.609,150.891 196.703 C 150.579 196.807,150.495 197.239,150.660 197.895 C 150.845 198.634,150.717 199.072,150.206 199.445 C 149.670 199.837,149.556 200.278,149.744 201.222 C 150.033 202.666,149.679 204.496,149.171 204.182 C 148.982 204.066,148.910 205.212,149.010 206.731 C 149.176 209.250,149.105 209.586,148.196 210.566 C 147.086 211.765,146.975 212.047,147.676 211.900 C 148.374 211.753,148.553 213.134,147.933 213.883 C 147.640 214.238,147.400 214.994,147.400 215.564 C 147.400 216.134,147.208 216.566,146.973 216.524 C 146.719 216.479,146.616 216.925,146.718 217.624 C 146.821 218.325,146.711 218.800,146.445 218.800 C 146.200 218.800,146.000 219.269,146.000 219.843 C 146.000 220.552,145.828 220.820,145.462 220.679 C 145.077 220.532,144.977 220.746,145.109 221.437 C 145.215 221.989,145.103 222.400,144.847 222.400 C 144.601 222.400,144.400 222.760,144.400 223.200 C 144.400 224.081,143.757 224.293,143.491 223.500 C 143.399 223.225,143.403 223.505,143.498 224.121 C 143.621 224.912,143.426 225.457,142.836 225.968 C 142.376 226.367,142.000 226.948,142.000 227.259 C 142.000 227.569,141.640 228.083,141.200 228.400 C 140.760 228.717,140.400 229.223,140.400 229.523 C 140.400 229.824,137.250 233.242,133.400 237.119 C 129.550 240.996,126.400 244.360,126.400 244.596 C 126.400 244.831,126.040 245.283,125.600 245.600 C 125.160 245.917,124.800 246.497,124.800 246.888 C 124.800 247.280,124.620 247.600,124.400 247.600 C 124.180 247.600,124.000 247.960,124.000 248.400 C 124.000 248.840,123.820 249.200,123.600 249.200 C 123.380 249.200,123.200 249.841,123.200 250.624 C 123.200 251.471,123.038 251.947,122.800 251.800 C 122.546 251.643,122.400 252.729,122.400 254.776 C 122.400 256.659,122.566 258.000,122.800 258.000 C 123.020 258.000,123.200 258.540,123.200 259.200 C 123.200 259.860,123.336 260.400,123.502 260.400 C 123.669 260.400,124.062 260.982,124.377 261.692 C 125.087 263.297,128.906 267.200,129.765 267.200 C 130.114 267.200,130.400 267.380,130.400 267.600 C 130.400 267.820,130.760 268.000,131.200 268.000 C 131.640 268.000,132.000 268.259,132.000 268.575 C 132.000 269.008,132.344 269.094,133.393 268.924 C 134.453 268.752,134.846 268.853,135.036 269.349 C 135.373 270.228,138.689 270.233,139.941 269.356 C 140.533 268.942,141.276 268.795,142.027 268.945 C 142.829 269.106,143.163 269.026,143.096 268.689 C 143.043 268.420,143.270 268.200,143.600 268.200 C 143.930 268.200,144.344 267.975,144.520 267.700 C 144.696 267.425,145.058 267.200,145.325 267.200 C 145.592 267.200,148.924 264.140,152.730 260.400 C 156.536 256.660,159.773 253.597,159.925 253.594 C 160.076 253.590,161.010 252.877,162.000 252.009 C 162.990 251.141,164.250 250.204,164.800 249.926 C 165.350 249.648,166.229 249.101,166.754 248.711 C 167.279 248.320,168.044 248.000,168.454 248.000 C 168.864 248.000,169.200 247.820,169.200 247.600 C 169.200 247.380,169.560 247.200,170.000 247.200 C 170.440 247.200,170.800 246.999,170.800 246.753 C 170.800 246.493,171.216 246.386,171.800 246.498 C 172.471 246.626,172.800 246.510,172.800 246.145 C 172.800 245.830,173.223 245.600,173.800 245.600 C 174.350 245.600,174.800 245.420,174.800 245.200 C 174.800 244.980,175.340 244.800,176.000 244.800 C 176.660 244.800,177.200 244.620,177.200 244.400 C 177.200 244.180,177.909 244.000,178.776 244.000 C 179.643 244.000,180.464 243.820,180.600 243.600 C 180.961 243.016,184.293 243.101,184.535 243.700 C 184.696 244.100,184.743 244.100,184.768 243.700 C 184.786 243.425,185.070 243.200,185.400 243.200 C 185.730 243.200,186.000 243.020,186.000 242.800 C 186.000 242.574,187.133 242.400,188.600 242.400 C 190.067 242.400,191.200 242.226,191.200 242.000 C 191.200 241.780,191.931 241.600,192.824 241.600 C 193.949 241.600,194.360 241.742,194.162 242.062 C 193.985 242.348,194.052 242.415,194.338 242.238 C 194.592 242.081,194.800 241.693,194.800 241.376 C 194.800 241.003,195.222 240.800,196.000 240.800 C 196.660 240.800,197.200 240.620,197.200 240.400 C 197.200 239.835,198.538 239.903,199.165 240.500 C 199.593 240.908,199.640 240.834,199.418 240.100 C 199.225 239.460,199.311 239.200,199.717 239.200 C 200.394 239.200,205.341 236.733,205.533 236.300 C 205.607 236.135,205.888 236.000,206.158 236.000 C 206.428 236.000,207.006 235.667,207.443 235.261 C 207.879 234.854,208.428 234.449,208.662 234.361 C 209.922 233.885,250.760 193.775,253.907 189.921 C 255.591 187.860,245.142 174.400,241.857 174.400 C 241.748 174.400,240.251 173.545,238.529 172.500 C 236.808 171.455,234.860 170.333,234.200 170.007 C 232.644 169.239,226.731 163.326,226.093 161.900 C 225.822 161.295,225.408 160.384,225.173 159.875 C 224.641 158.724,224.905 151.290,225.566 148.800 C 226.751 144.338,226.921 143.160,226.927 139.400 C 226.936 134.363,226.783 133.685,224.626 129.200 C 222.185 124.123,220.147 121.170,219.129 121.233 C 218.838 121.251,205.235 134.665,188.900 151.041 " stroke="none" fill="#fbcc55" fill-rule="evenodd"></path><path id="path2" d="M110.731 286.294 C 109.389 287.396,101.614 294.471,96.799 298.970 C 95.369 300.306,93.295 302.210,92.192 303.200 C 90.105 305.072,82.509 312.036,78.002 316.210 C 76.571 317.535,74.498 319.425,73.397 320.410 C 72.295 321.394,69.505 323.934,67.197 326.054 C 64.888 328.173,62.156 330.603,61.126 331.454 C 59.817 332.533,59.248 333.302,59.242 334.000 L 59.232 335.000 59.777 333.999 C 60.077 333.448,62.090 331.378,64.251 329.399 C 66.412 327.419,68.903 325.125,69.788 324.300 C 71.881 322.347,71.893 322.349,76.154 325.471 C 78.159 326.940,80.700 328.799,81.800 329.601 C 84.669 331.694,92.078 336.273,98.800 340.108 C 100.646 341.161,111.919 346.800,112.178 346.800 C 112.289 346.800,113.509 347.309,114.890 347.932 C 116.270 348.554,118.930 349.651,120.800 350.370 C 122.670 351.088,124.560 351.834,125.000 352.027 C 142.314 359.613,177.593 365.008,200.922 363.638 C 208.576 363.188,211.074 362.949,218.600 361.946 C 231.230 360.264,250.893 355.385,258.600 352.022 C 259.040 351.830,261.110 351.010,263.200 350.199 C 268.766 348.040,271.768 346.667,279.905 342.559 L 287.210 338.871 288.405 340.607 C 289.062 341.563,289.600 342.522,289.600 342.739 C 289.600 342.956,289.745 343.193,289.923 343.267 C 290.391 343.459,292.800 347.065,292.800 347.572 C 292.800 347.807,292.980 348.000,293.200 348.000 C 293.420 348.000,293.600 348.170,293.600 348.377 C 293.600 348.585,295.854 352.195,298.610 356.399 C 301.365 360.604,303.526 364.195,303.412 364.380 C 303.298 364.565,303.485 364.824,303.828 364.956 C 304.951 365.386,304.079 363.743,299.415 356.643 C 296.943 352.879,293.523 347.640,291.815 345.000 C 290.108 342.360,288.505 339.912,288.255 339.560 C 286.402 336.952,270.845 313.103,267.592 307.883 C 265.255 304.133,264.028 303.501,262.400 305.211 C 262.070 305.557,261.150 306.143,260.355 306.513 C 259.560 306.883,258.683 307.459,258.406 307.793 C 258.129 308.127,257.487 308.400,256.980 308.400 C 256.472 308.400,255.815 308.625,255.519 308.900 C 255.223 309.175,254.715 309.458,254.390 309.529 C 254.066 309.600,252.605 310.265,251.144 311.006 C 249.683 311.748,248.378 312.245,248.244 312.111 C 248.110 311.976,248.000 312.077,248.000 312.333 C 248.000 312.590,247.685 312.806,247.300 312.813 C 246.915 312.820,246.258 313.084,245.841 313.400 C 245.424 313.716,244.941 313.887,244.769 313.781 C 244.596 313.674,244.342 313.770,244.204 313.993 C 244.066 314.217,243.513 314.400,242.976 314.400 C 242.439 314.400,242.000 314.580,242.000 314.800 C 242.000 315.020,241.640 315.200,241.200 315.200 C 240.760 315.200,240.400 315.380,240.400 315.600 C 240.400 315.820,239.871 316.000,239.224 316.000 C 238.577 316.000,237.936 316.180,237.800 316.400 C 237.664 316.620,237.059 316.800,236.456 316.800 C 235.853 316.800,235.181 316.979,234.962 317.198 C 234.744 317.416,234.078 317.636,233.482 317.685 C 232.887 317.734,232.400 317.915,232.400 318.087 C 232.400 318.259,231.938 318.400,231.374 318.400 C 230.809 318.400,230.019 318.576,229.618 318.790 C 229.217 319.005,228.341 319.222,227.672 319.273 C 227.003 319.324,226.544 319.509,226.651 319.683 C 226.759 319.857,225.847 320.000,224.624 320.000 C 223.401 320.000,222.400 320.180,222.400 320.400 C 222.400 320.620,221.626 320.800,220.680 320.800 C 219.734 320.800,218.718 321.025,218.421 321.300 C 217.984 321.706,217.942 321.688,218.200 321.200 C 218.458 320.712,218.416 320.694,217.979 321.100 C 217.658 321.397,216.347 321.600,214.744 321.600 C 213.261 321.600,211.936 321.780,211.800 322.000 C 211.644 322.252,207.270 322.400,200.000 322.400 C 192.730 322.400,188.356 322.252,188.200 322.000 C 188.064 321.780,186.714 321.600,185.200 321.600 C 183.686 321.600,182.336 321.420,182.200 321.200 C 182.064 320.980,180.973 320.800,179.776 320.800 C 178.579 320.800,177.600 320.654,177.600 320.475 C 177.600 320.296,176.745 320.106,175.700 320.053 C 174.655 320.000,173.740 319.787,173.667 319.579 C 173.593 319.370,172.929 319.200,172.190 319.200 C 171.452 319.200,170.736 319.020,170.600 318.800 C 170.464 318.580,169.643 318.400,168.776 318.400 C 167.909 318.400,167.200 318.220,167.200 318.000 C 167.200 317.780,166.570 317.600,165.800 317.600 C 165.030 317.600,164.400 317.420,164.400 317.200 C 164.400 316.980,163.860 316.800,163.200 316.800 C 162.540 316.800,162.000 316.620,162.000 316.400 C 162.000 316.180,161.651 316.000,161.224 316.000 C 160.797 316.000,160.336 315.820,160.200 315.600 C 160.064 315.380,159.513 315.200,158.976 315.200 C 158.439 315.200,158.000 315.020,158.000 314.800 C 158.000 314.580,157.645 314.400,157.212 314.400 C 156.779 314.400,155.783 314.040,155.000 313.600 C 154.217 313.160,153.221 312.800,152.788 312.800 C 152.355 312.800,152.000 312.612,152.000 312.382 C 152.000 312.153,151.775 311.994,151.500 312.030 C 150.483 312.162,149.960 311.989,150.200 311.600 C 150.336 311.380,150.187 311.200,149.869 311.200 C 149.551 311.200,148.789 310.939,148.174 310.620 C 147.560 310.302,146.909 310.132,146.729 310.244 C 146.548 310.356,146.400 310.278,146.400 310.072 C 146.400 309.761,144.285 308.645,143.600 308.595 C 143.032 308.553,140.800 307.363,140.800 307.102 C 140.800 306.936,140.429 306.800,139.976 306.800 C 139.523 306.800,139.252 306.640,139.372 306.445 C 139.493 306.250,138.590 305.600,137.366 305.001 C 136.143 304.402,135.045 303.662,134.928 303.356 C 134.810 303.050,134.413 302.800,134.046 302.800 C 133.678 302.800,133.117 302.440,132.800 302.000 C 132.483 301.560,131.943 301.200,131.600 301.200 C 131.257 301.200,130.724 300.850,130.415 300.421 C 130.107 299.993,129.716 299.728,129.546 299.833 C 129.377 299.938,128.584 299.388,127.785 298.612 C 126.985 297.835,126.109 297.200,125.838 297.200 C 125.566 297.200,124.958 296.795,124.486 296.300 C 122.838 294.574,122.130 294.000,121.643 294.000 C 121.373 294.000,121.264 293.820,121.400 293.600 C 121.536 293.380,121.463 293.200,121.238 293.200 C 121.012 293.200,119.015 291.400,116.800 289.200 C 112.259 284.690,112.526 284.818,110.731 286.294 M75.600 350.067 C 75.600 350.323,75.717 350.416,75.860 350.273 C 76.004 350.130,76.374 350.325,76.683 350.706 C 77.186 351.329,77.199 351.308,76.808 350.500 C 76.347 349.548,75.600 349.280,75.600 350.067 M82.832 355.486 C 82.814 355.753,83.160 356.165,83.600 356.400 C 84.142 356.690,84.400 356.695,84.400 356.414 C 84.400 356.186,84.145 356.000,83.833 356.000 C 83.522 356.000,83.176 355.775,83.065 355.500 C 82.913 355.123,82.855 355.120,82.832 355.486 M84.803 357.100 C 84.804 357.265,85.373 357.723,86.067 358.118 C 87.280 358.809,87.307 358.809,86.764 358.118 C 85.826 356.923,84.797 356.389,84.803 357.100 M160.176 390.613 C 160.604 390.936,161.234 391.194,161.576 391.186 C 161.976 391.177,161.841 390.966,161.200 390.600 C 159.891 389.852,159.182 389.861,160.176 390.613 M173.390 392.784 C 173.532 393.013,174.117 393.200,174.690 393.200 C 175.944 393.200,175.799 393.008,174.266 392.640 C 173.523 392.462,173.221 392.511,173.390 392.784 M203.421 394.434 C 203.681 394.854,207.200 394.745,207.200 394.317 C 207.200 394.121,206.309 394.001,205.220 394.051 C 204.131 394.100,203.322 394.273,203.421 394.434 " stroke="none" fill="#4bcbab" fill-rule="evenodd"></path><path id="path3" d="M351.200 5.600 C 351.200 5.833,349.867 6.000,348.000 6.000 C 346.133 6.000,344.800 6.167,344.800 6.400 C 344.800 6.620,344.170 6.800,343.400 6.800 C 342.630 6.800,342.000 6.980,342.000 7.200 C 342.000 7.420,341.460 7.600,340.800 7.600 C 340.140 7.600,339.600 7.758,339.600 7.950 C 339.600 8.264,337.381 8.913,337.070 8.690 C 337.000 8.641,336.626 8.917,336.239 9.304 C 335.852 9.691,335.370 9.905,335.168 9.780 C 334.965 9.655,334.800 9.743,334.800 9.976 C 334.800 10.209,334.575 10.400,334.300 10.401 C 334.025 10.401,333.170 10.941,332.400 11.600 C 331.630 12.259,330.866 12.799,330.703 12.799 C 330.539 12.800,329.189 14.082,327.703 15.648 C 326.216 17.215,323.330 20.140,321.289 22.148 C 319.248 24.157,315.738 27.650,313.489 29.910 C 294.122 49.379,296.917 47.569,292.554 43.471 C 290.084 41.151,287.867 39.600,287.021 39.600 C 286.680 39.600,286.400 39.420,286.400 39.200 C 286.400 38.980,285.669 38.800,284.776 38.800 C 283.796 38.800,283.251 38.642,283.400 38.400 C 283.556 38.148,282.612 38.000,280.847 38.000 C 279.307 38.000,277.936 38.180,277.800 38.400 C 277.664 38.620,277.034 38.800,276.400 38.800 C 275.766 38.800,275.136 38.980,275.000 39.200 C 274.864 39.420,274.403 39.600,273.976 39.600 C 273.549 39.600,273.200 39.780,273.200 40.000 C 273.200 40.220,272.924 40.400,272.587 40.400 C 272.249 40.400,271.343 41.030,270.573 41.800 C 269.803 42.570,269.020 43.200,268.833 43.200 C 268.646 43.200,268.393 43.515,268.271 43.900 C 268.027 44.671,266.742 46.884,266.355 47.200 C 265.571 47.841,264.838 57.200,265.572 57.200 C 265.807 57.200,266.000 57.740,266.000 58.400 C 266.000 59.060,266.180 59.600,266.400 59.600 C 266.620 59.600,266.800 59.960,266.800 60.400 C 266.800 60.840,266.980 61.200,267.200 61.200 C 267.420 61.200,267.600 61.446,267.600 61.746 C 267.600 62.575,271.828 66.800,272.658 66.800 C 273.727 66.800,324.687 117.846,325.215 119.445 C 325.837 121.330,330.373 125.200,331.960 125.200 C 332.396 125.200,332.864 125.380,333.000 125.600 C 333.136 125.820,333.856 126.000,334.600 126.000 C 335.344 126.000,336.064 126.180,336.200 126.400 C 336.523 126.922,340.800 126.922,340.800 126.400 C 340.800 126.180,341.520 126.000,342.400 126.000 C 343.280 126.000,344.000 125.840,344.000 125.645 C 344.000 125.449,344.585 125.179,345.300 125.044 C 346.015 124.910,347.123 124.350,347.762 123.800 C 348.401 123.250,349.076 122.800,349.262 122.800 C 349.448 122.800,349.600 122.602,349.600 122.360 C 349.600 122.119,350.140 121.417,350.800 120.800 C 351.460 120.183,352.000 119.391,352.000 119.040 C 352.000 118.688,352.180 118.400,352.400 118.400 C 352.620 118.400,352.800 117.961,352.800 117.424 C 352.800 116.887,352.980 116.336,353.200 116.200 C 353.670 115.909,353.755 106.800,353.287 106.800 C 353.115 106.800,352.934 106.305,352.884 105.700 C 352.834 105.095,352.615 104.540,352.397 104.467 C 352.178 104.393,352.000 104.105,352.000 103.826 C 352.000 103.547,351.505 102.794,350.900 102.152 C 350.295 101.511,349.017 100.042,348.060 98.889 L 346.320 96.793 350.012 93.297 C 352.043 91.373,354.626 88.839,355.752 87.665 C 358.753 84.537,367.903 75.381,370.851 72.557 C 374.924 68.655,380.800 62.318,380.800 61.827 C 380.800 61.579,381.160 61.117,381.600 60.800 C 382.040 60.483,382.400 59.903,382.400 59.512 C 382.400 59.120,382.580 58.800,382.800 58.800 C 383.020 58.800,383.200 58.530,383.200 58.200 C 383.200 57.870,383.380 57.600,383.600 57.600 C 383.820 57.600,384.000 57.240,384.000 56.800 C 384.000 56.360,384.180 56.000,384.400 56.000 C 384.620 56.000,384.800 55.640,384.800 55.200 C 384.800 54.760,384.980 54.400,385.200 54.400 C 385.420 54.400,385.600 53.961,385.600 53.424 C 385.600 52.887,385.780 52.336,386.000 52.200 C 386.220 52.064,386.400 51.423,386.400 50.776 C 386.400 50.129,386.580 49.600,386.800 49.600 C 387.020 49.600,387.200 48.711,387.200 47.624 C 387.200 46.537,387.380 45.536,387.600 45.400 C 387.831 45.258,388.000 43.129,388.000 40.376 C 388.000 37.459,387.844 35.600,387.600 35.600 C 387.380 35.600,387.200 34.700,387.200 33.600 C 387.200 32.500,387.020 31.600,386.800 31.600 C 386.580 31.600,386.400 31.071,386.400 30.424 C 386.400 29.777,386.220 29.136,386.000 29.000 C 385.780 28.864,385.600 28.313,385.600 27.776 C 385.600 27.239,385.420 26.800,385.200 26.800 C 384.980 26.800,384.800 26.547,384.800 26.238 C 384.800 25.481,383.135 22.400,382.726 22.400 C 382.547 22.400,382.400 22.122,382.400 21.782 C 382.400 21.442,381.947 20.710,381.392 20.156 C 380.838 19.602,380.506 18.952,380.654 18.712 C 380.815 18.451,380.738 18.391,380.462 18.562 C 380.208 18.719,380.000 18.653,380.000 18.415 C 380.000 17.904,376.553 14.412,374.000 12.337 C 371.929 10.654,367.756 8.400,366.711 8.400 C 366.320 8.400,366.000 8.220,366.000 8.000 C 366.000 7.780,365.460 7.600,364.800 7.600 C 364.140 7.600,363.600 7.420,363.600 7.200 C 363.600 6.980,362.880 6.800,362.000 6.800 C 361.120 6.800,360.400 6.620,360.400 6.400 C 360.400 6.166,359.059 6.000,357.176 6.000 C 355.129 6.000,354.043 5.854,354.200 5.600 C 354.349 5.358,353.804 5.200,352.824 5.200 C 351.931 5.200,351.200 5.380,351.200 5.600 " stroke="none" fill="#5b6371" fill-rule="evenodd"></path><path id="path4" d="M69.786 324.300 C 68.900 325.125,66.342 327.484,64.101 329.543 C 59.824 333.473,59.055 334.612,60.145 335.409 C 60.498 335.668,60.655 336.025,60.494 336.203 C 60.332 336.382,60.506 336.418,60.880 336.284 C 61.364 336.111,61.495 336.208,61.335 336.625 C 61.177 337.038,61.301 337.136,61.760 336.960 C 62.258 336.769,62.345 336.878,62.135 337.425 C 61.918 337.991,62.009 338.082,62.575 337.865 C 63.063 337.678,63.227 337.752,63.095 338.098 C 62.988 338.376,63.148 338.835,63.450 339.118 C 63.753 339.400,64.000 339.500,64.000 339.339 C 64.000 339.178,64.481 339.626,65.069 340.336 C 65.854 341.284,66.223 341.490,66.462 341.113 C 66.701 340.736,66.789 340.786,66.794 341.300 C 66.797 341.685,66.980 342.000,67.200 342.000 C 67.420 342.000,67.600 342.193,67.600 342.429 C 67.600 343.066,68.653 344.000,69.371 344.000 C 69.937 344.000,70.179 344.465,70.047 345.300 C 70.021 345.465,70.272 345.600,70.604 345.600 C 70.936 345.600,71.772 346.140,72.463 346.800 C 73.154 347.460,73.885 348.000,74.088 348.000 C 74.799 348.000,75.641 349.116,75.096 349.336 C 74.823 349.447,74.984 349.551,75.454 349.568 C 75.924 349.586,76.603 350.050,76.963 350.600 C 77.324 351.150,77.884 351.600,78.209 351.600 C 78.534 351.600,78.800 351.881,78.800 352.224 C 78.800 352.567,78.981 352.735,79.203 352.598 C 79.424 352.461,79.714 352.631,79.846 352.975 C 79.978 353.319,80.317 353.600,80.600 353.600 C 80.883 353.600,81.222 353.881,81.354 354.225 C 81.486 354.569,81.780 354.736,82.007 354.596 C 82.234 354.455,82.394 354.489,82.363 354.670 C 82.182 355.711,82.412 356.200,82.800 355.600 C 83.058 355.200,83.190 355.167,83.194 355.500 C 83.197 355.775,83.470 356.000,83.800 356.000 C 84.130 356.000,84.400 356.180,84.400 356.400 C 84.400 356.620,84.647 356.800,84.950 356.800 C 85.252 356.800,86.345 357.610,87.378 358.600 C 88.412 359.590,89.561 360.400,89.932 360.400 C 90.304 360.400,90.832 360.760,91.107 361.200 C 91.382 361.640,91.875 362.000,92.203 362.000 C 92.532 362.000,92.800 362.162,92.800 362.360 C 92.800 362.832,95.451 364.391,96.323 364.432 C 96.783 364.453,96.831 364.531,96.472 364.674 C 95.889 364.907,97.680 366.000,98.646 366.000 C 98.951 366.000,99.200 366.180,99.200 366.400 C 99.200 366.620,99.470 366.800,99.800 366.800 C 100.130 366.800,100.400 366.980,100.400 367.200 C 100.400 367.420,100.771 367.600,101.224 367.600 C 101.677 367.600,101.936 367.780,101.800 368.000 C 101.664 368.220,101.833 368.400,102.176 368.400 C 102.519 368.400,102.800 368.568,102.800 368.773 C 102.800 369.153,104.354 369.823,104.900 369.679 C 105.065 369.636,105.200 369.791,105.200 370.024 C 105.200 370.257,105.356 370.351,105.547 370.233 C 105.737 370.115,106.215 370.375,106.609 370.809 C 107.002 371.244,107.757 371.600,108.286 371.600 C 108.814 371.600,109.152 371.754,109.036 371.942 C 108.754 372.399,110.743 373.282,111.292 372.943 C 111.549 372.785,111.608 372.864,111.438 373.138 C 111.181 373.554,111.943 373.809,112.930 373.637 C 113.111 373.606,113.145 373.765,113.006 373.990 C 112.756 374.394,113.286 374.565,114.340 374.421 C 114.637 374.380,114.762 374.539,114.617 374.773 C 114.462 375.023,114.695 375.200,115.176 375.200 C 115.629 375.200,116.000 375.380,116.000 375.600 C 116.000 375.820,116.360 376.000,116.800 376.000 C 117.240 376.000,117.603 376.225,117.606 376.500 C 117.611 376.892,117.679 376.894,117.924 376.509 C 118.154 376.148,118.387 376.227,118.806 376.809 C 119.139 377.270,119.840 377.600,120.488 377.600 C 121.100 377.600,121.600 377.780,121.600 378.000 C 121.600 378.220,121.960 378.400,122.400 378.400 C 122.840 378.400,123.200 378.580,123.200 378.800 C 123.200 379.020,123.605 379.204,124.100 379.209 C 124.595 379.214,125.450 379.570,126.000 380.000 C 126.550 380.430,127.315 380.786,127.700 380.791 C 128.085 380.796,128.400 380.999,128.400 381.243 C 128.400 381.486,128.665 381.584,128.988 381.460 C 129.312 381.336,129.839 381.496,130.160 381.817 C 130.481 382.138,131.116 382.400,131.571 382.400 C 132.027 382.400,132.400 382.562,132.400 382.760 C 132.400 382.958,133.069 383.120,133.887 383.120 C 134.704 383.120,135.439 383.318,135.520 383.560 C 135.601 383.802,136.112 384.000,136.657 384.000 C 137.215 384.000,137.539 384.174,137.400 384.400 C 137.256 384.632,137.651 384.800,138.343 384.800 C 138.998 384.800,139.593 384.972,139.667 385.182 C 139.740 385.393,140.475 385.610,141.300 385.664 C 142.125 385.719,142.800 385.907,142.800 386.082 C 142.800 386.257,143.073 386.400,143.406 386.400 C 144.272 386.400,147.200 387.350,147.200 387.631 C 147.200 387.760,147.605 387.835,148.100 387.796 C 148.595 387.757,149.399 387.984,149.887 388.300 C 150.375 388.616,151.005 388.793,151.287 388.692 C 151.569 388.592,152.250 388.731,152.800 389.001 C 153.350 389.271,154.412 389.505,155.161 389.521 C 155.909 389.537,156.637 389.737,156.778 389.965 C 156.919 390.193,157.747 390.318,158.617 390.243 C 159.488 390.169,160.558 390.293,160.996 390.519 C 161.434 390.746,162.154 390.986,162.596 391.053 C 163.038 391.120,163.760 391.256,164.200 391.356 C 164.640 391.457,165.866 391.553,166.924 391.569 C 168.097 391.588,168.751 391.756,168.600 392.000 C 168.464 392.220,168.543 392.400,168.776 392.400 C 169.009 392.400,169.200 392.220,169.200 392.000 C 169.200 391.780,169.391 391.600,169.624 391.600 C 169.857 391.600,169.949 391.759,169.829 391.954 C 169.708 392.148,170.733 392.412,172.105 392.539 C 178.280 393.113,179.457 393.280,180.326 393.708 C 181.063 394.070,181.335 394.044,181.656 393.582 C 181.964 393.140,182.110 393.120,182.264 393.500 C 182.410 393.861,183.795 394.000,187.233 394.000 C 190.144 394.000,192.000 394.156,192.000 394.400 C 192.000 394.620,192.315 394.797,192.700 394.794 C 193.298 394.789,193.313 394.731,192.800 394.400 C 192.283 394.066,192.293 394.011,192.876 394.006 C 193.248 394.003,193.664 394.180,193.800 394.400 C 193.936 394.620,194.227 394.800,194.447 394.800 C 194.667 394.800,194.736 394.620,194.600 394.400 C 194.464 394.180,194.644 394.000,195.000 394.000 C 195.356 394.000,195.542 394.170,195.413 394.378 C 195.272 394.607,196.842 394.754,199.384 394.750 C 201.696 394.746,203.691 394.576,203.817 394.372 C 204.128 393.870,207.200 393.895,207.200 394.400 C 207.200 394.620,207.391 394.800,207.624 394.800 C 207.857 394.800,207.936 394.620,207.800 394.400 C 207.590 394.060,215.941 393.725,218.465 393.973 C 218.830 394.009,219.246 393.850,219.388 393.619 C 219.531 393.389,220.882 393.200,222.390 393.200 C 223.899 393.200,225.193 393.030,225.267 392.822 C 225.340 392.615,226.525 392.405,227.900 392.357 C 229.275 392.308,230.400 392.096,230.400 391.885 C 230.400 391.675,230.652 391.712,230.961 391.968 C 231.274 392.227,231.584 392.269,231.661 392.062 C 231.784 391.734,233.049 391.537,238.387 391.014 C 239.150 390.939,239.829 390.712,239.897 390.510 C 239.964 390.307,240.555 390.220,241.210 390.316 C 241.870 390.413,242.400 390.308,242.400 390.081 C 242.400 389.855,242.715 389.725,243.100 389.791 C 243.485 389.857,244.227 389.643,244.749 389.314 C 245.271 388.986,245.576 388.916,245.426 389.159 C 245.045 389.774,246.051 389.687,246.919 389.030 C 247.314 388.730,247.989 388.577,248.419 388.689 C 248.848 388.801,249.200 388.722,249.200 388.513 C 249.200 388.304,249.470 388.103,249.800 388.067 C 250.130 388.030,250.670 387.970,251.000 387.933 C 251.330 387.897,251.600 387.717,251.600 387.533 C 251.600 387.350,251.791 387.200,252.024 387.200 C 252.257 387.200,252.336 387.380,252.200 387.600 C 252.064 387.820,252.128 388.000,252.343 388.000 C 252.558 388.000,252.801 387.798,252.883 387.550 C 252.966 387.303,253.518 387.100,254.109 387.100 C 254.756 387.100,255.082 386.933,254.927 386.682 C 254.771 386.430,254.915 386.359,255.288 386.502 C 255.629 386.633,256.264 386.491,256.698 386.186 C 257.133 385.882,258.132 385.589,258.919 385.536 C 259.705 385.483,260.259 385.296,260.151 385.120 C 260.042 384.944,260.287 384.800,260.696 384.800 C 261.105 384.800,261.682 384.575,261.979 384.300 C 262.410 383.900,262.461 383.900,262.235 384.300 C 262.080 384.575,262.128 384.800,262.343 384.800 C 262.558 384.800,262.793 384.622,262.867 384.403 C 262.940 384.185,263.495 383.966,264.100 383.916 C 264.705 383.866,265.200 383.685,265.200 383.513 C 265.200 383.341,265.639 383.200,266.176 383.200 C 266.713 383.200,267.264 383.020,267.400 382.800 C 267.536 382.580,267.997 382.400,268.424 382.400 C 268.851 382.400,269.200 382.209,269.200 381.976 C 269.200 381.743,269.360 381.651,269.555 381.772 C 269.750 381.893,270.114 381.745,270.364 381.444 C 270.614 381.143,271.399 380.760,272.109 380.592 C 272.819 380.425,273.535 380.246,273.700 380.194 C 273.865 380.142,274.281 380.078,274.624 380.050 C 274.967 380.023,275.136 379.820,275.000 379.600 C 274.859 379.372,275.204 379.200,275.800 379.200 C 276.396 379.200,276.741 379.028,276.600 378.800 C 276.460 378.573,276.796 378.400,277.376 378.400 C 277.939 378.400,278.400 378.220,278.400 378.000 C 278.400 377.780,278.861 377.600,279.424 377.600 C 280.095 377.600,280.349 377.441,280.162 377.138 C 280.004 376.882,280.050 376.784,280.267 376.918 C 280.482 377.050,281.160 376.898,281.774 376.580 C 282.389 376.261,283.151 376.000,283.469 376.000 C 283.787 376.000,283.936 375.820,283.800 375.600 C 283.664 375.380,283.913 375.200,284.353 375.200 C 284.793 375.200,285.266 375.017,285.404 374.793 C 285.542 374.570,285.823 374.491,286.028 374.617 C 286.232 374.744,286.400 374.646,286.400 374.400 C 286.400 374.154,286.580 374.064,286.800 374.200 C 287.020 374.336,287.200 374.246,287.200 374.000 C 287.200 373.754,287.373 373.660,287.585 373.791 C 287.797 373.922,288.337 373.663,288.785 373.215 C 289.233 372.767,289.949 372.400,290.376 372.400 C 290.803 372.400,291.264 372.220,291.400 372.000 C 291.536 371.780,291.997 371.600,292.424 371.600 C 292.851 371.600,293.200 371.420,293.200 371.200 C 293.200 370.980,293.399 370.800,293.642 370.800 C 293.885 370.800,294.621 370.349,295.276 369.797 C 295.932 369.246,296.632 368.896,296.834 369.021 C 297.035 369.145,297.200 369.057,297.200 368.824 C 297.200 368.591,297.545 368.400,297.967 368.400 C 298.388 368.400,298.793 368.233,298.867 368.030 C 298.940 367.826,299.262 367.601,299.582 367.530 C 299.902 367.458,300.588 366.992,301.108 366.492 C 301.627 365.993,302.220 365.689,302.426 365.816 C 302.632 365.943,302.800 365.857,302.800 365.624 C 302.800 365.391,303.115 365.186,303.500 365.168 C 303.922 365.149,304.001 365.056,303.698 364.934 C 303.421 364.823,303.291 364.577,303.407 364.388 C 303.524 364.199,301.365 360.604,298.610 356.399 C 295.854 352.195,293.600 348.585,293.600 348.377 C 293.600 348.170,293.420 348.000,293.200 348.000 C 292.980 348.000,292.800 347.807,292.800 347.572 C 292.800 347.065,290.391 343.459,289.923 343.267 C 289.745 343.193,289.600 342.956,289.600 342.739 C 289.600 342.522,289.062 341.563,288.405 340.607 L 287.210 338.871 279.905 342.559 C 271.768 346.667,268.766 348.040,263.200 350.199 C 261.110 351.010,259.040 351.830,258.600 352.022 C 250.893 355.385,231.230 360.264,218.600 361.946 C 211.074 362.949,208.576 363.188,200.922 363.638 C 177.593 365.008,142.314 359.613,125.000 352.027 C 124.560 351.834,122.670 351.088,120.800 350.370 C 118.930 349.651,116.270 348.554,114.890 347.932 C 113.509 347.309,112.289 346.800,112.178 346.800 C 111.919 346.800,100.646 341.161,98.800 340.108 C 92.078 336.273,84.669 331.694,81.800 329.601 C 80.700 328.799,78.159 326.940,76.154 325.471 C 71.893 322.349,71.882 322.347,69.786 324.300 " stroke="none" fill="#34bc9c" fill-rule="evenodd"></path></g></svg>