<svg id="svg" version="1.1" xmlns="http://www.w3.org/2000/svg" xmlns:xlink="http://www.w3.org/1999/xlink" width="400" height="400" viewBox="0, 0, 400,400"><g id="svgg"><path id="path0" d="M196.200 64.654 C 193.824 64.821,189.802 65.501,188.400 65.971 C 187.850 66.156,186.590 66.540,185.600 66.825 C 164.406 72.924,149.852 97.707,154.546 119.705 C 162.944 159.057,212.869 170.500,236.986 138.600 C 260.911 106.953,236.032 61.848,196.200 64.654 M280.060 268.100 C 279.660 269.397,279.257 271.029,275.796 285.400 C 272.659 298.424,270.396 307.743,270.016 309.200 C 269.815 309.970,269.431 311.500,269.163 312.600 C 268.895 313.700,268.502 314.825,268.289 315.100 C 267.981 315.498,244.645 315.600,153.984 315.600 C 45.588 315.600,37.995 315.656,39.263 316.439 C 39.685 316.700,39.692 316.868,39.297 317.263 C 39.023 317.537,38.800 318.343,38.800 319.056 C 38.800 319.769,38.620 320.464,38.400 320.600 C 38.180 320.736,38.000 321.377,38.000 322.024 C 38.000 322.671,37.820 323.200,37.600 323.200 C 37.380 323.200,37.200 323.729,37.200 324.376 C 37.200 325.023,37.020 325.664,36.800 325.800 C 36.580 325.936,36.400 326.677,36.400 327.447 C 36.400 328.301,36.240 328.748,35.990 328.594 C 35.765 328.455,35.606 328.489,35.637 328.670 C 35.820 329.723,35.549 332.416,35.277 332.247 C 35.099 332.138,34.910 332.802,34.857 333.724 C 34.803 334.646,34.589 335.460,34.380 335.533 C 34.171 335.607,34.000 336.246,34.000 336.953 C 34.000 337.661,33.820 338.420,33.600 338.640 C 33.380 338.860,33.171 339.796,33.135 340.720 C 33.098 341.644,32.918 342.400,32.734 342.400 C 32.550 342.400,32.400 343.030,32.400 343.800 C 32.400 344.570,32.220 345.200,32.000 345.200 C 31.780 345.200,31.600 345.931,31.600 346.824 C 31.600 347.804,31.442 348.349,31.200 348.200 C 30.962 348.053,30.800 348.529,30.800 349.376 C 30.800 350.159,30.649 350.800,30.465 350.800 C 30.281 350.800,30.099 351.610,30.062 352.600 L 29.994 354.400 99.897 354.406 C 138.344 354.409,170.015 354.549,170.278 354.716 C 170.614 354.930,170.652 355.432,170.406 356.410 C 169.936 358.275,168.610 363.265,167.831 366.100 C 167.484 367.365,166.916 369.435,166.569 370.700 C 166.221 371.965,165.591 374.305,165.169 375.900 C 163.162 383.470,162.780 384.904,161.617 389.200 C 160.932 391.730,160.265 394.385,160.134 395.100 L 159.895 396.400 180.094 396.400 L 200.292 396.400 200.977 393.500 C 201.354 391.905,201.827 390.060,202.029 389.400 C 202.390 388.219,203.073 385.713,204.756 379.400 C 205.225 377.640,206.313 373.590,207.175 370.400 C 208.036 367.210,209.310 362.441,210.006 359.802 C 210.702 357.162,211.480 354.870,211.736 354.708 C 211.991 354.545,228.857 354.409,249.216 354.406 C 290.049 354.399,288.763 354.473,293.196 351.883 C 299.718 348.072,301.014 345.454,305.648 326.735 C 307.628 318.741,311.666 302.465,314.624 290.567 C 317.581 278.669,320.000 268.454,320.000 267.867 L 320.000 266.800 300.231 266.800 L 280.462 266.800 280.060 268.100 " stroke="none" fill="#dbdbfb" fill-rule="evenodd"></path><path id="path1" d="M320.000 267.867 C 320.000 268.454,317.581 278.669,314.624 290.567 C 311.666 302.465,307.628 318.741,305.648 326.735 C 301.014 345.454,299.718 348.072,293.196 351.883 C 288.763 354.473,290.049 354.399,249.216 354.406 C 228.857 354.409,211.991 354.545,211.736 354.708 C 211.480 354.870,210.701 357.162,210.003 359.802 C 209.306 362.441,208.215 366.517,207.580 368.860 C 206.945 371.203,206.060 374.488,205.613 376.160 C 203.724 383.226,203.107 385.519,202.539 387.600 C 201.591 391.065,200.410 395.771,200.405 396.100 C 200.402 396.265,236.220 396.400,280.000 396.400 C 332.800 396.400,359.600 396.265,359.600 396.000 C 359.600 395.780,360.140 395.600,360.800 395.600 C 361.460 395.600,362.000 395.420,362.000 395.200 C 362.000 394.980,362.283 394.800,362.629 394.800 C 362.974 394.800,363.529 394.528,363.861 394.196 C 364.193 393.864,364.658 393.712,364.894 393.858 C 365.149 394.015,365.207 393.936,365.038 393.662 C 364.881 393.408,364.952 393.200,365.195 393.200 C 365.438 393.200,366.064 392.795,366.587 392.300 C 367.110 391.805,368.227 390.756,369.069 389.970 C 369.911 389.183,370.855 388.058,371.168 387.470 C 371.480 386.881,371.885 386.400,372.068 386.400 C 372.250 386.400,372.400 386.040,372.400 385.600 C 372.400 385.160,372.540 384.800,372.711 384.800 C 373.004 384.800,374.296 381.009,374.756 378.800 C 375.075 377.271,375.038 370.801,374.700 369.000 C 374.535 368.120,374.207 366.590,373.971 365.600 C 373.735 364.610,373.445 363.213,373.327 362.496 C 373.208 361.779,372.951 361.094,372.756 360.973 C 372.560 360.852,372.400 360.144,372.400 359.400 C 372.400 358.656,372.220 357.936,372.000 357.800 C 371.780 357.664,371.600 356.944,371.600 356.200 C 371.600 355.456,371.420 354.736,371.200 354.600 C 370.980 354.464,370.800 353.733,370.800 352.976 C 370.800 352.219,370.620 351.600,370.400 351.600 C 370.180 351.600,370.000 350.891,370.000 350.024 C 370.000 349.157,369.820 348.336,369.600 348.200 C 369.380 348.064,369.200 347.348,369.200 346.610 C 369.200 345.871,369.028 345.207,368.818 345.133 C 368.607 345.060,368.390 344.325,368.336 343.500 C 368.281 342.675,368.093 342.000,367.918 342.000 C 367.743 342.000,367.600 341.370,367.600 340.600 C 367.600 339.830,367.420 339.200,367.200 339.200 C 366.980 339.200,366.800 338.491,366.800 337.624 C 366.800 336.757,366.620 335.936,366.400 335.800 C 366.180 335.664,366.000 334.944,366.000 334.200 C 366.000 333.456,365.820 332.736,365.600 332.600 C 365.380 332.464,365.200 331.823,365.200 331.176 C 365.200 330.529,365.020 330.000,364.800 330.000 C 364.580 330.000,364.400 329.291,364.400 328.424 C 364.400 327.557,364.220 326.736,364.000 326.600 C 363.780 326.464,363.600 325.744,363.600 325.000 C 363.600 324.256,363.420 323.536,363.200 323.400 C 362.980 323.264,362.800 322.634,362.800 322.000 C 362.800 321.366,362.620 320.736,362.400 320.600 C 362.180 320.464,362.000 319.744,362.000 319.000 C 362.000 318.256,361.820 317.536,361.600 317.400 C 361.380 317.264,361.200 316.544,361.200 315.800 C 361.200 315.056,361.020 314.336,360.800 314.200 C 360.580 314.064,360.400 313.333,360.400 312.576 C 360.400 311.819,360.220 311.200,360.000 311.200 C 359.780 311.200,359.600 310.570,359.600 309.800 C 359.600 309.030,359.420 308.400,359.200 308.400 C 358.980 308.400,358.800 307.875,358.800 307.232 C 358.800 306.590,358.537 305.015,358.215 303.732 C 357.893 302.450,357.570 300.912,357.497 300.315 C 357.424 299.718,357.237 299.103,357.082 298.948 C 356.927 298.793,356.800 298.077,356.800 297.357 C 356.800 296.637,356.620 295.936,356.400 295.800 C 356.180 295.664,356.000 295.034,356.000 294.400 C 356.000 293.766,355.820 293.136,355.600 293.000 C 355.380 292.864,355.200 292.144,355.200 291.400 C 355.200 290.656,355.020 289.936,354.800 289.800 C 354.580 289.664,354.400 288.843,354.400 287.976 C 354.400 287.109,354.220 286.400,354.000 286.400 C 353.780 286.400,353.600 285.860,353.600 285.200 C 353.600 284.540,353.420 284.000,353.200 284.000 C 352.980 284.000,352.800 283.460,352.800 282.800 C 352.800 282.140,352.620 281.600,352.400 281.600 C 352.180 281.600,352.000 281.240,352.000 280.800 C 352.000 280.360,351.820 280.000,351.600 280.000 C 351.380 280.000,351.200 279.730,351.200 279.400 C 351.200 279.070,351.020 278.800,350.800 278.800 C 350.580 278.800,350.400 278.530,350.400 278.200 C 350.400 277.870,350.220 277.600,350.000 277.600 C 349.780 277.600,349.600 277.417,349.600 277.193 C 349.600 276.544,344.479 271.600,343.807 271.600 C 343.473 271.600,343.200 271.420,343.200 271.200 C 343.200 270.980,342.840 270.800,342.400 270.800 C 341.960 270.800,341.600 270.620,341.600 270.400 C 341.600 270.180,341.330 270.000,341.000 270.000 C 340.670 270.000,340.400 269.820,340.400 269.600 C 340.400 269.380,339.950 269.200,339.400 269.200 C 338.850 269.200,338.400 269.020,338.400 268.800 C 338.400 268.580,337.961 268.400,337.424 268.400 C 336.887 268.400,336.336 268.220,336.200 268.000 C 336.064 267.780,335.164 267.600,334.200 267.600 C 333.236 267.600,332.336 267.420,332.200 267.200 C 332.053 266.962,329.529 266.800,325.976 266.800 L 320.000 266.800 320.000 267.867 " stroke="none" fill="#5ab373" fill-rule="evenodd"></path><path id="path2" d="M195.905 64.683 C 196.402 64.779,197.122 64.775,197.505 64.675 C 197.887 64.575,197.480 64.496,196.600 64.501 C 195.720 64.505,195.407 64.587,195.905 64.683 M202.705 64.683 C 203.202 64.779,203.922 64.775,204.305 64.675 C 204.687 64.575,204.280 64.496,203.400 64.501 C 202.520 64.505,202.207 64.587,202.705 64.683 M232.600 78.000 C 233.683 79.100,234.660 80.000,234.770 80.000 C 234.880 80.000,234.083 79.100,233.000 78.000 C 231.917 76.900,230.940 76.000,230.830 76.000 C 230.720 76.000,231.517 76.900,232.600 78.000 M166.981 78.100 L 165.400 79.800 167.100 78.219 C 168.681 76.748,168.984 76.400,168.681 76.400 C 168.616 76.400,167.851 77.165,166.981 78.100 M153.709 107.600 C 153.709 108.590,153.787 108.995,153.882 108.500 C 153.978 108.005,153.978 107.195,153.882 106.700 C 153.787 106.205,153.709 106.610,153.709 107.600 M153.693 114.400 C 153.693 115.170,153.775 115.485,153.876 115.100 C 153.976 114.715,153.976 114.085,153.876 113.700 C 153.775 113.315,153.693 113.630,153.693 114.400 M68.800 267.200 C 68.470 267.413,67.446 267.591,66.524 267.594 C 65.602 267.597,64.736 267.780,64.600 268.000 C 64.464 268.220,63.838 268.400,63.210 268.400 C 62.581 268.400,62.004 268.588,61.927 268.818 C 61.851 269.048,61.398 269.265,60.922 269.301 C 60.445 269.337,60.144 269.509,60.251 269.683 C 60.359 269.857,60.075 270.000,59.620 270.000 C 59.165 270.000,58.228 270.540,57.537 271.200 C 56.846 271.860,56.123 272.400,55.930 272.400 C 55.737 272.400,54.769 273.210,53.779 274.200 C 52.789 275.190,51.804 276.000,51.589 276.000 C 51.375 276.000,51.200 276.225,51.200 276.500 C 51.199 276.775,50.736 277.538,50.170 278.196 C 49.604 278.854,49.042 279.889,48.921 280.496 C 48.799 281.103,48.543 281.600,48.350 281.600 C 48.157 281.600,48.000 281.960,48.000 282.400 C 48.000 282.840,47.820 283.200,47.600 283.200 C 47.380 283.200,47.200 283.740,47.200 284.400 C 47.200 285.060,47.020 285.600,46.800 285.600 C 46.580 285.600,46.400 286.219,46.400 286.976 C 46.400 287.733,46.220 288.464,46.000 288.600 C 45.780 288.736,45.600 289.456,45.600 290.200 C 45.600 290.944,45.459 291.640,45.287 291.746 C 45.115 291.852,44.930 292.538,44.875 293.270 C 44.820 294.001,44.600 294.660,44.387 294.733 C 44.174 294.807,44.000 295.572,44.000 296.433 C 44.000 297.295,43.840 298.000,43.644 298.000 C 43.448 298.000,43.197 298.585,43.086 299.300 C 42.975 300.015,42.765 301.140,42.619 301.800 C 42.473 302.460,42.180 303.777,41.969 304.726 C 41.758 305.675,41.681 306.608,41.799 306.798 C 41.917 306.989,41.830 307.258,41.607 307.396 C 41.383 307.534,41.200 308.098,41.200 308.650 C 41.200 309.201,41.024 309.981,40.810 310.382 C 40.595 310.783,40.376 311.685,40.322 312.386 C 40.269 313.087,40.085 313.748,39.913 313.854 C 39.741 313.960,39.600 314.397,39.600 314.824 C 39.600 315.804,267.531 316.079,268.289 315.100 C 268.502 314.825,268.895 313.700,269.163 312.600 C 269.431 311.500,269.815 309.970,270.016 309.200 C 270.404 307.715,273.526 294.874,275.851 285.200 C 278.560 273.926,280.030 267.987,280.257 267.397 C 280.458 266.873,278.156 266.800,261.395 266.800 L 242.305 266.800 236.453 272.511 C 231.465 277.379,228.179 280.376,222.800 284.962 C 222.250 285.431,221.170 286.253,220.400 286.788 C 219.630 287.323,218.910 287.875,218.800 288.014 C 218.690 288.154,216.980 289.339,215.000 290.649 C 202.914 298.645,198.156 298.701,186.558 290.983 C 180.329 286.839,165.501 273.992,161.578 269.341 C 159.245 266.575,163.452 266.799,114.011 266.806 C 85.900 266.810,69.178 266.956,68.800 267.200 M60.324 286.700 L 60.200 288.200 57.200 288.200 L 54.200 288.200 54.076 286.700 L 53.952 285.200 57.200 285.200 L 60.448 285.200 60.324 286.700 M75.924 286.700 L 75.800 288.200 72.800 288.200 L 69.800 288.200 69.676 286.700 L 69.552 285.200 72.800 285.200 L 76.048 285.200 75.924 286.700 M91.524 286.700 L 91.400 288.200 88.400 288.200 L 85.400 288.200 85.276 286.700 L 85.152 285.200 88.400 285.200 L 91.648 285.200 91.524 286.700 M107.124 286.700 L 107.000 288.200 104.000 288.200 L 101.000 288.200 100.876 286.700 L 100.752 285.200 104.000 285.200 L 107.248 285.200 107.124 286.700 M122.724 286.700 L 122.600 288.200 119.600 288.200 C 116.766 288.200,116.593 288.149,116.468 287.271 C 116.207 285.428,116.575 285.200,119.812 285.200 L 122.848 285.200 122.724 286.700 M138.324 286.700 L 138.200 288.200 135.200 288.200 C 132.366 288.200,132.193 288.149,132.068 287.271 C 131.807 285.428,132.175 285.200,135.412 285.200 L 138.448 285.200 138.324 286.700 M153.924 286.700 L 153.800 288.200 150.800 288.200 C 147.966 288.200,147.793 288.149,147.668 287.271 C 147.407 285.428,147.775 285.200,151.012 285.200 L 154.048 285.200 153.924 286.700 M169.524 286.700 L 169.400 288.200 166.400 288.200 C 163.566 288.200,163.393 288.149,163.268 287.271 C 163.007 285.428,163.375 285.200,166.612 285.200 L 169.648 285.200 169.524 286.700 " stroke="none" fill="#fac05b" fill-rule="evenodd"></path><path id="path3" d="M29.367 354.367 C 29.275 354.458,29.200 355.033,29.200 355.643 C 29.200 356.253,29.040 356.852,28.844 356.973 C 28.649 357.094,28.388 357.779,28.266 358.496 C 28.062 359.696,27.673 361.524,26.968 364.600 C 26.816 365.260,26.492 366.060,26.246 366.377 C 25.889 366.838,25.920 366.883,26.400 366.600 C 26.918 366.295,26.925 366.339,26.451 366.923 C 26.149 367.295,26.006 367.600,26.133 367.600 C 26.260 367.600,26.126 368.275,25.835 369.101 C 25.139 371.074,25.130 377.908,25.821 380.202 C 26.118 381.191,26.235 382.003,26.081 382.006 C 25.926 382.009,26.043 382.166,26.339 382.354 C 26.636 382.542,26.906 383.152,26.939 383.709 C 26.973 384.267,27.135 384.640,27.300 384.538 C 27.465 384.436,27.600 384.633,27.600 384.976 C 27.600 385.910,27.695 386.135,28.414 386.907 C 28.776 387.295,29.326 388.098,29.636 388.689 C 30.234 389.830,31.755 391.406,33.216 392.400 C 33.701 392.730,34.333 393.225,34.620 393.500 C 34.908 393.775,35.426 394.000,35.771 394.000 C 36.117 394.000,36.400 394.180,36.400 394.400 C 36.400 394.620,36.760 394.800,37.200 394.800 C 37.640 394.800,38.000 394.980,38.000 395.200 C 38.000 395.420,38.360 395.600,38.800 395.600 C 39.240 395.600,39.603 395.825,39.606 396.100 C 39.610 396.433,39.742 396.400,40.000 396.000 C 40.258 395.600,40.390 395.567,40.394 395.900 C 40.399 396.298,52.619 396.400,100.148 396.400 L 159.895 396.400 160.134 395.100 C 160.265 394.385,160.932 391.730,161.617 389.200 C 162.780 384.904,163.162 383.470,165.169 375.900 C 165.591 374.305,166.221 371.965,166.569 370.700 C 166.916 369.435,167.484 367.365,167.831 366.100 C 168.609 363.267,169.935 358.276,170.406 356.411 C 170.598 355.647,170.661 354.927,170.545 354.811 C 170.297 354.563,29.613 354.120,29.367 354.367 " stroke="none" fill="#2494f3" fill-rule="evenodd"></path><path id="path4" d="M185.600 4.800 C 185.600 5.029,184.400 5.200,182.800 5.200 C 181.200 5.200,180.000 5.371,180.000 5.600 C 180.000 5.820,179.201 6.000,178.224 6.000 C 177.247 6.000,176.336 6.180,176.200 6.400 C 176.064 6.620,175.153 6.800,174.176 6.800 C 173.199 6.800,172.400 6.980,172.400 7.200 C 172.400 7.420,171.680 7.600,170.800 7.600 C 169.920 7.600,169.200 7.755,169.200 7.945 C 169.200 8.135,168.255 8.407,167.100 8.551 C 165.048 8.806,159.876 10.391,159.338 10.929 C 159.189 11.078,158.737 11.200,158.333 11.200 C 157.930 11.200,157.600 11.341,157.600 11.513 C 157.600 11.685,157.105 11.866,156.500 11.916 C 155.895 11.966,155.340 12.185,155.267 12.403 C 155.193 12.622,154.788 12.800,154.367 12.800 C 153.945 12.800,153.600 12.980,153.600 13.200 C 153.600 13.420,153.161 13.600,152.624 13.600 C 152.087 13.600,151.536 13.780,151.400 14.000 C 151.264 14.220,150.803 14.400,150.376 14.400 C 149.949 14.400,149.600 14.580,149.600 14.800 C 149.600 15.020,149.240 15.200,148.800 15.200 C 148.360 15.200,148.000 15.380,148.000 15.600 C 148.000 15.820,147.640 16.000,147.200 16.000 C 146.760 16.000,146.400 16.180,146.400 16.400 C 146.400 16.620,146.040 16.800,145.600 16.800 C 145.160 16.800,144.800 16.946,144.800 17.125 C 144.800 17.304,144.170 17.698,143.400 18.000 C 142.630 18.302,142.000 18.696,142.000 18.875 C 142.000 19.054,141.764 19.200,141.475 19.200 C 141.187 19.200,140.564 19.560,140.092 20.000 C 139.620 20.440,138.956 20.800,138.617 20.800 C 138.278 20.800,138.000 20.980,138.000 21.200 C 138.000 21.420,137.764 21.600,137.475 21.600 C 137.187 21.600,136.564 21.960,136.092 22.400 C 135.620 22.840,134.945 23.200,134.593 23.200 C 134.241 23.200,134.064 23.380,134.200 23.600 C 134.336 23.820,134.167 24.000,133.824 24.000 C 133.481 24.000,133.200 24.180,133.200 24.400 C 133.200 24.620,132.992 24.800,132.738 24.800 C 132.484 24.800,131.719 25.222,131.038 25.738 C 130.357 26.254,129.602 26.749,129.361 26.838 C 128.716 27.076,125.743 29.548,123.754 31.500 C 122.801 32.435,121.831 33.200,121.600 33.200 C 121.104 33.200,111.546 42.767,109.800 45.011 C 109.140 45.859,108.195 46.961,107.700 47.458 C 107.205 47.956,106.800 48.570,106.800 48.821 C 106.800 49.073,106.260 49.783,105.600 50.400 C 104.940 51.017,104.400 51.692,104.400 51.901 C 104.400 52.110,103.860 52.846,103.200 53.537 C 102.540 54.228,102.000 55.025,102.000 55.308 C 102.000 55.591,101.640 56.083,101.200 56.400 C 100.760 56.717,100.400 57.257,100.400 57.600 C 100.400 57.943,100.040 58.483,99.600 58.800 C 99.160 59.117,98.800 59.607,98.800 59.888 C 98.800 60.170,98.620 60.400,98.400 60.400 C 98.180 60.400,98.000 60.760,98.000 61.200 C 98.000 61.640,97.848 62.000,97.663 62.000 C 97.477 62.000,96.892 62.855,96.363 63.900 C 95.833 64.945,95.265 65.860,95.100 65.933 C 94.935 66.007,94.800 66.412,94.800 66.833 C 94.800 67.255,94.620 67.600,94.400 67.600 C 94.180 67.600,94.000 67.960,94.000 68.400 C 94.000 68.840,93.820 69.200,93.600 69.200 C 93.380 69.200,93.200 69.560,93.200 70.000 C 93.200 70.440,93.020 70.800,92.800 70.800 C 92.580 70.800,92.399 71.115,92.398 71.500 C 92.396 71.885,92.126 72.716,91.798 73.346 C 91.469 73.976,91.200 74.741,91.200 75.046 C 91.200 75.351,91.020 75.600,90.800 75.600 C 90.580 75.600,90.400 75.955,90.400 76.388 C 90.400 76.821,90.040 77.817,89.600 78.600 C 89.160 79.383,88.800 80.379,88.800 80.812 C 88.800 81.245,88.620 81.600,88.400 81.600 C 88.180 81.600,88.000 82.140,88.000 82.800 C 88.000 83.460,87.820 84.000,87.600 84.000 C 87.380 84.000,87.200 84.540,87.200 85.200 C 87.200 85.860,87.020 86.400,86.800 86.400 C 86.580 86.400,86.400 86.940,86.400 87.600 C 86.400 88.260,86.220 88.800,86.000 88.800 C 85.780 88.800,85.600 89.419,85.600 90.176 C 85.600 90.933,85.420 91.664,85.200 91.800 C 84.980 91.936,84.800 92.667,84.800 93.424 C 84.800 94.181,84.620 94.800,84.400 94.800 C 84.180 94.800,84.000 95.520,84.000 96.400 C 84.000 97.280,83.820 98.000,83.600 98.000 C 83.380 98.000,83.200 98.889,83.200 99.976 C 83.200 101.063,83.020 102.064,82.800 102.200 C 82.580 102.336,82.400 103.596,82.400 105.000 C 82.400 106.404,82.220 107.664,82.000 107.800 C 81.773 107.940,81.600 109.930,81.600 112.400 C 81.600 114.870,81.427 116.860,81.200 117.000 C 80.707 117.305,80.659 126.265,81.149 126.568 C 81.341 126.687,81.531 128.538,81.571 130.682 C 81.611 132.826,81.794 134.674,81.978 134.790 C 82.162 134.905,82.422 135.945,82.556 137.100 C 82.690 138.255,82.907 140.100,83.039 141.200 C 83.170 142.300,83.440 143.200,83.639 143.200 C 83.837 143.200,84.000 143.920,84.000 144.800 C 84.000 145.680,84.180 146.400,84.400 146.400 C 84.620 146.400,84.800 147.120,84.800 148.000 C 84.800 148.880,84.980 149.600,85.200 149.600 C 85.420 149.600,85.600 150.039,85.600 150.576 C 85.600 151.113,85.780 151.664,86.000 151.800 C 86.220 151.936,86.400 152.577,86.400 153.224 C 86.400 153.871,86.580 154.400,86.800 154.400 C 87.020 154.400,87.200 154.940,87.200 155.600 C 87.200 156.260,87.380 156.800,87.600 156.800 C 87.820 156.800,88.000 157.250,88.000 157.800 C 88.000 158.350,88.180 158.800,88.400 158.800 C 88.620 158.800,88.800 159.340,88.800 160.000 C 88.800 160.660,88.980 161.200,89.200 161.200 C 89.420 161.200,89.600 161.740,89.600 162.400 C 89.600 163.060,89.780 163.600,90.000 163.600 C 90.220 163.600,90.400 163.960,90.400 164.400 C 90.400 164.840,90.580 165.200,90.800 165.200 C 91.020 165.200,91.200 165.740,91.200 166.400 C 91.200 167.060,91.358 167.600,91.550 167.600 C 91.743 167.600,92.008 168.139,92.140 168.798 C 92.271 169.456,92.744 170.750,93.190 171.673 C 93.635 172.595,94.000 173.586,94.000 173.875 C 94.000 174.164,94.180 174.400,94.400 174.400 C 94.620 174.400,94.800 174.760,94.800 175.200 C 94.800 175.640,94.980 176.000,95.200 176.000 C 95.420 176.000,95.600 176.360,95.600 176.800 C 95.600 177.240,95.780 177.600,96.000 177.600 C 96.220 177.600,96.400 177.960,96.400 178.400 C 96.400 178.840,96.580 179.200,96.800 179.200 C 97.020 179.200,97.200 179.560,97.200 180.000 C 97.200 180.440,97.380 180.800,97.600 180.800 C 97.820 180.800,98.000 181.045,98.000 181.344 C 98.000 182.001,100.476 186.945,100.900 187.133 C 101.065 187.207,101.200 187.612,101.200 188.033 C 101.200 188.455,101.380 188.800,101.600 188.800 C 101.820 188.800,102.000 189.160,102.000 189.600 C 102.000 190.040,102.180 190.400,102.400 190.400 C 102.620 190.400,102.800 190.670,102.800 191.000 C 102.800 191.330,102.980 191.600,103.200 191.600 C 103.420 191.600,103.600 191.960,103.600 192.400 C 103.600 192.840,103.780 193.200,104.000 193.200 C 104.220 193.200,104.400 193.520,104.400 193.912 C 104.400 194.303,104.760 194.883,105.200 195.200 C 105.640 195.517,106.000 196.097,106.000 196.488 C 106.000 196.880,106.180 197.200,106.400 197.200 C 106.620 197.200,106.800 197.560,106.800 198.000 C 106.800 198.440,106.980 198.800,107.200 198.800 C 107.420 198.800,107.600 199.160,107.600 199.600 C 107.600 200.040,107.744 200.400,107.920 200.400 C 108.096 200.400,108.632 201.165,109.111 202.100 C 110.437 204.688,112.120 207.484,112.900 208.393 C 113.285 208.842,113.600 209.437,113.600 209.716 C 113.600 209.995,113.960 210.483,114.400 210.800 C 114.840 211.117,115.200 211.657,115.200 212.000 C 115.200 212.343,115.560 212.883,116.000 213.200 C 116.440 213.517,116.800 214.057,116.800 214.400 C 116.800 214.743,117.160 215.283,117.600 215.600 C 118.040 215.917,118.400 216.457,118.400 216.800 C 118.400 217.143,118.760 217.683,119.200 218.000 C 119.640 218.317,120.000 218.857,120.000 219.200 C 120.000 219.543,120.360 220.083,120.800 220.400 C 121.240 220.717,121.600 221.257,121.600 221.600 C 121.600 221.943,121.960 222.483,122.400 222.800 C 122.840 223.117,123.200 223.567,123.200 223.800 C 123.200 224.033,123.560 224.483,124.000 224.800 C 124.440 225.117,124.800 225.620,124.800 225.917 C 124.800 226.214,125.025 226.708,125.300 227.015 C 126.437 228.282,126.800 228.783,126.802 229.083 C 126.803 229.257,127.343 229.975,128.002 230.678 C 128.661 231.381,129.200 232.197,129.200 232.490 C 129.200 232.783,129.560 233.283,130.000 233.600 C 130.440 233.917,130.800 234.385,130.800 234.640 C 130.800 234.895,131.520 235.845,132.400 236.752 C 133.280 237.659,134.000 238.546,134.000 238.722 C 134.000 239.035,135.337 240.620,138.201 243.707 C 138.971 244.535,139.600 245.408,139.600 245.646 C 139.600 245.884,140.111 246.556,140.735 247.140 C 141.359 247.723,142.131 248.698,142.450 249.307 C 143.121 250.588,145.775 253.650,149.900 257.904 C 151.495 259.549,152.800 261.056,152.800 261.254 C 152.800 261.843,157.828 266.691,158.738 266.980 C 159.199 267.127,160.257 267.977,161.088 268.870 C 167.335 275.577,180.232 286.774,186.558 290.983 C 198.156 298.701,202.914 298.645,215.000 290.649 C 216.980 289.339,218.690 288.154,218.800 288.014 C 218.910 287.875,219.630 287.323,220.400 286.788 C 221.170 286.253,222.250 285.431,222.800 284.962 C 227.994 280.533,231.488 277.373,236.600 272.480 C 239.900 269.322,244.163 265.266,246.073 263.469 C 247.983 261.671,249.558 260.011,249.573 259.780 C 249.588 259.549,250.725 258.193,252.100 256.766 C 255.162 253.590,257.601 250.692,258.400 249.283 C 258.730 248.700,259.675 247.558,260.500 246.743 C 261.325 245.929,262.000 245.063,262.000 244.818 C 262.000 244.573,262.606 243.725,263.347 242.933 C 265.205 240.946,265.662 240.398,266.801 238.795 C 267.346 238.028,268.288 236.878,268.896 236.241 C 269.503 235.603,270.000 234.878,270.000 234.629 C 270.000 234.380,270.360 233.917,270.800 233.600 C 271.240 233.283,271.600 232.769,271.600 232.459 C 271.600 232.148,271.933 231.603,272.341 231.247 C 272.748 230.891,273.383 230.060,273.752 229.400 C 275.313 226.606,276.128 225.383,276.842 224.764 C 277.259 224.402,277.600 223.985,277.600 223.836 C 277.600 223.688,277.960 223.180,278.400 222.708 C 278.840 222.236,279.200 221.613,279.200 221.325 C 279.200 221.036,279.380 220.800,279.600 220.800 C 279.820 220.800,280.000 220.519,280.000 220.176 C 280.000 219.833,280.180 219.664,280.400 219.800 C 280.620 219.936,280.800 219.677,280.800 219.224 C 280.800 218.771,280.980 218.400,281.200 218.400 C 281.420 218.400,281.600 218.119,281.600 217.776 C 281.600 217.433,281.780 217.264,282.000 217.400 C 282.220 217.536,282.400 217.359,282.400 217.007 C 282.400 216.655,282.760 215.980,283.200 215.508 C 283.640 215.036,284.000 214.413,284.000 214.125 C 284.000 213.836,284.180 213.600,284.400 213.600 C 284.620 213.600,284.800 213.364,284.800 213.075 C 284.800 212.787,285.160 212.164,285.600 211.692 C 286.040 211.220,286.400 210.622,286.400 210.364 C 286.400 210.105,286.716 209.603,287.101 209.247 C 287.778 208.623,288.336 207.699,290.633 203.400 C 291.221 202.300,291.859 201.340,292.051 201.267 C 292.243 201.193,292.400 200.788,292.400 200.367 C 292.400 199.945,292.580 199.600,292.800 199.600 C 293.020 199.600,293.200 199.240,293.200 198.800 C 293.200 198.360,293.380 198.000,293.600 198.000 C 293.820 198.000,294.000 197.680,294.000 197.288 C 294.000 196.897,294.360 196.317,294.800 196.000 C 295.240 195.683,295.600 195.103,295.600 194.712 C 295.600 194.320,295.780 194.000,296.000 194.000 C 296.220 194.000,296.400 193.640,296.400 193.200 C 296.400 192.760,296.546 192.400,296.725 192.400 C 296.904 192.400,297.298 191.770,297.600 191.000 C 297.902 190.230,298.296 189.600,298.475 189.600 C 298.654 189.600,298.800 189.240,298.800 188.800 C 298.800 188.360,298.980 188.000,299.200 188.000 C 299.420 188.000,299.600 187.640,299.600 187.200 C 299.600 186.760,299.780 186.400,300.000 186.400 C 300.220 186.400,300.400 186.040,300.400 185.600 C 300.400 185.160,300.580 184.800,300.800 184.800 C 301.020 184.800,301.200 184.440,301.200 184.000 C 301.200 183.560,301.380 183.200,301.600 183.200 C 301.820 183.200,302.000 182.840,302.000 182.400 C 302.000 181.960,302.180 181.600,302.400 181.600 C 302.620 181.600,302.800 181.240,302.800 180.800 C 302.800 180.360,302.980 180.000,303.200 180.000 C 303.420 180.000,303.600 179.640,303.600 179.200 C 303.600 178.760,303.780 178.400,304.000 178.400 C 304.220 178.400,304.400 178.040,304.400 177.600 C 304.400 177.160,304.580 176.800,304.800 176.800 C 305.020 176.800,305.200 176.528,305.200 176.195 C 305.200 175.862,305.364 175.277,305.565 174.895 C 306.827 172.495,308.000 169.599,308.000 168.884 C 308.000 168.424,308.180 167.936,308.400 167.800 C 308.620 167.664,308.800 167.203,308.800 166.776 C 308.800 166.349,308.980 166.000,309.200 166.000 C 309.420 166.000,309.600 165.460,309.600 164.800 C 309.600 164.140,309.780 163.600,310.000 163.600 C 310.220 163.600,310.400 163.251,310.400 162.824 C 310.400 162.397,310.580 161.936,310.800 161.800 C 311.020 161.664,311.200 161.113,311.200 160.576 C 311.200 160.039,311.380 159.600,311.600 159.600 C 311.820 159.600,312.000 159.060,312.000 158.400 C 312.000 157.740,312.180 157.200,312.400 157.200 C 312.620 157.200,312.800 156.761,312.800 156.224 C 312.800 155.687,312.980 155.136,313.200 155.000 C 313.420 154.864,313.600 154.234,313.600 153.600 C 313.600 152.966,313.780 152.336,314.000 152.200 C 314.220 152.064,314.400 151.423,314.400 150.776 C 314.400 150.129,314.580 149.600,314.800 149.600 C 315.020 149.600,315.200 148.880,315.200 148.000 C 315.200 147.120,315.380 146.400,315.600 146.400 C 315.820 146.400,316.000 145.680,316.000 144.800 C 316.000 143.920,316.180 143.200,316.400 143.200 C 316.620 143.200,316.800 142.401,316.800 141.424 C 316.800 140.447,316.980 139.536,317.200 139.400 C 317.420 139.264,317.600 138.342,317.600 137.350 C 317.600 136.359,317.770 135.229,317.978 134.840 C 318.187 134.452,318.390 132.479,318.431 130.458 C 318.472 128.436,318.662 126.685,318.853 126.567 C 319.348 126.261,319.297 117.600,318.800 117.600 C 318.556 117.600,318.400 115.741,318.400 112.824 C 318.400 110.071,318.231 107.942,318.000 107.800 C 317.780 107.664,317.600 106.483,317.600 105.176 C 317.600 103.859,317.422 102.800,317.200 102.800 C 316.978 102.800,316.800 101.733,316.800 100.400 C 316.800 99.067,316.622 98.000,316.400 98.000 C 316.180 98.000,316.000 97.280,316.000 96.400 C 316.000 95.520,315.820 94.800,315.600 94.800 C 315.380 94.800,315.200 94.170,315.200 93.400 C 315.200 92.630,315.020 92.000,314.800 92.000 C 314.580 92.000,314.400 91.280,314.400 90.400 C 314.400 89.520,314.220 88.800,314.000 88.800 C 313.780 88.800,313.600 88.260,313.600 87.600 C 313.600 86.940,313.420 86.400,313.200 86.400 C 312.980 86.400,312.800 85.860,312.800 85.200 C 312.800 84.540,312.620 84.000,312.400 84.000 C 312.180 84.000,312.000 83.460,312.000 82.800 C 312.000 82.140,311.820 81.600,311.600 81.600 C 311.380 81.600,311.200 81.161,311.200 80.624 C 311.200 80.087,311.020 79.536,310.800 79.400 C 310.580 79.264,310.400 78.803,310.400 78.376 C 310.400 77.949,310.220 77.600,310.000 77.600 C 309.780 77.600,309.600 77.150,309.600 76.600 C 309.600 76.050,309.420 75.600,309.200 75.600 C 308.980 75.600,308.800 75.351,308.800 75.046 C 308.800 74.741,308.531 73.976,308.202 73.346 C 307.874 72.716,307.604 71.885,307.602 71.500 C 307.601 71.115,307.420 70.800,307.200 70.800 C 306.980 70.800,306.800 70.440,306.800 70.000 C 306.800 69.560,306.620 69.200,306.400 69.200 C 306.180 69.200,306.000 68.840,306.000 68.400 C 306.000 67.960,305.820 67.600,305.600 67.600 C 305.380 67.600,305.200 67.240,305.200 66.800 C 305.200 66.360,305.020 66.000,304.800 66.000 C 304.580 66.000,304.400 65.640,304.400 65.200 C 304.400 64.760,304.220 64.400,304.000 64.400 C 303.780 64.400,303.600 64.152,303.600 63.849 C 303.600 63.546,303.327 63.071,302.993 62.794 C 302.659 62.517,302.083 61.640,301.713 60.845 C 301.343 60.050,300.717 59.109,300.320 58.753 C 299.924 58.397,299.600 57.852,299.600 57.541 C 299.600 57.231,299.240 56.717,298.800 56.400 C 298.360 56.083,298.000 55.591,298.000 55.308 C 298.000 55.025,297.460 54.228,296.800 53.537 C 296.140 52.846,295.600 52.110,295.600 51.901 C 295.600 51.692,295.060 51.017,294.400 50.400 C 293.740 49.783,293.200 49.073,293.200 48.821 C 293.200 48.570,292.795 47.956,292.300 47.458 C 291.805 46.961,290.860 45.859,290.200 45.011 C 288.554 42.896,278.910 33.200,278.451 33.200 C 278.248 33.200,277.162 32.300,276.039 31.200 C 274.915 30.100,273.897 29.200,273.776 29.200 C 273.655 29.200,272.981 28.661,272.278 28.002 C 271.575 27.343,270.852 26.803,270.671 26.802 C 270.491 26.801,270.092 26.575,269.785 26.300 C 268.421 25.077,268.001 24.800,267.505 24.800 C 267.214 24.800,266.717 24.440,266.400 24.000 C 266.083 23.560,265.586 23.200,265.295 23.200 C 265.004 23.200,264.380 22.840,263.908 22.400 C 263.436 21.960,262.813 21.600,262.525 21.600 C 262.236 21.600,262.000 21.420,262.000 21.200 C 262.000 20.980,261.722 20.800,261.383 20.800 C 261.044 20.800,260.380 20.440,259.908 20.000 C 259.436 19.560,258.813 19.200,258.525 19.200 C 258.236 19.200,258.000 19.054,258.000 18.875 C 258.000 18.696,257.370 18.302,256.600 18.000 C 255.830 17.698,255.200 17.304,255.200 17.125 C 255.200 16.946,254.840 16.800,254.400 16.800 C 253.960 16.800,253.600 16.620,253.600 16.400 C 253.600 16.180,253.366 16.000,253.080 16.000 C 252.344 16.000,250.407 15.059,250.403 14.700 C 250.401 14.535,250.051 14.400,249.624 14.400 C 249.197 14.400,248.736 14.220,248.600 14.000 C 248.464 13.780,247.913 13.600,247.376 13.600 C 246.839 13.600,246.400 13.420,246.400 13.200 C 246.400 12.980,246.040 12.800,245.600 12.800 C 245.160 12.800,244.800 12.620,244.800 12.400 C 244.800 12.180,244.438 12.000,243.995 12.000 C 243.552 12.000,242.877 11.841,242.495 11.647 C 242.113 11.452,241.260 11.071,240.600 10.800 C 239.940 10.529,239.087 10.148,238.705 9.953 C 238.323 9.759,237.594 9.600,237.085 9.600 C 236.576 9.600,235.970 9.410,235.737 9.177 C 235.504 8.944,234.298 8.649,233.057 8.521 C 231.816 8.393,230.800 8.133,230.800 7.944 C 230.800 7.755,230.080 7.600,229.200 7.600 C 228.320 7.600,227.600 7.438,227.600 7.240 C 227.600 6.904,226.625 6.717,221.900 6.151 C 220.855 6.025,220.000 5.760,220.000 5.561 C 220.000 5.363,218.751 5.200,217.224 5.200 C 215.697 5.200,214.336 5.020,214.200 4.800 C 213.861 4.251,185.600 4.251,185.600 4.800 M209.400 65.216 C 210.280 65.464,211.720 65.853,212.600 66.080 C 219.361 67.824,226.973 72.241,232.348 77.540 C 234.999 80.154,239.200 85.212,239.200 85.791 C 239.200 85.890,239.723 86.798,240.363 87.806 C 244.254 93.942,246.846 105.586,246.193 114.000 C 243.358 150.536,201.696 169.768,172.498 148.018 C 135.872 120.737,155.831 63.541,201.600 64.618 C 205.010 64.698,208.520 64.967,209.400 65.216 M54.076 286.700 L 54.200 288.200 57.200 288.200 L 60.200 288.200 60.324 286.700 L 60.448 285.200 57.200 285.200 L 53.952 285.200 54.076 286.700 M69.676 286.700 L 69.800 288.200 72.800 288.200 L 75.800 288.200 75.924 286.700 L 76.048 285.200 72.800 285.200 L 69.552 285.200 69.676 286.700 M85.276 286.700 L 85.400 288.200 88.400 288.200 L 91.400 288.200 91.524 286.700 L 91.648 285.200 88.400 285.200 L 85.152 285.200 85.276 286.700 M100.876 286.700 L 101.000 288.200 104.000 288.200 L 107.000 288.200 107.124 286.700 L 107.248 285.200 104.000 285.200 L 100.752 285.200 100.876 286.700 M116.556 285.771 C 115.819 287.691,116.457 288.200,119.600 288.200 L 122.600 288.200 122.724 286.700 L 122.848 285.200 119.812 285.200 C 117.550 285.200,116.719 285.346,116.556 285.771 M132.156 285.771 C 131.419 287.691,132.057 288.200,135.200 288.200 L 138.200 288.200 138.324 286.700 L 138.448 285.200 135.412 285.200 C 133.150 285.200,132.319 285.346,132.156 285.771 M147.756 285.771 C 147.019 287.691,147.657 288.200,150.800 288.200 L 153.800 288.200 153.924 286.700 L 154.048 285.200 151.012 285.200 C 148.750 285.200,147.919 285.346,147.756 285.771 M163.356 285.771 C 162.619 287.691,163.257 288.200,166.400 288.200 L 169.400 288.200 169.524 286.700 L 169.648 285.200 166.612 285.200 C 164.350 285.200,163.519 285.346,163.356 285.771 " stroke="none" fill="#f3535c" fill-rule="evenodd"></path></g></svg>