<svg id="svg" version="1.1" xmlns="http://www.w3.org/2000/svg" xmlns:xlink="http://www.w3.org/1999/xlink" width="400" height="400" viewBox="0, 0, 400,400"><g id="svgg"><path id="path0" d="M74.300 0.269 C 73.255 0.365,72.400 0.614,72.400 0.822 C 72.400 1.030,71.860 1.200,71.200 1.200 C 70.540 1.200,70.000 1.380,70.000 1.600 C 70.000 1.820,69.460 2.000,68.800 2.000 C 68.140 2.000,67.600 2.180,67.600 2.400 C 67.600 2.620,67.240 2.800,66.800 2.800 C 66.360 2.800,66.000 2.980,66.000 3.200 C 66.000 3.420,65.657 3.600,65.238 3.600 C 64.331 3.600,61.200 5.208,61.200 5.674 C 61.200 5.853,60.964 6.000,60.675 6.000 C 60.387 6.000,59.764 6.360,59.292 6.800 C 58.820 7.240,58.323 7.600,58.188 7.600 C 58.053 7.600,57.708 7.825,57.420 8.100 C 57.133 8.375,56.502 8.870,56.018 9.200 C 53.955 10.606,52.358 12.074,47.812 16.741 C 45.166 19.458,41.675 22.968,40.056 24.541 C 36.202 28.284,28.145 36.343,24.546 40.056 C 22.976 41.675,19.553 45.070,16.938 47.600 C 14.324 50.130,11.561 53.010,10.798 54.000 C 10.035 54.990,9.229 56.019,9.006 56.286 C 8.783 56.553,8.375 57.041,8.100 57.369 C 7.825 57.698,7.600 58.071,7.600 58.200 C 7.600 58.328,7.240 58.820,6.800 59.292 C 6.360 59.764,6.000 60.387,6.000 60.675 C 6.000 60.964,5.820 61.200,5.600 61.200 C 5.380 61.200,5.200 61.470,5.200 61.800 C 5.200 62.130,5.065 62.401,4.900 62.403 C 4.494 62.407,3.600 64.386,3.600 65.280 C 3.600 65.676,3.420 66.000,3.200 66.000 C 2.980 66.000,2.800 66.360,2.800 66.800 C 2.800 67.240,2.620 67.600,2.400 67.600 C 2.180 67.600,2.000 68.140,2.000 68.800 C 2.000 69.460,1.820 70.000,1.600 70.000 C 1.380 70.000,1.200 70.525,1.200 71.167 C 1.200 71.808,0.975 72.408,0.700 72.500 C -0.027 72.742,-0.027 96.058,0.700 96.300 C 0.975 96.392,1.200 96.992,1.200 97.633 C 1.200 98.275,1.380 98.800,1.600 98.800 C 1.820 98.800,2.000 99.340,2.000 100.000 C 2.000 100.660,2.180 101.200,2.400 101.200 C 2.620 101.200,2.800 101.560,2.800 102.000 C 2.800 102.440,2.980 102.800,3.200 102.800 C 3.420 102.800,3.600 103.160,3.600 103.600 C 3.600 104.040,3.780 104.400,4.000 104.400 C 4.220 104.400,4.400 104.760,4.400 105.200 C 4.400 105.640,4.536 106.000,4.702 106.000 C 4.869 106.000,5.260 106.585,5.572 107.300 C 5.884 108.015,6.424 108.870,6.772 109.200 C 7.121 109.530,7.674 110.327,8.003 110.971 C 8.509 111.964,53.710 157.600,54.187 157.600 C 54.279 157.600,54.251 156.376,54.125 154.879 C 53.954 152.840,54.053 151.864,54.520 150.979 C 55.314 149.475,149.542 55.262,151.036 54.480 C 151.872 54.041,152.907 53.958,155.175 54.145 L 158.200 54.395 135.200 31.490 C 122.550 18.893,111.660 8.320,111.000 7.996 C 110.340 7.671,109.530 7.121,109.200 6.772 C 108.870 6.424,108.015 5.884,107.300 5.572 C 106.585 5.260,106.000 4.869,106.000 4.702 C 106.000 4.536,105.640 4.400,105.200 4.400 C 104.760 4.400,104.400 4.220,104.400 4.000 C 104.400 3.780,104.040 3.600,103.600 3.600 C 103.160 3.600,102.800 3.420,102.800 3.200 C 102.800 2.980,102.440 2.800,102.000 2.800 C 101.560 2.800,101.200 2.620,101.200 2.400 C 101.200 2.180,100.660 2.000,100.000 2.000 C 99.340 2.000,98.800 1.820,98.800 1.600 C 98.800 1.380,98.275 1.200,97.633 1.200 C 96.992 1.200,96.396 0.988,96.309 0.728 C 96.150 0.249,78.515 -0.119,74.300 0.269 " stroke="none" fill="#fc547b" fill-rule="evenodd"></path><path id="path1" d="M151.000 54.430 C 150.560 54.684,140.479 64.592,128.598 76.447 L 106.997 98.001 203.104 194.100 L 299.211 290.200 297.505 290.325 C 296.567 290.394,295.629 290.619,295.420 290.825 C 295.211 291.031,294.788 291.200,294.480 291.200 C 293.753 291.200,291.200 293.753,291.200 294.480 C 291.200 294.788,291.031 295.211,290.825 295.420 C 290.619 295.629,290.394 296.567,290.325 297.505 L 290.200 299.211 194.099 203.102 L 97.997 106.993 76.223 128.797 C 52.865 152.185,53.715 151.168,54.138 155.215 C 54.419 157.896,54.564 158.072,65.200 168.625 C 68.390 171.790,72.080 175.463,73.400 176.786 C 75.434 178.825,80.852 184.246,90.103 193.497 C 91.203 194.597,94.893 198.287,98.303 201.697 C 101.713 205.107,105.381 208.775,106.455 209.848 C 107.528 210.922,111.218 214.612,114.655 218.048 C 122.436 225.828,124.196 227.588,131.855 235.248 C 135.238 238.632,138.928 242.322,140.055 243.448 C 141.181 244.575,144.893 248.287,148.303 251.697 C 151.713 255.107,155.403 258.797,156.503 259.897 C 157.603 260.997,161.293 264.687,164.704 268.096 C 172.423 275.815,174.173 277.565,181.952 285.345 C 185.388 288.782,189.078 292.472,190.152 293.545 C 191.225 294.619,194.893 298.287,198.303 301.697 C 201.713 305.107,205.403 308.797,206.503 309.897 C 215.028 318.421,221.265 324.656,223.260 326.648 C 224.556 327.942,228.405 331.790,231.813 335.200 C 235.222 338.610,238.912 342.300,240.014 343.400 C 241.117 344.500,244.608 348.010,247.774 351.200 C 250.939 354.390,254.670 358.087,256.065 359.416 C 257.459 360.744,259.095 362.444,259.700 363.193 C 260.910 364.691,261.149 364.211,260.434 361.717 C 260.232 361.014,260.014 352.825,259.950 343.520 C 259.788 320.212,258.175 322.135,277.715 322.345 L 291.231 322.490 291.164 309.345 C 291.067 289.844,289.840 291.070,309.345 291.168 L 322.491 291.235 322.345 277.717 C 322.135 258.184,320.193 259.817,343.469 259.957 C 352.787 260.013,360.991 260.225,361.702 260.429 C 364.211 261.149,364.693 260.913,363.193 259.700 C 362.444 259.095,360.744 257.459,359.416 256.065 C 358.087 254.670,354.390 250.939,351.200 247.774 C 348.010 244.608,344.500 241.117,343.400 240.014 C 342.300 238.912,338.610 235.222,335.200 231.813 C 326.770 223.387,317.582 214.198,309.992 206.600 C 307.406 204.011,295.989 192.594,293.400 190.008 C 283.779 180.397,269.787 166.405,259.943 156.552 C 257.296 153.901,246.099 142.704,243.448 140.057 C 233.585 130.203,219.797 116.415,209.943 106.552 C 205.167 101.771,195.348 91.954,193.538 90.152 C 192.460 89.078,188.985 85.590,185.815 82.400 C 182.645 79.210,178.735 75.307,177.126 73.726 C 175.517 72.145,171.650 68.275,168.533 65.126 C 165.416 61.977,161.659 58.259,160.183 56.865 L 157.500 54.331 154.650 54.149 C 152.891 54.037,151.494 54.145,151.000 54.430 " stroke="none" fill="#fcd33b" fill-rule="evenodd"></path><path id="path2" d="M326.917 260.031 C 322.389 260.968,322.174 261.800,322.345 277.717 L 322.491 291.235 309.345 291.159 C 289.863 291.048,291.089 289.821,291.173 309.345 L 291.231 322.490 277.715 322.345 C 258.182 322.135,259.788 320.233,259.947 343.400 C 260.079 362.663,260.496 366.000,262.771 366.000 C 263.007 366.000,263.200 366.180,263.200 366.400 C 263.200 366.620,263.729 366.800,264.376 366.800 C 265.023 366.800,265.652 366.960,265.773 367.156 C 265.981 367.492,266.476 367.615,270.104 368.233 C 270.931 368.373,271.706 368.649,271.827 368.844 C 271.948 369.040,272.667 369.200,273.424 369.200 C 274.181 369.200,274.800 369.380,274.800 369.600 C 274.800 369.820,275.430 370.000,276.200 370.000 C 276.970 370.000,277.600 370.180,277.600 370.400 C 277.600 370.620,278.219 370.800,278.976 370.800 C 279.733 370.800,280.464 370.980,280.600 371.200 C 280.736 371.420,281.366 371.600,282.000 371.600 C 282.634 371.600,283.264 371.780,283.400 372.000 C 283.536 372.220,284.256 372.400,285.000 372.400 C 285.744 372.400,286.464 372.580,286.600 372.800 C 286.736 373.020,287.379 373.200,288.029 373.200 C 288.679 373.200,289.523 373.368,289.905 373.573 C 290.849 374.079,295.723 375.200,296.982 375.200 C 297.542 375.200,298.000 375.380,298.000 375.600 C 298.000 375.820,298.720 376.000,299.600 376.000 C 300.480 376.000,301.200 376.180,301.200 376.400 C 301.200 376.620,301.819 376.800,302.576 376.800 C 303.333 376.800,304.064 376.980,304.200 377.200 C 304.336 377.420,304.977 377.600,305.624 377.600 C 306.271 377.600,306.800 377.780,306.800 378.000 C 306.800 378.220,307.520 378.400,308.400 378.400 C 309.280 378.400,310.000 378.580,310.000 378.800 C 310.000 379.020,310.630 379.200,311.400 379.200 C 312.170 379.200,312.800 379.380,312.800 379.600 C 312.800 379.820,313.520 380.000,314.400 380.000 C 315.280 380.000,316.000 380.180,316.000 380.400 C 316.000 380.620,316.529 380.800,317.176 380.800 C 317.823 380.800,318.464 380.980,318.600 381.200 C 318.736 381.420,319.467 381.600,320.224 381.600 C 320.981 381.600,321.600 381.780,321.600 382.000 C 321.600 382.220,322.320 382.400,323.200 382.400 C 324.080 382.400,324.800 382.580,324.800 382.800 C 324.800 383.020,325.430 383.200,326.200 383.200 C 326.970 383.200,327.600 383.380,327.600 383.600 C 327.600 383.820,328.368 384.000,329.306 384.000 L 331.013 384.000 357.506 357.506 L 384.000 331.013 384.000 329.306 C 384.000 328.368,383.820 327.600,383.600 327.600 C 383.380 327.600,383.200 326.970,383.200 326.200 C 383.200 325.430,383.020 324.800,382.800 324.800 C 382.580 324.800,382.400 324.080,382.400 323.200 C 382.400 322.320,382.220 321.600,382.000 321.600 C 381.780 321.600,381.600 320.981,381.600 320.224 C 381.600 319.467,381.420 318.736,381.200 318.600 C 380.980 318.464,380.800 317.834,380.800 317.200 C 380.800 316.566,380.620 315.936,380.400 315.800 C 380.180 315.664,380.000 314.933,380.000 314.176 C 380.000 313.419,379.820 312.800,379.600 312.800 C 379.380 312.800,379.200 312.170,379.200 311.400 C 379.200 310.630,379.020 310.000,378.800 310.000 C 378.580 310.000,378.400 309.381,378.400 308.624 C 378.400 307.867,378.220 307.136,378.000 307.000 C 377.780 306.864,377.600 306.234,377.600 305.600 C 377.600 304.966,377.420 304.336,377.200 304.200 C 376.980 304.064,376.800 303.333,376.800 302.576 C 376.800 301.819,376.620 301.200,376.400 301.200 C 376.180 301.200,376.000 300.480,376.000 299.600 C 376.000 298.720,375.839 298.000,375.642 298.000 C 375.445 298.000,375.192 297.325,375.079 296.500 C 374.967 295.675,374.777 294.550,374.658 294.000 C 374.539 293.450,374.318 292.231,374.167 291.290 C 374.016 290.350,373.736 289.484,373.546 289.367 C 373.356 289.249,373.200 288.634,373.200 288.000 C 373.200 287.366,373.020 286.736,372.800 286.600 C 372.580 286.464,372.400 285.744,372.400 285.000 C 372.400 284.256,372.220 283.536,372.000 283.400 C 371.780 283.264,371.600 282.544,371.600 281.800 C 371.600 281.056,371.420 280.336,371.200 280.200 C 370.980 280.064,370.800 279.423,370.800 278.776 C 370.800 278.129,370.620 277.600,370.400 277.600 C 370.180 277.600,370.000 276.970,370.000 276.200 C 370.000 275.430,369.820 274.800,369.600 274.800 C 369.380 274.800,369.200 274.080,369.200 273.200 C 369.200 272.320,369.020 271.600,368.800 271.600 C 368.580 271.600,368.400 270.880,368.400 270.000 C 368.400 269.120,368.220 268.400,368.000 268.400 C 367.780 268.400,367.600 267.781,367.600 267.024 C 367.600 266.267,367.420 265.536,367.200 265.400 C 366.980 265.264,366.800 264.740,366.800 264.236 C 366.800 262.482,364.823 261.004,361.771 260.476 C 358.881 259.976,329.025 259.595,326.917 260.031 " stroke="none" fill="#fbf3bb" fill-rule="evenodd"></path><path id="path3" d="M357.600 357.570 C 329.468 385.814,330.385 384.800,332.997 384.800 C 333.988 384.800,334.800 384.980,334.800 385.200 C 334.800 385.420,335.441 385.600,336.224 385.600 C 337.071 385.600,337.547 385.762,337.400 386.000 C 337.236 386.265,294.870 386.400,211.600 386.400 C 128.330 386.400,85.964 386.535,85.800 386.800 C 85.664 387.020,85.023 387.200,84.376 387.200 C 83.729 387.200,83.200 387.380,83.200 387.600 C 83.200 387.820,82.917 388.000,82.571 388.000 C 81.763 388.000,80.800 388.963,80.800 389.771 C 80.800 390.117,80.620 390.400,80.400 390.400 C 80.180 390.400,80.000 390.904,80.000 391.520 C 80.000 392.136,79.803 392.837,79.563 393.077 C 79.247 393.393,79.247 393.740,79.563 394.331 C 79.803 394.780,80.000 395.609,80.000 396.174 C 80.000 396.738,80.137 397.200,80.305 397.200 C 80.473 397.200,80.788 397.602,81.005 398.093 C 81.890 400.093,73.079 399.988,240.000 399.989 C 326.130 399.989,397.003 399.881,397.495 399.749 C 399.751 399.145,401.111 390.246,399.308 387.892 C 399.101 387.622,398.894 386.627,398.848 385.681 C 398.803 384.736,398.413 383.336,397.983 382.569 C 397.552 381.803,397.200 380.641,397.200 379.988 C 397.200 379.335,397.020 378.800,396.800 378.800 C 396.580 378.800,396.400 378.181,396.400 377.424 C 396.400 376.667,396.220 375.936,396.000 375.800 C 395.780 375.664,395.600 375.023,395.600 374.376 C 395.600 373.729,395.420 373.200,395.200 373.200 C 394.980 373.200,394.803 372.885,394.806 372.500 C 394.811 371.902,394.869 371.887,395.200 372.400 C 395.531 372.913,395.589 372.898,395.594 372.300 C 395.597 371.915,395.420 371.600,395.200 371.600 C 394.980 371.600,394.800 371.255,394.800 370.833 C 394.800 370.412,394.575 369.962,394.300 369.833 C 393.919 369.655,393.914 369.546,394.278 369.374 C 394.626 369.210,394.543 368.768,393.978 367.762 C 393.530 366.963,393.200 365.618,393.200 364.588 C 393.200 363.605,393.020 362.800,392.800 362.800 C 392.580 362.800,392.400 362.365,392.400 361.833 C 392.400 361.302,392.175 360.776,391.900 360.665 C 391.531 360.516,391.544 360.455,391.949 360.432 C 392.378 360.407,392.395 360.275,392.026 359.832 C 391.767 359.519,391.474 358.405,391.376 357.355 C 391.278 356.305,391.015 355.333,390.793 355.196 C 390.571 355.058,390.353 354.110,390.308 353.089 C 390.263 352.042,390.093 351.443,389.920 351.716 C 389.656 352.131,389.391 350.527,389.553 349.500 C 389.579 349.335,389.443 349.200,389.250 349.200 C 388.932 349.200,388.786 348.312,388.765 346.253 C 388.761 345.843,388.455 345.046,388.086 344.483 C 387.717 343.920,387.375 342.818,387.324 342.035 C 387.274 341.252,387.046 340.549,386.817 340.472 C 386.588 340.396,386.400 339.628,386.400 338.767 C 386.400 337.783,386.214 337.198,385.900 337.194 C 385.567 337.190,385.600 337.058,386.000 336.800 C 386.400 336.542,386.433 336.410,386.100 336.406 C 385.780 336.402,385.598 335.787,385.594 334.700 C 385.589 333.455,385.484 333.161,385.200 333.600 C 384.898 334.068,384.811 333.957,384.806 333.100 C 384.791 330.406,383.497 331.570,357.600 357.570 " stroke="none" fill="#2c3c54" fill-rule="evenodd"></path><path id="path4" d="M159.600 56.135 C 159.600 56.434,160.622 57.497,162.318 58.962 C 163.841 60.277,163.279 59.444,161.400 57.600 C 160.410 56.628,159.600 55.969,159.600 56.135 M173.838 70.477 C 175.040 71.861,178.549 75.322,179.623 76.184 C 180.160 76.615,178.984 75.310,177.008 73.284 C 173.667 69.857,172.073 68.446,173.838 70.477 M191.038 87.678 C 192.217 89.036,194.937 91.714,196.022 92.585 C 196.560 93.016,195.564 91.891,193.809 90.085 C 190.812 86.999,189.337 85.718,191.038 87.678 M102.493 102.507 C 100.242 104.766,98.400 106.791,98.400 107.007 C 98.400 107.224,141.600 150.600,194.400 203.400 L 290.400 299.399 290.400 297.523 C 290.400 296.491,290.580 295.536,290.800 295.400 C 291.020 295.264,291.200 294.875,291.200 294.536 C 291.200 293.736,293.736 291.200,294.536 291.200 C 294.875 291.200,295.264 291.020,295.400 290.800 C 295.536 290.580,296.491 290.400,297.523 290.400 L 299.399 290.400 203.400 194.400 C 150.600 141.600,107.217 98.400,106.993 98.400 C 106.769 98.400,104.744 100.248,102.493 102.507 M207.438 104.078 C 208.617 105.436,211.337 108.114,212.422 108.985 C 212.960 109.416,211.964 108.291,210.209 106.485 C 207.212 103.399,205.737 102.118,207.438 104.078 M223.838 120.477 C 225.040 121.861,228.549 125.322,229.623 126.184 C 230.160 126.615,228.984 125.310,227.008 123.284 C 223.667 119.857,222.073 118.446,223.838 120.477 M241.038 137.678 C 242.217 139.036,244.937 141.714,246.022 142.585 C 246.560 143.016,245.564 141.891,243.809 140.085 C 240.812 136.999,239.337 135.718,241.038 137.678 M273.838 170.477 C 275.040 171.861,278.549 175.322,279.623 176.184 C 280.160 176.615,278.984 175.310,277.008 173.284 C 273.667 169.857,272.073 168.446,273.838 170.477 M291.038 187.678 C 292.217 189.036,294.937 191.714,296.022 192.585 C 296.560 193.016,295.564 191.891,293.809 190.085 C 290.812 186.999,289.337 185.718,291.038 187.678 M307.438 204.078 C 308.617 205.436,311.337 208.114,312.422 208.985 C 312.960 209.416,311.964 208.291,310.209 206.485 C 307.212 203.399,305.737 202.118,307.438 204.078 M323.838 220.477 C 325.040 221.861,328.549 225.322,329.623 226.184 C 330.160 226.615,328.984 225.310,327.008 223.284 C 323.667 219.857,322.073 218.446,323.838 220.477 M341.038 237.678 C 342.217 239.036,344.937 241.714,346.022 242.585 C 346.560 243.016,345.564 241.891,343.809 240.085 C 340.812 236.999,339.337 235.718,341.038 237.678 M357.438 254.078 C 358.617 255.436,361.337 258.114,362.422 258.985 C 362.960 259.416,361.964 258.291,360.209 256.485 C 357.212 253.399,355.737 252.118,357.438 254.078 M256.602 360.402 C 257.002 360.844,257.411 361.122,257.512 361.021 C 257.728 360.805,256.588 359.600,256.167 359.600 C 256.007 359.600,256.203 359.961,256.602 360.402 " stroke="none" fill="#fcc40c" fill-rule="evenodd"></path></g></svg>