<svg id="svg" version="1.1" xmlns="http://www.w3.org/2000/svg" xmlns:xlink="http://www.w3.org/1999/xlink" width="400" height="400" viewBox="0, 0, 400,400"><g id="svgg"><path id="path0" d="M195.800 102.896 C 175.599 107.886,173.939 135.200,193.400 142.397 C 210.272 148.637,226.424 129.753,218.143 113.469 C 214.183 105.681,204.012 100.868,195.800 102.896 M178.086 165.948 C 161.554 171.725,164.723 196.179,182.200 197.696 L 183.400 197.800 183.502 231.292 L 183.605 264.784 182.702 264.958 C 178.346 265.798,177.129 266.170,175.281 267.226 C 162.684 274.429,165.086 292.636,179.228 297.145 C 182.216 298.097,218.918 297.751,221.773 296.744 C 235.122 292.033,236.902 274.192,224.719 267.226 C 222.871 266.170,221.648 265.796,217.300 264.958 L 216.400 264.785 216.395 222.292 C 216.390 177.118,216.437 178.313,214.479 173.885 C 213.310 171.243,210.099 168.195,206.876 166.668 L 204.200 165.400 192.200 165.305 C 181.408 165.219,179.987 165.283,178.086 165.948 " stroke="none" fill="#fbfbfc" fill-rule="evenodd"></path><path id="path1" d="M190.400 32.828 C 190.400 33.034,188.476 33.200,186.080 33.200 C 183.704 33.200,181.589 33.368,181.380 33.573 C 181.171 33.778,179.605 33.996,177.900 34.057 C 176.195 34.119,174.800 34.311,174.800 34.485 C 174.800 34.658,173.911 34.800,172.824 34.800 C 171.737 34.800,170.736 34.980,170.600 35.200 C 170.464 35.420,169.474 35.600,168.400 35.600 C 167.326 35.600,166.336 35.780,166.200 36.000 C 166.064 36.220,165.153 36.400,164.176 36.400 C 163.199 36.400,162.400 36.580,162.400 36.800 C 162.400 37.020,161.680 37.200,160.800 37.200 C 159.920 37.200,159.200 37.380,159.200 37.600 C 159.200 37.820,158.480 38.000,157.600 38.000 C 156.720 38.000,156.000 38.180,156.000 38.400 C 156.000 38.620,155.460 38.800,154.800 38.800 C 154.140 38.800,153.600 38.980,153.600 39.200 C 153.600 39.420,152.981 39.600,152.224 39.600 C 151.467 39.600,150.736 39.780,150.600 40.000 C 150.464 40.220,149.823 40.400,149.176 40.400 C 148.529 40.400,148.000 40.580,148.000 40.800 C 148.000 41.020,147.685 41.203,147.300 41.206 C 146.676 41.211,144.023 42.007,142.400 42.676 C 142.070 42.812,141.350 42.996,140.800 43.086 C 140.250 43.176,139.740 43.418,139.667 43.625 C 139.593 43.831,139.270 44.000,138.947 44.000 C 138.625 44.000,137.616 44.360,136.706 44.800 C 135.795 45.240,134.897 45.600,134.710 45.600 C 134.151 45.600,124.211 50.529,124.067 50.878 C 123.993 51.055,123.588 51.200,123.167 51.200 C 122.745 51.200,122.400 51.380,122.400 51.600 C 122.400 51.820,122.040 52.000,121.600 52.000 C 121.160 52.000,120.799 52.135,120.797 52.300 C 120.793 52.659,118.856 53.600,118.120 53.600 C 117.834 53.600,117.600 53.780,117.600 54.000 C 117.600 54.220,117.319 54.400,116.976 54.400 C 116.633 54.400,116.464 54.580,116.600 54.800 C 116.736 55.020,116.477 55.200,116.024 55.200 C 115.571 55.200,115.200 55.380,115.200 55.600 C 115.200 55.820,114.840 56.000,114.400 56.000 C 113.960 56.000,113.600 56.180,113.600 56.400 C 113.600 56.620,113.229 56.800,112.776 56.800 C 112.323 56.800,112.064 56.980,112.200 57.200 C 112.336 57.420,112.167 57.600,111.824 57.600 C 111.481 57.600,111.200 57.780,111.200 58.000 C 111.200 58.220,110.930 58.400,110.600 58.400 C 110.270 58.400,109.633 58.767,109.185 59.215 C 108.737 59.663,108.230 59.942,108.058 59.836 C 107.886 59.730,107.493 59.993,107.185 60.421 C 106.876 60.850,106.438 61.200,106.212 61.200 C 105.985 61.201,105.283 61.646,104.651 62.189 C 104.019 62.733,103.164 63.284,102.751 63.416 C 102.338 63.547,102.000 63.810,102.000 64.000 C 102.000 64.190,101.631 64.463,101.180 64.606 C 100.729 64.749,99.745 65.482,98.993 66.233 C 98.242 66.985,97.423 67.600,97.174 67.600 C 96.925 67.600,96.217 68.140,95.600 68.800 C 94.983 69.460,94.361 70.000,94.217 70.000 C 94.073 70.000,92.896 71.080,91.600 72.400 C 90.304 73.720,88.954 74.800,88.599 74.800 C 88.243 74.800,88.064 74.980,88.200 75.200 C 88.336 75.420,88.171 75.600,87.833 75.600 C 87.495 75.600,86.924 76.050,86.563 76.600 C 86.203 77.150,85.770 77.600,85.601 77.600 C 85.187 77.600,79.600 83.131,79.600 83.540 C 79.600 83.719,79.150 84.106,78.600 84.400 C 78.050 84.694,77.600 85.154,77.600 85.422 C 77.600 85.689,77.150 86.203,76.600 86.563 C 76.050 86.924,75.600 87.484,75.600 87.809 C 75.600 88.134,75.420 88.400,75.200 88.400 C 74.980 88.400,74.800 88.584,74.800 88.809 C 74.800 89.033,73.855 90.192,72.700 91.383 C 68.973 95.226,67.600 96.804,67.600 97.246 C 67.600 97.484,67.060 98.183,66.400 98.800 C 65.740 99.417,65.200 100.137,65.200 100.400 C 65.200 100.663,64.705 101.358,64.100 101.943 C 63.495 102.529,62.956 103.229,62.902 103.499 C 62.848 103.769,62.449 104.397,62.016 104.895 C 61.584 105.393,61.235 105.949,61.241 106.130 C 61.247 106.312,60.884 106.780,60.434 107.171 C 59.983 107.562,59.717 107.984,59.842 108.109 C 60.077 108.343,58.438 110.894,57.900 111.133 C 57.735 111.207,57.600 111.532,57.600 111.857 C 57.600 112.182,57.420 112.336,57.200 112.200 C 56.980 112.064,56.800 112.323,56.800 112.776 C 56.800 113.229,56.620 113.600,56.400 113.600 C 56.180 113.600,56.000 113.960,56.000 114.400 C 56.000 114.840,55.842 115.200,55.649 115.200 C 55.455 115.200,55.073 115.740,54.800 116.400 C 54.527 117.060,54.145 117.600,53.951 117.600 C 53.758 117.600,53.600 117.960,53.600 118.400 C 53.600 118.840,53.420 119.200,53.200 119.200 C 52.980 119.200,52.800 119.560,52.800 120.000 C 52.800 120.440,52.620 120.800,52.400 120.800 C 52.180 120.800,52.000 121.160,52.000 121.600 C 52.000 122.040,51.820 122.400,51.600 122.400 C 51.380 122.400,51.200 122.745,51.200 123.167 C 51.200 123.588,51.064 123.993,50.898 124.067 C 50.732 124.140,49.968 125.460,49.200 127.000 C 48.432 128.540,47.668 129.860,47.502 129.933 C 47.336 130.007,47.200 130.317,47.200 130.623 C 47.200 131.159,46.301 133.325,44.745 136.538 C 44.335 137.384,44.000 138.389,44.000 138.771 C 44.000 139.154,43.865 139.602,43.700 139.767 C 43.535 139.932,43.377 140.232,43.350 140.433 C 43.323 140.635,43.255 140.890,43.200 141.000 C 43.145 141.110,43.062 141.335,43.015 141.500 C 42.969 141.665,42.818 142.070,42.680 142.400 C 42.026 143.961,41.211 146.671,41.206 147.300 C 41.203 147.685,41.020 148.000,40.800 148.000 C 40.580 148.000,40.400 148.529,40.400 149.176 C 40.400 149.823,40.220 150.464,40.000 150.600 C 39.780 150.736,39.600 151.467,39.600 152.224 C 39.600 152.981,39.420 153.600,39.200 153.600 C 38.980 153.600,38.800 154.140,38.800 154.800 C 38.800 155.460,38.620 156.000,38.400 156.000 C 38.180 156.000,38.000 156.720,38.000 157.600 C 38.000 158.480,37.820 159.200,37.600 159.200 C 37.380 159.200,37.200 159.920,37.200 160.800 C 37.200 161.680,37.020 162.400,36.800 162.400 C 36.580 162.400,36.400 163.210,36.400 164.200 C 36.400 165.190,36.220 166.000,36.000 166.000 C 35.780 166.000,35.600 166.979,35.600 168.176 C 35.600 169.373,35.420 170.464,35.200 170.600 C 34.980 170.736,34.800 171.737,34.800 172.824 C 34.800 174.135,34.632 174.802,34.300 174.806 C 33.967 174.810,34.000 174.942,34.400 175.200 C 34.800 175.458,34.833 175.590,34.500 175.594 C 34.149 175.598,34.000 176.425,34.000 178.376 C 34.000 179.903,33.820 181.264,33.600 181.400 C 33.373 181.540,33.200 183.537,33.200 186.024 C 33.200 189.255,33.069 190.402,32.700 190.406 C 32.367 190.410,32.400 190.542,32.800 190.800 C 33.219 191.071,33.246 191.190,32.888 191.194 C 32.485 191.199,32.384 193.169,32.415 200.400 C 32.438 205.789,32.609 209.600,32.827 209.600 C 33.035 209.600,33.200 211.539,33.200 213.976 C 33.200 216.463,33.373 218.460,33.600 218.600 C 33.820 218.736,34.000 220.097,34.000 221.624 C 34.000 223.575,34.149 224.402,34.500 224.406 C 34.833 224.410,34.800 224.542,34.400 224.800 C 34.000 225.058,33.967 225.190,34.300 225.194 C 34.632 225.198,34.800 225.865,34.800 227.176 C 34.800 228.263,34.980 229.264,35.200 229.400 C 35.420 229.536,35.600 230.627,35.600 231.824 C 35.600 233.021,35.780 234.000,36.000 234.000 C 36.220 234.000,36.400 234.810,36.400 235.800 C 36.400 236.790,36.580 237.600,36.800 237.600 C 37.020 237.600,37.200 238.320,37.200 239.200 C 37.200 240.080,37.380 240.800,37.600 240.800 C 37.820 240.800,38.000 241.520,38.000 242.400 C 38.000 243.280,38.180 244.000,38.400 244.000 C 38.620 244.000,38.800 244.540,38.800 245.200 C 38.800 245.860,38.980 246.400,39.200 246.400 C 39.420 246.400,39.600 247.019,39.600 247.776 C 39.600 248.533,39.780 249.264,40.000 249.400 C 40.220 249.536,40.400 250.051,40.400 250.544 C 40.400 251.037,40.569 251.611,40.775 251.820 C 40.982 252.029,41.215 252.688,41.294 253.285 C 41.372 253.882,41.563 254.497,41.718 254.652 C 41.873 254.807,42.000 255.162,42.000 255.441 C 42.000 255.720,42.210 256.455,42.466 257.074 C 42.723 257.693,42.948 258.320,42.966 258.467 C 42.985 258.613,43.123 258.856,43.272 259.006 C 43.422 259.156,43.448 259.531,43.330 259.839 C 43.211 260.148,43.314 260.400,43.557 260.400 C 43.801 260.400,44.000 260.743,44.000 261.162 C 44.000 261.581,44.335 262.616,44.745 263.462 C 46.301 266.675,47.200 268.841,47.200 269.377 C 47.200 269.683,47.336 269.993,47.502 270.067 C 47.668 270.140,48.432 271.460,49.200 273.000 C 49.968 274.540,50.732 275.860,50.898 275.933 C 51.064 276.007,51.200 276.412,51.200 276.833 C 51.200 277.255,51.380 277.600,51.600 277.600 C 51.820 277.600,52.000 277.960,52.000 278.400 C 52.000 278.840,52.180 279.200,52.400 279.200 C 52.620 279.200,52.800 279.560,52.800 280.000 C 52.800 280.440,52.946 280.800,53.125 280.800 C 53.304 280.800,53.695 281.422,53.993 282.182 C 54.291 282.942,54.685 283.471,54.868 283.358 C 55.050 283.245,55.200 283.523,55.200 283.976 C 55.200 284.429,55.380 284.800,55.600 284.800 C 55.820 284.800,56.000 285.160,56.000 285.600 C 56.000 286.040,56.180 286.400,56.400 286.400 C 56.620 286.400,56.800 286.636,56.800 286.925 C 56.800 287.213,57.115 287.805,57.500 288.240 C 58.875 289.792,60.033 291.622,59.840 291.936 C 59.731 292.111,59.993 292.507,60.421 292.815 C 60.850 293.124,61.200 293.573,61.200 293.813 C 61.200 294.053,61.556 294.631,61.991 295.099 C 62.427 295.566,62.832 296.183,62.891 296.470 C 62.951 296.757,63.495 297.471,64.100 298.057 C 64.705 298.642,65.200 299.337,65.200 299.600 C 65.200 299.863,65.731 300.575,66.381 301.182 C 67.030 301.789,67.615 302.520,67.681 302.806 C 67.810 303.372,69.416 305.231,72.696 308.613 C 73.848 309.801,74.838 311.003,74.896 311.283 C 74.953 311.563,75.540 312.380,76.200 313.099 C 78.627 315.741,85.268 322.400,85.477 322.400 C 85.595 322.400,86.256 322.985,86.946 323.700 C 87.636 324.415,88.440 325.050,88.733 325.111 C 89.026 325.172,90.321 326.297,91.611 327.611 C 92.900 328.925,94.073 330.000,94.217 330.000 C 94.361 330.000,94.958 330.495,95.543 331.100 C 96.129 331.705,96.833 332.246,97.109 332.302 C 97.385 332.358,98.175 332.943,98.865 333.602 C 99.554 334.261,100.280 334.800,100.478 334.800 C 100.675 334.800,101.286 335.250,101.836 335.800 C 102.386 336.350,102.980 336.800,103.156 336.800 C 103.332 336.800,103.999 337.250,104.638 337.800 C 105.277 338.349,106.010 338.799,106.267 338.800 C 106.523 338.800,106.793 338.935,106.867 339.100 C 107.078 339.575,109.327 341.060,110.308 341.371 C 110.798 341.526,111.200 341.822,111.200 342.027 C 111.200 342.232,111.470 342.400,111.800 342.400 C 112.130 342.400,112.400 342.580,112.400 342.800 C 112.400 343.020,112.670 343.200,113.000 343.200 C 113.330 343.200,113.600 343.380,113.600 343.600 C 113.600 343.820,113.960 344.000,114.400 344.000 C 114.840 344.000,115.200 344.180,115.200 344.400 C 115.200 344.620,115.478 344.800,115.817 344.800 C 116.156 344.800,116.820 345.160,117.292 345.600 C 117.764 346.040,118.387 346.400,118.675 346.400 C 118.964 346.400,119.200 346.580,119.200 346.800 C 119.200 347.020,119.560 347.200,120.000 347.200 C 120.440 347.200,120.800 347.380,120.800 347.600 C 120.800 347.820,121.160 348.000,121.600 348.000 C 122.040 348.000,122.400 348.180,122.400 348.400 C 122.400 348.620,122.745 348.800,123.167 348.800 C 123.588 348.800,123.993 348.936,124.067 349.102 C 124.140 349.268,125.460 350.032,127.000 350.800 C 128.540 351.568,129.860 352.332,129.933 352.498 C 130.007 352.664,130.317 352.800,130.623 352.800 C 130.928 352.800,131.948 353.146,132.889 353.570 C 137.203 355.510,138.433 356.000,138.996 356.000 C 139.328 356.000,139.600 356.180,139.600 356.400 C 139.600 356.620,140.029 356.800,140.554 356.800 C 141.079 356.800,142.024 357.069,142.654 357.398 C 143.284 357.726,144.104 357.996,144.476 357.998 C 144.848 357.999,145.264 358.180,145.400 358.400 C 145.536 358.620,146.166 358.800,146.800 358.800 C 147.434 358.800,148.064 358.980,148.200 359.200 C 148.336 359.420,148.876 359.600,149.400 359.600 C 149.924 359.600,150.464 359.780,150.600 360.000 C 150.736 360.220,151.467 360.400,152.224 360.400 C 152.981 360.400,153.600 360.580,153.600 360.800 C 153.600 361.020,154.129 361.200,154.776 361.200 C 155.423 361.200,156.064 361.380,156.200 361.600 C 156.336 361.820,157.067 362.000,157.824 362.000 C 158.581 362.000,159.200 362.180,159.200 362.400 C 159.200 362.620,160.010 362.800,161.000 362.800 C 161.990 362.800,162.800 362.980,162.800 363.200 C 162.800 363.420,163.509 363.600,164.376 363.600 C 165.243 363.600,166.064 363.780,166.200 364.000 C 166.336 364.220,167.326 364.400,168.400 364.400 C 169.474 364.400,170.464 364.580,170.600 364.800 C 170.736 365.020,171.917 365.200,173.224 365.200 C 174.541 365.200,175.600 365.378,175.600 365.600 C 175.600 365.831,176.867 366.000,178.600 366.000 C 180.333 366.000,181.600 366.169,181.600 366.400 C 181.600 366.643,183.400 366.800,186.200 366.800 C 189.000 366.800,190.800 366.957,190.800 367.200 C 190.800 367.455,194.133 367.600,200.000 367.600 C 205.867 367.600,209.200 367.455,209.200 367.200 C 209.200 366.957,211.000 366.800,213.800 366.800 C 216.330 366.800,218.400 366.647,218.400 366.461 C 218.400 366.274,219.701 366.083,221.291 366.037 C 222.881 365.990,224.299 365.763,224.443 365.531 C 224.611 365.258,224.780 365.302,224.920 365.655 C 225.074 366.042,225.146 366.055,225.168 365.700 C 225.189 365.372,225.879 365.200,227.176 365.200 C 228.263 365.200,229.264 365.020,229.400 364.800 C 229.536 364.580,230.627 364.400,231.824 364.400 C 233.021 364.400,234.000 364.220,234.000 364.000 C 234.000 363.780,234.720 363.600,235.600 363.600 C 236.480 363.600,237.200 363.420,237.200 363.200 C 237.200 362.980,238.010 362.800,239.000 362.800 C 239.990 362.800,240.800 362.620,240.800 362.400 C 240.800 362.180,241.419 362.000,242.176 362.000 C 242.933 362.000,243.664 361.820,243.800 361.600 C 243.936 361.380,244.577 361.200,245.224 361.200 C 245.871 361.200,246.400 361.020,246.400 360.800 C 246.400 360.580,247.131 360.400,248.024 360.400 C 249.004 360.400,249.549 360.242,249.400 360.000 C 249.257 359.769,249.636 359.600,250.296 359.600 C 250.925 359.600,251.611 359.431,251.820 359.225 C 252.029 359.018,252.688 358.785,253.285 358.706 C 253.882 358.628,254.497 358.437,254.652 358.282 C 254.807 358.127,255.218 357.999,255.567 357.998 C 255.915 357.996,256.716 357.726,257.346 357.398 C 257.976 357.069,258.921 356.800,259.446 356.800 C 259.971 356.800,260.400 356.620,260.400 356.400 C 260.400 356.180,260.839 356.000,261.376 356.000 C 261.913 356.000,262.464 355.820,262.600 355.600 C 262.736 355.380,263.197 355.200,263.624 355.200 C 264.051 355.200,264.400 355.043,264.400 354.852 C 264.400 354.661,265.215 354.276,266.210 353.997 C 267.206 353.718,268.117 353.335,268.234 353.145 C 268.351 352.955,268.782 352.800,269.190 352.800 C 269.599 352.800,269.993 352.664,270.067 352.498 C 270.140 352.332,271.460 351.568,273.000 350.800 C 274.540 350.032,275.860 349.268,275.933 349.102 C 276.007 348.936,276.412 348.800,276.833 348.800 C 277.255 348.800,277.600 348.620,277.600 348.400 C 277.600 348.180,277.960 348.000,278.400 348.000 C 278.840 348.000,279.200 347.820,279.200 347.600 C 279.200 347.380,279.560 347.200,280.000 347.200 C 280.440 347.200,280.803 347.065,280.806 346.900 C 280.810 346.735,281.710 346.160,282.806 345.621 C 283.903 345.083,284.800 344.498,284.800 344.321 C 284.800 344.145,285.160 344.000,285.600 344.000 C 286.040 344.000,286.400 343.820,286.400 343.600 C 286.400 343.380,286.636 343.200,286.925 343.200 C 287.213 343.200,287.836 342.840,288.308 342.400 C 288.780 341.960,289.326 341.600,289.521 341.600 C 289.716 341.600,290.208 341.234,290.613 340.786 C 291.018 340.338,291.558 340.052,291.813 340.150 C 292.067 340.247,292.524 339.984,292.826 339.564 C 293.129 339.144,293.573 338.800,293.813 338.800 C 294.053 338.800,294.631 338.444,295.099 338.009 C 295.566 337.573,296.175 337.168,296.452 337.109 C 296.729 337.049,297.557 336.415,298.291 335.700 C 299.026 334.985,299.792 334.400,299.995 334.400 C 300.198 334.400,300.814 333.950,301.364 333.400 C 301.914 332.850,302.549 332.400,302.775 332.400 C 303.197 332.400,304.814 330.989,308.617 327.300 C 309.808 326.145,310.982 325.200,311.226 325.200 C 311.469 325.200,312.286 324.615,313.041 323.900 C 314.760 322.273,321.314 315.757,322.200 314.795 C 322.420 314.556,323.005 313.977,323.500 313.508 C 323.995 313.039,324.400 312.408,324.400 312.104 C 324.400 311.801,324.580 311.664,324.800 311.800 C 325.020 311.936,325.200 311.757,325.200 311.401 C 325.200 311.046,326.280 309.696,327.600 308.400 C 328.920 307.104,330.000 305.854,330.000 305.622 C 330.000 305.390,330.180 305.200,330.400 305.200 C 330.620 305.200,330.800 304.900,330.800 304.533 C 330.800 304.167,330.911 303.978,331.048 304.114 C 331.351 304.418,332.400 303.421,332.400 302.829 C 332.400 302.594,333.030 301.734,333.799 300.918 C 334.569 300.102,335.301 299.112,335.426 298.717 C 335.551 298.323,335.800 298.000,335.978 298.000 C 336.157 298.000,336.527 297.460,336.800 296.800 C 337.073 296.140,337.425 295.600,337.581 295.600 C 337.737 295.600,338.119 295.105,338.430 294.500 C 338.740 293.895,339.338 293.085,339.758 292.700 C 340.179 292.315,340.392 292.000,340.232 292.000 C 340.073 292.000,340.315 291.526,340.771 290.946 C 341.227 290.366,341.600 289.646,341.600 289.346 C 341.600 289.046,341.780 288.800,342.000 288.800 C 342.220 288.800,342.400 288.530,342.400 288.200 C 342.400 287.870,342.580 287.600,342.800 287.600 C 343.020 287.600,343.200 287.330,343.200 287.000 C 343.200 286.670,343.380 286.400,343.600 286.400 C 343.820 286.400,344.000 286.040,344.000 285.600 C 344.000 285.160,344.180 284.800,344.400 284.800 C 344.620 284.800,344.800 284.429,344.800 283.976 C 344.800 283.523,344.950 283.245,345.132 283.358 C 345.315 283.471,345.709 282.942,346.007 282.182 C 346.305 281.422,346.696 280.800,346.875 280.800 C 347.054 280.800,347.200 280.440,347.200 280.000 C 347.200 279.560,347.380 279.200,347.600 279.200 C 347.820 279.200,348.000 278.840,348.000 278.400 C 348.000 277.960,348.180 277.600,348.400 277.600 C 348.620 277.600,348.800 277.255,348.800 276.833 C 348.800 276.412,348.936 276.007,349.102 275.933 C 349.268 275.860,350.032 274.540,350.800 273.000 C 351.568 271.460,352.332 270.140,352.498 270.067 C 352.664 269.993,352.800 269.712,352.800 269.442 C 352.800 269.171,353.160 268.205,353.600 267.294 C 354.040 266.384,354.400 265.455,354.400 265.231 C 354.400 265.008,354.760 264.183,355.200 263.400 C 355.640 262.617,356.000 261.621,356.000 261.188 C 356.000 260.755,356.180 260.400,356.400 260.400 C 356.620 260.400,356.800 259.971,356.800 259.446 C 356.800 258.921,357.069 257.976,357.398 257.346 C 357.726 256.716,357.996 255.915,357.998 255.567 C 357.999 255.218,358.127 254.807,358.282 254.652 C 358.437 254.497,358.628 253.882,358.706 253.285 C 358.785 252.688,359.018 252.029,359.225 251.820 C 359.431 251.611,359.600 251.037,359.600 250.544 C 359.600 250.051,359.780 249.536,360.000 249.400 C 360.220 249.264,360.400 248.533,360.400 247.776 C 360.400 247.019,360.580 246.400,360.800 246.400 C 361.020 246.400,361.200 245.871,361.200 245.224 C 361.200 244.577,361.380 243.936,361.600 243.800 C 361.820 243.664,362.000 242.933,362.000 242.176 C 362.000 241.419,362.180 240.800,362.400 240.800 C 362.620 240.800,362.800 239.990,362.800 239.000 C 362.800 238.010,362.980 237.200,363.200 237.200 C 363.420 237.200,363.600 236.480,363.600 235.600 C 363.600 234.720,363.780 234.000,364.000 234.000 C 364.220 234.000,364.400 233.111,364.400 232.024 C 364.400 230.937,364.580 229.936,364.800 229.800 C 365.020 229.664,365.200 228.494,365.200 227.200 C 365.200 225.906,365.380 224.736,365.600 224.600 C 365.820 224.464,366.000 223.013,366.000 221.376 C 366.000 219.659,366.169 218.400,366.400 218.400 C 366.643 218.400,366.800 216.600,366.800 213.800 C 366.800 211.052,366.958 209.200,367.193 209.200 C 367.441 209.200,367.575 205.714,367.557 199.800 C 367.539 194.456,367.370 190.400,367.163 190.400 C 366.963 190.400,366.800 188.420,366.800 186.000 C 366.800 183.333,366.642 181.600,366.400 181.600 C 366.169 181.600,366.000 180.341,366.000 178.624 C 366.000 176.987,365.820 175.536,365.600 175.400 C 365.380 175.264,365.200 174.184,365.200 173.000 C 365.200 171.816,365.020 170.736,364.800 170.600 C 364.580 170.464,364.400 169.363,364.400 168.153 C 364.400 166.788,364.248 166.047,364.000 166.200 C 363.753 166.352,363.600 165.671,363.600 164.424 C 363.600 163.311,363.420 162.400,363.200 162.400 C 362.980 162.400,362.800 161.680,362.800 160.800 C 362.800 159.920,362.620 159.200,362.400 159.200 C 362.180 159.200,362.000 158.581,362.000 157.824 C 362.000 157.067,361.820 156.336,361.600 156.200 C 361.380 156.064,361.200 155.423,361.200 154.776 C 361.200 154.129,361.020 153.600,360.800 153.600 C 360.580 153.600,360.400 152.981,360.400 152.224 C 360.400 151.467,360.220 150.736,360.000 150.600 C 359.780 150.464,359.600 149.823,359.600 149.176 C 359.600 148.529,359.420 148.000,359.200 148.000 C 358.980 148.000,358.794 147.685,358.787 147.300 C 358.772 146.490,357.442 142.509,357.059 142.125 C 356.916 141.983,356.800 141.357,356.800 140.733 C 356.800 140.110,356.620 139.600,356.400 139.600 C 356.180 139.600,356.000 139.245,356.000 138.812 C 356.000 138.379,355.640 137.383,355.200 136.600 C 354.760 135.817,354.400 134.992,354.400 134.769 C 354.400 134.545,354.040 133.616,353.600 132.706 C 353.160 131.795,352.800 130.829,352.800 130.558 C 352.800 130.288,352.664 130.007,352.498 129.933 C 352.332 129.860,351.568 128.540,350.800 127.000 C 350.032 125.460,349.268 124.140,349.102 124.067 C 348.936 123.993,348.800 123.588,348.800 123.167 C 348.800 122.745,348.620 122.400,348.400 122.400 C 348.180 122.400,348.000 122.040,348.000 121.600 C 348.000 121.160,347.820 120.800,347.600 120.800 C 347.380 120.800,347.200 120.517,347.200 120.171 C 347.200 119.826,346.928 119.271,346.596 118.939 C 346.264 118.607,346.095 118.170,346.220 117.968 C 346.345 117.765,346.257 117.600,346.024 117.600 C 345.791 117.600,345.600 117.319,345.600 116.976 C 345.600 116.633,345.420 116.464,345.200 116.600 C 344.980 116.736,344.800 116.477,344.800 116.024 C 344.800 115.571,344.620 115.200,344.400 115.200 C 344.180 115.200,344.000 114.840,344.000 114.400 C 344.000 113.960,343.820 113.600,343.600 113.600 C 343.380 113.600,343.200 113.330,343.200 113.000 C 343.200 112.670,343.020 112.400,342.800 112.400 C 342.580 112.400,342.400 112.130,342.400 111.800 C 342.400 111.470,342.220 111.200,342.000 111.200 C 341.780 111.200,341.600 110.930,341.600 110.600 C 341.600 110.270,341.225 109.625,340.767 109.167 C 340.308 108.708,340.035 108.232,340.159 108.107 C 340.284 107.983,340.072 107.593,339.690 107.241 C 339.307 106.888,338.740 106.105,338.430 105.500 C 338.119 104.895,337.715 104.400,337.532 104.400 C 337.350 104.400,337.200 104.122,337.200 103.782 C 337.200 103.442,336.750 102.714,336.200 102.164 C 335.650 101.614,335.200 101.029,335.200 100.865 C 335.200 100.701,334.570 99.899,333.800 99.082 C 333.030 98.266,332.400 97.401,332.400 97.160 C 332.400 96.918,331.860 96.217,331.200 95.600 C 330.540 94.983,330.000 94.346,330.000 94.183 C 330.000 94.021,328.920 92.844,327.600 91.569 C 326.280 90.293,325.200 88.957,325.200 88.601 C 325.200 88.244,325.020 88.064,324.800 88.200 C 324.580 88.336,324.400 88.199,324.400 87.896 C 324.400 87.592,323.995 86.958,323.500 86.486 C 322.401 85.437,321.137 84.178,320.600 83.596 C 318.740 81.582,314.000 76.941,314.000 77.134 C 314.000 77.268,313.720 76.978,313.377 76.489 C 313.035 76.000,312.495 75.600,312.177 75.600 C 311.860 75.600,311.600 75.420,311.600 75.200 C 311.600 74.980,311.416 74.800,311.191 74.800 C 310.967 74.800,309.808 73.855,308.617 72.700 C 304.823 69.020,303.198 67.600,302.780 67.600 C 302.556 67.600,301.743 66.970,300.973 66.200 C 300.203 65.430,299.408 64.800,299.205 64.800 C 299.002 64.800,298.415 64.395,297.900 63.900 C 297.385 63.405,296.749 62.956,296.487 62.902 C 296.224 62.848,295.603 62.449,295.105 62.016 C 294.607 61.584,294.051 61.235,293.870 61.241 C 293.688 61.247,293.238 60.926,292.870 60.526 C 292.501 60.127,291.930 59.741,291.600 59.668 C 291.270 59.596,290.716 59.281,290.369 58.968 C 290.021 58.656,289.526 58.400,289.269 58.400 C 289.011 58.400,288.800 58.220,288.800 58.000 C 288.800 57.780,288.530 57.600,288.200 57.600 C 287.870 57.600,287.600 57.420,287.600 57.200 C 287.600 56.980,287.330 56.800,287.000 56.800 C 286.670 56.800,286.400 56.620,286.400 56.400 C 286.400 56.180,286.040 56.000,285.600 56.000 C 285.160 56.000,284.800 55.842,284.800 55.649 C 284.800 55.455,284.260 55.073,283.600 54.800 C 282.940 54.527,282.400 54.134,282.400 53.928 C 282.400 53.722,282.235 53.655,282.032 53.780 C 281.830 53.905,281.393 53.736,281.061 53.404 C 280.729 53.072,280.174 52.800,279.829 52.800 C 279.483 52.800,279.200 52.620,279.200 52.400 C 279.200 52.180,278.840 52.000,278.400 52.000 C 277.960 52.000,277.600 51.820,277.600 51.600 C 277.600 51.380,277.255 51.200,276.833 51.200 C 276.412 51.200,276.007 51.065,275.933 50.900 C 275.741 50.468,272.428 48.800,271.762 48.800 C 271.453 48.800,271.200 48.620,271.200 48.400 C 271.200 48.180,270.930 48.000,270.600 48.000 C 270.270 48.000,270.000 47.820,270.000 47.600 C 270.000 47.380,269.640 47.200,269.200 47.200 C 268.760 47.200,268.400 47.053,268.400 46.872 C 268.400 46.692,267.500 46.300,266.400 46.000 C 265.300 45.700,264.400 45.308,264.400 45.128 C 264.400 44.947,264.051 44.800,263.624 44.800 C 263.197 44.800,262.736 44.620,262.600 44.400 C 262.464 44.180,261.949 44.000,261.456 44.000 C 260.963 44.000,260.385 43.825,260.171 43.611 C 259.958 43.398,259.427 43.155,258.991 43.072 C 258.556 42.988,257.930 42.810,257.600 42.674 C 255.953 42.000,253.322 41.211,252.700 41.206 C 252.315 41.203,252.000 41.020,252.000 40.800 C 252.000 40.580,251.460 40.400,250.800 40.400 C 250.140 40.400,249.600 40.220,249.600 40.000 C 249.600 39.780,248.880 39.600,248.000 39.600 C 247.120 39.600,246.400 39.420,246.400 39.200 C 246.400 38.980,245.860 38.800,245.200 38.800 C 244.540 38.800,244.000 38.620,244.000 38.400 C 244.000 38.180,243.295 38.000,242.433 38.000 C 241.572 38.000,240.807 37.829,240.733 37.620 C 240.660 37.411,239.835 37.196,238.900 37.142 C 237.965 37.088,237.200 36.899,237.200 36.722 C 237.200 36.545,236.480 36.400,235.600 36.400 C 234.720 36.400,234.000 36.220,234.000 36.000 C 234.000 35.780,233.021 35.600,231.824 35.600 C 230.627 35.600,229.536 35.420,229.400 35.200 C 229.264 34.980,228.274 34.800,227.200 34.800 C 226.126 34.800,225.136 34.620,225.000 34.400 C 224.864 34.180,223.424 34.000,221.800 34.000 C 220.176 34.000,218.736 33.820,218.600 33.600 C 218.460 33.373,216.463 33.200,213.976 33.200 C 211.546 33.200,209.600 33.035,209.600 32.828 C 209.600 32.609,205.650 32.456,200.000 32.456 C 194.350 32.456,190.400 32.609,190.400 32.828 M205.800 102.460 C 208.464 103.393,210.853 104.437,211.200 104.819 C 211.310 104.940,212.030 105.473,212.800 106.004 C 222.803 112.901,224.010 129.486,215.129 138.014 C 213.519 139.560,210.617 141.600,210.028 141.600 C 209.793 141.600,209.600 141.780,209.600 142.000 C 209.600 142.220,209.251 142.400,208.824 142.400 C 208.397 142.400,207.936 142.580,207.800 142.800 C 207.664 143.020,207.124 143.200,206.600 143.200 C 206.076 143.200,205.536 143.380,205.400 143.600 C 205.256 143.833,203.004 144.000,200.000 144.000 C 196.996 144.000,194.744 143.833,194.600 143.600 C 194.464 143.380,193.924 143.200,193.400 143.200 C 192.876 143.200,192.336 143.020,192.200 142.800 C 192.064 142.580,191.603 142.400,191.176 142.400 C 190.749 142.400,190.400 142.220,190.400 142.000 C 190.400 141.780,190.207 141.600,189.972 141.600 C 189.299 141.600,186.311 139.425,184.663 137.737 C 176.854 129.731,176.772 116.695,184.479 108.373 C 185.982 106.750,190.482 103.600,191.298 103.600 C 191.596 103.600,192.011 103.451,192.220 103.270 C 193.926 101.786,202.429 101.280,205.800 102.460 M205.800 165.183 C 210.497 167.012,213.350 169.660,215.684 174.353 L 217.000 177.000 217.112 220.174 C 217.184 247.786,217.366 263.518,217.618 263.822 C 217.835 264.084,218.811 264.387,219.787 264.497 C 226.956 265.305,234.016 273.628,233.995 281.246 C 233.973 289.355,227.747 296.589,219.269 298.356 C 216.362 298.962,183.638 298.962,180.731 298.356 C 169.366 295.987,163.367 285.271,167.430 274.600 C 169.154 270.074,175.384 265.107,180.089 264.509 C 181.030 264.390,182.025 264.114,182.300 263.897 C 182.693 263.587,182.800 256.558,182.800 231.170 L 182.800 198.838 181.300 198.421 C 180.475 198.192,179.483 198.003,179.095 198.002 C 178.707 198.001,178.077 197.843,177.695 197.650 C 177.313 197.458,176.190 196.892,175.200 196.393 C 167.615 192.566,164.218 183.037,167.430 174.600 C 169.166 170.041,175.116 165.316,180.275 164.399 C 184.764 163.601,203.191 164.167,205.800 165.183 " stroke="none" fill="#2494f4" fill-rule="evenodd"></path><path id="path2" d="M198.300 102.293 C 199.235 102.377,200.765 102.377,201.700 102.293 C 202.635 102.209,201.870 102.140,200.000 102.140 C 198.130 102.140,197.365 102.209,198.300 102.293 M179.052 120.100 C 178.734 121.288,178.784 125.217,179.128 126.085 C 179.278 126.462,179.400 125.067,179.400 122.985 C 179.400 118.824,179.398 118.809,179.052 120.100 M220.600 123.000 C 220.600 125.074,220.722 126.462,220.872 126.085 C 221.021 125.708,221.144 124.320,221.144 123.000 C 221.144 121.680,221.021 120.292,220.872 119.915 C 220.722 119.538,220.600 120.926,220.600 123.000 M198.100 143.894 C 199.145 143.976,200.855 143.976,201.900 143.894 C 202.945 143.812,202.090 143.744,200.000 143.744 C 197.910 143.744,197.055 143.812,198.100 143.894 M186.500 164.699 C 189.305 164.768,193.895 164.768,196.700 164.699 C 199.505 164.630,197.210 164.574,191.600 164.574 C 185.990 164.574,183.695 164.630,186.500 164.699 M211.600 169.400 C 212.346 170.170,213.047 170.800,213.157 170.800 C 213.267 170.800,212.746 170.170,212.000 169.400 C 211.254 168.630,210.553 168.000,210.443 168.000 C 210.333 168.000,210.854 168.630,211.600 169.400 M166.531 181.400 C 166.533 182.940,166.605 183.521,166.692 182.691 C 166.779 181.861,166.777 180.601,166.689 179.891 C 166.600 179.181,166.529 179.860,166.531 181.400 M216.493 180.000 C 216.493 180.770,216.575 181.085,216.676 180.700 C 216.776 180.315,216.776 179.685,216.676 179.300 C 216.575 178.915,216.493 179.230,216.493 180.000 M171.183 192.900 C 172.841 194.666,173.200 194.984,173.200 194.683 C 173.200 194.619,172.345 193.764,171.300 192.783 L 169.400 191.000 171.183 192.900 M166.531 281.400 C 166.533 282.940,166.605 283.521,166.692 282.691 C 166.779 281.861,166.777 280.601,166.689 279.891 C 166.600 279.181,166.529 279.860,166.531 281.400 M233.331 281.400 C 233.333 282.940,233.405 283.521,233.492 282.691 C 233.579 281.861,233.577 280.601,233.489 279.891 C 233.400 279.181,233.329 279.860,233.331 281.400 M171.183 292.900 C 172.841 294.666,173.200 294.984,173.200 294.683 C 173.200 294.619,172.345 293.764,171.300 292.783 L 169.400 291.000 171.183 292.900 M228.400 293.000 C 227.428 293.990,226.723 294.800,226.833 294.800 C 226.943 294.800,227.828 293.990,228.800 293.000 C 229.772 292.010,230.477 291.200,230.367 291.200 C 230.257 291.200,229.372 292.010,228.400 293.000 M185.900 298.298 C 188.155 298.370,191.845 298.370,194.100 298.298 C 196.355 298.227,194.510 298.169,190.000 298.169 C 185.490 298.169,183.645 298.227,185.900 298.298 M205.900 298.298 C 208.155 298.370,211.845 298.370,214.100 298.298 C 216.355 298.227,214.510 298.169,210.000 298.169 C 205.490 298.169,203.645 298.227,205.900 298.298 " stroke="none" fill="#72bdf6" fill-rule="evenodd"></path><path id="path3" d="M195.000 102.800 L 194.200 103.144 195.000 103.144 C 195.440 103.144,196.160 102.989,196.600 102.800 L 197.400 102.456 196.600 102.456 C 196.160 102.456,195.440 102.611,195.000 102.800 M203.400 102.800 C 203.840 102.989,204.560 103.144,205.000 103.144 L 205.800 103.144 205.000 102.800 C 204.560 102.611,203.840 102.456,203.400 102.456 L 202.600 102.456 203.400 102.800 M187.536 106.371 C 176.121 114.546,176.877 134.132,188.854 140.517 C 190.143 141.205,190.158 141.205,189.200 140.519 C 177.002 131.782,176.359 114.988,187.900 106.558 C 189.841 105.141,190.221 104.800,189.865 104.800 C 189.791 104.800,188.743 105.507,187.536 106.371 M210.000 104.889 C 210.000 104.964,210.945 105.714,212.100 106.558 C 219.283 111.805,222.082 120.974,219.247 129.973 C 219.009 130.728,218.960 131.178,219.137 130.973 C 221.710 128.007,220.968 117.569,217.800 112.164 C 216.273 109.559,210.000 103.708,210.000 104.889 M217.400 133.667 C 216.262 135.561,212.979 138.971,210.800 140.523 C 209.855 141.196,209.875 141.195,211.168 140.517 C 213.719 139.180,219.493 132.553,218.749 131.817 C 218.667 131.736,218.060 132.569,217.400 133.667 M195.000 143.200 C 195.440 143.389,196.160 143.544,196.600 143.544 L 197.400 143.544 196.600 143.200 C 196.160 143.011,195.440 142.856,195.000 142.856 L 194.200 142.856 195.000 143.200 M203.400 143.200 L 202.600 143.544 203.400 143.544 C 203.840 143.544,204.560 143.389,205.000 143.200 L 205.800 142.856 205.000 142.856 C 204.560 142.856,203.840 143.011,203.400 143.200 M179.338 165.106 C 179.084 165.268,184.574 165.400,191.538 165.400 L 204.200 165.400 206.823 166.643 C 208.266 167.327,210.231 168.632,211.188 169.543 C 213.226 171.482,213.877 171.757,212.175 169.960 C 207.803 165.346,205.607 164.799,191.485 164.806 C 185.058 164.809,179.592 164.944,179.338 165.106 M175.710 166.511 C 173.483 167.683,171.384 169.411,170.315 170.952 C 169.750 171.766,170.165 171.484,171.508 170.140 C 172.640 169.006,174.683 167.521,176.047 166.840 C 177.411 166.158,178.274 165.605,177.964 165.611 C 177.654 165.617,176.640 166.022,175.710 166.511 M168.581 173.637 C 168.229 174.318,168.012 174.945,168.099 175.032 C 168.186 175.119,168.556 174.562,168.922 173.795 C 169.744 172.070,169.459 171.938,168.581 173.637 M214.714 174.454 C 215.072 175.364,215.428 175.916,215.506 175.681 C 215.644 175.269,214.543 172.800,214.222 172.800 C 214.135 172.800,214.357 173.544,214.714 174.454 M215.646 176.800 C 215.665 177.130,215.824 177.850,216.000 178.400 L 216.320 179.400 216.354 178.400 C 216.373 177.850,216.213 177.130,216.000 176.800 C 215.655 176.267,215.616 176.267,215.646 176.800 M166.937 181.400 C 166.939 183.160,167.009 183.830,167.093 182.889 C 167.178 181.949,167.177 180.509,167.091 179.689 C 167.005 178.870,166.936 179.640,166.937 181.400 M216.497 222.892 L 216.400 264.785 217.300 264.969 C 219.779 265.478,221.367 265.638,221.083 265.352 C 220.909 265.177,219.919 264.936,218.883 264.817 L 217.000 264.600 216.797 222.800 L 216.594 181.000 216.497 222.892 M167.206 185.433 C 167.209 185.855,167.395 186.470,167.618 186.800 C 167.915 187.238,167.952 187.076,167.756 186.200 C 167.427 184.729,167.198 184.410,167.206 185.433 M168.004 187.822 C 167.998 188.425,170.219 191.844,170.861 192.221 C 171.204 192.422,171.167 192.257,170.759 191.769 C 170.407 191.346,169.644 190.190,169.063 189.200 C 168.483 188.210,168.006 187.590,168.004 187.822 M172.771 194.158 C 173.313 194.818,175.600 196.196,175.600 195.863 C 175.600 195.777,174.835 195.202,173.900 194.585 C 172.939 193.951,172.448 193.766,172.771 194.158 M178.400 197.200 C 178.730 197.413,179.270 197.588,179.600 197.588 C 180.133 197.588,180.133 197.545,179.600 197.200 C 179.270 196.987,178.730 196.812,178.400 196.812 C 177.867 196.812,177.867 196.855,178.400 197.200 M182.000 197.940 L 183.000 198.236 183.000 231.418 L 183.000 264.600 181.117 264.817 C 180.081 264.936,179.091 265.177,178.917 265.352 C 178.633 265.639,180.223 265.477,182.702 264.969 L 183.605 264.784 183.502 231.292 L 183.400 197.800 182.200 197.722 C 181.082 197.648,181.069 197.663,182.000 197.940 M175.710 266.511 C 173.483 267.683,171.384 269.411,170.315 270.952 C 169.750 271.766,170.165 271.484,171.508 270.140 C 172.640 269.006,174.683 267.521,176.047 266.840 C 177.411 266.158,178.274 265.605,177.964 265.611 C 177.654 265.617,176.640 266.022,175.710 266.511 M223.953 266.840 C 225.317 267.521,227.354 269.006,228.479 270.140 C 229.604 271.273,230.214 271.717,229.833 271.126 C 228.503 269.058,223.569 265.600,221.949 265.600 C 221.687 265.600,222.589 266.158,223.953 266.840 M168.581 273.637 C 168.229 274.318,168.012 274.945,168.099 275.032 C 168.186 275.119,168.556 274.562,168.922 273.795 C 169.744 272.070,169.459 271.938,168.581 273.637 M231.078 273.795 C 231.444 274.562,231.814 275.119,231.901 275.032 C 232.084 274.849,230.870 272.400,230.596 272.400 C 230.495 272.400,230.712 273.028,231.078 273.795 M166.937 281.400 C 166.939 283.160,167.009 283.830,167.093 282.889 C 167.178 281.949,167.177 280.509,167.091 279.689 C 167.005 278.870,166.936 279.640,166.937 281.400 M232.937 281.400 C 232.939 283.160,233.009 283.830,233.093 282.889 C 233.178 281.949,233.177 280.509,233.091 279.689 C 233.005 278.870,232.936 279.640,232.937 281.400 M167.206 285.433 C 167.209 285.855,167.395 286.470,167.618 286.800 C 167.915 287.238,167.952 287.076,167.756 286.200 C 167.427 284.729,167.198 284.410,167.206 285.433 M232.446 285.267 C 232.421 285.634,232.296 286.264,232.170 286.667 C 231.952 287.362,231.963 287.363,232.397 286.687 C 232.648 286.296,232.773 285.666,232.673 285.287 C 232.511 284.668,232.488 284.666,232.446 285.267 M168.004 287.822 C 167.998 288.425,170.219 291.844,170.861 292.221 C 171.204 292.422,171.167 292.257,170.759 291.769 C 170.407 291.346,169.644 290.190,169.063 289.200 C 168.483 288.210,168.006 287.590,168.004 287.822 M230.260 290.133 C 229.413 291.470,229.018 292.317,229.383 292.014 C 230.119 291.403,232.183 288.039,231.949 287.833 C 231.867 287.760,231.107 288.795,230.260 290.133 M172.771 294.158 C 173.313 294.818,175.600 296.196,175.600 295.863 C 175.600 295.777,174.835 295.202,173.900 294.585 C 172.939 293.951,172.448 293.766,172.771 294.158 M226.081 294.572 C 224.227 295.883,223.994 296.206,225.429 295.477 C 226.105 295.134,226.892 294.571,227.178 294.226 C 227.871 293.391,227.654 293.460,226.081 294.572 M178.400 297.200 C 178.730 297.413,179.270 297.588,179.600 297.588 C 180.133 297.588,180.133 297.545,179.600 297.200 C 179.270 296.987,178.730 296.812,178.400 296.812 C 177.867 296.812,177.867 296.855,178.400 297.200 M220.400 297.200 C 219.867 297.545,219.867 297.588,220.400 297.588 C 220.730 297.588,221.270 297.413,221.600 297.200 C 222.133 296.855,222.133 296.812,221.600 296.812 C 221.270 296.812,220.730 296.987,220.400 297.200 M190.500 297.975 C 195.725 298.099,204.275 298.099,209.500 297.975 C 216.416 297.810,213.832 297.749,200.000 297.749 C 186.168 297.749,183.584 297.810,190.500 297.975 " stroke="none" fill="#a9d5fc" fill-rule="evenodd"></path><path id="path4" d="M199.100 101.882 C 199.595 101.978,200.405 101.978,200.900 101.882 C 201.395 101.787,200.990 101.709,200.000 101.709 C 199.010 101.709,198.605 101.787,199.100 101.882 M194.400 102.406 C 193.978 102.682,194.215 102.723,195.200 102.542 C 196.925 102.225,197.251 101.998,195.967 102.006 C 195.435 102.009,194.730 102.189,194.400 102.406 M203.233 102.143 C 203.325 102.221,204.030 102.401,204.800 102.542 C 205.785 102.723,206.022 102.682,205.600 102.406 C 205.058 102.050,202.837 101.803,203.233 102.143 M180.981 113.237 C 180.629 113.918,180.412 114.545,180.499 114.632 C 180.586 114.719,180.956 114.162,181.322 113.395 C 182.144 111.670,181.859 111.538,180.981 113.237 M218.678 113.395 C 219.044 114.162,219.414 114.719,219.501 114.632 C 219.684 114.449,218.470 112.000,218.196 112.000 C 218.095 112.000,218.312 112.628,218.678 113.395 M179.000 118.800 C 178.848 119.491,178.814 120.147,178.924 120.257 C 179.034 120.367,179.248 119.891,179.400 119.200 C 179.552 118.509,179.586 117.853,179.476 117.743 C 179.366 117.633,179.152 118.109,179.000 118.800 M220.468 118.200 C 220.462 118.640,220.611 119.360,220.800 119.800 C 221.238 120.819,221.238 119.768,220.800 118.400 C 220.543 117.596,220.477 117.557,220.468 118.200 M178.856 126.200 C 178.856 126.640,179.011 127.360,179.200 127.800 L 179.544 128.600 179.544 127.800 C 179.544 127.360,179.389 126.640,179.200 126.200 L 178.856 125.400 178.856 126.200 M220.600 126.800 C 220.448 127.491,220.407 128.141,220.509 128.242 C 220.611 128.344,220.809 127.853,220.950 127.150 C 221.283 125.483,220.960 125.160,220.600 126.800 M180.400 131.353 C 180.400 131.782,181.590 134.000,181.821 134.000 C 181.931 134.000,181.723 133.415,181.359 132.700 C 180.617 131.240,180.400 130.936,180.400 131.353 M218.678 132.605 C 218.312 133.372,218.095 134.000,218.196 134.000 C 218.470 134.000,219.684 131.551,219.501 131.368 C 219.414 131.281,219.044 131.838,218.678 132.605 M183.829 136.838 C 184.473 137.629,185.081 138.208,185.179 138.125 C 185.278 138.042,184.751 137.395,184.009 136.687 L 182.658 135.400 183.829 136.838 M204.200 143.600 C 203.429 143.931,203.431 143.945,204.276 143.972 C 204.758 143.987,205.264 143.820,205.400 143.600 C 205.692 143.127,205.301 143.127,204.200 143.600 M186.700 164.299 C 189.395 164.368,193.805 164.368,196.500 164.299 C 199.195 164.230,196.990 164.173,191.600 164.173 C 186.210 164.173,184.005 164.230,186.700 164.299 M179.700 164.676 C 180.085 164.776,180.715 164.776,181.100 164.676 C 181.485 164.575,181.170 164.493,180.400 164.493 C 179.630 164.493,179.315 164.575,179.700 164.676 M202.100 164.676 C 202.485 164.776,203.115 164.776,203.500 164.676 C 203.885 164.575,203.570 164.493,202.800 164.493 C 202.030 164.493,201.715 164.575,202.100 164.676 M206.800 165.819 C 206.800 165.898,207.392 166.243,208.116 166.587 C 210.162 167.558,212.311 169.499,213.820 171.740 C 214.579 172.867,215.199 173.612,215.198 173.395 C 215.194 172.591,212.119 168.972,210.221 167.538 C 208.509 166.244,206.800 165.385,206.800 165.819 M172.678 167.813 C 171.206 169.107,171.733 169.096,173.273 167.800 C 173.927 167.250,174.313 166.806,174.131 166.813 C 173.949 166.820,173.295 167.270,172.678 167.813 M168.321 172.900 C 167.388 174.369,166.705 176.322,166.928 176.880 C 167.056 177.199,167.149 177.114,167.168 176.658 C 167.186 176.250,167.643 175.035,168.183 173.958 C 169.218 171.898,169.285 171.380,168.321 172.900 M215.665 175.100 C 215.910 175.705,216.245 176.830,216.409 177.600 C 216.662 178.783,216.715 178.837,216.754 177.949 C 216.798 176.945,215.792 174.000,215.405 174.000 C 215.303 174.000,215.420 174.495,215.665 175.100 M166.256 178.484 C 166.121 178.988,166.035 180.390,166.064 181.600 C 166.115 183.685,166.132 183.643,166.403 180.800 C 166.704 177.637,166.662 176.971,166.256 178.484 M216.997 221.567 C 217.000 259.047,217.072 264.157,217.600 264.332 C 218.092 264.494,218.110 264.421,217.702 263.926 C 217.313 263.455,217.181 254.091,217.099 221.161 L 216.994 179.000 216.997 221.567 M171.200 193.400 C 171.946 194.170,172.647 194.800,172.757 194.800 C 172.867 194.800,172.346 194.170,171.600 193.400 C 170.854 192.630,170.153 192.000,170.043 192.000 C 169.933 192.000,170.454 192.630,171.200 193.400 M173.200 195.127 C 173.200 195.316,173.650 195.677,174.200 195.927 C 174.750 196.178,175.200 196.317,175.200 196.237 C 175.200 196.157,174.750 195.797,174.200 195.437 C 173.650 195.076,173.200 194.937,173.200 195.127 M181.500 198.448 L 182.800 198.823 182.800 231.131 C 182.800 256.429,182.691 263.555,182.300 263.970 C 181.896 264.398,181.916 264.465,182.400 264.317 C 182.926 264.156,183.013 260.106,183.104 231.567 C 183.217 195.958,183.340 197.935,181.024 198.036 C 180.473 198.060,180.631 198.197,181.500 198.448 M179.700 264.676 C 180.085 264.776,180.715 264.776,181.100 264.676 C 181.485 264.575,181.170 264.493,180.400 264.493 C 179.630 264.493,179.315 264.575,179.700 264.676 M218.900 264.676 C 219.285 264.776,219.915 264.776,220.300 264.676 C 220.685 264.575,220.370 264.493,219.600 264.493 C 218.830 264.493,218.515 264.575,218.900 264.676 M172.678 267.813 C 171.206 269.107,171.733 269.096,173.273 267.800 C 173.927 267.250,174.313 266.806,174.131 266.813 C 173.949 266.820,173.295 267.270,172.678 267.813 M226.727 267.800 C 227.381 268.350,228.038 268.800,228.188 268.800 C 228.339 268.800,227.927 268.350,227.273 267.800 C 226.619 267.250,225.962 266.800,225.812 266.800 C 225.661 266.800,226.073 267.250,226.727 267.800 M168.321 272.900 C 167.388 274.369,166.705 276.322,166.928 276.880 C 167.056 277.199,167.149 277.114,167.168 276.658 C 167.186 276.250,167.643 275.035,168.183 273.958 C 169.218 271.898,169.285 271.380,168.321 272.900 M231.478 273.395 C 231.844 274.162,232.214 274.719,232.301 274.632 C 232.484 274.449,231.270 272.000,230.996 272.000 C 230.895 272.000,231.112 272.628,231.478 273.395 M166.256 278.484 C 166.121 278.988,166.035 280.390,166.064 281.600 C 166.115 283.685,166.132 283.643,166.403 280.800 C 166.704 277.637,166.662 276.971,166.256 278.484 M233.481 280.200 C 233.722 283.858,233.936 284.416,233.940 281.400 C 233.942 280.080,233.798 278.640,233.620 278.200 C 233.432 277.735,233.374 278.573,233.481 280.200 M171.200 293.400 C 171.946 294.170,172.647 294.800,172.757 294.800 C 172.867 294.800,172.346 294.170,171.600 293.400 C 170.854 292.630,170.153 292.000,170.043 292.000 C 169.933 292.000,170.454 292.630,171.200 293.400 M173.200 295.127 C 173.200 295.316,173.650 295.677,174.200 295.927 C 174.750 296.178,175.200 296.317,175.200 296.237 C 175.200 296.157,174.750 295.797,174.200 295.437 C 173.650 295.076,173.200 294.937,173.200 295.127 M225.600 295.620 L 224.600 296.422 225.700 295.947 C 226.305 295.685,226.800 295.320,226.800 295.136 C 226.800 294.679,226.745 294.702,225.600 295.620 M181.276 298.460 C 181.784 298.603,190.210 298.720,200.000 298.720 C 209.790 298.720,218.216 298.603,218.724 298.460 C 219.232 298.317,210.806 298.200,200.000 298.200 C 189.194 298.200,180.768 298.317,181.276 298.460 " stroke="none" fill="#4cacf4" fill-rule="evenodd"></path></g></svg>