<svg id="svg" version="1.1" xmlns="http://www.w3.org/2000/svg" xmlns:xlink="http://www.w3.org/1999/xlink" width="400" height="400" viewBox="0, 0, 400,400"><g id="svgg"><path id="path0" d="M339.000 22.477 C 337.680 22.686,336.429 23.024,336.220 23.228 C 336.011 23.433,335.552 23.600,335.200 23.600 C 334.369 23.600,332.407 24.512,332.403 24.900 C 332.401 25.065,332.040 25.200,331.600 25.200 C 331.160 25.200,330.800 25.341,330.800 25.514 C 330.800 25.686,330.250 26.152,329.578 26.549 C 328.906 26.946,325.596 29.975,322.223 33.280 L 316.089 39.289 339.056 62.244 C 351.688 74.870,362.064 85.200,362.113 85.200 C 362.444 85.200,373.208 74.323,373.988 73.200 C 374.524 72.430,375.084 71.710,375.234 71.600 C 377.132 70.209,379.200 63.162,379.200 58.084 C 379.200 53.139,377.390 46.329,375.900 45.667 C 375.735 45.593,375.600 45.257,375.600 44.920 C 375.600 44.185,358.702 27.087,357.227 26.329 C 356.662 26.039,356.110 25.709,356.000 25.595 C 355.890 25.482,354.990 25.005,354.000 24.536 C 349.063 22.195,344.625 21.586,339.000 22.477 M228.600 126.400 L 156.201 198.800 179.408 222.007 L 202.615 245.214 275.104 172.707 L 347.592 100.200 324.497 77.100 C 311.795 64.395,301.312 54.000,301.201 54.000 C 301.090 54.000,268.420 86.580,228.600 126.400 " stroke="none" fill="#04e2d7" fill-rule="evenodd"></path><path id="path1" d="M342.800 0.800 C 342.800 1.040,341.208 1.200,338.824 1.200 C 336.604 1.200,334.738 1.377,334.600 1.600 C 334.464 1.820,333.654 2.000,332.800 2.000 C 331.946 2.000,331.136 2.180,331.000 2.400 C 330.864 2.620,330.223 2.800,329.576 2.800 C 328.929 2.800,328.400 2.980,328.400 3.200 C 328.400 3.420,327.950 3.600,327.400 3.600 C 326.850 3.600,326.400 3.780,326.400 4.000 C 326.400 4.220,326.040 4.400,325.600 4.400 C 325.160 4.400,324.800 4.580,324.800 4.800 C 324.800 5.020,324.440 5.200,324.000 5.200 C 323.560 5.200,323.200 5.380,323.200 5.600 C 323.200 5.820,322.840 6.000,322.400 6.000 C 321.960 6.000,321.600 6.180,321.600 6.400 C 321.600 6.620,321.240 6.800,320.800 6.800 C 320.360 6.800,320.000 6.980,320.000 7.200 C 320.000 7.420,319.719 7.600,319.376 7.600 C 319.033 7.600,318.867 7.784,319.006 8.010 C 319.145 8.235,319.111 8.380,318.930 8.331 C 318.283 8.156,316.870 8.841,316.640 9.441 C 316.511 9.776,316.245 9.951,316.048 9.830 C 315.617 9.563,308.157 16.680,308.300 17.221 C 308.355 17.430,308.175 17.555,307.900 17.500 C 307.625 17.445,307.445 17.625,307.500 17.900 C 307.555 18.175,307.375 18.355,307.100 18.300 C 306.825 18.245,306.645 18.425,306.700 18.700 C 306.755 18.975,306.575 19.155,306.300 19.100 C 306.025 19.045,305.845 19.225,305.900 19.500 C 305.955 19.775,305.775 19.955,305.500 19.900 C 305.225 19.845,305.045 20.025,305.100 20.300 C 305.155 20.575,304.975 20.755,304.700 20.700 C 304.425 20.645,304.245 20.825,304.300 21.100 C 304.355 21.375,304.175 21.555,303.900 21.500 C 303.625 21.445,303.445 21.625,303.500 21.900 C 303.555 22.175,303.375 22.355,303.100 22.300 C 302.825 22.245,302.645 22.425,302.700 22.700 C 302.755 22.975,302.575 23.155,302.300 23.100 C 302.025 23.045,301.845 23.225,301.900 23.500 C 301.955 23.775,301.775 23.955,301.500 23.900 C 301.225 23.845,301.060 24.070,301.133 24.400 C 301.207 24.730,301.130 24.863,300.962 24.696 C 300.589 24.322,290.771 34.030,291.056 34.491 C 291.168 34.672,291.021 34.770,290.730 34.710 C 290.438 34.649,290.245 34.825,290.300 35.100 C 290.355 35.375,290.175 35.555,289.900 35.500 C 289.625 35.445,289.445 35.625,289.500 35.900 C 289.555 36.175,289.375 36.355,289.100 36.300 C 288.825 36.245,288.645 36.425,288.700 36.700 C 288.755 36.975,288.575 37.155,288.300 37.100 C 288.025 37.045,287.845 37.225,287.900 37.500 C 287.955 37.775,287.775 37.955,287.500 37.900 C 287.225 37.845,287.045 38.025,287.100 38.300 C 287.155 38.575,286.975 38.755,286.700 38.700 C 286.425 38.645,286.245 38.825,286.300 39.100 C 286.355 39.375,286.175 39.555,285.900 39.500 C 285.625 39.445,285.445 39.625,285.500 39.900 C 285.555 40.175,285.375 40.355,285.100 40.300 C 284.825 40.245,284.649 40.438,284.710 40.730 C 284.770 41.021,284.672 41.168,284.491 41.056 C 284.030 40.771,274.322 50.589,274.696 50.962 C 274.863 51.130,274.730 51.207,274.400 51.133 C 274.070 51.060,273.845 51.225,273.900 51.500 C 273.955 51.775,273.775 51.955,273.500 51.900 C 273.225 51.845,273.045 52.025,273.100 52.300 C 273.155 52.575,272.975 52.755,272.700 52.700 C 272.425 52.645,272.245 52.825,272.300 53.100 C 272.355 53.375,272.175 53.555,271.900 53.500 C 271.625 53.445,271.445 53.625,271.500 53.900 C 271.555 54.175,271.375 54.355,271.100 54.300 C 270.825 54.245,270.645 54.425,270.700 54.700 C 270.755 54.975,270.575 55.155,270.300 55.100 C 270.025 55.045,269.845 55.225,269.900 55.500 C 269.955 55.775,269.775 55.955,269.500 55.900 C 269.225 55.845,269.045 56.025,269.100 56.300 C 269.155 56.575,268.975 56.755,268.700 56.700 C 268.425 56.645,268.245 56.825,268.300 57.100 C 268.355 57.375,268.175 57.555,267.900 57.500 C 267.625 57.445,267.460 57.670,267.533 58.000 C 267.607 58.330,267.529 58.463,267.361 58.295 C 266.989 57.922,257.974 66.834,258.258 67.294 C 258.369 67.473,258.221 67.570,257.930 67.510 C 257.638 67.449,257.445 67.625,257.500 67.900 C 257.555 68.175,257.375 68.355,257.100 68.300 C 256.825 68.245,256.645 68.425,256.700 68.700 C 256.755 68.975,256.575 69.155,256.300 69.100 C 256.025 69.045,255.845 69.225,255.900 69.500 C 255.955 69.775,255.775 69.955,255.500 69.900 C 255.225 69.845,255.045 70.025,255.100 70.300 C 255.155 70.575,254.975 70.755,254.700 70.700 C 254.425 70.645,254.245 70.825,254.300 71.100 C 254.355 71.375,254.175 71.555,253.900 71.500 C 253.625 71.445,253.445 71.625,253.500 71.900 C 253.555 72.175,253.375 72.355,253.100 72.300 C 252.825 72.245,252.645 72.425,252.700 72.700 C 252.755 72.975,252.575 73.155,252.300 73.100 C 252.025 73.045,251.845 73.225,251.900 73.500 C 251.955 73.775,251.775 73.955,251.500 73.900 C 251.225 73.845,251.060 74.070,251.133 74.400 C 251.207 74.730,251.130 74.863,250.962 74.696 C 250.589 74.322,240.771 84.030,241.056 84.491 C 241.168 84.672,241.021 84.770,240.730 84.710 C 240.438 84.649,240.245 84.825,240.300 85.100 C 240.355 85.375,240.175 85.555,239.900 85.500 C 239.625 85.445,239.445 85.625,239.500 85.900 C 239.555 86.175,239.375 86.355,239.100 86.300 C 238.825 86.245,238.645 86.425,238.700 86.700 C 238.755 86.975,238.575 87.155,238.300 87.100 C 238.025 87.045,237.845 87.225,237.900 87.500 C 237.955 87.775,237.775 87.955,237.500 87.900 C 237.225 87.845,237.045 88.025,237.100 88.300 C 237.155 88.575,236.975 88.755,236.700 88.700 C 236.425 88.645,236.245 88.825,236.300 89.100 C 236.355 89.375,236.175 89.555,235.900 89.500 C 235.625 89.445,235.445 89.625,235.500 89.900 C 235.555 90.175,235.375 90.355,235.100 90.300 C 234.825 90.245,234.649 90.438,234.710 90.730 C 234.770 91.021,234.672 91.168,234.491 91.056 C 234.030 90.771,224.322 100.589,224.696 100.962 C 224.863 101.130,224.730 101.207,224.400 101.133 C 224.070 101.060,223.845 101.225,223.900 101.500 C 223.955 101.775,223.775 101.955,223.500 101.900 C 223.225 101.845,223.045 102.025,223.100 102.300 C 223.155 102.575,222.975 102.755,222.700 102.700 C 222.425 102.645,222.245 102.825,222.300 103.100 C 222.355 103.375,222.175 103.555,221.900 103.500 C 221.625 103.445,221.445 103.625,221.500 103.900 C 221.555 104.175,221.375 104.355,221.100 104.300 C 220.825 104.245,220.645 104.425,220.700 104.700 C 220.755 104.975,220.575 105.155,220.300 105.100 C 220.025 105.045,219.845 105.225,219.900 105.500 C 219.955 105.775,219.775 105.955,219.500 105.900 C 219.225 105.845,219.045 106.025,219.100 106.300 C 219.155 106.575,218.975 106.755,218.700 106.700 C 218.425 106.645,218.245 106.825,218.300 107.100 C 218.355 107.375,218.175 107.555,217.900 107.500 C 217.625 107.445,217.449 107.638,217.510 107.930 C 217.570 108.221,217.473 108.369,217.294 108.258 C 216.834 107.974,207.922 116.989,208.295 117.361 C 208.463 117.529,208.330 117.607,208.000 117.533 C 207.670 117.460,207.445 117.625,207.500 117.900 C 207.555 118.175,207.375 118.355,207.100 118.300 C 206.825 118.245,206.645 118.425,206.700 118.700 C 206.755 118.975,206.575 119.155,206.300 119.100 C 206.025 119.045,205.845 119.225,205.900 119.500 C 205.955 119.775,205.775 119.955,205.500 119.900 C 205.225 119.845,205.045 120.025,205.100 120.300 C 205.155 120.575,204.975 120.755,204.700 120.700 C 204.425 120.645,204.245 120.825,204.300 121.100 C 204.355 121.375,204.175 121.555,203.900 121.500 C 203.625 121.445,203.445 121.625,203.500 121.900 C 203.555 122.175,203.375 122.355,203.100 122.300 C 202.825 122.245,202.645 122.425,202.700 122.700 C 202.755 122.975,202.575 123.155,202.300 123.100 C 202.025 123.045,201.845 123.225,201.900 123.500 C 201.955 123.775,201.775 123.955,201.500 123.900 C 201.225 123.845,201.060 124.070,201.133 124.400 C 201.207 124.730,201.131 124.864,200.964 124.698 C 200.637 124.370,195.195 129.600,183.833 141.160 C 179.855 145.207,176.162 148.897,175.627 149.360 C 175.092 149.822,172.607 152.270,170.105 154.800 C 164.363 160.606,160.606 164.363,154.800 170.105 C 152.270 172.607,149.822 175.092,149.360 175.627 C 148.897 176.162,145.207 179.850,141.160 183.823 C 133.636 191.207,131.620 193.418,131.607 194.300 C 131.603 194.575,131.420 194.800,131.200 194.800 C 130.980 194.800,130.800 195.340,130.800 196.000 C 130.800 196.660,130.620 197.200,130.400 197.200 C 130.180 197.200,130.000 197.729,130.000 198.376 C 130.000 199.023,129.820 199.664,129.600 199.800 C 129.380 199.936,129.200 200.667,129.200 201.424 C 129.200 202.181,129.020 202.800,128.800 202.800 C 128.580 202.800,128.400 203.419,128.400 204.176 C 128.400 204.933,128.220 205.664,128.000 205.800 C 127.780 205.936,127.600 206.566,127.600 207.200 C 127.600 207.834,127.420 208.464,127.200 208.600 C 126.980 208.736,126.800 209.366,126.800 210.000 C 126.800 210.634,126.640 211.252,126.444 211.373 C 126.081 211.597,125.979 212.041,125.136 217.100 C 124.870 218.695,124.506 220.000,124.326 220.000 C 124.147 220.000,124.000 220.540,124.000 221.200 C 124.000 221.860,123.820 222.400,123.600 222.400 C 123.380 222.400,123.200 223.120,123.200 224.000 C 123.200 224.880,123.020 225.600,122.800 225.600 C 122.580 225.600,122.400 226.241,122.400 227.024 C 122.400 227.871,122.238 228.347,122.000 228.200 C 121.762 228.053,121.600 228.529,121.600 229.376 C 121.600 230.159,121.420 230.800,121.200 230.800 C 120.980 230.800,120.800 231.520,120.800 232.400 C 120.800 233.280,120.620 234.000,120.400 234.000 C 120.180 234.000,120.000 234.641,120.000 235.424 C 120.000 236.207,119.856 236.758,119.680 236.649 C 119.504 236.541,119.316 237.115,119.263 237.926 C 119.209 238.737,118.993 239.460,118.782 239.533 C 118.572 239.607,118.400 240.181,118.400 240.810 C 118.400 241.438,118.220 242.064,118.000 242.200 C 117.780 242.336,117.600 242.966,117.600 243.600 C 117.600 244.234,117.420 244.864,117.200 245.000 C 116.980 245.136,116.800 245.867,116.800 246.624 C 116.800 247.381,116.620 248.000,116.400 248.000 C 116.180 248.000,116.000 248.529,116.000 249.176 C 116.000 249.823,115.820 250.464,115.600 250.600 C 115.380 250.736,115.200 251.467,115.200 252.224 C 115.200 252.981,115.020 253.600,114.800 253.600 C 114.580 253.600,114.400 254.219,114.400 254.976 C 114.400 255.733,114.220 256.464,114.000 256.600 C 113.780 256.736,113.600 257.377,113.600 258.024 C 113.600 258.671,113.420 259.200,113.200 259.200 C 112.980 259.200,112.800 259.909,112.800 260.776 C 112.800 261.643,112.620 262.464,112.400 262.600 C 112.180 262.736,112.000 263.276,112.000 263.800 C 112.000 264.324,111.820 264.864,111.600 265.000 C 111.380 265.136,111.200 265.766,111.200 266.400 C 111.200 267.034,111.020 267.664,110.800 267.800 C 110.580 267.936,110.400 268.667,110.400 269.424 C 110.400 270.181,110.220 270.800,110.000 270.800 C 109.780 270.800,109.600 271.262,109.600 271.826 C 109.600 272.391,109.418 273.192,109.196 273.608 C 108.973 274.023,108.678 275.447,108.540 276.771 C 108.402 278.095,108.133 279.082,107.944 278.965 C 107.755 278.849,107.600 279.653,107.600 280.753 C 107.600 281.853,107.420 282.864,107.200 283.000 C 106.680 283.322,106.680 284.800,107.200 284.800 C 107.420 284.800,107.600 285.520,107.600 286.400 C 107.600 287.280,107.780 288.000,108.000 288.000 C 108.220 288.000,108.400 288.255,108.400 288.568 C 108.400 289.633,109.798 291.610,110.900 292.103 C 111.505 292.374,112.000 292.731,112.000 292.898 C 112.000 293.064,112.360 293.200,112.800 293.200 C 113.240 293.200,113.600 293.380,113.600 293.600 C 113.600 293.842,115.333 294.000,118.000 294.000 C 120.667 294.000,122.400 293.842,122.400 293.600 C 122.400 293.380,123.030 293.200,123.800 293.200 C 124.570 293.200,125.200 293.020,125.200 292.800 C 125.200 292.580,125.729 292.400,126.376 292.400 C 127.023 292.400,127.652 292.239,127.774 292.042 C 127.895 291.845,128.671 291.594,129.497 291.484 C 132.112 291.134,133.368 290.872,134.500 290.440 C 135.105 290.209,135.600 290.141,135.600 290.290 C 135.600 290.438,135.816 290.344,136.080 290.080 C 136.344 289.816,137.143 289.600,137.856 289.600 C 138.569 289.600,139.264 289.420,139.400 289.200 C 139.536 288.980,140.087 288.800,140.624 288.800 C 141.161 288.800,141.600 288.657,141.600 288.482 C 141.600 288.307,142.275 288.119,143.100 288.064 C 143.925 288.010,144.660 287.793,144.733 287.582 C 144.807 287.372,145.471 287.200,146.210 287.200 C 146.948 287.200,147.664 287.020,147.800 286.800 C 147.936 286.580,148.577 286.400,149.224 286.400 C 149.871 286.400,150.400 286.220,150.400 286.000 C 150.400 285.780,151.120 285.600,152.000 285.600 C 152.880 285.600,153.600 285.420,153.600 285.200 C 153.600 284.980,154.129 284.800,154.776 284.800 C 155.423 284.800,156.064 284.620,156.200 284.400 C 156.336 284.180,156.977 284.000,157.624 284.000 C 158.271 284.000,158.800 283.820,158.800 283.600 C 158.800 283.380,159.520 283.200,160.400 283.200 C 161.280 283.200,162.000 283.020,162.000 282.800 C 162.000 282.580,162.529 282.400,163.176 282.400 C 163.823 282.400,164.464 282.220,164.600 282.000 C 164.736 281.780,165.467 281.600,166.224 281.600 C 166.981 281.600,167.600 281.420,167.600 281.200 C 167.600 280.980,168.219 280.800,168.976 280.800 C 169.733 280.800,170.464 280.620,170.600 280.400 C 170.736 280.180,171.377 280.000,172.024 280.000 C 172.671 280.000,173.200 279.820,173.200 279.600 C 173.200 279.380,173.729 279.200,174.376 279.200 C 175.023 279.200,175.664 279.020,175.800 278.800 C 175.936 278.580,176.656 278.400,177.400 278.400 C 178.144 278.400,178.864 278.220,179.000 278.000 C 179.136 277.780,179.762 277.600,180.390 277.600 C 181.019 277.600,181.593 277.428,181.667 277.218 C 181.740 277.007,182.475 276.790,183.300 276.736 C 184.125 276.681,184.800 276.493,184.800 276.318 C 184.800 276.143,185.340 276.000,186.000 276.000 C 186.660 276.000,187.200 275.843,187.200 275.652 C 187.200 275.460,188.275 275.182,189.588 275.033 C 190.901 274.885,192.057 274.631,192.157 274.469 C 192.257 274.307,192.926 274.130,193.643 274.075 C 194.360 274.021,195.139 273.824,195.373 273.638 C 195.774 273.321,196.779 273.077,199.900 272.537 C 200.615 272.414,201.200 272.152,201.200 271.956 C 201.200 271.760,201.819 271.600,202.576 271.600 C 203.333 271.600,204.064 271.420,204.200 271.200 C 204.336 270.980,204.814 270.800,205.262 270.800 C 206.521 270.800,208.112 269.485,214.696 263.002 C 221.539 256.264,221.583 256.220,230.702 247.102 C 234.332 243.472,237.999 239.804,238.852 238.951 C 239.705 238.098,243.417 234.386,247.102 230.702 C 250.786 227.017,254.496 223.304,255.348 222.449 C 257.357 220.433,270.418 207.371,272.499 205.299 C 273.380 204.420,277.072 200.732,280.702 197.102 C 284.332 193.472,288.044 189.759,288.951 188.852 C 289.858 187.945,293.526 184.277,297.102 180.702 C 300.677 177.126,304.320 173.480,305.197 172.600 C 307.266 170.523,320.418 157.371,322.499 155.299 C 323.380 154.420,327.072 150.732,330.702 147.102 C 334.332 143.472,337.999 139.804,338.852 138.951 C 339.705 138.098,343.395 134.408,347.052 130.751 C 350.709 127.094,354.420 123.380,355.299 122.499 C 358.116 119.670,370.948 106.843,372.507 105.296 C 373.336 104.473,376.846 100.954,380.307 97.476 C 383.768 93.998,387.725 90.052,389.100 88.707 C 390.475 87.362,391.600 85.973,391.600 85.619 C 391.600 85.266,391.960 84.717,392.400 84.400 C 392.840 84.083,393.200 83.543,393.200 83.200 C 393.200 82.857,393.560 82.317,394.000 82.000 C 394.440 81.683,394.800 81.103,394.800 80.712 C 394.800 80.320,394.980 80.000,395.200 80.000 C 395.420 80.000,395.600 79.640,395.600 79.200 C 395.600 78.760,395.780 78.400,396.000 78.400 C 396.220 78.400,396.400 78.040,396.400 77.600 C 396.400 77.160,396.580 76.800,396.800 76.800 C 397.020 76.800,397.200 76.440,397.200 76.000 C 397.200 75.560,397.380 75.200,397.600 75.200 C 397.820 75.200,398.000 74.660,398.000 74.000 C 398.000 73.340,398.180 72.800,398.400 72.800 C 398.620 72.800,398.800 72.185,398.800 71.433 C 398.800 70.682,399.025 69.992,399.300 69.900 C 399.685 69.772,399.800 67.048,399.800 58.087 C 399.800 49.303,399.677 46.317,399.300 45.940 C 399.025 45.665,398.800 45.037,398.800 44.544 C 398.800 44.051,398.620 43.536,398.400 43.400 C 398.180 43.264,398.000 42.713,398.000 42.176 C 398.000 41.639,397.820 41.200,397.600 41.200 C 397.380 41.200,397.200 40.840,397.200 40.400 C 397.200 39.960,397.020 39.600,396.800 39.600 C 396.580 39.600,396.396 39.195,396.391 38.700 C 396.386 38.205,396.030 37.350,395.600 36.800 C 395.170 36.250,394.814 35.575,394.809 35.300 C 394.804 35.025,394.620 34.800,394.400 34.800 C 394.180 34.800,394.000 34.480,394.000 34.088 C 394.000 33.697,393.640 33.117,393.200 32.800 C 392.760 32.483,392.400 31.893,392.400 31.488 C 392.400 31.084,392.220 30.864,392.000 31.000 C 391.780 31.136,391.600 31.030,391.600 30.765 C 391.600 29.913,388.774 26.783,381.160 19.205 C 373.117 11.199,369.600 8.107,369.600 9.041 C 369.600 9.196,369.264 8.935,368.853 8.461 C 368.442 7.988,367.812 7.600,367.453 7.600 C 367.094 7.600,366.800 7.420,366.800 7.200 C 366.800 6.980,366.575 6.796,366.300 6.791 C 366.025 6.786,365.350 6.430,364.800 6.000 C 364.250 5.570,363.395 5.214,362.900 5.209 C 362.405 5.204,362.000 5.020,362.000 4.800 C 362.000 4.580,361.640 4.400,361.200 4.400 C 360.760 4.400,360.400 4.220,360.400 4.000 C 360.400 3.780,359.860 3.600,359.200 3.600 C 358.540 3.600,358.000 3.420,358.000 3.200 C 358.000 2.980,357.561 2.800,357.024 2.800 C 356.487 2.800,355.936 2.620,355.800 2.400 C 355.664 2.180,354.944 2.000,354.200 2.000 C 353.456 2.000,352.736 1.820,352.600 1.600 C 352.461 1.375,350.537 1.200,348.200 1.200 C 345.863 1.200,343.939 1.025,343.800 0.800 C 343.664 0.580,343.383 0.400,343.176 0.400 C 342.969 0.400,342.800 0.580,342.800 0.800 M350.824 22.439 C 353.303 23.253,356.899 25.050,358.423 26.237 C 359.695 27.228,374.372 41.905,375.363 43.177 C 380.959 50.363,381.655 61.461,377.055 70.180 C 375.787 72.584,363.228 86.000,362.246 86.000 C 361.999 86.000,351.277 75.478,338.418 62.618 L 315.038 39.235 320.019 34.183 C 331.854 22.180,340.266 18.973,350.824 22.439 M43.600 40.000 C 43.600 40.222,42.533 40.400,41.200 40.400 C 39.880 40.400,38.800 40.562,38.800 40.760 C 38.800 40.958,38.035 41.205,37.100 41.310 C 33.890 41.671,25.657 44.842,24.796 46.050 C 24.684 46.207,24.324 46.395,23.996 46.468 C 23.668 46.541,23.130 46.871,22.800 47.203 C 22.470 47.534,21.705 48.060,21.100 48.370 C 20.495 48.681,20.000 49.085,20.000 49.268 C 20.000 49.450,19.724 49.600,19.387 49.600 C 18.671 49.600,10.665 57.550,9.200 59.716 C 8.650 60.529,8.065 61.196,7.900 61.197 C 7.735 61.199,7.600 61.560,7.600 62.000 C 7.600 62.440,7.420 62.800,7.200 62.800 C 6.980 62.800,6.800 63.070,6.800 63.400 C 6.800 63.730,6.620 64.000,6.400 64.000 C 6.180 64.000,6.000 64.270,6.000 64.600 C 6.000 64.930,5.820 65.200,5.600 65.200 C 5.380 65.200,5.200 65.560,5.200 66.000 C 5.200 66.440,5.020 66.800,4.800 66.800 C 4.580 66.800,4.400 67.160,4.400 67.600 C 4.400 68.040,4.220 68.400,4.000 68.400 C 3.780 68.400,3.600 68.861,3.600 69.424 C 3.600 69.987,3.458 70.360,3.285 70.252 C 3.112 70.145,2.930 70.540,2.881 71.129 C 2.833 71.718,2.615 72.260,2.397 72.333 C 2.178 72.407,2.000 72.992,2.000 73.633 C 2.000 74.275,1.820 74.800,1.600 74.800 C 1.380 74.800,1.200 75.415,1.200 76.167 C 1.200 76.918,0.975 77.608,0.700 77.700 C -0.036 77.945,-0.036 361.655,0.700 361.900 C 0.987 361.996,1.200 362.736,1.200 363.633 C 1.200 364.495,1.380 365.200,1.600 365.200 C 1.820 365.200,2.000 365.740,2.000 366.400 C 2.000 367.060,2.180 367.600,2.400 367.600 C 2.620 367.600,2.800 368.061,2.800 368.624 C 2.800 369.204,2.973 369.540,3.200 369.400 C 3.420 369.264,3.600 369.506,3.600 369.939 C 3.600 370.915,5.160 373.978,6.100 374.847 C 6.485 375.203,6.800 375.788,6.800 376.147 C 6.800 376.506,6.980 376.800,7.200 376.800 C 7.420 376.800,7.600 377.078,7.600 377.417 C 7.600 377.756,7.783 378.251,8.007 378.517 C 9.564 380.363,10.000 380.964,10.000 381.264 C 10.000 381.729,17.988 389.600,18.460 389.600 C 18.666 389.600,19.320 390.050,19.913 390.600 C 20.507 391.150,21.269 391.600,21.608 391.600 C 21.946 391.600,22.483 391.960,22.800 392.400 C 23.117 392.840,23.697 393.200,24.088 393.200 C 24.480 393.200,24.800 393.380,24.800 393.600 C 24.800 393.820,25.070 394.000,25.400 394.000 C 25.730 394.000,26.000 394.180,26.000 394.400 C 26.000 394.620,26.360 394.800,26.800 394.800 C 27.240 394.800,27.600 394.980,27.600 395.200 C 27.600 395.420,27.960 395.600,28.400 395.600 C 28.840 395.600,29.200 395.780,29.200 396.000 C 29.200 396.220,29.639 396.400,30.176 396.400 C 30.713 396.400,31.264 396.580,31.400 396.800 C 31.536 397.020,31.997 397.200,32.424 397.200 C 32.851 397.200,33.200 397.380,33.200 397.600 C 33.200 397.820,33.920 398.000,34.800 398.000 C 35.680 398.000,36.400 398.180,36.400 398.400 C 36.400 398.620,36.994 398.800,37.720 398.800 C 38.446 398.800,39.265 399.025,39.540 399.300 C 39.938 399.698,70.543 399.800,189.887 399.800 C 309.408 399.800,339.767 399.699,339.900 399.300 C 339.996 399.013,340.736 398.800,341.633 398.800 C 342.495 398.800,343.200 398.620,343.200 398.400 C 343.200 398.180,343.740 398.000,344.400 398.000 C 345.060 398.000,345.600 397.820,345.600 397.600 C 345.600 397.380,346.140 397.200,346.800 397.200 C 347.460 397.200,348.000 397.020,348.000 396.800 C 348.000 396.580,348.360 396.400,348.800 396.400 C 349.240 396.400,349.600 396.220,349.600 396.000 C 349.600 395.780,349.960 395.600,350.400 395.600 C 350.840 395.600,351.200 395.420,351.200 395.200 C 351.200 394.980,351.434 394.800,351.720 394.800 C 352.456 394.800,354.393 393.859,354.397 393.500 C 354.399 393.335,354.760 393.200,355.200 393.200 C 355.640 393.200,356.000 393.020,356.000 392.800 C 356.000 392.580,356.281 392.400,356.624 392.400 C 356.967 392.400,357.136 392.220,357.000 392.000 C 356.864 391.780,357.033 391.600,357.376 391.600 C 357.719 391.600,358.000 391.409,358.000 391.176 C 358.000 390.943,358.180 390.864,358.400 391.000 C 358.620 391.136,358.800 391.057,358.800 390.824 C 358.800 390.591,359.035 390.400,359.322 390.400 C 359.818 390.400,362.916 387.820,365.158 385.540 C 367.967 382.683,370.000 380.347,370.000 379.976 C 370.000 379.749,370.436 379.128,370.969 378.595 C 371.502 378.062,372.054 377.260,372.196 376.813 C 372.338 376.366,372.622 376.000,372.827 376.000 C 373.032 376.000,373.200 375.640,373.200 375.200 C 373.200 374.760,373.380 374.400,373.600 374.400 C 373.820 374.400,373.963 374.265,373.918 374.100 C 373.873 373.935,374.143 373.224,374.518 372.520 C 374.893 371.816,375.200 370.961,375.200 370.620 C 375.200 370.279,375.380 370.000,375.600 370.000 C 375.820 370.000,376.000 369.651,376.000 369.224 C 376.000 368.797,376.180 368.336,376.400 368.200 C 376.620 368.064,376.800 367.513,376.800 366.976 C 376.800 366.439,376.980 366.000,377.200 366.000 C 377.420 366.000,377.600 365.381,377.600 364.624 C 377.600 363.867,377.780 363.136,378.000 363.000 C 378.220 362.864,378.400 362.144,378.400 361.400 C 378.400 360.656,378.580 359.936,378.800 359.800 C 379.020 359.664,379.200 358.404,379.200 357.000 C 379.200 355.596,379.380 354.336,379.600 354.200 C 380.153 353.858,380.153 258.942,379.600 258.600 C 379.380 258.464,379.200 258.003,379.200 257.576 C 379.200 257.149,379.020 256.800,378.800 256.800 C 378.580 256.800,378.400 256.525,378.400 256.189 C 378.400 255.383,374.998 252.000,374.187 252.000 C 373.838 252.000,373.664 251.820,373.800 251.600 C 373.936 251.380,373.687 251.200,373.247 251.200 C 372.807 251.200,372.336 251.020,372.200 250.800 C 371.878 250.279,366.522 250.279,366.200 250.800 C 366.064 251.020,365.603 251.200,365.176 251.200 C 364.749 251.200,364.400 251.380,364.400 251.600 C 364.400 251.820,364.112 252.000,363.760 252.000 C 363.022 252.000,359.600 255.480,359.600 256.230 C 359.600 256.507,359.375 256.808,359.100 256.900 C 358.704 257.032,358.577 267.314,358.489 306.133 C 358.418 337.605,358.239 355.200,357.989 355.200 C 357.775 355.200,357.600 355.740,357.600 356.400 C 357.600 357.060,357.420 357.600,357.200 357.600 C 356.980 357.600,356.800 358.129,356.800 358.776 C 356.800 359.423,356.620 360.064,356.400 360.200 C 356.180 360.336,356.000 360.714,356.000 361.040 C 356.000 361.367,355.640 362.020,355.200 362.492 C 354.760 362.964,354.400 363.587,354.400 363.875 C 354.400 364.164,354.220 364.400,354.000 364.400 C 353.780 364.400,353.600 364.688,353.600 365.040 C 353.600 365.391,353.060 366.183,352.400 366.800 C 351.740 367.417,351.200 368.101,351.200 368.320 C 351.200 368.840,348.440 371.600,347.920 371.600 C 347.701 371.600,347.044 372.108,346.460 372.730 C 345.877 373.351,344.635 374.196,343.700 374.607 C 342.765 375.018,342.000 375.499,342.000 375.677 C 342.000 375.855,341.728 376.000,341.395 376.000 C 341.062 376.000,340.477 376.158,340.095 376.351 C 339.033 376.887,336.624 377.600,335.872 377.600 C 335.502 377.600,335.200 377.780,335.200 378.000 C 335.200 378.266,286.400 378.400,189.600 378.400 C 92.800 378.400,44.000 378.266,44.000 378.000 C 44.000 377.780,43.460 377.600,42.800 377.600 C 42.140 377.600,41.600 377.420,41.600 377.200 C 41.600 376.980,41.177 376.800,40.660 376.800 C 40.142 376.800,38.873 376.350,37.838 375.800 C 36.804 375.250,35.697 374.800,35.379 374.800 C 35.060 374.800,34.800 374.620,34.800 374.400 C 34.800 374.180,34.525 374.000,34.189 374.000 C 33.854 374.000,32.764 373.185,31.768 372.189 C 30.771 371.192,29.760 370.501,29.517 370.651 C 29.265 370.807,29.189 370.742,29.339 370.499 C 29.483 370.265,28.611 369.043,27.401 367.783 C 26.190 366.523,25.200 365.350,25.200 365.176 C 25.200 365.001,24.570 363.495,23.800 361.828 C 23.030 360.161,22.400 358.437,22.400 357.998 C 22.400 357.559,22.220 357.200,22.000 357.200 C 21.780 357.200,21.600 356.390,21.600 355.400 C 21.600 354.410,21.421 353.600,21.202 353.600 C 20.649 353.600,20.645 86.543,21.199 86.201 C 21.419 86.064,21.600 85.254,21.600 84.400 C 21.600 83.546,21.780 82.736,22.000 82.600 C 22.220 82.464,22.400 81.823,22.400 81.176 C 22.400 80.529,22.580 80.000,22.800 80.000 C 23.020 80.000,23.200 79.764,23.200 79.475 C 23.200 79.186,23.650 78.017,24.200 76.877 C 24.750 75.737,25.200 74.699,25.200 74.571 C 25.200 74.442,25.875 73.676,26.700 72.869 C 27.525 72.061,28.455 70.905,28.768 70.300 C 29.080 69.695,29.553 69.200,29.819 69.200 C 30.086 69.200,31.045 68.480,31.952 67.600 C 32.859 66.720,33.856 66.000,34.167 66.000 C 34.479 66.000,34.793 65.865,34.867 65.700 C 35.034 65.324,37.164 64.025,38.100 63.729 C 38.485 63.607,38.800 63.348,38.800 63.153 C 38.800 62.959,39.430 62.800,40.200 62.800 C 40.970 62.800,41.600 62.620,41.600 62.400 C 41.600 62.180,42.014 62.000,42.520 62.000 C 43.026 62.000,43.619 61.821,43.837 61.603 C 44.095 61.345,60.867 61.203,91.736 61.197 C 122.785 61.190,139.155 61.051,138.996 60.794 C 138.850 60.557,139.482 60.400,140.576 60.400 C 141.579 60.400,142.400 60.220,142.400 60.000 C 142.400 59.780,142.678 59.600,143.017 59.600 C 143.356 59.600,144.020 59.240,144.492 58.800 C 144.964 58.360,145.587 58.000,145.875 58.000 C 146.164 58.000,146.400 57.730,146.400 57.400 C 146.400 57.070,146.547 56.800,146.726 56.800 C 146.905 56.800,147.445 56.063,147.926 55.162 C 148.871 53.392,149.249 46.400,148.400 46.400 C 148.180 46.400,148.000 46.040,148.000 45.600 C 148.000 45.160,147.820 44.800,147.600 44.800 C 147.380 44.800,147.200 44.622,147.200 44.405 C 147.200 43.716,145.847 42.376,144.500 41.731 C 143.785 41.389,143.200 40.949,143.200 40.754 C 143.200 40.559,142.761 40.400,142.224 40.400 C 141.687 40.400,141.136 40.220,141.000 40.000 C 140.658 39.446,43.600 39.446,43.600 40.000 M324.699 76.499 C 337.514 89.313,348.000 100.067,348.000 100.396 C 348.000 101.182,203.586 245.600,202.800 245.600 C 202.469 245.600,191.668 235.070,178.800 222.200 L 155.402 198.799 228.200 126.000 C 268.240 85.960,301.089 53.200,301.198 53.200 C 301.308 53.200,311.883 63.684,324.699 76.499 M183.427 255.106 C 183.277 255.257,170.568 258.836,160.400 261.591 C 156.990 262.516,153.750 263.415,153.200 263.589 C 152.650 263.764,151.480 264.106,150.600 264.348 C 149.720 264.591,147.020 265.334,144.600 266.000 C 142.180 266.666,139.480 267.409,138.600 267.652 C 137.720 267.894,136.550 268.241,136.000 268.421 C 135.450 268.602,134.391 268.871,133.647 269.018 L 132.295 269.287 132.572 267.743 C 132.724 266.895,133.043 265.570,133.280 264.800 C 134.179 261.884,134.231 261.702,136.000 255.200 C 137.499 249.693,137.691 249.006,138.014 248.000 C 138.191 247.450,139.359 243.220,140.610 238.600 C 142.940 229.991,145.877 219.455,146.236 218.420 C 146.368 218.038,152.795 224.197,165.002 236.402 C 175.214 246.612,183.505 255.028,183.427 255.106 " stroke="none" fill="#0b3c64" fill-rule="evenodd"></path><path id="path2" d="M146.236 218.420 C 145.877 219.455,142.940 229.991,140.610 238.600 C 139.359 243.220,138.191 247.450,138.014 248.000 C 137.691 249.006,137.499 249.693,136.000 255.200 C 134.231 261.702,134.179 261.884,133.280 264.800 C 133.043 265.570,132.724 266.895,132.572 267.743 L 132.295 269.287 133.647 269.018 C 134.391 268.871,135.450 268.602,136.000 268.421 C 136.550 268.241,137.720 267.894,138.600 267.652 C 139.480 267.409,142.180 266.666,144.600 266.000 C 147.020 265.334,149.720 264.591,150.600 264.348 C 151.480 264.106,152.650 263.764,153.200 263.589 C 153.750 263.415,156.990 262.516,160.400 261.591 C 170.568 258.836,183.277 255.257,183.427 255.106 C 183.505 255.028,175.214 246.612,165.002 236.402 C 152.795 224.197,146.368 218.038,146.236 218.420 " stroke="none" fill="#fada44" fill-rule="evenodd"></path><path id="path3" d="M338.021 22.379 C 337.646 22.616,338.070 22.665,339.221 22.518 C 340.199 22.392,341.075 22.225,341.167 22.145 C 341.542 21.819,338.555 22.040,338.021 22.379 M345.633 22.144 C 345.725 22.223,346.700 22.401,347.800 22.541 C 349.165 22.714,349.610 22.670,349.200 22.403 C 348.659 22.050,345.236 21.801,345.633 22.144 M329.185 26.418 L 327.800 27.635 329.295 26.718 C 330.117 26.213,330.792 25.665,330.795 25.500 C 330.803 25.037,330.669 25.113,329.185 26.418 M358.400 26.891 C 358.400 27.186,374.548 43.185,374.696 43.037 C 374.882 42.851,361.216 28.956,359.582 27.670 C 358.932 27.158,358.400 26.807,358.400 26.891 M321.476 33.523 L 315.591 39.419 317.796 41.596 C 319.008 42.793,320.000 43.632,320.000 43.460 C 320.000 43.289,319.114 42.285,318.031 41.231 L 316.063 39.313 321.869 33.628 C 325.063 30.501,327.605 27.872,327.519 27.785 C 327.432 27.699,324.713 30.281,321.476 33.523 M329.386 53.186 C 333.113 56.918,336.231 59.902,336.316 59.817 C 336.514 59.619,323.303 46.400,322.907 46.400 C 322.743 46.400,325.658 49.453,329.386 53.186 M378.034 50.000 C 378.046 50.330,378.211 50.960,378.400 51.400 L 378.744 52.200 378.766 51.400 C 378.778 50.960,378.613 50.330,378.400 50.000 C 378.055 49.467,378.015 49.467,378.034 50.000 M379.000 58.000 C 379.000 61.038,379.132 63.316,379.294 63.062 C 379.456 62.808,379.588 60.530,379.588 58.000 C 379.588 55.470,379.456 53.192,379.294 52.938 C 379.132 52.684,379.000 54.962,379.000 58.000 M228.400 126.200 L 155.801 198.800 179.200 222.100 L 202.599 245.400 179.400 222.100 L 156.202 198.799 228.800 126.200 C 268.730 86.270,301.309 53.600,301.199 53.600 C 301.089 53.600,268.330 86.270,228.400 126.200 M324.400 77.000 C 337.049 89.650,347.487 100.000,347.597 100.000 C 347.707 100.000,337.449 89.650,324.800 77.000 C 312.151 64.350,301.713 54.000,301.603 54.000 C 301.493 54.000,311.751 64.350,324.400 77.000 M337.600 60.967 C 337.600 61.388,338.805 62.528,339.021 62.312 C 339.122 62.211,338.844 61.802,338.402 61.402 C 337.961 61.003,337.600 60.807,337.600 60.967 M346.586 70.386 C 350.313 74.118,353.431 77.102,353.516 77.017 C 353.714 76.819,340.503 63.600,340.107 63.600 C 339.943 63.600,342.858 66.653,346.586 70.386 M378.446 64.467 C 378.421 64.834,378.296 65.464,378.170 65.867 C 377.952 66.562,377.963 66.563,378.397 65.887 C 378.648 65.496,378.773 64.866,378.673 64.487 C 378.511 63.868,378.488 63.866,378.446 64.467 M375.583 71.100 C 375.256 71.485,374.572 72.430,374.063 73.200 L 373.137 74.600 374.396 73.200 C 375.571 71.894,376.589 70.400,376.303 70.400 C 376.234 70.400,375.910 70.715,375.583 71.100 M367.600 79.861 C 364.850 82.608,362.474 84.938,362.319 85.039 C 362.165 85.141,360.863 84.048,359.427 82.612 C 357.990 81.175,356.681 80.000,356.518 80.000 C 356.355 80.000,357.472 81.260,359.000 82.800 C 362.479 86.306,361.675 86.538,368.000 80.200 C 370.964 77.230,373.211 74.815,372.994 74.833 C 372.777 74.852,370.350 77.114,367.600 79.861 M354.000 77.367 C 354.000 77.788,355.205 78.928,355.421 78.712 C 355.522 78.611,355.244 78.202,354.802 77.802 C 354.361 77.403,354.000 77.207,354.000 77.367 M281.800 166.100 L 216.200 231.800 281.900 166.200 C 318.035 130.121,347.600 100.556,347.600 100.500 C 347.600 100.221,342.789 105.017,281.800 166.100 M212.786 235.100 L 210.600 237.400 212.900 235.214 C 215.037 233.182,215.383 232.800,215.086 232.800 C 215.024 232.800,213.989 233.835,212.786 235.100 M207.385 240.500 L 205.400 242.600 207.500 240.615 C 208.655 239.523,209.600 238.578,209.600 238.515 C 209.600 238.217,209.229 238.549,207.385 240.500 " stroke="none" fill="#04a4a4" fill-rule="evenodd"></path><path id="path4" d="M340.000 21.585 C 333.092 22.526,328.918 25.158,320.019 34.183 L 315.038 39.235 338.418 62.618 C 351.277 75.478,361.999 86.000,362.246 86.000 C 363.228 86.000,375.787 72.584,377.055 70.180 C 381.655 61.461,380.959 50.363,375.363 43.177 C 374.372 41.905,359.695 27.228,358.423 26.237 C 353.845 22.672,346.197 20.741,340.000 21.585 M349.572 22.455 C 355.873 24.465,358.374 26.269,367.200 35.172 C 374.842 42.882,377.202 46.017,378.360 50.000 C 378.648 50.990,379.045 52.213,379.242 52.719 C 379.439 53.224,379.600 55.601,379.600 58.000 C 379.600 60.399,379.439 62.776,379.242 63.281 C 379.045 63.787,378.648 65.010,378.360 66.000 C 377.734 68.154,376.330 70.813,374.665 73.000 C 372.947 75.258,362.724 85.601,362.218 85.593 C 361.988 85.590,351.401 75.180,338.692 62.460 L 315.583 39.333 322.298 32.747 C 329.049 26.124,333.813 22.816,336.630 22.794 C 337.054 22.791,337.670 22.613,338.000 22.400 C 338.837 21.859,347.836 21.902,349.572 22.455 M228.200 126.000 L 155.402 198.799 178.800 222.200 C 191.668 235.070,202.469 245.600,202.800 245.600 C 203.586 245.600,348.000 101.182,348.000 100.396 C 348.000 99.873,301.717 53.200,301.198 53.200 C 301.089 53.200,268.240 85.960,228.200 126.000 M324.492 76.695 C 337.201 89.398,347.600 99.973,347.600 100.195 C 347.600 100.722,203.126 245.200,202.599 245.200 C 202.378 245.200,191.758 234.760,179.000 222.000 L 155.802 198.799 228.400 126.200 C 268.330 86.270,301.086 53.600,301.192 53.600 C 301.297 53.600,311.782 63.993,324.492 76.695 " stroke="none" fill="#048c9b" fill-rule="evenodd"></path></g></svg>