<svg id="svg" version="1.1" xmlns="http://www.w3.org/2000/svg" xmlns:xlink="http://www.w3.org/1999/xlink" width="400" height="400" viewBox="0, 0, 400,400"><g id="svgg"><path id="path0" d="M187.200 50.190 L 187.200 78.780 185.938 78.528 C 185.140 78.368,184.766 78.422,184.923 78.675 C 185.136 79.020,183.786 79.205,180.400 79.293 C 180.070 79.302,179.560 79.499,179.267 79.731 C 178.974 79.963,178.012 80.110,177.130 80.058 C 176.248 80.006,175.318 80.129,175.063 80.331 C 174.567 80.726,172.841 81.120,170.101 81.466 C 169.167 81.584,168.503 81.842,168.625 82.040 C 168.747 82.238,168.297 82.423,167.624 82.450 C 166.057 82.514,165.965 82.536,164.953 83.100 C 164.487 83.360,164.009 83.476,163.892 83.358 C 163.774 83.241,163.345 83.323,162.939 83.542 C 161.391 84.375,158.878 85.146,158.581 84.879 C 158.411 84.725,158.401 84.825,158.559 85.100 C 158.767 85.460,158.449 85.600,157.424 85.600 C 156.467 85.600,156.000 85.785,156.000 86.163 C 156.000 86.528,155.720 86.652,155.200 86.516 C 154.753 86.399,154.400 86.504,154.400 86.753 C 154.400 86.999,153.961 87.200,153.424 87.200 C 152.887 87.200,152.336 87.380,152.200 87.600 C 152.064 87.820,151.593 88.000,151.153 88.000 C 150.713 88.000,150.464 88.180,150.600 88.400 C 150.740 88.627,150.404 88.800,149.824 88.800 C 149.261 88.800,148.800 88.980,148.800 89.200 C 148.800 89.420,148.440 89.600,148.000 89.600 C 147.560 89.600,147.200 89.780,147.200 90.000 C 147.200 90.220,147.002 90.400,146.761 90.400 C 146.015 90.400,139.600 93.662,139.600 94.042 C 139.600 94.239,139.465 94.364,139.300 94.321 C 138.680 94.157,137.198 94.872,137.418 95.229 C 137.618 95.553,136.776 95.786,135.900 95.647 C 135.735 95.621,135.645 95.825,135.700 96.100 C 135.755 96.375,135.537 96.542,135.215 96.472 C 134.894 96.401,134.399 96.661,134.115 97.048 C 133.832 97.436,133.597 97.584,133.594 97.376 C 133.591 97.169,133.417 97.270,133.208 97.600 C 133.000 97.930,132.650 98.200,132.432 98.200 C 132.213 98.200,131.797 98.525,131.506 98.922 C 131.216 99.320,130.654 99.692,130.257 99.750 C 129.860 99.809,129.373 100.114,129.174 100.428 C 128.975 100.743,128.809 100.858,128.806 100.684 C 128.803 100.511,128.549 100.601,128.242 100.884 C 127.935 101.168,127.766 101.535,127.866 101.700 C 128.033 101.976,127.415 102.160,126.700 102.047 C 126.535 102.021,126.445 102.135,126.500 102.300 C 126.555 102.465,126.420 102.680,126.200 102.778 C 125.980 102.875,125.451 103.280,125.025 103.678 C 124.598 104.075,124.110 104.400,123.940 104.400 C 123.770 104.400,122.949 105.075,122.115 105.900 C 121.282 106.725,120.111 107.652,119.514 107.960 C 118.916 108.268,118.522 108.673,118.637 108.860 C 118.753 109.047,118.556 109.200,118.200 109.200 C 117.844 109.200,117.656 109.367,117.782 109.571 C 117.908 109.775,117.649 110.058,117.205 110.198 C 116.762 110.339,116.213 110.802,115.986 111.227 C 115.758 111.652,115.385 112.000,115.157 112.000 C 114.585 112.000,113.600 113.037,113.600 113.638 C 113.600 113.910,113.489 114.022,113.352 113.886 C 113.042 113.576,112.000 114.585,112.000 115.195 C 112.000 115.444,111.840 115.549,111.645 115.428 C 111.450 115.307,111.315 115.517,111.345 115.895 C 111.375 116.272,111.220 116.588,111.000 116.596 C 110.229 116.627,109.590 117.260,109.858 117.728 C 110.006 117.987,109.983 118.068,109.805 117.907 C 109.452 117.588,108.306 118.765,107.279 120.500 C 106.920 121.105,106.486 121.600,106.314 121.600 C 106.141 121.600,106.000 121.870,106.000 122.200 C 106.000 122.530,105.820 122.800,105.600 122.800 C 105.380 122.800,105.200 123.070,105.200 123.400 C 105.200 123.733,104.844 124.000,104.400 124.000 C 103.934 124.000,103.600 124.267,103.600 124.640 C 103.600 124.991,103.060 125.783,102.400 126.400 C 101.740 127.017,101.200 127.819,101.200 128.184 C 101.200 128.549,101.039 128.748,100.842 128.626 C 100.645 128.504,100.377 128.683,100.246 129.023 C 100.086 129.440,100.170 129.547,100.505 129.352 C 100.777 129.192,100.505 129.567,99.900 130.185 C 99.295 130.803,98.800 131.475,98.800 131.678 C 98.800 131.881,98.592 131.919,98.338 131.762 C 98.062 131.591,97.985 131.651,98.146 131.912 C 98.294 132.152,97.962 132.802,97.408 133.356 C 96.853 133.910,96.400 134.642,96.400 134.982 C 96.400 135.322,96.232 135.600,96.026 135.600 C 95.820 135.600,95.424 136.230,95.146 137.000 C 94.867 137.770,94.495 138.400,94.320 138.400 C 94.144 138.400,94.000 138.670,94.000 139.000 C 94.000 139.330,93.801 139.600,93.557 139.600 C 93.314 139.600,93.212 139.855,93.332 140.167 C 93.452 140.479,93.272 140.840,92.933 140.970 C 92.576 141.107,92.417 141.466,92.554 141.824 C 92.689 142.177,92.622 142.337,92.395 142.197 C 92.178 142.063,92.000 142.308,92.000 142.743 C 92.000 143.178,91.812 143.596,91.582 143.673 C 91.352 143.749,91.134 144.214,91.097 144.706 C 91.060 145.198,90.888 145.600,90.715 145.600 C 90.542 145.600,90.396 145.915,90.391 146.300 C 90.386 146.685,90.030 147.450,89.600 148.000 C 89.170 148.550,88.814 149.189,88.809 149.420 C 88.795 150.092,87.829 151.993,87.500 151.997 C 87.335 151.999,87.200 152.439,87.200 152.976 C 87.200 153.513,87.020 154.064,86.800 154.200 C 86.580 154.336,86.400 154.797,86.400 155.224 C 86.400 155.651,86.259 156.000,86.087 156.000 C 85.915 156.000,85.734 156.487,85.685 157.082 C 85.636 157.678,85.416 158.344,85.198 158.562 C 84.979 158.781,84.800 159.284,84.800 159.680 C 84.800 160.076,84.620 160.400,84.400 160.400 C 84.180 160.400,84.000 161.041,84.000 161.824 C 84.000 162.800,83.855 163.157,83.537 162.961 C 83.219 162.765,83.145 162.948,83.301 163.544 C 83.426 164.023,83.320 164.636,83.064 164.907 C 82.809 165.178,82.538 165.940,82.462 166.600 C 82.386 167.260,82.161 167.860,81.962 167.933 C 81.763 168.007,81.600 168.671,81.600 169.410 C 81.600 170.148,81.459 170.840,81.287 170.946 C 81.115 171.052,80.931 171.648,80.878 172.270 C 80.723 174.074,80.576 174.758,80.278 175.055 C 80.125 175.208,80.000 176.013,80.000 176.843 C 80.000 177.673,79.849 178.446,79.664 178.560 C 79.479 178.675,79.295 179.707,79.254 180.855 C 79.214 182.003,78.960 183.214,78.690 183.548 C 78.285 184.048,78.305 184.092,78.800 183.800 C 79.276 183.520,79.311 183.566,78.970 184.023 C 78.733 184.340,78.553 185.365,78.570 186.300 L 78.600 188.000 50.500 188.000 L 22.400 188.000 22.400 200.000 L 22.400 212.000 50.500 212.001 L 78.600 212.001 78.592 214.101 C 78.587 215.255,78.711 216.294,78.868 216.409 C 79.024 216.524,79.195 217.559,79.248 218.709 C 79.300 219.859,79.491 220.800,79.671 220.800 C 79.852 220.800,80.000 220.991,80.000 221.224 C 80.000 221.457,79.775 221.520,79.500 221.365 C 79.100 221.139,79.100 221.190,79.500 221.621 C 79.775 221.918,80.000 222.565,80.000 223.060 C 80.000 223.556,80.266 224.983,80.592 226.232 C 80.917 227.481,81.086 228.660,80.968 228.852 C 80.850 229.043,80.943 229.200,81.176 229.200 C 81.409 229.200,81.600 229.614,81.600 230.120 C 81.600 230.626,81.825 231.282,82.100 231.579 C 82.506 232.016,82.488 232.058,82.000 231.800 C 81.512 231.542,81.494 231.584,81.900 232.021 C 82.175 232.318,82.400 233.075,82.400 233.704 C 82.400 234.364,82.569 234.743,82.800 234.600 C 83.038 234.453,83.200 234.921,83.200 235.753 C 83.200 236.523,83.380 237.264,83.600 237.400 C 83.820 237.536,84.000 238.076,84.000 238.600 C 84.000 239.124,84.180 239.664,84.400 239.800 C 84.620 239.936,84.800 240.397,84.800 240.824 C 84.800 241.251,84.980 241.600,85.200 241.600 C 85.420 241.600,85.600 242.140,85.600 242.800 C 85.600 243.460,85.780 244.000,86.000 244.000 C 86.220 244.000,86.400 244.439,86.400 244.976 C 86.400 245.513,86.580 246.064,86.800 246.200 C 87.020 246.336,87.200 246.827,87.200 247.290 C 87.200 247.754,87.323 248.010,87.474 247.859 C 87.746 247.588,89.661 251.737,89.709 252.700 C 89.722 252.975,89.883 253.200,90.067 253.200 C 90.250 253.200,90.400 253.560,90.400 254.000 C 90.400 254.440,90.580 254.800,90.800 254.800 C 91.020 254.800,91.203 255.205,91.206 255.700 C 91.211 256.428,91.286 256.485,91.600 256.000 C 91.893 255.546,91.989 255.722,91.994 256.724 C 91.997 257.493,92.166 257.945,92.395 257.803 C 92.614 257.667,92.693 257.812,92.572 258.128 C 92.452 258.441,92.646 258.809,93.002 258.946 C 93.359 259.082,93.526 259.396,93.374 259.642 C 93.222 259.888,93.346 260.243,93.649 260.430 C 93.952 260.618,94.206 260.912,94.214 261.085 C 94.236 261.560,95.255 263.312,95.863 263.920 C 96.158 264.216,96.400 264.712,96.400 265.024 C 96.400 265.750,97.646 267.219,98.050 266.969 C 98.220 266.864,98.287 267.148,98.200 267.600 C 98.113 268.052,98.193 268.328,98.377 268.214 C 98.561 268.100,98.999 268.611,99.349 269.348 C 99.699 270.086,100.259 270.917,100.593 271.194 C 100.927 271.471,101.200 271.862,101.200 272.062 C 101.200 272.263,101.740 272.955,102.400 273.600 C 103.060 274.245,103.600 275.049,103.600 275.387 C 103.600 275.724,103.900 276.000,104.267 276.000 C 104.633 276.000,104.839 276.095,104.723 276.210 C 104.607 276.326,105.207 277.158,106.056 278.060 C 106.905 278.961,107.603 279.992,107.606 280.349 C 107.611 280.916,107.663 280.922,108.000 280.400 C 108.312 279.917,108.389 279.981,108.394 280.724 C 108.397 281.236,108.578 281.537,108.800 281.400 C 109.020 281.264,109.200 281.365,109.200 281.624 C 109.200 282.259,111.463 284.804,111.762 284.504 C 111.893 284.374,112.000 284.577,112.000 284.957 C 112.000 285.337,112.180 285.536,112.400 285.400 C 112.620 285.264,112.800 285.433,112.800 285.776 C 112.800 286.119,113.010 286.355,113.267 286.300 C 113.524 286.245,113.952 286.616,114.217 287.125 C 114.482 287.634,114.812 288.039,114.949 288.025 C 115.087 288.011,115.232 288.135,115.271 288.300 C 115.367 288.703,116.280 289.600,116.595 289.600 C 116.734 289.600,116.719 289.392,116.562 289.138 C 116.384 288.850,116.452 288.785,116.745 288.966 C 117.002 289.125,117.114 289.415,116.993 289.611 C 116.873 289.806,117.320 290.248,117.987 290.593 C 118.654 290.938,119.200 291.456,119.200 291.743 C 119.200 292.030,119.695 292.520,120.300 292.832 C 120.905 293.144,121.490 293.498,121.600 293.619 C 121.710 293.740,122.387 294.249,123.105 294.750 C 123.829 295.256,124.289 295.856,124.139 296.099 C 123.972 296.369,124.098 296.448,124.468 296.306 C 124.825 296.169,125.359 296.465,125.790 297.038 C 126.187 297.567,126.767 298.000,127.080 298.000 C 127.392 298.000,127.536 298.180,127.400 298.400 C 127.264 298.620,127.418 298.800,127.743 298.800 C 128.068 298.800,128.393 298.966,128.467 299.170 C 128.540 299.373,128.868 299.598,129.196 299.670 C 129.524 299.741,130.271 300.295,130.857 300.900 C 131.442 301.505,132.164 302.006,132.460 302.013 C 133.138 302.029,134.459 303.008,134.180 303.287 C 133.965 303.501,136.344 304.156,136.930 304.044 C 137.111 304.009,137.145 304.165,137.006 304.390 C 136.867 304.616,137.014 304.800,137.334 304.800 C 137.653 304.800,138.022 305.081,138.154 305.425 C 138.286 305.769,138.577 305.938,138.800 305.800 C 139.023 305.662,139.318 305.841,139.454 306.198 C 139.591 306.554,139.957 306.749,140.267 306.630 C 140.577 306.511,140.938 306.695,141.070 307.039 C 141.214 307.412,141.611 307.586,142.055 307.470 C 142.465 307.363,142.800 307.438,142.800 307.637 C 142.800 307.837,143.205 308.003,143.700 308.006 C 144.428 308.011,144.485 308.086,144.000 308.400 C 143.541 308.696,143.692 308.789,144.638 308.794 C 145.362 308.797,146.177 309.132,146.600 309.600 C 146.998 310.040,147.530 310.400,147.782 310.400 C 148.470 310.400,150.393 311.356,150.397 311.700 C 150.399 311.865,150.861 312.000,151.424 312.000 C 152.004 312.000,152.340 312.173,152.200 312.400 C 152.056 312.633,152.463 312.800,153.176 312.800 C 153.849 312.800,154.400 312.980,154.400 313.200 C 154.400 313.420,154.760 313.600,155.200 313.600 C 155.640 313.600,156.000 313.802,156.000 314.049 C 156.000 314.342,156.236 314.307,156.677 313.949 C 157.137 313.576,157.257 313.560,157.053 313.900 C 156.852 314.235,157.024 314.400,157.576 314.400 C 158.029 314.400,158.400 314.610,158.400 314.867 C 158.400 315.123,158.513 315.220,158.651 315.083 C 158.789 314.945,159.531 315.095,160.300 315.416 C 161.069 315.737,162.126 316.000,162.649 316.000 C 163.172 316.000,163.600 316.180,163.600 316.400 C 163.600 316.620,163.960 316.800,164.400 316.800 C 164.840 316.800,165.200 316.980,165.200 317.200 C 165.200 317.420,165.920 317.600,166.800 317.600 C 167.680 317.600,168.400 317.742,168.400 317.915 C 168.400 318.088,168.960 318.273,169.645 318.325 C 170.329 318.377,171.217 318.595,171.618 318.810 C 172.019 319.024,172.899 319.200,173.574 319.200 C 174.248 319.200,174.800 319.335,174.800 319.500 C 174.800 319.665,175.655 319.855,176.700 319.922 C 177.745 319.989,178.771 320.214,178.980 320.422 C 179.189 320.630,180.374 320.800,181.613 320.800 C 182.853 320.800,184.002 320.935,184.167 321.100 C 184.332 321.265,184.812 321.423,185.233 321.450 C 185.655 321.478,186.270 321.523,186.600 321.550 C 187.127 321.594,187.200 325.044,187.200 350.000 L 187.200 378.400 199.591 378.400 L 211.982 378.400 211.920 323.372 L 211.857 268.345 209.828 268.646 C 206.888 269.082,193.677 268.922,190.887 268.416 C 186.895 267.692,187.200 266.530,187.200 282.443 C 187.200 294.583,187.122 296.400,186.600 296.400 C 186.270 296.400,185.999 296.265,185.998 296.100 C 185.997 295.935,185.058 295.747,183.910 295.681 C 182.763 295.616,181.729 295.427,181.612 295.262 C 181.495 295.097,180.795 294.921,180.055 294.871 C 179.316 294.821,178.367 294.597,177.947 294.372 C 177.527 294.147,177.012 294.069,176.803 294.198 C 176.594 294.327,175.857 294.140,175.165 293.782 C 174.473 293.424,173.576 293.218,173.172 293.323 C 172.769 293.429,172.376 293.327,172.299 293.097 C 172.222 292.866,171.805 292.652,171.373 292.620 C 170.940 292.588,170.336 292.408,170.031 292.219 C 169.624 291.967,169.562 292.026,169.797 292.438 C 170.056 292.893,170.014 292.904,169.579 292.500 C 169.282 292.225,168.615 292.000,168.096 292.000 C 167.569 292.000,167.262 291.823,167.400 291.600 C 167.540 291.374,167.212 291.200,166.647 291.200 C 166.097 291.200,165.536 291.020,165.400 290.800 C 165.264 290.580,164.578 290.397,163.876 290.394 C 162.905 290.389,162.743 290.295,163.200 290.000 C 163.688 289.685,163.636 289.611,162.924 289.606 C 162.442 289.603,161.936 289.420,161.800 289.200 C 161.664 288.980,161.113 288.800,160.576 288.800 C 160.039 288.800,159.600 288.620,159.600 288.400 C 159.600 288.180,159.306 288.000,158.947 288.000 C 158.244 288.000,155.486 286.439,155.267 285.917 C 155.193 285.743,154.788 285.600,154.367 285.600 C 153.945 285.600,153.600 285.420,153.600 285.200 C 153.600 284.980,153.403 284.800,153.162 284.800 C 152.921 284.800,152.202 284.429,151.564 283.975 C 150.927 283.521,150.224 283.261,150.003 283.398 C 149.781 283.535,149.600 283.367,149.600 283.024 C 149.600 282.681,149.465 282.431,149.300 282.470 C 148.733 282.602,146.825 281.483,147.036 281.142 C 147.152 280.954,146.877 280.800,146.424 280.800 C 145.971 280.800,145.600 280.620,145.600 280.400 C 145.600 280.180,145.438 280.045,145.240 280.100 C 145.042 280.155,144.907 280.050,144.940 279.866 C 144.973 279.682,144.415 279.286,143.700 278.985 C 142.985 278.685,142.400 278.250,142.400 278.019 C 142.400 277.789,142.130 277.600,141.800 277.600 C 141.470 277.600,141.200 277.390,141.200 277.133 C 141.200 276.877,141.081 276.786,140.936 276.931 C 140.791 277.076,140.420 276.836,140.113 276.397 C 139.806 275.959,139.284 275.600,138.954 275.600 C 138.623 275.600,138.464 275.420,138.600 275.200 C 138.817 274.850,138.659 274.773,137.792 274.808 C 137.353 274.826,126.000 263.290,126.000 262.826 C 126.000 262.557,125.299 261.643,124.441 260.794 C 123.584 259.945,122.984 259.149,123.108 259.025 C 123.232 258.901,123.123 258.800,122.867 258.800 C 122.610 258.800,122.400 258.570,122.400 258.288 C 122.400 258.007,122.040 257.517,121.600 257.200 C 121.160 256.883,120.800 256.343,120.800 256.000 C 120.800 255.657,120.440 255.117,120.000 254.800 C 119.560 254.483,119.200 253.974,119.200 253.669 C 119.200 253.364,118.739 252.753,118.176 252.309 C 117.591 251.849,117.246 251.258,117.371 250.931 C 117.493 250.613,117.415 250.467,117.195 250.603 C 116.978 250.737,116.800 250.511,116.800 250.099 C 116.800 249.688,116.440 248.964,116.000 248.492 C 115.560 248.020,115.200 247.468,115.200 247.266 C 115.200 247.063,114.932 246.676,114.604 246.404 C 114.277 246.132,114.108 245.748,114.230 245.552 C 114.522 245.080,113.386 243.957,112.983 244.319 C 112.812 244.474,112.806 244.367,112.970 244.082 C 113.135 243.798,112.983 243.129,112.634 242.596 C 112.286 242.064,112.000 241.352,112.000 241.014 C 112.000 240.676,111.820 240.400,111.600 240.400 C 111.380 240.400,111.200 240.051,111.200 239.624 C 111.200 239.197,111.020 238.736,110.800 238.600 C 110.580 238.464,110.400 237.913,110.400 237.376 C 110.400 236.839,110.265 236.399,110.100 236.397 C 109.689 236.393,108.800 234.409,108.800 233.497 C 108.800 233.088,108.620 232.864,108.400 233.000 C 108.162 233.147,108.000 232.671,108.000 231.824 C 108.000 231.041,107.808 230.400,107.573 230.400 C 107.338 230.400,107.246 230.085,107.368 229.700 C 107.490 229.315,107.323 228.486,106.997 227.858 C 106.671 227.230,106.516 226.535,106.653 226.314 C 106.790 226.092,106.672 225.768,106.389 225.593 C 106.107 225.419,105.893 224.678,105.914 223.947 C 105.935 223.216,105.778 222.510,105.566 222.379 C 105.354 222.248,105.156 221.479,105.126 220.671 C 105.095 219.862,104.952 219.200,104.807 219.200 C 104.662 219.200,104.501 218.271,104.449 217.135 C 104.397 216.000,104.115 214.728,103.821 214.309 C 102.239 212.051,102.419 212.020,117.745 211.905 C 131.539 211.802,131.798 211.785,131.693 211.000 C 131.124 206.757,130.899 199.204,131.213 194.900 C 131.418 192.095,131.634 189.440,131.693 189.000 C 131.798 188.215,131.539 188.198,117.741 188.095 C 102.584 187.982,102.693 187.999,103.775 185.914 C 104.056 185.372,104.391 184.045,104.519 182.964 C 104.647 181.884,104.839 180.640,104.945 180.200 C 105.052 179.760,105.153 178.894,105.169 178.276 C 105.186 177.658,105.344 177.242,105.520 177.351 C 105.696 177.459,105.884 176.890,105.938 176.086 C 105.993 175.282,106.183 174.529,106.361 174.412 C 106.697 174.192,107.393 171.374,107.327 170.500 C 107.306 170.225,107.449 170.000,107.644 170.000 C 107.840 170.000,108.000 169.269,108.000 168.376 C 108.000 167.396,108.158 166.851,108.400 167.000 C 108.627 167.140,108.800 166.804,108.800 166.224 C 108.800 165.661,108.980 165.200,109.200 165.200 C 109.420 165.200,109.600 164.840,109.600 164.400 C 109.600 163.960,109.780 163.600,110.000 163.600 C 110.220 163.600,110.400 163.060,110.400 162.400 C 110.400 161.740,110.580 161.200,110.800 161.200 C 111.020 161.200,111.200 160.875,111.200 160.478 C 111.200 160.081,111.740 158.905,112.400 157.864 C 113.060 156.824,113.600 155.798,113.600 155.586 C 113.600 155.374,113.780 155.200,114.000 155.200 C 114.220 155.200,114.400 154.739,114.400 154.176 C 114.400 153.596,114.573 153.260,114.800 153.400 C 115.020 153.536,115.200 153.359,115.200 153.007 C 115.200 152.655,115.560 151.980,116.000 151.508 C 116.440 151.036,116.800 150.312,116.800 149.901 C 116.800 149.489,116.978 149.263,117.195 149.397 C 117.415 149.533,117.493 149.387,117.371 149.069 C 117.250 148.752,117.564 148.158,118.076 147.738 C 118.584 147.322,119.058 146.715,119.130 146.390 C 119.201 146.066,119.426 145.740,119.630 145.667 C 119.833 145.593,120.000 145.268,120.000 144.943 C 120.000 144.618,120.147 144.444,120.327 144.555 C 120.507 144.666,120.880 144.134,121.155 143.372 C 121.431 142.611,121.805 142.079,121.986 142.191 C 122.307 142.390,122.867 141.415,122.689 140.968 C 122.640 140.844,122.919 140.565,123.308 140.347 C 123.698 140.129,123.912 139.782,123.785 139.575 C 123.657 139.369,123.716 139.200,123.915 139.200 C 124.344 139.200,126.000 137.816,126.000 137.458 C 126.000 137.047,127.262 135.584,129.875 132.965 C 131.237 131.600,132.242 130.375,132.109 130.242 C 131.976 130.109,132.076 130.000,132.333 130.000 C 132.589 130.000,133.541 129.280,134.448 128.400 C 135.355 127.520,136.265 126.800,136.472 126.800 C 136.678 126.800,136.736 126.620,136.600 126.400 C 136.383 126.050,136.541 125.973,137.408 126.008 C 137.822 126.025,138.711 124.992,138.534 124.700 C 138.435 124.535,138.633 124.400,138.976 124.400 C 139.319 124.400,139.600 124.220,139.600 124.000 C 139.600 123.780,139.876 123.600,140.213 123.600 C 140.549 123.600,140.929 123.330,141.055 123.000 C 141.182 122.670,141.536 122.400,141.843 122.400 C 142.149 122.400,142.400 122.232,142.400 122.027 C 142.400 121.822,142.744 121.545,143.163 121.412 C 143.583 121.278,144.528 120.632,145.263 119.975 C 145.999 119.318,147.455 118.307,148.500 117.727 C 149.545 117.147,150.400 116.521,150.400 116.336 C 150.400 116.151,150.850 116.000,151.400 116.000 C 151.950 116.000,152.400 115.832,152.400 115.626 C 152.400 115.420,153.020 115.027,153.779 114.753 C 154.537 114.479,155.066 114.107,154.955 113.927 C 154.844 113.747,155.213 113.600,155.776 113.600 C 156.339 113.600,156.800 113.420,156.800 113.200 C 156.800 112.980,157.081 112.800,157.424 112.800 C 157.767 112.800,157.936 112.620,157.800 112.400 C 157.664 112.180,157.833 111.978,158.176 111.950 C 159.324 111.858,159.532 111.802,159.833 111.500 C 159.998 111.335,160.564 111.200,161.090 111.200 C 161.626 111.200,161.938 111.024,161.800 110.800 C 161.660 110.573,161.996 110.400,162.576 110.400 C 163.139 110.400,163.600 110.220,163.600 110.000 C 163.600 109.780,163.929 109.600,164.332 109.600 C 164.735 109.600,165.950 109.150,167.032 108.599 C 168.114 108.049,169.219 107.681,169.487 107.782 C 169.755 107.883,170.083 107.790,170.215 107.576 C 170.347 107.362,170.619 107.288,170.819 107.412 C 171.020 107.536,171.592 107.405,172.092 107.120 C 172.591 106.836,173.180 106.590,173.400 106.573 C 174.605 106.481,178.413 105.502,178.573 105.244 C 178.676 105.077,179.404 104.973,180.192 105.013 C 180.980 105.052,181.720 104.930,181.836 104.742 C 181.952 104.554,182.937 104.400,184.024 104.400 C 185.111 104.400,186.000 104.220,186.000 104.000 C 186.000 103.780,186.270 103.600,186.600 103.600 C 187.122 103.600,187.200 105.417,187.200 117.557 C 187.200 133.470,186.895 132.308,190.887 131.584 C 193.677 131.078,206.888 130.918,209.828 131.354 L 211.857 131.655 211.920 76.628 L 211.982 21.600 199.591 21.600 L 187.200 21.600 187.200 50.190 M268.194 188.409 C 268.104 188.555,268.231 189.378,268.477 190.238 C 268.740 191.159,268.923 195.164,268.923 200.000 C 268.923 204.836,268.740 208.841,268.477 209.762 C 268.231 210.622,268.104 211.445,268.194 211.591 C 268.285 211.737,293.298 211.885,323.779 211.920 L 379.200 211.984 379.200 200.000 L 379.200 188.016 323.779 188.080 C 293.298 188.115,268.285 188.263,268.194 188.409 " stroke="none" fill="#0d96be" fill-rule="evenodd"></path><path id="path1" d="M286.312 11.796 C 286.221 21.328,286.302 23.631,286.733 23.796 C 287.026 23.908,307.231 24.000,331.633 24.000 L 376.000 24.000 376.000 68.367 C 376.000 92.769,376.092 112.974,376.204 113.267 C 376.369 113.698,378.672 113.779,388.204 113.688 L 400.000 113.577 400.000 56.788 L 400.000 0.000 343.212 -0.000 L 286.423 -0.000 286.312 11.796 M195.000 131.298 C 192.140 131.504,188.424 131.643,186.741 131.607 C 184.928 131.569,183.575 131.717,183.418 131.971 C 183.272 132.207,182.623 132.400,181.976 132.400 C 181.329 132.400,180.800 132.580,180.800 132.800 C 180.800 133.020,180.170 133.200,179.400 133.200 C 178.630 133.200,178.000 133.380,178.000 133.600 C 178.000 133.820,177.460 134.000,176.800 134.000 C 176.140 134.000,175.600 134.180,175.600 134.400 C 175.600 134.620,175.251 134.800,174.824 134.800 C 174.397 134.800,173.936 134.980,173.800 135.200 C 173.664 135.420,173.113 135.600,172.576 135.600 C 172.039 135.600,171.600 135.780,171.600 136.000 C 171.600 136.220,171.240 136.400,170.800 136.400 C 170.360 136.400,170.000 136.580,170.000 136.800 C 170.000 137.020,169.640 137.200,169.200 137.200 C 168.760 137.200,168.400 137.380,168.400 137.600 C 168.400 137.820,168.040 138.000,167.600 138.000 C 167.160 138.000,166.800 138.180,166.800 138.400 C 166.800 138.620,166.522 138.800,166.183 138.800 C 165.844 138.800,165.180 139.160,164.708 139.600 C 164.236 140.040,163.613 140.400,163.325 140.400 C 163.036 140.400,162.800 140.580,162.800 140.800 C 162.800 141.020,162.607 141.200,162.372 141.200 C 161.900 141.200,159.144 143.039,157.639 144.358 C 157.110 144.821,156.527 145.200,156.342 145.200 C 155.905 145.200,145.200 155.905,145.200 156.342 C 145.200 156.527,144.821 157.110,144.358 157.639 C 143.039 159.144,141.200 161.900,141.200 162.372 C 141.200 162.607,141.020 162.800,140.800 162.800 C 140.580 162.800,140.400 163.070,140.400 163.400 C 140.400 163.730,140.220 164.000,140.000 164.000 C 139.780 164.000,139.600 164.270,139.600 164.600 C 139.600 164.930,139.420 165.200,139.200 165.200 C 138.980 165.200,138.800 165.560,138.800 166.000 C 138.800 166.440,138.620 166.800,138.400 166.800 C 138.180 166.800,138.000 167.160,138.000 167.600 C 138.000 168.040,137.820 168.400,137.600 168.400 C 137.380 168.400,137.200 168.760,137.200 169.200 C 137.200 169.640,137.020 170.000,136.800 170.000 C 136.580 170.000,136.400 170.360,136.400 170.800 C 136.400 171.240,136.220 171.600,136.000 171.600 C 135.780 171.600,135.600 171.949,135.600 172.376 C 135.600 172.803,135.420 173.264,135.200 173.400 C 134.980 173.536,134.800 174.087,134.800 174.624 C 134.800 175.161,134.620 175.600,134.400 175.600 C 134.180 175.600,134.000 176.039,134.000 176.576 C 134.000 177.113,133.820 177.664,133.600 177.800 C 133.380 177.936,133.200 178.476,133.200 179.000 C 133.200 179.524,133.020 180.064,132.800 180.200 C 132.580 180.336,132.400 181.067,132.400 181.824 C 132.400 182.581,132.220 183.200,132.000 183.200 C 131.780 183.200,131.600 183.974,131.600 184.920 C 131.600 185.866,131.385 186.855,131.121 187.119 C 130.750 187.490,130.792 187.709,131.309 188.099 C 131.877 188.526,131.912 188.864,131.549 190.400 C 130.997 192.736,130.997 207.264,131.549 209.600 C 131.912 211.136,131.877 211.474,131.309 211.901 C 130.792 212.291,130.750 212.510,131.121 212.881 C 131.385 213.145,131.600 214.033,131.600 214.856 C 131.600 215.679,131.780 216.464,132.000 216.600 C 132.220 216.736,132.400 217.456,132.400 218.200 C 132.400 218.944,132.580 219.664,132.800 219.800 C 133.020 219.936,133.200 220.476,133.200 221.000 C 133.200 221.524,133.380 222.064,133.600 222.200 C 133.820 222.336,134.000 222.887,134.000 223.424 C 134.000 223.961,134.180 224.400,134.400 224.400 C 134.620 224.400,134.800 224.749,134.800 225.176 C 134.800 225.603,134.980 226.064,135.200 226.200 C 135.420 226.336,135.600 226.887,135.600 227.424 C 135.600 227.961,135.780 228.400,136.000 228.400 C 136.220 228.400,136.400 228.760,136.400 229.200 C 136.400 229.640,136.580 230.000,136.800 230.000 C 137.020 230.000,137.200 230.360,137.200 230.800 C 137.200 231.240,137.335 231.601,137.500 231.603 C 137.859 231.607,138.800 233.544,138.800 234.280 C 138.800 234.566,138.980 234.800,139.200 234.800 C 139.420 234.800,139.600 235.070,139.600 235.400 C 139.600 235.730,139.780 236.000,140.000 236.000 C 140.220 236.000,140.400 236.270,140.400 236.600 C 140.400 236.930,140.580 237.200,140.800 237.200 C 141.020 237.200,141.200 237.393,141.200 237.628 C 141.200 238.100,143.039 240.856,144.358 242.361 C 144.821 242.890,145.200 243.473,145.200 243.658 C 145.200 244.100,155.907 254.800,156.349 254.800 C 156.538 254.800,157.301 255.340,158.046 255.999 C 158.791 256.659,159.895 257.423,160.500 257.697 C 161.105 257.971,161.600 258.331,161.600 258.498 C 161.600 258.664,161.870 258.800,162.200 258.800 C 162.530 258.800,162.800 258.980,162.800 259.200 C 162.800 259.420,163.036 259.600,163.325 259.600 C 163.613 259.600,164.236 259.960,164.708 260.400 C 165.180 260.840,165.844 261.200,166.183 261.200 C 166.522 261.200,166.800 261.380,166.800 261.600 C 166.800 261.820,167.160 262.000,167.600 262.000 C 168.040 262.000,168.400 262.180,168.400 262.400 C 168.400 262.620,168.760 262.800,169.200 262.800 C 169.640 262.800,170.000 262.980,170.000 263.200 C 170.000 263.420,170.360 263.600,170.800 263.600 C 171.240 263.600,171.600 263.780,171.600 264.000 C 171.600 264.220,172.140 264.400,172.800 264.400 C 173.460 264.400,174.000 264.580,174.000 264.800 C 174.000 265.020,174.360 265.200,174.800 265.200 C 175.240 265.200,175.600 265.380,175.600 265.600 C 175.600 265.820,176.140 266.000,176.800 266.000 C 177.460 266.000,178.000 266.180,178.000 266.400 C 178.000 266.620,178.529 266.800,179.176 266.800 C 179.823 266.800,180.452 266.960,180.573 267.156 C 180.884 267.660,183.307 268.070,186.800 268.209 C 188.450 268.275,192.841 268.529,196.559 268.772 C 200.276 269.016,203.411 269.122,203.525 269.008 C 203.640 268.894,202.893 268.800,201.867 268.800 L 200.000 268.800 200.000 200.022 L 200.000 131.244 201.900 131.094 L 203.800 130.944 202.000 130.934 C 201.010 130.928,197.860 131.092,195.000 131.298 M206.900 131.476 C 207.285 131.576,207.915 131.576,208.300 131.476 C 208.685 131.375,208.370 131.293,207.600 131.293 C 206.830 131.293,206.515 131.375,206.900 131.476 M268.509 193.200 C 268.509 194.190,268.587 194.595,268.682 194.100 C 268.778 193.605,268.778 192.795,268.682 192.300 C 268.587 191.805,268.509 192.210,268.509 193.200 M268.509 206.800 C 268.509 207.790,268.587 208.195,268.682 207.700 C 268.778 207.205,268.778 206.395,268.682 205.900 C 268.587 205.405,268.509 205.810,268.509 206.800 M206.900 268.676 C 207.285 268.776,207.915 268.776,208.300 268.676 C 208.685 268.575,208.370 268.493,207.600 268.493 C 206.830 268.493,206.515 268.575,206.900 268.676 M376.204 286.733 C 376.092 287.026,376.000 307.231,376.000 331.633 L 376.000 376.000 331.633 376.000 C 307.231 376.000,287.026 376.092,286.733 376.204 C 286.302 376.369,286.221 378.672,286.312 388.204 L 286.423 400.000 343.212 400.000 L 400.000 400.000 400.000 343.212 L 400.000 286.423 388.204 286.312 C 378.672 286.221,376.369 286.302,376.204 286.733 " stroke="none" fill="#fb6627" fill-rule="evenodd"></path><path id="path2" d="M211.850 79.650 C 211.535 81.223,211.519 100.696,211.831 102.255 C 212.119 103.697,213.513 104.400,216.080 104.400 C 217.136 104.400,218.000 104.580,218.000 104.800 C 218.000 105.020,218.810 105.200,219.800 105.200 C 220.790 105.200,221.600 105.343,221.600 105.518 C 221.600 105.693,222.275 105.881,223.100 105.936 C 223.925 105.990,224.660 106.207,224.733 106.418 C 224.807 106.628,225.471 106.800,226.210 106.800 C 226.948 106.800,227.649 106.956,227.768 107.147 C 227.969 107.474,231.046 108.187,231.700 108.059 C 231.865 108.026,232.000 108.180,232.000 108.400 C 232.000 108.620,232.439 108.800,232.976 108.800 C 233.513 108.800,234.064 108.980,234.200 109.200 C 234.336 109.420,234.887 109.600,235.424 109.600 C 235.961 109.600,236.400 109.780,236.400 110.000 C 236.400 110.220,236.760 110.400,237.200 110.400 C 237.640 110.400,238.000 110.580,238.000 110.800 C 238.000 111.020,238.540 111.200,239.200 111.200 C 239.860 111.200,240.400 111.380,240.400 111.600 C 240.400 111.820,240.760 112.000,241.200 112.000 C 241.640 112.000,242.000 112.180,242.000 112.400 C 242.000 112.620,242.270 112.800,242.600 112.800 C 242.930 112.800,243.200 112.980,243.200 113.200 C 243.200 113.420,243.560 113.600,244.000 113.600 C 244.440 113.600,244.800 113.780,244.800 114.000 C 244.800 114.220,245.171 114.400,245.624 114.400 C 246.077 114.400,246.336 114.580,246.200 114.800 C 246.064 115.020,246.334 115.200,246.800 115.200 C 247.266 115.200,247.536 115.380,247.400 115.600 C 247.264 115.820,247.523 116.000,247.976 116.000 C 248.429 116.000,248.800 116.180,248.800 116.400 C 248.800 116.620,249.120 116.800,249.512 116.800 C 249.903 116.800,250.476 117.150,250.785 117.579 C 251.093 118.007,251.469 118.281,251.621 118.187 C 251.772 118.094,252.414 118.463,253.048 119.008 C 253.682 119.553,254.385 119.999,254.612 120.000 C 254.838 120.000,255.276 120.350,255.585 120.779 C 255.893 121.207,256.281 121.473,256.447 121.371 C 256.613 121.269,257.166 121.593,257.677 122.092 C 258.188 122.592,259.324 123.532,260.203 124.183 C 261.081 124.834,262.277 125.869,262.860 126.483 C 263.444 127.097,264.219 127.600,264.584 127.600 C 264.949 127.600,265.136 127.780,265.000 128.000 C 264.864 128.220,264.951 128.400,265.194 128.400 C 265.706 128.400,272.000 134.667,272.000 135.177 C 272.000 135.366,272.586 136.123,273.302 136.860 C 274.018 137.597,275.319 139.100,276.194 140.200 C 277.068 141.300,278.000 142.426,278.266 142.702 C 278.531 142.979,278.862 143.564,279.001 144.002 C 279.140 144.441,279.422 144.800,279.627 144.800 C 279.832 144.800,280.000 145.036,280.000 145.325 C 280.000 145.613,280.315 146.198,280.700 146.625 C 281.085 147.051,281.655 147.895,281.968 148.500 C 282.280 149.105,282.685 149.600,282.868 149.600 C 283.050 149.600,283.200 149.960,283.200 150.400 C 283.200 150.840,283.380 151.200,283.600 151.200 C 283.820 151.200,284.004 151.425,284.009 151.700 C 284.014 151.975,284.370 152.650,284.800 153.200 C 285.230 153.750,285.586 154.500,285.591 154.867 C 285.596 155.233,285.741 155.593,285.914 155.667 C 286.352 155.853,288.800 160.745,288.800 161.434 C 288.800 161.746,288.980 162.000,289.200 162.000 C 289.420 162.000,289.600 162.360,289.600 162.800 C 289.600 163.240,289.780 163.600,290.000 163.600 C 290.220 163.600,290.400 164.140,290.400 164.800 C 290.400 165.460,290.580 166.000,290.800 166.000 C 291.020 166.000,291.200 166.422,291.200 166.939 C 291.200 167.455,291.459 168.400,291.776 169.039 C 292.093 169.677,292.416 170.688,292.494 171.285 C 292.572 171.882,292.763 172.497,292.918 172.652 C 293.073 172.807,293.200 173.443,293.200 174.067 C 293.200 174.690,293.380 175.200,293.600 175.200 C 293.820 175.200,294.000 175.794,294.000 176.520 C 294.000 177.246,294.170 178.011,294.378 178.220 C 294.585 178.429,294.799 179.455,294.852 180.500 C 294.906 181.545,295.096 182.400,295.275 182.400 C 295.454 182.400,295.600 183.390,295.600 184.600 C 295.600 185.810,295.780 186.800,296.000 186.800 C 296.220 186.800,296.400 187.048,296.400 187.350 C 296.400 188.339,316.127 188.995,320.366 188.147 C 321.580 187.904,322.291 184.400,321.125 184.400 C 320.946 184.400,320.800 183.230,320.800 181.800 C 320.800 180.370,320.637 179.200,320.439 179.200 C 320.240 179.200,319.975 178.345,319.849 177.300 C 319.283 172.575,319.096 171.600,318.760 171.600 C 318.562 171.600,318.400 170.981,318.400 170.224 C 318.400 169.467,318.220 168.736,318.000 168.600 C 317.780 168.464,317.600 167.744,317.600 167.000 C 317.600 166.256,317.420 165.536,317.200 165.400 C 316.980 165.264,316.800 164.613,316.800 163.953 C 316.800 163.255,316.633 162.856,316.400 163.000 C 316.161 163.147,316.000 162.663,316.000 161.800 C 316.000 160.937,315.839 160.453,315.600 160.600 C 315.367 160.744,315.200 160.337,315.200 159.624 C 315.200 158.951,315.020 158.400,314.800 158.400 C 314.580 158.400,314.400 158.040,314.400 157.600 C 314.400 157.160,314.220 156.800,314.000 156.800 C 313.780 156.800,313.600 156.260,313.600 155.600 C 313.600 154.940,313.420 154.400,313.200 154.400 C 312.980 154.400,312.800 153.961,312.800 153.424 C 312.800 152.887,312.620 152.336,312.400 152.200 C 312.180 152.064,312.000 151.603,312.000 151.176 C 312.000 150.749,311.820 150.400,311.600 150.400 C 311.380 150.400,311.200 150.040,311.200 149.600 C 311.200 149.160,311.020 148.800,310.800 148.800 C 310.580 148.800,310.400 148.440,310.400 148.000 C 310.400 147.560,310.220 147.200,310.000 147.200 C 309.780 147.200,309.600 146.840,309.600 146.400 C 309.600 145.960,309.420 145.600,309.200 145.600 C 308.980 145.600,308.800 145.251,308.800 144.824 C 308.800 144.397,308.634 143.945,308.431 143.819 C 308.228 143.694,307.943 143.053,307.799 142.395 C 307.655 141.738,307.371 141.200,307.168 141.200 C 306.966 141.200,306.800 140.840,306.800 140.400 C 306.800 139.960,306.620 139.600,306.400 139.600 C 306.180 139.600,306.000 139.330,306.000 139.000 C 306.000 138.670,305.820 138.400,305.600 138.400 C 305.380 138.400,305.200 138.130,305.200 137.800 C 305.200 137.470,305.054 137.200,304.875 137.200 C 304.696 137.200,304.302 136.570,304.000 135.800 C 303.698 135.030,303.304 134.400,303.125 134.400 C 302.946 134.400,302.800 134.130,302.800 133.800 C 302.800 133.470,302.620 133.200,302.400 133.200 C 302.180 133.200,302.000 132.964,302.000 132.675 C 302.000 132.387,301.667 131.794,301.261 131.357 C 300.854 130.921,300.449 130.372,300.361 130.138 C 300.157 129.597,298.134 127.041,296.700 125.512 C 296.095 124.866,295.600 124.191,295.600 124.010 C 295.600 123.829,294.700 122.762,293.600 121.639 C 292.500 120.515,291.600 119.411,291.600 119.184 C 291.600 118.958,291.054 118.239,290.386 117.587 C 289.719 116.934,289.263 116.400,289.373 116.400 C 289.592 116.400,283.920 110.760,282.234 109.300 C 281.662 108.805,281.004 108.400,280.771 108.400 C 280.538 108.400,279.471 107.500,278.400 106.400 C 277.329 105.300,276.249 104.400,276.000 104.400 C 275.752 104.400,275.094 103.860,274.539 103.200 C 273.983 102.540,273.275 102.000,272.964 102.000 C 272.654 102.000,272.400 101.850,272.400 101.668 C 272.400 101.485,271.956 101.098,271.414 100.807 C 270.871 100.517,270.522 100.127,270.637 99.940 C 270.753 99.753,270.516 99.600,270.112 99.600 C 269.707 99.600,269.117 99.240,268.800 98.800 C 268.483 98.360,267.943 98.000,267.600 98.000 C 267.257 98.000,266.717 97.640,266.400 97.200 C 266.083 96.760,265.503 96.400,265.112 96.400 C 264.720 96.400,264.400 96.220,264.400 96.000 C 264.400 95.780,264.040 95.600,263.600 95.600 C 263.160 95.600,262.800 95.447,262.800 95.261 C 262.800 94.864,255.649 91.200,254.876 91.200 C 254.588 91.200,254.464 91.020,254.600 90.800 C 254.740 90.573,254.404 90.400,253.824 90.400 C 253.261 90.400,252.800 90.220,252.800 90.000 C 252.800 89.780,252.440 89.600,252.000 89.600 C 251.560 89.600,251.200 89.420,251.200 89.200 C 251.200 88.980,250.840 88.800,250.400 88.800 C 249.960 88.800,249.600 88.620,249.600 88.400 C 249.600 88.180,249.240 88.000,248.800 88.000 C 248.360 88.000,248.000 87.820,248.000 87.600 C 248.000 87.380,247.460 87.200,246.800 87.200 C 246.140 87.200,245.600 87.020,245.600 86.800 C 245.600 86.580,245.251 86.400,244.824 86.400 C 244.397 86.400,243.936 86.220,243.800 86.000 C 243.664 85.780,243.113 85.600,242.576 85.600 C 242.039 85.600,241.600 85.420,241.600 85.200 C 241.600 84.980,241.150 84.800,240.600 84.800 C 240.050 84.800,239.600 84.620,239.600 84.400 C 239.600 84.180,239.060 84.000,238.400 84.000 C 237.740 84.000,237.200 83.820,237.200 83.600 C 237.200 83.380,236.559 83.200,235.776 83.200 C 234.929 83.200,234.453 83.038,234.600 82.800 C 234.749 82.558,234.204 82.400,233.224 82.400 C 232.331 82.400,231.600 82.220,231.600 82.000 C 231.600 81.780,230.880 81.600,230.000 81.600 C 229.120 81.600,228.400 81.438,228.400 81.240 C 228.400 81.042,227.635 80.778,226.700 80.653 C 222.184 80.048,221.373 79.892,221.020 79.559 C 220.811 79.362,219.506 79.200,218.120 79.200 C 216.707 79.200,215.600 79.024,215.600 78.800 C 215.600 77.609,212.099 78.403,211.850 79.650 M111.076 115.774 C 110.647 116.099,110.517 116.425,110.756 116.573 C 110.978 116.710,111.355 116.457,111.594 116.011 C 112.101 115.063,112.047 115.038,111.076 115.774 M268.940 200.000 C 268.940 201.870,269.009 202.635,269.093 201.700 C 269.177 200.765,269.177 199.235,269.093 198.300 C 269.009 197.365,268.940 198.130,268.940 200.000 M297.428 211.890 C 296.034 212.245,295.600 213.072,295.600 215.371 C 295.600 216.597,295.420 217.600,295.200 217.600 C 294.980 217.600,294.800 218.489,294.800 219.576 C 294.800 220.663,294.620 221.664,294.400 221.800 C 294.180 221.936,294.000 222.667,294.000 223.424 C 294.000 224.181,293.840 224.800,293.645 224.800 C 293.450 224.800,293.195 225.295,293.078 225.900 C 292.961 226.505,292.743 227.628,292.593 228.395 C 292.444 229.163,292.069 230.279,291.761 230.876 C 291.452 231.472,291.200 232.419,291.200 232.980 C 291.200 233.541,291.020 234.000,290.800 234.000 C 290.580 234.000,290.400 234.540,290.400 235.200 C 290.400 235.860,290.220 236.400,290.000 236.400 C 289.780 236.400,289.600 236.760,289.600 237.200 C 289.600 237.640,289.420 238.000,289.200 238.000 C 288.980 238.000,288.800 238.360,288.800 238.800 C 288.800 239.240,288.620 239.600,288.400 239.600 C 288.180 239.600,288.000 239.960,288.000 240.400 C 288.000 240.840,287.820 241.200,287.600 241.200 C 287.380 241.200,287.200 241.434,287.200 241.720 C 287.200 242.456,286.259 244.393,285.900 244.397 C 285.735 244.399,285.596 244.715,285.591 245.100 C 285.586 245.485,285.230 246.250,284.800 246.800 C 284.370 247.350,284.014 248.025,284.009 248.300 C 284.004 248.575,283.820 248.800,283.600 248.800 C 283.380 248.800,283.200 249.120,283.200 249.512 C 283.200 249.903,282.840 250.483,282.400 250.800 C 281.960 251.117,281.600 251.697,281.600 252.088 C 281.600 252.480,281.450 252.800,281.268 252.800 C 281.085 252.800,280.681 253.295,280.370 253.900 C 280.060 254.505,279.489 255.291,279.103 255.647 C 278.716 256.003,278.400 256.504,278.400 256.760 C 278.400 257.017,277.770 257.857,277.000 258.627 C 276.230 259.397,275.600 260.163,275.600 260.329 C 275.600 260.496,274.880 261.428,274.000 262.400 C 273.120 263.372,272.400 264.321,272.400 264.508 C 272.400 264.694,272.247 264.753,272.060 264.637 C 271.873 264.522,271.468 264.914,271.160 265.509 C 270.478 266.827,267.387 270.000,266.787 270.000 C 266.548 270.000,266.440 270.142,266.548 270.315 C 266.655 270.488,266.214 270.864,265.569 271.150 C 264.924 271.435,264.497 271.834,264.621 272.035 C 264.746 272.236,264.678 272.400,264.472 272.400 C 264.265 272.400,263.355 273.120,262.448 274.000 C 261.541 274.880,260.625 275.600,260.413 275.600 C 260.200 275.600,259.394 276.233,258.620 277.007 C 257.846 277.780,257.075 278.417,256.907 278.421 C 256.738 278.426,256.183 278.792,255.673 279.236 C 255.163 279.679,254.308 280.241,253.773 280.485 C 253.238 280.729,252.800 281.080,252.800 281.264 C 252.800 281.449,252.564 281.600,252.275 281.600 C 251.987 281.600,251.364 281.960,250.892 282.400 C 250.420 282.840,249.756 283.200,249.417 283.200 C 249.078 283.200,248.800 283.380,248.800 283.600 C 248.800 283.820,248.440 284.000,248.000 284.000 C 247.560 284.000,247.200 284.180,247.200 284.400 C 247.200 284.620,246.829 284.800,246.376 284.800 C 245.923 284.800,245.664 284.980,245.800 285.200 C 245.936 285.420,245.666 285.600,245.200 285.600 C 244.734 285.600,244.464 285.780,244.600 286.000 C 244.740 286.227,244.404 286.400,243.824 286.400 C 243.261 286.400,242.800 286.580,242.800 286.800 C 242.800 287.020,242.440 287.200,242.000 287.200 C 241.560 287.200,241.200 287.380,241.200 287.600 C 241.200 287.820,240.840 288.000,240.400 288.000 C 239.960 288.000,239.600 288.180,239.600 288.400 C 239.600 288.620,239.240 288.800,238.800 288.800 C 238.360 288.800,238.000 288.980,238.000 289.200 C 238.000 289.420,237.640 289.600,237.200 289.600 C 236.760 289.600,236.400 289.780,236.400 290.000 C 236.400 290.220,235.860 290.400,235.200 290.400 C 234.540 290.400,234.000 290.580,234.000 290.800 C 234.000 291.020,233.662 291.200,233.249 291.200 C 232.836 291.200,231.876 291.460,231.116 291.777 C 230.356 292.095,229.261 292.418,228.682 292.496 C 228.104 292.573,227.503 292.763,227.348 292.918 C 227.193 293.073,226.657 293.200,226.157 293.200 C 225.657 293.200,225.136 293.380,225.000 293.600 C 224.864 293.820,224.169 294.000,223.456 294.000 C 222.743 294.000,221.989 294.170,221.780 294.378 C 221.571 294.585,220.545 294.799,219.500 294.852 C 218.455 294.906,217.600 295.096,217.600 295.275 C 217.600 295.454,216.655 295.606,215.500 295.613 C 211.691 295.636,211.819 295.238,211.672 307.517 C 211.602 313.393,211.660 318.978,211.801 319.928 L 212.058 321.657 213.929 321.552 C 214.958 321.495,215.894 321.313,216.009 321.148 C 216.123 320.983,217.346 320.808,218.726 320.758 C 220.106 320.708,221.328 320.517,221.441 320.334 C 221.554 320.150,222.447 320.000,223.424 320.000 C 224.401 320.000,225.200 319.820,225.200 319.600 C 225.200 319.380,225.920 319.200,226.800 319.200 C 227.680 319.200,228.400 319.020,228.400 318.800 C 228.400 318.580,229.120 318.400,230.000 318.400 C 230.880 318.400,231.600 318.220,231.600 318.000 C 231.600 317.780,232.331 317.600,233.224 317.600 C 234.204 317.600,234.749 317.442,234.600 317.200 C 234.453 316.962,234.929 316.800,235.776 316.800 C 236.559 316.800,237.200 316.620,237.200 316.400 C 237.200 316.180,237.740 316.000,238.400 316.000 C 239.060 316.000,239.600 315.820,239.600 315.600 C 239.600 315.380,240.050 315.200,240.600 315.200 C 241.150 315.200,241.600 315.020,241.600 314.800 C 241.600 314.580,242.039 314.400,242.576 314.400 C 243.113 314.400,243.664 314.220,243.800 314.000 C 243.936 313.780,244.382 313.600,244.790 313.600 C 245.199 313.600,245.593 313.422,245.667 313.203 C 245.740 312.985,246.282 312.767,246.871 312.719 C 247.460 312.670,247.855 312.488,247.748 312.315 C 247.640 312.142,248.013 312.000,248.576 312.000 C 249.139 312.000,249.600 311.820,249.600 311.600 C 249.600 311.380,249.960 311.200,250.400 311.200 C 250.840 311.200,251.200 311.020,251.200 310.800 C 251.200 310.580,251.560 310.400,252.000 310.400 C 252.440 310.400,252.800 310.220,252.800 310.000 C 252.800 309.780,253.160 309.600,253.600 309.600 C 254.040 309.600,254.400 309.420,254.400 309.200 C 254.400 308.980,254.715 308.794,255.100 308.787 C 255.485 308.780,256.149 308.510,256.576 308.187 C 257.004 307.864,257.601 307.600,257.905 307.600 C 258.209 307.600,258.729 307.328,259.061 306.996 C 259.393 306.664,259.830 306.495,260.032 306.620 C 260.235 306.745,260.400 306.657,260.400 306.424 C 260.400 306.191,260.636 306.000,260.925 306.000 C 261.213 306.000,261.807 305.685,262.245 305.300 C 262.683 304.915,263.437 304.375,263.920 304.100 C 264.404 303.825,265.198 303.375,265.685 303.100 C 266.171 302.825,266.816 302.373,267.117 302.096 C 267.418 301.819,267.858 301.712,268.094 301.858 C 268.349 302.015,268.407 301.936,268.238 301.662 C 268.069 301.388,268.207 301.200,268.576 301.200 C 268.919 301.200,269.200 301.020,269.200 300.800 C 269.200 300.580,269.378 300.400,269.595 300.400 C 269.967 300.400,271.015 299.640,272.216 298.500 C 272.506 298.225,272.920 298.000,273.136 298.000 C 273.352 298.000,273.983 297.460,274.539 296.800 C 275.094 296.140,275.712 295.600,275.913 295.600 C 276.114 295.600,277.413 294.520,278.800 293.200 C 280.187 291.880,281.555 290.800,281.838 290.800 C 282.122 290.800,282.635 290.400,282.977 289.911 C 283.320 289.422,283.600 289.145,283.600 289.295 C 283.600 289.445,285.085 288.024,286.900 286.138 C 291.529 281.327,291.600 281.246,291.600 280.802 C 291.600 280.583,292.500 279.485,293.600 278.361 C 294.700 277.238,295.600 276.146,295.600 275.934 C 295.600 275.722,296.140 275.094,296.800 274.539 C 297.460 273.983,298.000 273.352,298.000 273.136 C 298.000 272.920,298.225 272.506,298.500 272.216 C 299.430 271.236,300.400 269.992,300.400 269.779 C 300.400 269.662,300.760 269.180,301.200 268.708 C 301.640 268.236,302.000 267.613,302.000 267.325 C 302.000 267.036,302.180 266.800,302.400 266.800 C 302.620 266.800,302.800 266.530,302.800 266.200 C 302.800 265.870,302.936 265.600,303.102 265.600 C 303.269 265.600,303.664 265.015,303.980 264.300 C 304.297 263.585,304.880 262.651,305.278 262.225 C 305.675 261.798,306.000 261.213,306.000 260.925 C 306.000 260.636,306.191 260.400,306.424 260.400 C 306.657 260.400,306.745 260.235,306.620 260.032 C 306.495 259.830,306.655 259.402,306.977 259.081 C 307.298 258.759,307.679 258.023,307.825 257.445 C 307.970 256.866,308.249 256.294,308.444 256.173 C 308.640 256.052,308.800 255.603,308.800 255.176 C 308.800 254.749,308.980 254.400,309.200 254.400 C 309.420 254.400,309.600 254.040,309.600 253.600 C 309.600 253.160,309.780 252.800,310.000 252.800 C 310.220 252.800,310.400 252.440,310.400 252.000 C 310.400 251.560,310.580 251.200,310.800 251.200 C 311.020 251.200,311.200 250.840,311.200 250.400 C 311.200 249.960,311.380 249.600,311.600 249.600 C 311.820 249.600,312.000 249.251,312.000 248.824 C 312.000 248.397,312.180 247.936,312.400 247.800 C 312.620 247.664,312.800 247.113,312.800 246.576 C 312.800 246.039,312.980 245.600,313.200 245.600 C 313.420 245.600,313.600 245.139,313.600 244.576 C 313.600 244.013,313.742 243.640,313.915 243.748 C 314.088 243.855,314.270 243.460,314.319 242.871 C 314.367 242.282,314.585 241.740,314.803 241.667 C 315.022 241.593,315.200 241.098,315.200 240.567 C 315.200 240.035,315.380 239.600,315.600 239.600 C 315.820 239.600,316.000 238.959,316.000 238.176 C 316.000 237.329,316.162 236.853,316.400 237.000 C 316.642 237.149,316.800 236.604,316.800 235.624 C 316.800 234.731,316.980 234.000,317.200 234.000 C 317.420 234.000,317.600 233.471,317.600 232.824 C 317.600 232.177,317.780 231.536,318.000 231.400 C 318.220 231.264,318.400 230.544,318.400 229.800 C 318.400 229.056,318.561 228.348,318.758 228.226 C 319.108 228.009,319.408 226.499,319.854 222.700 C 319.977 221.655,320.240 220.800,320.439 220.800 C 320.637 220.800,320.800 219.641,320.800 218.224 C 320.800 216.807,320.980 215.536,321.200 215.400 C 322.268 214.740,321.638 212.108,320.350 211.850 C 318.903 211.561,298.581 211.596,297.428 211.890 " stroke="none" fill="#0c2c4c" fill-rule="evenodd"></path><path id="path3" d="M212.142 131.332 C 211.779 131.980,211.446 132.006,208.383 131.622 C 206.534 131.390,203.891 131.200,202.510 131.200 L 200.000 131.200 200.000 200.061 L 200.000 268.922 204.500 268.667 C 206.975 268.526,209.675 268.295,210.500 268.153 C 211.726 267.943,212.000 268.015,212.000 268.548 C 212.000 268.906,212.191 269.200,212.424 269.200 C 212.657 269.200,212.736 269.020,212.600 268.800 C 212.448 268.554,213.121 268.400,214.353 268.400 C 215.453 268.400,216.464 268.220,216.600 268.000 C 216.736 267.780,217.289 267.600,217.829 267.600 C 218.369 267.600,219.123 267.433,219.505 267.229 C 220.151 266.885,221.399 266.382,222.100 266.185 C 222.265 266.138,222.861 266.078,223.424 266.050 C 223.995 266.022,224.338 265.823,224.200 265.600 C 224.060 265.373,224.396 265.200,224.976 265.200 C 225.539 265.200,226.000 265.020,226.000 264.800 C 226.000 264.580,226.525 264.400,227.167 264.400 C 227.808 264.400,228.393 264.265,228.467 264.100 C 228.647 263.695,233.434 261.200,234.031 261.200 C 234.292 261.200,234.797 260.884,235.153 260.497 C 235.509 260.111,236.340 259.526,237.000 259.197 C 238.755 258.324,240.844 256.932,242.107 255.796 C 242.716 255.248,243.370 254.800,243.561 254.800 C 244.041 254.800,253.600 245.221,253.600 244.741 C 253.600 244.527,253.780 244.464,254.000 244.600 C 254.220 244.736,254.400 244.541,254.400 244.167 C 254.400 243.793,254.895 243.010,255.500 242.428 C 256.768 241.207,258.332 238.872,259.352 236.676 C 259.742 235.838,260.317 235.053,260.630 234.933 C 260.944 234.813,261.200 234.273,261.200 233.734 C 261.200 233.194,261.344 232.842,261.520 232.951 C 261.696 233.060,262.071 232.369,262.352 231.415 C 262.634 230.462,263.210 229.311,263.632 228.858 C 264.054 228.404,264.400 227.576,264.400 227.017 C 264.400 226.458,264.580 226.000,264.800 226.000 C 265.020 226.000,265.200 225.651,265.200 225.224 C 265.200 224.797,265.380 224.336,265.600 224.200 C 265.820 224.064,266.000 223.513,266.000 222.976 C 266.000 222.439,266.142 222.000,266.315 222.000 C 266.488 222.000,266.674 221.415,266.728 220.700 C 266.781 219.985,267.000 219.340,267.213 219.267 C 267.426 219.193,267.600 218.439,267.600 217.590 C 267.600 216.742,267.754 215.952,267.943 215.835 C 268.515 215.481,268.735 198.416,268.281 189.600 C 267.981 183.786,267.639 181.087,267.164 180.784 C 266.978 180.666,266.782 179.991,266.728 179.284 C 266.674 178.578,266.488 178.000,266.315 178.000 C 266.142 178.000,266.000 177.460,266.000 176.800 C 266.000 176.140,265.865 175.599,265.700 175.597 C 265.283 175.593,264.400 173.603,264.400 172.667 C 264.400 172.242,264.070 171.603,263.667 171.247 C 263.265 170.891,262.689 169.757,262.388 168.726 C 262.087 167.695,261.696 166.940,261.520 167.049 C 261.344 167.158,261.200 166.826,261.200 166.312 C 261.200 165.797,260.840 165.117,260.400 164.800 C 259.960 164.483,259.600 163.903,259.600 163.512 C 259.600 163.120,259.420 162.800,259.200 162.800 C 258.980 162.800,258.800 162.519,258.800 162.176 C 258.800 161.791,258.609 161.663,258.300 161.841 C 258.025 161.999,257.933 161.982,258.095 161.803 C 258.424 161.439,256.933 158.777,256.122 158.280 C 255.835 158.104,255.337 157.452,255.015 156.830 C 254.305 155.457,244.555 145.578,244.231 145.903 C 244.104 146.030,244.000 145.893,244.000 145.600 C 244.000 145.307,243.886 145.181,243.747 145.320 C 243.607 145.459,242.869 144.949,242.107 144.187 C 241.344 143.424,240.558 142.800,240.360 142.800 C 240.162 142.800,239.640 142.440,239.200 142.000 C 238.760 141.560,238.400 141.387,238.400 141.616 C 238.400 141.844,238.006 141.664,237.525 141.216 C 237.043 140.767,236.413 140.400,236.125 140.400 C 235.836 140.400,235.600 140.220,235.600 140.000 C 235.600 139.780,235.322 139.600,234.983 139.600 C 234.644 139.600,233.980 139.240,233.508 138.800 C 233.036 138.360,232.323 138.000,231.925 138.000 C 231.526 138.000,231.199 137.865,231.197 137.700 C 231.193 137.294,229.214 136.400,228.320 136.400 C 227.924 136.400,227.600 136.220,227.600 136.000 C 227.600 135.780,227.240 135.600,226.800 135.600 C 226.360 135.600,226.000 135.420,226.000 135.200 C 226.000 134.980,225.655 134.800,225.233 134.800 C 224.812 134.800,224.407 134.626,224.333 134.413 C 224.260 134.200,223.601 133.980,222.870 133.925 C 222.138 133.870,221.452 133.685,221.346 133.513 C 221.240 133.341,220.803 133.200,220.376 133.200 C 219.949 133.200,219.600 133.020,219.600 132.800 C 219.600 132.580,218.981 132.400,218.224 132.400 C 217.467 132.400,216.736 132.220,216.600 132.000 C 216.464 131.780,215.568 131.600,214.610 131.600 C 213.590 131.600,212.799 131.397,212.703 131.110 C 212.595 130.786,212.406 130.861,212.142 131.332 " stroke="none" fill="#dc1414" fill-rule="evenodd"></path><path id="path4" d="M0.000 57.200 L 0.000 114.400 11.520 114.400 C 19.947 114.400,23.169 114.271,23.520 113.920 C 23.888 113.552,24.000 102.969,24.000 68.720 L 24.000 24.000 68.720 24.000 C 102.969 24.000,113.552 23.888,113.920 23.520 C 114.271 23.169,114.400 19.947,114.400 11.520 L 114.400 0.000 57.200 0.000 L 0.000 0.000 0.000 57.200 M285.600 11.824 C 285.600 19.604,285.737 23.563,286.000 23.400 C 286.547 23.062,286.547 0.000,286.000 0.000 C 285.742 0.000,285.600 4.208,285.600 11.824 M376.600 114.000 C 376.437 114.263,380.396 114.400,388.176 114.400 C 395.792 114.400,400.000 114.258,400.000 114.000 C 400.000 113.743,395.875 113.600,388.424 113.600 C 381.137 113.600,376.756 113.748,376.600 114.000 M0.000 342.800 L 0.000 400.000 57.200 400.000 L 114.400 400.000 114.400 388.480 C 114.400 380.053,114.271 376.831,113.920 376.480 C 113.552 376.112,102.969 376.000,68.720 376.000 L 24.000 376.000 24.000 331.280 C 24.000 297.031,23.888 286.448,23.520 286.080 C 23.169 285.729,19.947 285.600,11.520 285.600 L 0.000 285.600 0.000 342.800 M376.600 286.000 C 376.756 286.252,381.137 286.400,388.424 286.400 C 395.875 286.400,400.000 286.257,400.000 286.000 C 400.000 285.742,395.792 285.600,388.176 285.600 C 380.396 285.600,376.437 285.737,376.600 286.000 M285.600 388.176 C 285.600 395.792,285.742 400.000,286.000 400.000 C 286.257 400.000,286.400 395.875,286.400 388.424 C 286.400 381.137,286.252 376.756,286.000 376.600 C 285.737 376.437,285.600 380.396,285.600 388.176 " stroke="none" fill="#fcbc04" fill-rule="evenodd"></path></g></svg>