<svg id="svg" version="1.1" xmlns="http://www.w3.org/2000/svg" xmlns:xlink="http://www.w3.org/1999/xlink" width="400" height="400" viewBox="0, 0, 400,400"><g id="svgg"><path id="path0" d="M304.400 61.235 C 301.119 61.597,294.825 63.089,294.220 63.649 C 294.011 63.842,293.561 64.002,293.220 64.005 C 292.879 64.008,291.205 64.723,289.499 65.593 C 273.783 73.618,264.000 89.292,264.000 106.447 C 264.000 109.753,264.204 111.370,265.231 116.200 C 267.360 126.216,273.594 135.840,282.271 142.504 C 289.414 147.991,300.191 151.612,309.320 151.592 C 321.250 151.567,332.767 146.753,341.291 138.229 C 371.414 108.106,346.719 56.565,304.400 61.235 M85.000 249.047 C 56.336 253.378,39.019 281.099,48.046 308.200 C 56.990 335.051,89.305 347.002,113.555 332.427 C 116.527 330.641,123.194 325.397,123.204 324.837 C 123.207 324.707,123.893 323.880,124.729 323.000 C 135.936 311.208,138.769 290.208,131.286 274.400 C 128.612 268.751,121.444 260.007,117.652 257.767 C 116.963 257.360,116.400 256.886,116.400 256.714 C 116.400 256.541,116.207 256.400,115.972 256.400 C 115.737 256.400,114.792 255.894,113.872 255.275 C 110.547 253.037,106.002 251.203,100.200 249.759 C 97.844 249.172,87.405 248.683,85.000 249.047 " stroke="none" fill="#e3fbfb" fill-rule="evenodd"></path><path id="path1" d="M79.800 37.600 C 79.664 37.820,78.663 38.000,77.576 38.000 C 76.489 38.000,75.600 38.180,75.600 38.400 C 75.600 38.620,74.880 38.800,74.000 38.800 C 73.120 38.800,72.400 38.980,72.400 39.200 C 72.400 39.420,71.669 39.600,70.776 39.600 C 69.796 39.600,69.251 39.758,69.400 40.000 C 69.540 40.227,69.202 40.400,68.618 40.400 C 68.052 40.400,67.187 40.608,66.695 40.862 C 64.821 41.831,64.393 42.000,63.816 42.000 C 63.204 42.000,58.757 43.971,58.400 44.401 C 58.290 44.533,57.533 44.952,56.719 45.331 C 55.904 45.710,54.997 46.240,54.703 46.510 C 54.409 46.779,53.816 47.197,53.385 47.438 C 50.977 48.780,50.552 49.061,49.957 49.700 C 49.599 50.085,49.088 50.400,48.822 50.400 C 48.555 50.400,47.646 51.120,46.800 52.000 C 45.954 52.880,45.142 53.600,44.995 53.600 C 44.680 53.600,38.000 60.304,38.000 60.620 C 38.000 60.739,37.595 61.256,37.100 61.768 C 35.626 63.293,34.800 64.384,34.800 64.805 C 34.800 65.022,34.650 65.200,34.468 65.200 C 34.285 65.200,33.881 65.695,33.570 66.300 C 33.260 66.905,32.689 67.691,32.303 68.047 C 31.916 68.403,31.600 68.988,31.600 69.347 C 31.600 69.706,31.455 70.000,31.279 70.000 C 31.102 70.000,30.517 70.897,29.979 71.994 C 29.440 73.090,28.865 73.990,28.700 73.994 C 28.535 73.997,28.400 74.360,28.400 74.800 C 28.400 75.240,28.262 75.600,28.094 75.600 C 27.638 75.600,25.566 80.622,25.426 82.067 C 25.412 82.213,25.265 82.468,25.100 82.633 C 24.935 82.798,24.800 83.454,24.800 84.090 C 24.800 84.760,24.631 85.143,24.400 85.000 C 24.158 84.851,24.000 85.396,24.000 86.376 C 24.000 87.269,23.820 88.000,23.600 88.000 C 23.380 88.000,23.200 88.720,23.200 89.600 C 23.200 90.480,23.020 91.200,22.800 91.200 C 22.580 91.200,22.400 92.190,22.400 93.400 C 22.400 94.610,22.220 95.600,22.000 95.600 C 21.743 95.600,21.600 99.475,21.600 106.424 C 21.600 113.537,21.737 117.162,22.000 117.000 C 22.250 116.845,22.400 117.670,22.400 119.200 C 22.400 120.730,22.550 121.555,22.800 121.400 C 23.042 121.251,23.200 121.796,23.200 122.776 C 23.200 123.669,23.380 124.400,23.600 124.400 C 23.820 124.400,24.000 125.120,24.000 126.000 C 24.000 126.880,24.180 127.600,24.400 127.600 C 24.620 127.600,24.800 128.020,24.800 128.533 C 24.800 129.047,24.935 129.602,25.100 129.767 C 25.265 129.932,25.409 130.187,25.420 130.333 C 25.544 132.024,29.733 140.994,30.889 142.047 C 31.280 142.403,31.600 142.948,31.600 143.259 C 31.600 143.569,31.950 144.076,32.379 144.385 C 32.807 144.693,33.073 145.081,32.971 145.247 C 32.869 145.413,33.238 146.002,33.792 146.556 C 34.347 147.110,34.800 147.766,34.800 148.013 C 34.800 148.260,35.520 149.154,36.400 150.000 C 37.280 150.846,38.000 151.731,38.000 151.969 C 38.000 152.206,38.180 152.400,38.400 152.400 C 38.620 152.400,38.800 152.594,38.800 152.831 C 38.800 153.069,39.565 153.973,40.500 154.840 C 41.435 155.708,42.770 156.954,43.466 157.609 C 44.162 158.264,44.855 158.800,45.005 158.800 C 45.156 158.800,45.783 159.340,46.400 160.000 C 47.017 160.660,47.729 161.200,47.984 161.200 C 48.239 161.200,48.336 161.380,48.200 161.600 C 48.064 161.820,48.257 162.000,48.629 162.000 C 49.002 162.000,49.597 162.316,49.953 162.703 C 50.309 163.089,51.095 163.660,51.700 163.970 C 52.305 164.281,52.800 164.685,52.800 164.868 C 52.800 165.050,53.120 165.200,53.512 165.200 C 53.903 165.200,54.483 165.560,54.800 166.000 C 55.117 166.440,55.697 166.800,56.088 166.800 C 56.480 166.800,56.800 166.980,56.800 167.200 C 56.800 167.420,57.160 167.600,57.600 167.600 C 58.040 167.600,58.401 167.735,58.403 167.900 C 58.407 168.259,60.344 169.200,61.080 169.200 C 61.366 169.200,61.601 169.335,61.603 169.500 C 61.607 169.906,63.586 170.800,64.480 170.800 C 64.876 170.800,65.200 170.980,65.200 171.200 C 65.200 171.420,65.481 171.600,65.825 171.600 C 66.382 171.600,70.486 172.831,72.600 173.633 C 73.040 173.800,74.120 174.053,75.000 174.195 C 75.880 174.337,77.320 174.576,78.200 174.725 C 80.347 175.089,319.762 175.075,321.800 174.710 C 322.680 174.553,324.259 174.305,325.309 174.159 C 326.359 174.013,327.315 173.738,327.433 173.547 C 327.551 173.356,328.018 173.200,328.471 173.200 C 329.503 173.200,334.553 171.507,334.733 171.101 C 334.807 170.935,335.186 170.800,335.577 170.800 C 336.355 170.800,341.319 168.383,341.533 167.900 C 341.607 167.735,342.012 167.600,342.433 167.600 C 342.855 167.600,343.200 167.420,343.200 167.200 C 343.200 166.980,343.520 166.800,343.912 166.800 C 344.303 166.800,344.883 166.440,345.200 166.000 C 345.517 165.560,346.097 165.200,346.488 165.200 C 346.880 165.200,347.200 165.020,347.200 164.800 C 347.200 164.580,347.481 164.400,347.824 164.400 C 348.167 164.400,348.336 164.220,348.200 164.000 C 348.064 163.780,348.284 163.600,348.688 163.600 C 349.093 163.600,349.683 163.240,350.000 162.800 C 350.317 162.360,350.907 162.000,351.312 162.000 C 351.716 162.000,351.936 161.820,351.800 161.600 C 351.664 161.380,351.761 161.200,352.016 161.200 C 352.271 161.200,352.956 160.704,353.540 160.099 C 354.123 159.493,355.230 158.521,356.000 157.938 C 358.259 156.228,360.400 154.129,360.400 153.622 C 360.400 153.364,360.580 153.264,360.800 153.400 C 361.020 153.536,361.200 153.367,361.200 153.024 C 361.200 152.681,361.380 152.400,361.600 152.400 C 361.820 152.400,362.000 152.206,362.000 151.969 C 362.000 151.731,362.720 150.846,363.600 150.000 C 364.480 149.154,365.200 148.260,365.200 148.013 C 365.200 147.766,365.653 147.110,366.208 146.556 C 366.762 146.002,367.131 145.413,367.029 145.247 C 366.927 145.081,367.193 144.693,367.621 144.385 C 368.050 144.076,368.400 143.569,368.400 143.259 C 368.400 142.948,368.788 142.358,369.261 141.947 C 369.735 141.536,369.977 141.200,369.799 141.200 C 369.621 141.200,369.739 140.885,370.061 140.500 C 371.344 138.964,374.713 131.186,374.479 130.300 C 374.436 130.135,374.580 130.000,374.800 130.000 C 375.020 130.000,375.200 129.460,375.200 128.800 C 375.200 128.140,375.380 127.600,375.600 127.600 C 375.820 127.600,376.000 126.880,376.000 126.000 C 376.000 125.120,376.180 124.400,376.400 124.400 C 376.620 124.400,376.800 123.669,376.800 122.776 C 376.800 121.796,376.958 121.251,377.200 121.400 C 377.448 121.553,377.600 120.812,377.600 119.447 C 377.600 118.237,377.780 117.136,378.000 117.000 C 378.250 116.845,378.400 112.804,378.400 106.200 C 378.400 99.596,378.250 95.555,378.000 95.400 C 377.780 95.264,377.600 94.263,377.600 93.176 C 377.600 92.089,377.420 91.200,377.200 91.200 C 376.980 91.200,376.800 90.480,376.800 89.600 C 376.800 88.720,376.620 88.000,376.400 88.000 C 376.180 88.000,376.000 87.381,376.000 86.624 C 376.000 85.867,375.820 85.136,375.600 85.000 C 375.380 84.864,375.200 84.343,375.200 83.843 C 375.200 83.343,375.065 82.798,374.900 82.633 C 374.735 82.468,374.588 82.213,374.574 82.067 C 374.434 80.622,372.362 75.600,371.906 75.600 C 371.738 75.600,371.600 75.240,371.600 74.800 C 371.600 74.360,371.464 74.000,371.298 74.000 C 370.986 74.000,369.901 71.815,369.998 71.382 C 370.028 71.249,369.681 70.817,369.226 70.423 C 368.772 70.029,368.400 69.452,368.400 69.141 C 368.400 68.831,368.040 68.317,367.600 68.000 C 367.160 67.683,366.800 67.143,366.800 66.800 C 366.800 66.457,366.440 65.917,366.000 65.600 C 365.560 65.283,365.200 64.885,365.200 64.716 C 365.200 64.376,364.277 63.193,362.900 61.768 C 362.405 61.256,362.000 60.739,362.000 60.620 C 362.000 60.299,355.317 53.600,354.997 53.600 C 354.845 53.600,354.217 53.060,353.600 52.400 C 352.983 51.740,352.281 51.200,352.040 51.200 C 351.798 51.200,351.600 51.020,351.600 50.800 C 351.600 50.580,351.412 50.400,351.182 50.400 C 350.952 50.400,350.328 49.964,349.795 49.431 C 349.262 48.898,348.460 48.346,348.013 48.204 C 347.566 48.062,347.200 47.778,347.200 47.573 C 347.200 47.368,346.906 47.200,346.547 47.200 C 346.188 47.200,345.558 46.812,345.147 46.339 C 344.736 45.865,344.400 45.601,344.400 45.752 C 344.400 45.902,343.621 45.591,342.668 45.059 C 341.716 44.527,340.591 43.917,340.168 43.703 C 339.746 43.489,338.832 43.019,338.138 42.657 C 337.444 42.296,336.510 42.000,336.062 42.000 C 335.614 42.000,335.136 41.820,335.000 41.600 C 334.864 41.380,334.324 41.200,333.800 41.200 C 333.276 41.200,332.736 41.020,332.600 40.800 C 332.464 40.580,331.903 40.400,331.353 40.400 C 330.788 40.400,330.460 40.226,330.600 40.000 C 330.749 39.758,330.204 39.600,329.224 39.600 C 328.331 39.600,327.600 39.420,327.600 39.200 C 327.600 38.980,326.880 38.800,326.000 38.800 C 325.120 38.800,324.400 38.620,324.400 38.400 C 324.400 38.180,323.511 38.000,322.424 38.000 C 321.337 38.000,320.336 37.820,320.200 37.600 C 320.036 37.335,279.537 37.200,200.000 37.200 C 120.463 37.200,79.964 37.335,79.800 37.600 M313.800 61.219 C 352.125 65.654,368.367 111.153,341.291 138.229 C 332.767 146.753,321.250 151.567,309.320 151.592 C 302.400 151.607,295.217 149.791,288.471 146.320 C 276.797 140.315,267.908 128.794,265.231 116.200 C 263.533 108.212,263.536 104.297,265.250 96.200 C 267.954 83.428,277.046 71.952,289.499 65.593 C 291.205 64.723,292.879 64.008,293.220 64.005 C 293.561 64.002,294.011 63.842,294.220 63.649 C 296.072 61.937,307.619 60.504,313.800 61.219 " stroke="none" fill="#64e4dc" fill-rule="evenodd"></path><path id="path2" d="M79.492 225.236 C 79.102 225.463,78.451 225.543,78.045 225.414 C 77.638 225.285,76.827 225.362,76.241 225.584 C 75.656 225.807,74.628 226.031,73.958 226.082 C 73.288 226.133,72.652 226.315,72.546 226.487 C 72.440 226.659,71.928 226.800,71.410 226.800 C 70.891 226.800,69.626 227.160,68.600 227.600 C 67.574 228.040,66.389 228.400,65.967 228.400 C 65.545 228.400,65.200 228.580,65.200 228.800 C 65.200 229.020,64.896 229.200,64.524 229.200 C 63.762 229.200,58.673 231.637,58.467 232.100 C 58.393 232.265,58.003 232.400,57.600 232.400 C 57.197 232.400,56.807 232.566,56.733 232.770 C 56.660 232.973,56.330 233.198,56.000 233.270 C 55.670 233.341,55.109 233.715,54.753 234.100 C 54.397 234.485,53.812 234.800,53.453 234.800 C 53.094 234.800,52.800 234.950,52.800 235.132 C 52.800 235.315,52.305 235.719,51.700 236.030 C 51.095 236.340,50.309 236.911,49.953 237.297 C 49.597 237.684,48.967 238.003,48.553 238.006 C 47.920 238.011,47.896 238.074,48.400 238.400 C 48.906 238.727,48.884 238.789,48.260 238.794 C 47.854 238.797,47.017 239.340,46.400 240.000 C 45.783 240.660,45.071 241.200,44.816 241.200 C 44.561 241.200,44.464 241.380,44.600 241.600 C 44.736 241.820,44.577 242.000,44.246 242.000 C 43.916 242.000,43.394 242.359,43.087 242.797 C 42.780 243.236,42.409 243.476,42.264 243.331 C 42.119 243.186,42.000 243.377,42.000 243.757 C 42.000 244.137,41.820 244.336,41.600 244.200 C 41.380 244.064,41.200 244.244,41.200 244.600 C 41.200 244.956,41.020 245.136,40.800 245.000 C 40.580 244.864,40.400 245.044,40.400 245.400 C 40.400 245.756,40.220 245.936,40.000 245.800 C 39.780 245.664,39.600 245.844,39.600 246.200 C 39.600 246.556,39.420 246.736,39.200 246.600 C 38.980 246.464,38.800 246.734,38.800 247.200 C 38.800 247.666,38.620 247.936,38.400 247.800 C 38.180 247.664,38.000 247.761,38.000 248.016 C 38.000 248.271,37.460 248.983,36.800 249.600 C 36.140 250.217,35.600 250.929,35.600 251.184 C 35.600 251.439,35.392 251.519,35.138 251.362 C 34.868 251.195,34.784 251.251,34.937 251.498 C 35.080 251.729,34.658 252.495,34.000 253.200 C 33.342 253.905,32.883 254.610,32.980 254.768 C 33.077 254.925,32.807 255.307,32.379 255.615 C 31.950 255.924,31.600 256.431,31.600 256.741 C 31.600 257.052,31.228 257.629,30.774 258.023 C 30.319 258.417,29.939 258.888,29.929 259.070 C 29.887 259.807,28.285 262.800,27.932 262.800 C 27.724 262.800,27.648 262.953,27.764 263.141 C 27.880 263.329,27.716 263.824,27.400 264.241 C 27.084 264.658,26.820 265.405,26.813 265.900 C 26.806 266.395,26.643 266.800,26.450 266.800 C 26.123 266.800,25.428 269.034,25.546 269.700 C 25.576 269.865,25.420 270.000,25.200 270.000 C 24.980 270.000,24.800 270.540,24.800 271.200 C 24.800 271.860,24.620 272.400,24.400 272.400 C 24.180 272.400,24.000 273.120,24.000 274.000 C 24.000 274.880,23.820 275.600,23.600 275.600 C 23.380 275.600,23.200 276.331,23.200 277.224 C 23.200 278.204,23.042 278.749,22.800 278.600 C 22.550 278.445,22.400 279.270,22.400 280.800 C 22.400 282.330,22.250 283.155,22.000 283.000 C 21.737 282.838,21.600 286.388,21.600 293.353 C 21.600 299.988,21.750 304.045,22.000 304.200 C 22.220 304.336,22.400 305.427,22.400 306.624 C 22.400 307.821,22.580 308.800,22.800 308.800 C 23.020 308.800,23.200 309.520,23.200 310.400 C 23.200 311.280,23.380 312.000,23.600 312.000 C 23.820 312.000,24.000 312.720,24.000 313.600 C 24.000 314.480,24.180 315.200,24.400 315.200 C 24.620 315.200,24.800 315.661,24.800 316.224 C 24.800 316.903,24.957 317.150,25.268 316.958 C 25.586 316.761,25.651 316.890,25.471 317.360 C 25.325 317.740,25.479 318.579,25.813 319.225 C 26.147 319.871,26.305 320.400,26.164 320.400 C 26.023 320.400,26.203 320.850,26.563 321.400 C 26.924 321.950,27.102 322.400,26.960 322.400 C 26.818 322.400,26.892 322.629,27.125 322.909 C 27.878 323.817,30.000 328.064,30.000 328.664 C 30.000 328.985,30.180 329.136,30.400 329.000 C 30.620 328.864,30.800 329.033,30.800 329.376 C 30.800 329.719,30.980 330.000,31.200 330.000 C 31.420 330.000,31.600 330.236,31.600 330.525 C 31.600 330.813,31.960 331.436,32.400 331.908 C 32.840 332.380,33.200 332.927,33.200 333.124 C 33.200 333.321,33.695 334.016,34.300 334.668 C 34.905 335.321,35.454 336.094,35.519 336.385 C 35.585 336.676,36.170 337.411,36.819 338.018 C 37.469 338.625,38.000 339.329,38.000 339.584 C 38.000 339.839,38.180 339.936,38.400 339.800 C 38.620 339.664,38.800 339.750,38.800 339.990 C 38.800 340.552,43.860 345.600,44.423 345.600 C 44.656 345.600,44.736 345.780,44.600 346.000 C 44.464 346.220,44.549 346.400,44.790 346.400 C 45.030 346.400,45.842 347.015,46.593 347.767 C 47.345 348.518,48.329 349.251,48.780 349.394 C 49.231 349.537,49.600 349.779,49.600 349.933 C 49.600 350.086,50.320 350.656,51.200 351.200 C 52.080 351.744,52.800 352.326,52.800 352.494 C 52.800 352.662,53.160 352.800,53.600 352.800 C 54.040 352.800,54.400 352.980,54.400 353.200 C 54.400 353.420,54.670 353.600,55.000 353.600 C 55.330 353.600,55.600 353.780,55.600 354.000 C 55.600 354.220,55.870 354.400,56.200 354.400 C 56.530 354.400,56.800 354.580,56.800 354.800 C 56.800 355.020,57.160 355.200,57.600 355.200 C 58.040 355.200,58.400 355.410,58.400 355.667 C 58.400 355.923,58.520 356.013,58.668 355.866 C 58.815 355.719,59.265 355.897,59.668 356.261 C 60.070 356.626,60.400 356.802,60.400 356.653 C 60.400 356.504,60.819 356.656,61.332 356.992 C 61.844 357.328,62.384 357.482,62.532 357.335 C 62.679 357.187,62.800 357.277,62.800 357.533 C 62.800 357.790,63.162 358.000,63.605 358.000 C 64.048 358.000,64.768 358.180,65.205 358.400 C 65.642 358.620,66.358 358.980,66.795 359.200 C 67.232 359.420,67.941 359.600,68.371 359.600 C 68.801 359.600,69.264 359.780,69.400 360.000 C 69.536 360.220,70.267 360.400,71.024 360.400 C 71.781 360.400,72.400 360.580,72.400 360.800 C 72.400 361.020,73.109 361.200,73.976 361.200 C 74.843 361.200,75.664 361.380,75.800 361.600 C 75.936 361.820,76.937 362.000,78.024 362.000 C 79.111 362.000,80.000 362.180,80.000 362.400 C 80.000 362.666,120.267 362.800,200.000 362.800 C 279.733 362.800,320.000 362.666,320.000 362.400 C 320.000 362.180,320.889 362.000,321.976 362.000 C 323.063 362.000,324.064 361.820,324.200 361.600 C 324.336 361.380,325.157 361.200,326.024 361.200 C 326.891 361.200,327.600 361.020,327.600 360.800 C 327.600 360.580,328.219 360.400,328.976 360.400 C 329.733 360.400,330.464 360.220,330.600 360.000 C 330.736 359.780,331.199 359.600,331.629 359.600 C 332.059 359.600,332.768 359.420,333.205 359.200 C 333.642 358.980,334.358 358.620,334.795 358.400 C 335.232 358.180,335.871 358.000,336.214 358.000 C 336.558 358.000,337.416 357.693,338.120 357.317 C 338.824 356.941,339.490 356.602,339.600 356.563 C 339.710 356.524,340.205 356.361,340.700 356.200 C 341.195 356.038,341.600 355.748,341.600 355.553 C 341.600 355.359,341.960 355.200,342.400 355.200 C 342.840 355.200,343.200 355.020,343.200 354.800 C 343.200 354.580,343.470 354.400,343.800 354.400 C 344.130 354.400,344.400 354.220,344.400 354.000 C 344.400 353.780,344.670 353.600,345.000 353.600 C 345.330 353.600,345.600 353.420,345.600 353.200 C 345.600 352.980,345.825 352.800,346.100 352.800 C 346.375 352.799,347.123 352.349,347.762 351.800 C 348.401 351.250,349.068 350.800,349.244 350.800 C 349.420 350.800,350.003 350.361,350.539 349.824 C 351.076 349.288,351.620 348.953,351.748 349.081 C 351.876 349.210,352.095 349.019,352.233 348.657 C 352.372 348.296,352.697 348.000,352.954 348.000 C 353.212 348.000,353.683 347.640,354.000 347.200 C 354.317 346.760,354.817 346.400,355.112 346.400 C 355.406 346.400,355.536 346.220,355.400 346.000 C 355.264 345.780,355.354 345.600,355.601 345.600 C 356.140 345.600,361.200 340.482,361.200 339.937 C 361.200 339.725,361.380 339.664,361.600 339.800 C 361.820 339.936,362.000 339.857,362.000 339.625 C 362.000 339.392,362.630 338.534,363.400 337.718 C 364.170 336.901,364.800 336.119,364.800 335.979 C 364.800 335.839,365.250 335.201,365.800 334.562 C 366.349 333.923,366.799 333.257,366.800 333.083 C 366.800 332.909,367.160 332.380,367.600 331.908 C 368.040 331.436,368.400 330.813,368.400 330.525 C 368.400 330.236,368.580 330.000,368.800 330.000 C 369.020 330.000,369.200 329.730,369.200 329.400 C 369.200 329.070,369.380 328.800,369.600 328.800 C 369.820 328.800,370.000 328.530,370.000 328.200 C 370.000 327.870,370.180 327.600,370.400 327.600 C 370.620 327.600,370.800 327.335,370.800 327.012 C 370.800 326.432,372.103 323.871,372.892 322.900 C 373.115 322.625,373.164 322.400,373.000 322.400 C 372.836 322.400,372.911 322.148,373.166 321.841 C 373.421 321.533,373.706 320.948,373.800 320.541 C 374.046 319.465,375.259 315.916,375.658 315.105 C 375.846 314.723,376.000 313.868,376.000 313.205 C 376.000 312.542,376.180 312.000,376.400 312.000 C 376.620 312.000,376.800 311.280,376.800 310.400 C 376.800 309.520,376.980 308.800,377.200 308.800 C 377.420 308.800,377.600 307.911,377.600 306.824 C 377.600 305.737,377.780 304.736,378.000 304.600 C 378.250 304.445,378.400 300.404,378.400 293.800 C 378.400 287.196,378.250 283.155,378.000 283.000 C 377.780 282.864,377.600 281.773,377.600 280.576 C 377.600 279.379,377.420 278.400,377.200 278.400 C 376.980 278.400,376.800 277.770,376.800 277.000 C 376.800 276.230,376.620 275.600,376.400 275.600 C 376.180 275.600,376.000 274.880,376.000 274.000 C 376.000 273.120,375.840 272.400,375.644 272.400 C 375.448 272.400,375.193 271.815,375.078 271.100 C 374.790 269.313,373.869 266.800,373.502 266.800 C 373.336 266.800,373.200 266.485,373.201 266.100 C 373.202 265.464,371.691 262.080,371.192 261.600 C 370.920 261.339,369.907 259.039,369.989 258.870 C 370.024 258.798,369.681 258.417,369.226 258.023 C 368.772 257.629,368.400 257.052,368.400 256.741 C 368.400 256.431,368.050 255.924,367.621 255.615 C 367.193 255.307,366.923 254.925,367.020 254.768 C 367.117 254.610,366.658 253.905,366.000 253.200 C 365.342 252.495,364.920 251.729,365.063 251.498 C 365.216 251.251,365.132 251.195,364.862 251.362 C 364.608 251.519,364.400 251.439,364.400 251.184 C 364.400 250.929,363.905 250.244,363.300 249.660 C 362.695 249.077,361.948 248.111,361.640 247.514 C 361.332 246.916,360.927 246.522,360.740 246.637 C 360.553 246.753,360.400 246.556,360.400 246.200 C 360.400 245.844,360.220 245.664,360.000 245.800 C 359.780 245.936,359.600 245.756,359.600 245.400 C 359.600 245.044,359.420 244.864,359.200 245.000 C 358.980 245.136,358.800 244.956,358.800 244.600 C 358.800 244.244,358.620 244.064,358.400 244.200 C 358.180 244.336,358.000 244.137,358.000 243.757 C 358.000 243.377,357.896 243.171,357.769 243.297 C 357.642 243.424,357.038 243.004,356.426 242.364 C 355.814 241.724,355.180 241.200,355.017 241.200 C 354.854 241.200,354.217 240.660,353.600 240.000 C 352.983 239.340,352.271 238.800,352.016 238.800 C 351.761 238.800,351.664 238.620,351.800 238.400 C 351.936 238.180,351.765 238.000,351.420 238.000 C 351.075 238.000,350.228 237.460,349.537 236.800 C 348.846 236.140,348.038 235.600,347.741 235.600 C 347.443 235.600,347.200 235.420,347.200 235.200 C 347.200 234.980,346.880 234.800,346.488 234.800 C 346.097 234.800,345.517 234.440,345.200 234.000 C 344.883 233.560,344.303 233.200,343.912 233.200 C 343.520 233.200,343.200 233.020,343.200 232.800 C 343.200 232.580,342.840 232.400,342.400 232.400 C 341.960 232.400,341.599 232.265,341.597 232.100 C 341.593 231.741,339.656 230.800,338.920 230.800 C 338.634 230.800,338.399 230.665,338.397 230.500 C 338.393 230.102,336.421 229.200,335.554 229.200 C 335.176 229.200,334.807 229.031,334.733 228.825 C 334.660 228.618,334.150 228.380,333.600 228.296 C 333.050 228.212,331.903 227.841,331.051 227.472 C 330.199 227.102,329.104 226.800,328.618 226.800 C 328.131 226.800,327.608 226.675,327.455 226.522 C 327.302 226.369,326.867 226.199,326.488 226.145 C 326.110 226.091,325.170 225.910,324.400 225.744 C 323.630 225.577,322.460 225.366,321.800 225.274 C 318.938 224.875,80.175 224.837,79.492 225.236 M98.000 248.594 C 101.811 249.329,103.987 249.823,105.000 250.186 C 131.660 259.730,143.773 288.683,131.697 314.000 C 130.761 315.962,127.833 320.679,127.228 321.200 C 127.100 321.310,126.525 322.030,125.950 322.800 C 124.608 324.597,121.397 327.808,119.600 329.150 C 118.830 329.725,118.110 330.298,118.000 330.424 C 116.172 332.514,106.634 337.031,102.000 338.001 C 100.790 338.254,99.247 338.628,98.572 338.831 C 96.855 339.347,84.815 339.293,82.506 338.759 C 70.006 335.870,62.676 331.487,54.793 322.188 C 39.324 303.942,43.098 271.056,62.156 258.023 C 62.620 257.706,63.090 257.332,63.200 257.193 C 63.692 256.571,68.439 253.654,70.800 252.523 C 75.503 250.271,76.800 249.851,82.800 248.635 C 86.376 247.910,94.342 247.889,98.000 248.594 " stroke="none" fill="#fc5454" fill-rule="evenodd"></path><path id="path3" d="M87.682 248.296 C 89.158 248.373,91.678 248.373,93.282 248.297 C 94.887 248.221,93.680 248.158,90.600 248.158 C 87.520 248.157,86.207 248.219,87.682 248.296 M81.800 248.824 C 78.524 249.487,76.953 249.908,75.200 250.589 C 72.629 251.588,69.200 253.225,69.200 253.453 C 69.200 253.560,69.335 253.582,69.500 253.502 C 74.972 250.845,77.127 250.119,82.386 249.160 C 84.583 248.760,85.594 248.357,84.167 248.450 C 83.745 248.478,82.680 248.646,81.800 248.824 M97.400 248.781 C 99.247 249.297,101.885 249.612,101.200 249.235 C 100.870 249.053,99.610 248.801,98.400 248.675 C 96.870 248.515,96.565 248.547,97.400 248.781 M102.600 249.870 C 103.040 249.968,104.097 250.315,104.950 250.641 C 105.802 250.967,106.593 251.140,106.707 251.026 C 106.821 250.912,106.574 250.710,106.157 250.577 C 105.741 250.444,104.987 250.170,104.481 249.967 C 103.976 249.765,103.166 249.621,102.681 249.646 C 101.877 249.689,101.870 249.708,102.600 249.870 M108.000 251.724 C 109.328 252.413,110.400 252.812,110.400 252.617 C 110.400 252.376,107.937 251.200,107.439 251.202 C 107.197 251.204,107.450 251.438,108.000 251.724 M66.881 254.572 C 64.921 255.958,64.785 256.265,66.600 255.205 C 68.478 254.110,69.125 253.591,68.580 253.620 C 68.371 253.630,67.607 254.059,66.881 254.572 M112.800 254.020 C 114.187 254.961,114.978 255.235,114.000 254.436 C 113.450 253.986,112.820 253.617,112.600 253.615 C 112.380 253.613,112.470 253.796,112.800 254.020 M116.400 256.149 C 116.400 256.235,117.030 256.786,117.800 257.373 C 118.570 257.960,119.198 258.297,119.195 258.120 C 119.192 257.944,118.562 257.393,117.795 256.896 C 117.028 256.399,116.400 256.063,116.400 256.149 M59.599 260.133 C 54.517 264.842,48.978 273.073,47.846 277.600 L 47.596 278.600 48.060 277.600 C 51.682 269.805,53.688 266.742,58.236 262.059 C 61.854 258.333,62.450 257.492,59.599 260.133 M122.591 261.511 C 124.345 263.320,125.862 264.800,125.960 264.800 C 126.337 264.800,122.575 260.897,120.574 259.211 C 119.928 258.667,120.836 259.702,122.591 261.511 M127.027 266.600 C 128.400 268.400,128.668 268.403,127.504 266.605 C 127.007 265.838,126.456 265.208,126.280 265.205 C 126.103 265.202,126.440 265.830,127.027 266.600 M129.015 269.500 C 130.356 271.585,130.800 272.177,130.800 271.880 C 130.800 271.496,128.755 268.400,128.501 268.400 C 128.395 268.400,128.626 268.895,129.015 269.500 M130.898 272.700 C 132.690 276.390,133.985 279.832,134.622 282.600 C 134.774 283.260,134.976 283.591,135.071 283.335 C 135.409 282.423,131.629 272.400,130.947 272.400 C 130.840 272.400,130.818 272.535,130.898 272.700 M47.000 279.600 C 46.850 280.073,46.817 280.550,46.927 280.660 C 47.037 280.770,47.250 280.473,47.400 280.000 C 47.550 279.527,47.583 279.050,47.473 278.940 C 47.363 278.830,47.150 279.127,47.000 279.600 M46.446 281.667 C 46.421 282.034,46.296 282.664,46.170 283.067 C 45.952 283.762,45.963 283.763,46.397 283.087 C 46.648 282.696,46.773 282.066,46.673 281.687 C 46.511 281.068,46.488 281.066,46.446 281.667 M135.293 285.000 C 135.294 285.660,135.432 286.740,135.600 287.400 C 136.023 289.063,136.042 287.426,135.623 285.400 C 135.345 284.055,135.292 283.991,135.293 285.000 M45.400 286.400 C 45.246 287.310,45.211 288.144,45.321 288.254 C 45.431 288.364,45.646 287.710,45.800 286.800 C 45.954 285.890,45.989 285.056,45.879 284.946 C 45.769 284.836,45.554 285.490,45.400 286.400 M136.153 293.800 C 136.153 296.440,136.218 297.468,136.297 296.084 C 136.375 294.701,136.374 292.541,136.295 291.284 C 136.216 290.028,136.152 291.160,136.153 293.800 M45.280 300.000 C 45.280 300.550,45.424 301.450,45.600 302.000 L 45.920 303.000 45.920 302.000 C 45.920 301.450,45.776 300.550,45.600 300.000 L 45.280 299.000 45.280 300.000 M135.482 300.350 C 135.327 301.093,135.220 302.173,135.244 302.750 C 135.273 303.442,135.410 303.187,135.647 302.000 C 135.845 301.010,135.952 299.930,135.885 299.600 C 135.819 299.270,135.638 299.608,135.482 300.350 M46.056 304.000 C 46.056 304.330,46.211 304.960,46.400 305.400 C 46.617 305.904,46.744 305.978,46.744 305.600 C 46.744 305.270,46.589 304.640,46.400 304.200 C 46.183 303.696,46.056 303.622,46.056 304.000 M134.568 305.100 C 133.668 309.102,131.287 314.487,128.629 318.534 C 127.666 320.000,126.995 321.198,127.139 321.197 C 128.383 321.180,134.178 309.368,134.937 305.300 C 135.232 303.724,134.916 303.553,134.568 305.100 M47.855 310.000 C 48.202 311.333,50.425 315.968,50.841 316.226 C 51.023 316.338,50.582 315.208,49.861 313.715 C 49.140 312.222,48.336 310.550,48.073 310.000 L 47.596 309.000 47.855 310.000 M51.200 316.938 C 51.200 317.404,53.783 321.185,54.107 321.193 C 54.275 321.197,53.764 320.255,52.971 319.100 C 51.345 316.734,51.200 316.557,51.200 316.938 M122.498 325.862 C 120.242 328.169,118.892 329.703,119.498 329.270 C 121.479 327.856,127.585 321.406,126.727 321.634 C 126.657 321.652,124.754 323.555,122.498 325.862 M58.014 325.836 C 61.681 329.586,71.197 336.022,73.033 335.994 C 73.235 335.991,71.695 335.071,69.612 333.950 C 65.200 331.575,61.939 329.191,58.644 325.931 C 57.348 324.649,56.184 323.600,56.057 323.600 C 55.931 323.600,56.811 324.606,58.014 325.836 M115.361 331.777 C 114.019 332.670,112.579 333.628,112.161 333.906 C 111.742 334.184,112.030 334.114,112.800 333.749 C 113.912 333.224,117.088 331.248,117.967 330.535 C 119.026 329.676,117.239 330.528,115.361 331.777 M104.000 337.200 C 103.467 337.545,103.467 337.588,104.000 337.588 C 104.330 337.588,104.870 337.413,105.200 337.200 C 105.733 336.855,105.733 336.812,105.200 336.812 C 104.870 336.812,104.330 336.987,104.000 337.200 M79.200 338.000 C 79.530 338.213,80.070 338.388,80.400 338.388 C 80.933 338.388,80.933 338.345,80.400 338.000 C 80.070 337.787,79.530 337.612,79.200 337.612 C 78.667 337.612,78.667 337.655,79.200 338.000 M101.000 338.000 C 100.496 338.217,100.422 338.344,100.800 338.344 C 101.130 338.344,101.760 338.189,102.200 338.000 C 102.704 337.783,102.778 337.656,102.400 337.656 C 102.070 337.656,101.440 337.811,101.000 338.000 M83.000 338.800 C 83.440 338.989,84.250 339.138,84.800 339.132 L 85.800 339.120 84.800 338.800 C 84.250 338.624,83.440 338.474,83.000 338.468 L 82.200 338.456 83.000 338.800 M96.400 338.800 C 95.420 339.114,95.424 339.121,96.600 339.154 C 97.260 339.173,98.070 339.013,98.400 338.800 C 99.158 338.310,97.930 338.310,96.400 338.800 " stroke="none" fill="#f47778" fill-rule="evenodd"></path><path id="path4" d="M84.076 248.740 C 83.568 248.883,86.504 249.000,90.600 249.000 C 94.696 249.000,97.632 248.883,97.124 248.740 C 96.616 248.597,93.680 248.480,90.600 248.480 C 87.520 248.480,84.584 248.597,84.076 248.740 M80.000 249.600 C 79.242 250.090,80.470 250.090,82.000 249.600 C 82.980 249.286,82.976 249.279,81.800 249.246 C 81.140 249.227,80.330 249.387,80.000 249.600 M101.074 249.997 C 103.630 250.667,105.668 251.305,108.200 252.227 C 108.739 252.423,108.870 252.385,108.600 252.112 C 107.849 251.351,100.704 249.181,99.080 249.222 C 98.596 249.234,99.493 249.583,101.074 249.997 M75.800 250.800 C 73.709 251.768,74.424 251.777,77.200 250.817 C 78.615 250.327,79.043 250.057,78.400 250.058 C 77.850 250.059,76.680 250.393,75.800 250.800 M109.200 252.581 C 109.200 252.681,109.875 253.074,110.700 253.455 C 111.525 253.835,112.952 254.654,113.872 255.273 C 114.792 255.893,115.737 256.400,115.972 256.400 C 116.207 256.400,116.400 256.541,116.400 256.714 C 116.400 256.886,116.963 257.360,117.652 257.767 C 120.967 259.725,129.262 269.503,130.539 272.957 C 130.693 273.374,130.932 273.601,131.070 273.463 C 131.687 272.846,127.073 266.252,123.234 262.265 C 118.850 257.714,109.200 251.054,109.200 252.581 M67.386 254.714 C 51.765 264.331,42.141 284.489,45.611 300.323 C 45.838 301.355,46.214 303.100,46.448 304.200 C 54.476 341.949,106.790 351.680,128.062 319.381 C 131.039 314.861,134.034 308.701,133.510 308.177 C 133.403 308.070,132.996 308.841,132.606 309.891 C 130.974 314.283,127.467 320.120,124.729 323.000 C 123.893 323.880,123.207 324.707,123.204 324.837 C 123.179 326.258,112.135 333.676,107.257 335.549 C 68.681 350.358,31.921 310.218,50.444 273.511 C 54.216 266.038,66.010 254.000,69.561 254.000 C 69.777 254.000,70.064 253.820,70.200 253.600 C 70.642 252.885,69.845 253.200,67.386 254.714 M132.000 275.634 C 132.000 276.194,134.360 282.482,134.378 281.969 C 134.403 281.250,132.672 276.139,132.267 275.733 C 132.120 275.587,132.000 275.542,132.000 275.634 M134.553 284.000 C 135.449 288.673,135.679 291.556,135.510 296.000 C 135.405 298.750,135.454 300.550,135.620 300.000 C 136.455 297.223,135.646 283.851,134.584 282.875 C 134.420 282.724,134.406 283.230,134.553 284.000 M134.864 301.650 C 134.829 302.007,134.698 302.907,134.573 303.650 C 134.388 304.755,134.429 304.871,134.798 304.291 C 135.046 303.902,135.177 303.002,135.089 302.291 C 135.000 301.581,134.899 301.293,134.864 301.650 M133.829 306.229 C 133.681 306.815,133.651 307.384,133.761 307.494 C 133.871 307.604,134.081 307.215,134.229 306.629 C 134.376 306.042,134.406 305.473,134.296 305.363 C 134.186 305.253,133.976 305.642,133.829 306.229 " stroke="none" fill="#f0a4a4" fill-rule="evenodd"></path></g></svg>