<svg id="svg" version="1.1" xmlns="http://www.w3.org/2000/svg" xmlns:xlink="http://www.w3.org/1999/xlink" width="400" height="400" viewBox="0, 0, 400,400"><g id="svgg"><path id="path0" d="M142.800 2.400 C 142.800 2.646,140.800 2.800,137.600 2.800 C 134.400 2.800,132.400 2.954,132.400 3.200 C 132.400 3.422,131.333 3.600,130.000 3.600 C 128.667 3.600,127.600 3.778,127.600 4.000 C 127.600 4.220,126.790 4.400,125.800 4.400 C 124.810 4.400,124.000 4.580,124.000 4.800 C 124.000 5.020,123.460 5.200,122.800 5.200 C 122.140 5.200,121.600 5.380,121.600 5.600 C 121.600 5.820,120.981 6.000,120.224 6.000 C 119.467 6.000,118.736 6.180,118.600 6.400 C 118.464 6.620,118.003 6.800,117.576 6.800 C 117.149 6.800,116.800 6.980,116.800 7.200 C 116.800 7.420,116.260 7.600,115.600 7.600 C 114.940 7.600,114.400 7.760,114.400 7.955 C 114.400 8.150,113.905 8.406,113.300 8.525 C 111.545 8.869,109.200 9.769,109.200 10.098 C 109.200 10.264,108.840 10.400,108.400 10.400 C 107.960 10.400,107.600 10.580,107.600 10.800 C 107.600 11.020,107.240 11.200,106.800 11.200 C 106.360 11.200,106.000 11.380,106.000 11.600 C 106.000 11.820,105.764 12.000,105.475 12.000 C 105.187 12.000,104.564 12.360,104.092 12.800 C 103.620 13.240,102.956 13.600,102.617 13.600 C 102.278 13.600,102.000 13.780,102.000 14.000 C 102.000 14.220,101.775 14.400,101.500 14.400 C 101.225 14.401,100.482 14.847,99.848 15.392 C 99.214 15.937,98.511 16.269,98.286 16.130 C 98.051 15.984,97.998 16.073,98.162 16.338 C 98.331 16.612,98.193 16.800,97.824 16.800 C 97.481 16.800,97.200 16.950,97.200 17.132 C 97.200 17.315,96.705 17.720,96.100 18.032 C 95.495 18.345,94.523 19.095,93.940 19.700 C 93.356 20.305,92.767 20.800,92.631 20.800 C 92.494 20.800,91.352 21.796,90.091 23.014 C 83.993 28.905,82.400 30.528,82.400 30.850 C 82.400 31.042,81.680 31.941,80.800 32.848 C 79.920 33.755,79.200 34.705,79.200 34.960 C 79.200 35.215,78.840 35.683,78.400 36.000 C 77.960 36.317,77.600 36.814,77.600 37.105 C 77.600 37.396,77.417 37.851,77.194 38.117 C 76.390 39.075,74.936 41.444,74.376 42.709 C 74.062 43.419,73.669 44.000,73.502 44.000 C 73.336 44.000,73.200 44.360,73.200 44.800 C 73.200 45.240,73.020 45.600,72.800 45.600 C 72.580 45.600,72.400 45.960,72.400 46.400 C 72.400 46.840,72.220 47.200,72.000 47.200 C 71.780 47.200,71.600 47.560,71.600 48.000 C 71.600 48.440,71.420 48.800,71.200 48.800 C 70.980 48.800,70.800 49.160,70.800 49.600 C 70.800 50.040,70.620 50.400,70.400 50.400 C 70.180 50.400,70.000 50.940,70.000 51.600 C 70.000 52.260,69.820 52.800,69.600 52.800 C 69.380 52.800,69.200 53.160,69.200 53.600 C 69.200 54.040,69.020 54.400,68.800 54.400 C 68.580 54.400,68.400 54.940,68.400 55.600 C 68.400 56.260,68.220 56.800,68.000 56.800 C 67.780 56.800,67.600 57.340,67.600 58.000 C 67.600 58.660,67.420 59.200,67.200 59.200 C 66.980 59.200,66.800 59.830,66.800 60.600 C 66.800 61.370,66.620 62.000,66.400 62.000 C 66.180 62.000,66.000 62.720,66.000 63.600 C 66.000 64.480,65.820 65.200,65.600 65.200 C 65.380 65.200,65.200 66.089,65.200 67.176 C 65.200 68.263,65.020 69.264,64.800 69.400 C 64.580 69.536,64.400 71.167,64.400 73.024 C 64.400 75.008,64.235 76.400,64.000 76.400 C 63.461 76.400,63.461 88.267,64.000 88.600 C 64.220 88.736,64.400 90.367,64.400 92.224 C 64.400 94.208,64.565 95.600,64.800 95.600 C 65.020 95.600,65.200 96.500,65.200 97.600 C 65.200 98.700,65.380 99.600,65.600 99.600 C 65.820 99.600,66.000 100.320,66.000 101.200 C 66.000 102.080,66.180 102.800,66.400 102.800 C 66.620 102.800,66.800 103.419,66.800 104.176 C 66.800 104.933,66.980 105.664,67.200 105.800 C 67.420 105.936,67.600 106.487,67.600 107.024 C 67.600 107.561,67.780 108.000,68.000 108.000 C 68.220 108.000,68.400 108.540,68.400 109.200 C 68.400 109.860,68.580 110.400,68.800 110.400 C 69.020 110.400,69.200 110.940,69.200 111.600 C 69.200 112.260,69.380 112.800,69.600 112.800 C 69.820 112.800,70.000 113.160,70.000 113.600 C 70.000 114.040,70.180 114.400,70.400 114.400 C 70.620 114.400,70.800 114.760,70.800 115.200 C 70.800 115.640,70.980 116.000,71.200 116.000 C 71.420 116.000,71.600 116.461,71.600 117.024 C 71.600 117.604,71.773 117.940,72.000 117.800 C 72.220 117.664,72.400 117.923,72.400 118.376 C 72.400 118.829,72.580 119.200,72.800 119.200 C 73.020 119.200,73.200 119.560,73.200 120.000 C 73.200 120.440,73.380 120.800,73.600 120.800 C 73.820 120.800,74.000 121.160,74.000 121.600 C 74.000 122.040,74.135 122.401,74.300 122.401 C 74.465 122.402,74.933 123.212,75.340 124.201 C 75.746 125.191,76.241 126.000,76.440 126.000 C 76.638 126.000,76.800 126.243,76.800 126.541 C 76.800 126.838,77.340 127.646,78.000 128.337 C 78.660 129.028,79.200 129.792,79.200 130.036 C 79.200 130.280,79.740 130.983,80.400 131.600 C 81.060 132.217,81.600 132.925,81.600 133.174 C 81.600 133.424,83.392 135.377,85.583 137.514 C 89.220 141.063,90.702 142.437,95.378 146.596 C 96.246 147.368,97.191 148.000,97.478 148.000 C 97.765 148.000,98.000 148.150,98.000 148.332 C 98.000 148.515,98.495 148.920,99.100 149.232 C 99.705 149.545,100.549 150.115,100.975 150.500 C 101.402 150.885,101.987 151.200,102.275 151.200 C 102.564 151.200,102.800 151.380,102.800 151.600 C 102.800 151.820,103.160 152.000,103.600 152.000 C 104.040 152.000,104.400 152.180,104.400 152.400 C 104.400 153.217,105.911 152.785,106.148 151.900 C 106.466 150.713,106.379 122.502,106.053 121.159 C 105.773 120.005,104.657 118.466,102.100 115.707 C 101.165 114.698,100.400 113.671,100.400 113.425 C 100.400 113.178,100.040 112.717,99.600 112.400 C 99.160 112.083,98.800 111.503,98.800 111.112 C 98.800 110.720,98.620 110.400,98.400 110.400 C 98.180 110.400,98.000 110.170,98.000 109.888 C 98.000 109.607,97.640 109.117,97.200 108.800 C 96.760 108.483,96.400 107.903,96.400 107.512 C 96.400 107.120,96.220 106.800,96.000 106.800 C 95.780 106.800,95.600 106.440,95.600 106.000 C 95.600 105.560,95.420 105.200,95.200 105.200 C 94.980 105.200,94.800 104.840,94.800 104.400 C 94.800 103.960,94.620 103.600,94.400 103.600 C 94.180 103.600,94.000 103.060,94.000 102.400 C 94.000 101.740,93.820 101.200,93.600 101.200 C 93.380 101.200,93.200 100.739,93.200 100.176 C 93.200 99.596,93.027 99.260,92.800 99.400 C 92.564 99.546,92.400 99.097,92.400 98.304 C 92.400 97.565,92.238 96.789,92.041 96.580 C 90.239 94.673,90.268 67.600,92.072 67.600 C 92.252 67.600,92.400 67.060,92.400 66.400 C 92.400 65.740,92.580 65.200,92.800 65.200 C 93.020 65.200,93.200 64.761,93.200 64.224 C 93.200 63.687,93.380 63.136,93.600 63.000 C 93.820 62.864,94.000 62.403,94.000 61.976 C 94.000 61.549,94.180 61.200,94.400 61.200 C 94.620 61.200,94.800 60.840,94.800 60.400 C 94.800 59.960,94.980 59.600,95.200 59.600 C 95.420 59.600,95.600 59.240,95.600 58.800 C 95.600 58.360,95.780 58.000,96.000 58.000 C 96.220 58.000,96.400 57.730,96.400 57.400 C 96.400 57.070,96.580 56.800,96.800 56.800 C 97.020 56.800,97.200 56.440,97.200 56.000 C 97.200 55.560,97.350 55.200,97.532 55.200 C 97.715 55.200,98.120 54.705,98.432 54.100 C 98.745 53.495,99.315 52.651,99.700 52.225 C 100.085 51.798,100.400 51.297,100.400 51.111 C 100.400 50.925,101.030 50.143,101.800 49.373 C 102.570 48.603,103.200 47.809,103.200 47.609 C 103.200 47.409,104.280 46.145,105.600 44.800 C 106.920 43.455,108.000 42.185,108.000 41.977 C 108.000 41.770,108.278 41.600,108.617 41.600 C 109.230 41.600,109.633 41.331,111.319 39.800 C 111.804 39.360,112.695 38.745,113.300 38.432 C 113.905 38.120,114.400 37.715,114.400 37.532 C 114.400 37.350,114.720 37.200,115.112 37.200 C 115.503 37.200,116.083 36.840,116.400 36.400 C 116.717 35.960,117.297 35.600,117.688 35.600 C 118.080 35.600,118.400 35.420,118.400 35.200 C 118.400 34.980,118.760 34.800,119.200 34.800 C 119.640 34.800,120.000 34.620,120.000 34.400 C 120.000 34.180,120.360 34.000,120.800 34.000 C 121.240 34.000,121.600 33.820,121.600 33.600 C 121.600 33.380,121.960 33.200,122.400 33.200 C 122.840 33.200,123.200 33.020,123.200 32.800 C 123.200 32.580,123.635 32.400,124.167 32.400 C 124.698 32.400,125.193 32.222,125.267 32.003 C 125.340 31.785,125.895 31.566,126.500 31.516 C 127.105 31.466,127.600 31.285,127.600 31.113 C 127.600 30.941,128.140 30.800,128.800 30.800 C 129.460 30.800,130.000 30.620,130.000 30.400 C 130.000 30.180,130.720 30.000,131.600 30.000 C 132.480 30.000,133.200 29.820,133.200 29.600 C 133.200 29.380,134.179 29.200,135.376 29.200 C 136.573 29.200,137.664 29.020,137.800 28.800 C 137.948 28.561,140.537 28.400,144.224 28.400 C 148.075 28.400,150.400 28.551,150.400 28.800 C 150.400 29.022,151.467 29.200,152.800 29.200 C 154.133 29.200,155.200 29.378,155.200 29.600 C 155.200 29.820,155.920 30.000,156.800 30.000 C 157.680 30.000,158.400 30.180,158.400 30.400 C 158.400 30.620,158.839 30.800,159.376 30.800 C 159.913 30.800,160.464 30.980,160.600 31.200 C 160.736 31.420,161.287 31.600,161.824 31.600 C 162.361 31.600,162.800 31.780,162.800 32.000 C 162.800 32.220,163.149 32.400,163.576 32.400 C 164.003 32.400,164.464 32.580,164.600 32.800 C 164.736 33.020,165.287 33.200,165.824 33.200 C 166.361 33.200,166.803 33.335,166.806 33.500 C 166.810 33.665,167.710 34.240,168.806 34.779 C 169.903 35.317,170.800 35.902,170.800 36.079 C 170.800 36.255,171.160 36.400,171.600 36.400 C 172.040 36.400,172.400 36.558,172.400 36.751 C 172.400 36.945,172.940 37.327,173.600 37.600 C 174.260 37.873,174.800 38.216,174.800 38.362 C 174.800 38.508,175.349 38.952,176.019 39.348 C 177.559 40.257,187.200 49.827,187.200 50.446 C 187.200 50.699,187.516 51.197,187.903 51.553 C 188.289 51.909,188.860 52.695,189.170 53.300 C 189.481 53.905,189.885 54.400,190.068 54.400 C 190.250 54.400,190.400 54.760,190.400 55.200 C 190.400 55.640,190.536 56.000,190.702 56.000 C 190.869 56.000,191.256 56.585,191.563 57.300 C 191.870 58.015,192.724 59.859,193.460 61.399 C 194.197 62.938,194.800 64.603,194.800 65.099 C 194.800 65.594,194.980 66.000,195.200 66.000 C 195.420 66.000,195.600 66.529,195.600 67.176 C 195.600 67.823,195.780 68.464,196.000 68.600 C 196.220 68.736,196.400 69.557,196.400 70.424 C 196.400 71.291,196.580 72.000,196.800 72.000 C 197.022 72.000,197.200 73.067,197.200 74.400 C 197.200 75.733,197.378 76.800,197.600 76.800 C 197.848 76.800,198.000 78.933,198.000 82.400 C 198.000 85.480,197.851 88.000,197.668 88.000 C 197.486 88.000,197.296 89.035,197.245 90.300 C 197.195 91.565,196.984 92.771,196.777 92.980 C 196.570 93.189,196.400 93.943,196.400 94.656 C 196.400 95.369,196.220 96.064,196.000 96.200 C 195.780 96.336,195.600 96.977,195.600 97.624 C 195.600 98.271,195.420 98.800,195.200 98.800 C 194.980 98.800,194.800 99.340,194.800 100.000 C 194.800 100.660,194.653 101.200,194.472 101.200 C 194.292 101.200,193.900 102.100,193.600 103.200 C 193.300 104.300,192.908 105.200,192.728 105.200 C 192.547 105.200,192.400 105.464,192.400 105.786 C 192.400 106.599,191.124 109.200,190.726 109.200 C 190.547 109.200,190.400 109.470,190.400 109.800 C 190.400 110.130,190.220 110.400,190.000 110.400 C 189.780 110.400,189.600 110.720,189.600 111.112 C 189.600 111.503,189.240 112.083,188.800 112.400 C 188.360 112.717,188.000 113.307,188.000 113.712 C 188.000 114.116,187.820 114.336,187.600 114.200 C 187.380 114.064,187.200 114.161,187.200 114.416 C 187.200 114.671,186.698 115.356,186.085 115.940 C 185.471 116.523,184.534 117.630,184.001 118.400 C 183.469 119.170,182.486 120.287,181.817 120.882 L 180.600 121.964 180.600 137.549 C 180.600 146.120,180.712 153.245,180.848 153.381 C 181.161 153.695,183.200 152.788,183.200 152.336 C 183.200 152.151,183.560 152.000,184.000 152.000 C 184.440 152.000,184.800 151.820,184.800 151.600 C 184.800 151.380,185.036 151.200,185.325 151.200 C 185.613 151.200,186.198 150.885,186.625 150.500 C 187.051 150.115,187.895 149.545,188.500 149.232 C 189.105 148.920,189.600 148.515,189.600 148.332 C 189.600 148.150,189.798 148.000,190.040 148.000 C 190.281 148.000,190.983 147.460,191.600 146.800 C 192.217 146.140,192.893 145.600,193.103 145.600 C 193.785 145.600,206.400 133.479,206.400 132.824 C 206.400 132.559,206.859 131.935,208.393 130.117 C 208.617 129.851,208.800 129.445,208.800 129.213 C 208.800 128.982,209.340 128.228,210.000 127.537 C 210.660 126.846,211.200 126.038,211.200 125.741 C 211.200 125.443,211.380 125.200,211.600 125.200 C 211.820 125.200,212.000 124.930,212.000 124.600 C 212.000 124.270,212.180 124.000,212.400 124.000 C 212.620 124.000,212.800 123.730,212.800 123.400 C 212.800 123.070,212.980 122.800,213.200 122.800 C 213.420 122.800,213.600 122.530,213.600 122.200 C 213.600 121.870,213.780 121.600,214.000 121.600 C 214.220 121.600,214.400 121.366,214.400 121.080 C 214.400 120.344,215.341 118.407,215.700 118.403 C 215.865 118.401,216.000 118.040,216.000 117.600 C 216.000 117.160,216.180 116.800,216.400 116.800 C 216.620 116.800,216.800 116.440,216.800 116.000 C 216.800 115.560,216.980 115.200,217.200 115.200 C 217.420 115.200,217.600 114.851,217.600 114.424 C 217.600 113.997,217.780 113.536,218.000 113.400 C 218.220 113.264,218.400 112.713,218.400 112.176 C 218.400 111.639,218.580 111.200,218.800 111.200 C 219.020 111.200,219.200 110.838,219.200 110.395 C 219.200 109.952,219.380 109.232,219.600 108.795 C 219.820 108.358,220.180 107.642,220.400 107.205 C 220.620 106.768,220.800 105.969,220.800 105.429 C 220.800 104.889,220.980 104.336,221.200 104.200 C 221.420 104.064,221.600 103.434,221.600 102.800 C 221.600 102.166,221.780 101.536,222.000 101.400 C 222.220 101.264,222.400 100.522,222.400 99.750 C 222.400 98.979,222.599 97.976,222.841 97.523 C 223.167 96.915,223.162 96.624,222.824 96.415 C 222.481 96.203,222.473 95.020,222.790 91.765 C 223.462 84.861,223.386 67.652,222.679 66.946 C 222.526 66.792,222.400 65.897,222.400 64.957 C 222.400 64.017,222.220 63.136,222.000 63.000 C 221.780 62.864,221.600 62.234,221.600 61.600 C 221.600 60.966,221.420 60.336,221.200 60.200 C 220.980 60.064,220.800 59.423,220.800 58.776 C 220.800 58.129,220.620 57.600,220.400 57.600 C 220.180 57.600,220.000 57.060,220.000 56.400 C 220.000 55.740,219.820 55.200,219.600 55.200 C 219.380 55.200,219.200 54.840,219.200 54.400 C 219.200 53.960,219.020 53.600,218.800 53.600 C 218.580 53.600,218.400 53.060,218.400 52.400 C 218.400 51.740,218.220 51.200,218.000 51.200 C 217.780 51.200,217.600 50.840,217.600 50.400 C 217.600 49.960,217.420 49.600,217.200 49.600 C 216.980 49.600,216.800 49.347,216.800 49.038 C 216.800 48.372,215.132 45.059,214.700 44.867 C 214.535 44.793,214.400 44.388,214.400 43.967 C 214.400 43.545,214.220 43.200,214.000 43.200 C 213.780 43.200,213.600 42.930,213.600 42.600 C 213.600 42.270,213.420 42.000,213.200 42.000 C 212.980 42.000,212.800 41.680,212.800 41.288 C 212.800 40.897,212.440 40.317,212.000 40.000 C 211.560 39.683,211.200 39.143,211.200 38.800 C 211.200 38.457,210.840 37.917,210.400 37.600 C 209.960 37.283,209.600 36.769,209.600 36.459 C 209.600 36.148,209.268 35.603,208.861 35.247 C 208.455 34.891,207.863 34.102,207.546 33.493 C 206.566 31.608,199.558 24.000,198.802 24.000 C 198.555 24.000,198.447 23.847,198.563 23.660 C 198.678 23.473,198.284 23.068,197.686 22.760 C 197.089 22.452,195.939 21.525,195.131 20.700 C 194.324 19.875,193.495 19.200,193.291 19.200 C 193.086 19.200,192.354 18.660,191.663 18.000 C 190.972 17.340,190.226 16.800,190.004 16.800 C 189.782 16.800,189.600 16.650,189.600 16.468 C 189.600 16.285,189.105 15.880,188.500 15.568 C 187.895 15.255,187.051 14.685,186.625 14.300 C 186.198 13.915,185.613 13.600,185.325 13.600 C 185.036 13.600,184.800 13.420,184.800 13.200 C 184.800 12.980,184.455 12.800,184.033 12.800 C 183.612 12.800,183.207 12.642,183.133 12.450 C 182.953 11.978,178.180 9.600,177.411 9.600 C 177.075 9.600,176.800 9.436,176.800 9.235 C 176.800 9.034,176.080 8.749,175.200 8.600 C 174.320 8.451,173.600 8.166,173.600 7.965 C 173.600 7.764,173.150 7.600,172.600 7.600 C 172.050 7.600,171.600 7.420,171.600 7.200 C 171.600 6.980,171.060 6.800,170.400 6.800 C 169.740 6.800,169.200 6.620,169.200 6.400 C 169.200 6.180,168.660 6.000,168.000 6.000 C 167.340 6.000,166.800 5.820,166.800 5.600 C 166.800 5.380,166.080 5.200,165.200 5.200 C 164.320 5.200,163.600 5.020,163.600 4.800 C 163.600 4.580,162.891 4.400,162.024 4.400 C 161.157 4.400,160.336 4.220,160.200 4.000 C 160.064 3.780,159.074 3.600,158.000 3.600 C 156.926 3.600,155.936 3.420,155.800 3.200 C 155.657 2.968,153.463 2.800,150.576 2.800 C 147.525 2.800,145.600 2.645,145.600 2.400 C 145.600 2.180,144.970 2.000,144.200 2.000 C 143.430 2.000,142.800 2.180,142.800 2.400 " stroke="none" fill="#545454" fill-rule="evenodd"></path><path id="path1" d="M309.200 28.845 C 309.200 29.040,308.840 29.200,308.400 29.200 C 307.960 29.200,307.600 29.380,307.600 29.600 C 307.600 29.820,307.422 30.000,307.205 30.000 C 306.370 30.000,303.364 32.853,303.004 33.987 C 302.862 34.434,302.578 34.800,302.373 34.800 C 302.168 34.800,302.000 35.149,302.000 35.576 C 302.000 36.003,301.820 36.464,301.600 36.600 C 301.373 36.740,301.200 38.737,301.200 41.224 C 301.200 43.875,301.358 45.600,301.600 45.600 C 301.820 45.600,302.000 45.834,302.000 46.120 C 302.000 47.498,303.751 49.504,313.485 59.270 L 323.979 69.800 273.390 69.902 L 222.800 70.003 222.807 71.502 C 222.810 72.326,222.984 75.070,223.194 77.600 C 223.545 81.844,223.319 87.724,222.553 94.300 L 222.308 96.400 273.154 96.400 C 301.119 96.400,324.000 96.495,324.000 96.612 C 324.000 96.925,315.067 105.712,310.998 109.400 C 305.934 113.990,303.600 116.366,303.600 116.931 C 303.600 117.202,303.240 117.683,302.800 118.000 C 302.360 118.317,302.000 118.897,302.000 119.288 C 302.000 119.680,301.820 120.000,301.600 120.000 C 301.356 120.000,301.200 121.859,301.200 124.776 C 301.200 127.529,301.369 129.658,301.600 129.800 C 301.820 129.936,302.000 130.357,302.000 130.735 C 302.000 131.114,302.360 131.683,302.800 132.000 C 303.240 132.317,303.600 132.817,303.600 133.112 C 303.600 133.406,303.767 133.544,303.971 133.418 C 304.175 133.292,304.448 133.522,304.578 133.930 C 304.707 134.338,305.260 134.911,305.807 135.204 C 306.353 135.496,306.800 135.885,306.800 136.068 C 306.800 136.250,307.160 136.400,307.600 136.400 C 308.040 136.400,308.400 136.580,308.400 136.800 C 308.400 137.020,308.760 137.200,309.200 137.200 C 309.640 137.200,310.000 137.380,310.000 137.600 C 310.000 137.839,311.533 138.000,313.800 138.000 C 316.067 138.000,317.600 137.839,317.600 137.600 C 317.600 137.380,318.050 137.200,318.600 137.200 C 319.150 137.200,319.600 137.064,319.600 136.898 C 319.600 136.731,320.138 136.357,320.796 136.066 C 321.454 135.775,322.489 134.988,323.096 134.318 C 323.703 133.648,326.404 130.917,329.098 128.250 C 336.863 120.562,339.476 117.952,344.655 112.712 C 347.326 110.010,351.016 106.336,352.855 104.547 C 355.601 101.876,365.190 91.962,367.100 89.818 C 367.375 89.510,367.600 88.985,367.600 88.652 C 367.600 88.319,367.780 87.936,368.000 87.800 C 368.220 87.664,368.400 86.789,368.400 85.856 C 368.400 84.923,368.616 83.944,368.880 83.680 C 369.253 83.307,369.253 83.093,368.880 82.720 C 368.616 82.456,368.400 81.376,368.400 80.320 C 368.400 79.264,368.240 78.400,368.043 78.400 C 367.847 78.400,367.574 77.953,367.437 77.406 C 367.205 76.482,363.123 72.109,354.084 63.103 C 344.856 53.906,340.336 49.391,336.895 45.928 C 334.858 43.878,331.348 40.378,329.095 38.151 C 326.843 35.924,324.190 33.185,323.200 32.064 C 322.210 30.943,321.211 30.020,320.980 30.013 C 320.282 29.991,318.406 29.022,318.403 28.681 C 318.401 28.506,316.330 28.391,313.800 28.427 C 311.270 28.462,309.200 28.650,309.200 28.845 " stroke="none" fill="#4cbb64" fill-rule="evenodd"></path><path id="path2" d="M136.600 70.400 C 136.464 70.620,135.733 70.800,134.976 70.800 C 134.219 70.800,133.600 70.980,133.600 71.200 C 133.600 71.420,132.970 71.600,132.200 71.600 C 131.430 71.600,130.800 71.780,130.800 72.000 C 130.800 72.220,130.361 72.400,129.824 72.400 C 129.287 72.400,128.736 72.580,128.600 72.800 C 128.464 73.020,127.993 73.200,127.553 73.200 C 127.113 73.200,126.864 73.380,127.000 73.600 C 127.136 73.820,126.877 74.000,126.424 74.000 C 125.971 74.000,125.600 74.180,125.600 74.400 C 125.600 74.620,125.268 74.800,124.862 74.800 C 124.456 74.800,123.798 75.160,123.400 75.600 C 123.002 76.040,122.479 76.403,122.238 76.406 C 121.997 76.410,121.194 76.947,120.452 77.601 C 119.711 78.254,118.991 78.725,118.852 78.648 C 118.714 78.572,117.970 79.284,117.200 80.232 C 116.430 81.179,115.485 82.067,115.100 82.204 C 114.715 82.342,114.400 82.730,114.400 83.066 C 114.400 83.403,113.905 84.158,113.300 84.743 C 112.695 85.329,112.141 86.074,112.068 86.400 C 111.995 86.726,111.783 87.087,111.596 87.203 C 110.999 87.572,108.793 92.064,109.024 92.439 C 109.147 92.638,109.057 92.800,108.824 92.800 C 108.591 92.800,108.400 93.149,108.400 93.576 C 108.400 94.003,108.220 94.464,108.000 94.600 C 107.780 94.736,107.600 95.377,107.600 96.024 C 107.600 96.671,107.420 97.200,107.200 97.200 C 106.980 97.200,106.800 98.021,106.800 99.024 C 106.800 100.137,106.644 100.751,106.400 100.600 C 105.709 100.173,105.901 120.378,106.600 121.600 C 107.475 123.130,107.475 152.320,106.600 152.655 C 106.073 152.858,105.998 157.358,105.987 189.743 C 105.976 221.973,105.902 226.504,105.396 225.836 C 105.078 225.416,104.365 224.563,103.811 223.942 C 103.257 223.320,102.758 222.584,102.702 222.306 C 102.646 222.027,102.105 221.369,101.500 220.842 C 100.895 220.315,100.400 219.539,100.400 219.118 C 100.400 218.697,100.220 218.464,100.000 218.600 C 99.780 218.736,99.600 218.556,99.600 218.200 C 99.600 217.844,99.420 217.664,99.200 217.800 C 98.980 217.936,98.800 217.767,98.800 217.424 C 98.800 217.081,98.620 216.800,98.400 216.800 C 98.180 216.800,98.000 216.429,98.000 215.976 C 98.000 215.523,97.820 215.264,97.600 215.400 C 97.380 215.536,97.200 215.464,97.200 215.240 C 97.200 215.017,96.480 214.077,95.600 213.152 C 94.720 212.227,94.000 211.319,94.000 211.135 C 94.000 210.951,93.719 210.800,93.376 210.800 C 93.033 210.800,92.864 210.620,93.000 210.400 C 93.136 210.180,93.057 210.000,92.824 210.000 C 91.908 210.000,91.790 209.926,91.513 209.176 C 91.355 208.749,90.939 208.400,90.589 208.400 C 90.239 208.400,90.064 208.220,90.200 208.000 C 90.336 207.780,90.167 207.600,89.824 207.600 C 89.481 207.600,89.200 207.420,89.200 207.200 C 89.200 206.980,88.930 206.800,88.600 206.800 C 88.270 206.800,88.000 206.620,88.000 206.400 C 88.000 206.180,87.775 205.996,87.500 205.991 C 87.225 205.986,86.550 205.630,86.000 205.200 C 85.450 204.770,84.674 204.414,84.276 204.409 C 83.878 204.404,83.664 204.220,83.800 204.000 C 83.944 203.767,83.537 203.600,82.824 203.600 C 82.151 203.600,81.600 203.420,81.600 203.200 C 81.600 202.980,81.060 202.800,80.400 202.800 C 79.740 202.800,79.200 202.620,79.200 202.400 C 79.200 202.180,78.581 202.000,77.824 202.000 C 77.067 202.000,76.336 201.820,76.200 201.600 C 76.064 201.380,74.613 201.200,72.976 201.200 C 71.339 201.200,70.000 201.065,69.999 200.900 C 69.999 200.735,68.919 200.580,67.599 200.556 C 66.280 200.531,65.200 200.666,65.200 200.856 C 65.200 201.045,63.951 201.200,62.424 201.200 C 60.897 201.200,59.536 201.380,59.400 201.600 C 59.264 201.820,58.443 202.000,57.576 202.000 C 56.709 202.000,56.000 202.180,56.000 202.400 C 56.000 202.620,55.645 202.800,55.212 202.800 C 54.779 202.800,53.783 203.160,53.000 203.600 C 52.217 204.040,51.301 204.400,50.964 204.400 C 50.628 204.400,50.464 204.580,50.600 204.800 C 50.738 205.023,50.434 205.200,49.912 205.200 C 49.397 205.200,48.717 205.560,48.400 206.000 C 48.083 206.440,47.585 206.800,47.294 206.800 C 47.002 206.800,46.344 207.205,45.832 207.700 C 44.504 208.983,43.200 210.025,43.200 209.802 C 43.200 209.698,42.390 210.445,41.400 211.464 C 40.410 212.483,39.600 213.481,39.600 213.682 C 39.600 213.883,39.420 213.936,39.200 213.800 C 38.980 213.664,38.800 213.788,38.799 214.076 C 38.799 214.364,38.259 215.230,37.600 216.000 C 36.941 216.770,36.401 217.625,36.401 217.900 C 36.400 218.175,36.220 218.400,36.000 218.400 C 35.780 218.400,35.600 218.760,35.600 219.200 C 35.600 219.640,35.420 220.000,35.200 220.000 C 34.980 220.000,34.800 220.360,34.800 220.800 C 34.800 221.240,34.620 221.600,34.400 221.600 C 34.180 221.600,34.000 221.960,34.000 222.400 C 34.000 222.840,33.820 223.200,33.600 223.200 C 33.380 223.200,33.200 223.661,33.200 224.224 C 33.200 224.787,33.065 225.164,32.900 225.063 C 32.735 224.961,32.559 225.444,32.508 226.136 C 32.458 226.828,32.233 227.456,32.008 227.531 C 31.784 227.605,31.600 228.472,31.600 229.457 C 31.600 230.446,31.435 231.145,31.232 231.020 C 31.013 230.884,30.845 233.864,30.818 238.364 C 30.789 243.200,30.922 246.028,31.186 246.191 C 31.414 246.332,31.600 247.157,31.600 248.024 C 31.600 248.891,31.780 249.600,32.000 249.600 C 32.220 249.600,32.400 249.962,32.400 250.405 C 32.400 250.848,32.559 251.523,32.754 251.905 C 32.949 252.287,33.534 253.590,34.054 254.800 C 34.574 256.010,35.135 257.060,35.300 257.133 C 35.465 257.207,35.600 257.530,35.600 257.852 C 35.600 258.173,36.036 258.872,36.569 259.405 C 37.102 259.938,37.654 260.740,37.796 261.187 C 37.938 261.634,38.222 262.000,38.427 262.000 C 38.632 262.000,38.800 262.243,38.800 262.541 C 38.800 262.838,39.340 263.646,40.000 264.337 C 40.660 265.028,41.200 265.864,41.200 266.196 C 41.200 266.528,41.339 266.800,41.509 266.800 C 41.679 266.800,42.139 267.396,42.531 268.124 C 42.924 268.853,43.639 269.918,44.122 270.491 C 46.161 272.911,46.400 273.220,46.400 273.433 C 46.400 273.556,46.625 273.894,46.900 274.184 C 47.986 275.328,48.800 276.425,48.800 276.745 C 48.800 276.930,49.295 277.606,49.900 278.248 C 50.505 278.889,51.255 279.906,51.568 280.507 C 51.880 281.108,52.285 281.600,52.468 281.600 C 52.650 281.600,52.800 281.855,52.800 282.166 C 52.800 282.477,53.340 283.242,54.000 283.865 C 54.660 284.488,55.200 285.301,55.200 285.672 C 55.200 286.043,55.560 286.460,56.000 286.600 C 56.447 286.742,56.800 287.205,56.800 287.651 C 56.800 288.089,56.980 288.336,57.200 288.200 C 57.420 288.064,57.600 288.311,57.600 288.749 C 57.600 289.188,57.939 289.654,58.352 289.785 C 58.776 289.919,59.208 290.542,59.342 291.212 C 59.474 291.872,59.837 292.400,60.158 292.400 C 60.476 292.400,60.854 292.936,60.998 293.590 C 61.142 294.245,61.471 294.740,61.730 294.690 C 61.988 294.641,62.155 294.825,62.100 295.100 C 62.045 295.375,62.180 295.600,62.400 295.600 C 62.620 295.600,62.800 295.870,62.800 296.200 C 62.800 296.530,62.980 296.800,63.200 296.800 C 63.420 296.800,63.600 297.070,63.600 297.400 C 63.600 297.730,63.750 298.000,63.932 298.000 C 64.115 298.000,64.519 298.495,64.830 299.100 C 65.140 299.705,65.711 300.491,66.097 300.847 C 66.484 301.203,66.801 301.653,66.802 301.847 C 66.803 302.041,67.298 302.740,67.902 303.400 C 68.506 304.060,69.252 305.089,69.560 305.686 C 69.868 306.284,70.246 306.695,70.400 306.600 C 70.554 306.505,70.930 306.916,71.237 307.514 C 71.544 308.111,72.111 308.891,72.497 309.247 C 72.884 309.603,73.200 310.148,73.200 310.459 C 73.200 310.769,73.560 311.283,74.000 311.600 C 74.440 311.917,74.800 312.407,74.800 312.688 C 74.800 312.970,74.977 313.200,75.192 313.200 C 75.408 313.200,75.698 313.650,75.836 314.200 C 75.974 314.750,76.218 315.200,76.379 315.200 C 76.540 315.200,76.888 315.675,77.153 316.256 C 77.417 316.836,78.056 317.643,78.572 318.049 C 79.088 318.455,79.624 319.240,79.763 319.794 C 79.902 320.347,80.192 320.800,80.408 320.800 C 80.623 320.800,80.800 321.030,80.800 321.312 C 80.800 321.593,81.160 322.083,81.600 322.400 C 82.040 322.717,82.400 323.207,82.400 323.488 C 82.400 323.770,82.580 324.000,82.800 324.000 C 83.020 324.000,83.200 324.281,83.200 324.624 C 83.200 324.967,83.380 325.136,83.600 325.000 C 83.820 324.864,84.000 325.033,84.000 325.376 C 84.000 325.719,84.180 326.000,84.400 326.000 C 84.620 326.000,84.800 326.243,84.800 326.541 C 84.800 326.838,85.295 327.606,85.900 328.248 C 86.505 328.889,87.255 329.906,87.568 330.507 C 87.880 331.108,88.285 331.600,88.468 331.600 C 88.650 331.600,88.800 331.971,88.800 332.424 C 88.800 332.877,88.980 333.136,89.200 333.000 C 89.420 332.864,89.600 333.033,89.600 333.376 C 89.600 333.719,89.780 334.000,90.000 334.000 C 90.220 334.000,90.400 334.371,90.400 334.824 C 90.400 335.277,90.580 335.536,90.800 335.400 C 91.020 335.264,91.200 335.418,91.200 335.743 C 91.200 336.068,91.335 336.393,91.500 336.467 C 91.665 336.540,92.218 337.455,92.728 338.500 C 93.238 339.545,93.834 340.400,94.052 340.400 C 94.269 340.400,94.324 340.600,94.172 340.845 C 94.021 341.089,94.056 341.404,94.249 341.545 C 94.794 341.941,95.600 343.522,95.600 344.195 C 95.600 344.528,95.780 344.800,96.000 344.800 C 96.220 344.800,96.400 345.160,96.400 345.600 C 96.400 346.040,96.580 346.400,96.800 346.400 C 97.020 346.400,97.200 346.749,97.200 347.176 C 97.200 347.603,97.380 348.064,97.600 348.200 C 97.820 348.336,98.000 348.809,98.000 349.252 C 98.000 349.695,98.272 350.329,98.604 350.661 C 98.936 350.993,99.105 351.430,98.980 351.632 C 98.855 351.835,98.943 352.000,99.176 352.000 C 99.409 352.000,99.600 352.540,99.600 353.200 C 99.600 353.860,99.780 354.400,100.000 354.400 C 100.220 354.400,100.400 354.762,100.400 355.205 C 100.400 355.648,100.580 356.368,100.800 356.805 C 101.020 357.242,101.380 357.958,101.600 358.395 C 101.820 358.832,102.000 359.696,102.000 360.315 C 102.000 360.934,102.170 361.611,102.379 361.820 C 102.587 362.029,102.801 362.954,102.855 363.876 C 102.909 364.798,103.081 365.474,103.237 365.377 C 103.392 365.281,103.619 365.967,103.741 366.901 C 104.180 370.263,104.494 371.600,104.844 371.600 C 105.040 371.600,105.200 371.960,105.200 372.400 C 105.200 372.840,105.380 373.200,105.600 373.200 C 105.820 373.200,106.000 373.650,106.000 374.200 C 106.000 374.750,106.180 375.200,106.400 375.200 C 106.620 375.200,106.800 375.483,106.800 375.829 C 106.800 376.174,107.072 376.729,107.404 377.061 C 107.736 377.393,107.888 377.858,107.742 378.094 C 107.585 378.349,107.664 378.407,107.938 378.238 C 108.212 378.069,108.400 378.207,108.400 378.576 C 108.400 378.919,108.591 379.200,108.824 379.200 C 109.057 379.200,109.135 379.381,108.998 379.603 C 108.861 379.824,109.030 380.113,109.372 380.245 C 109.715 380.376,109.890 380.655,109.761 380.863 C 109.632 381.072,109.903 381.569,110.363 381.968 C 110.823 382.367,111.200 382.898,111.200 383.147 C 111.200 383.396,111.380 383.600,111.600 383.600 C 111.820 383.600,112.000 383.881,112.000 384.224 C 112.000 384.567,112.180 384.736,112.400 384.600 C 112.620 384.464,112.800 384.552,112.800 384.795 C 112.800 385.368,114.632 387.200,115.205 387.200 C 115.448 387.200,115.544 387.367,115.418 387.571 C 115.292 387.775,115.506 388.047,115.894 388.175 C 116.282 388.303,117.410 389.123,118.400 389.997 C 119.390 390.872,120.515 391.590,120.900 391.594 C 121.285 391.597,121.600 391.780,121.600 392.000 C 121.600 392.220,121.825 392.404,122.100 392.409 C 122.375 392.414,123.050 392.770,123.600 393.200 C 124.150 393.630,124.926 393.986,125.324 393.991 C 125.722 393.996,125.959 394.143,125.851 394.317 C 125.744 394.491,126.045 394.663,126.522 394.699 C 126.998 394.735,127.451 394.952,127.527 395.182 C 127.604 395.412,128.091 395.600,128.610 395.600 C 129.128 395.600,129.664 395.780,129.800 396.000 C 129.936 396.220,130.577 396.400,131.224 396.400 C 131.871 396.400,132.400 396.580,132.400 396.800 C 132.400 397.020,133.120 397.200,134.000 397.200 C 134.880 397.200,135.600 397.380,135.600 397.600 C 135.600 397.865,162.059 398.000,214.176 398.000 C 266.129 398.000,292.837 397.864,293.000 397.600 C 293.136 397.380,293.766 397.200,294.400 397.200 C 295.034 397.200,295.664 397.020,295.800 396.800 C 295.936 396.580,296.667 396.400,297.424 396.400 C 298.181 396.400,298.800 396.220,298.800 396.000 C 298.800 395.780,299.325 395.600,299.967 395.600 C 300.608 395.600,301.193 395.457,301.267 395.281 C 301.420 394.915,304.987 393.200,305.596 393.200 C 305.818 393.200,306.000 393.020,306.000 392.800 C 306.000 392.580,306.172 392.400,306.382 392.400 C 306.718 392.400,307.403 391.987,310.537 389.893 C 312.552 388.547,313.571 387.704,313.395 387.529 C 313.289 387.422,313.651 387.094,314.201 386.800 C 314.750 386.506,315.200 386.037,315.200 385.759 C 315.200 385.481,315.521 385.152,315.913 385.027 C 316.306 384.903,316.962 384.216,317.371 383.501 C 317.780 382.785,318.567 381.795,319.120 381.300 C 319.672 380.805,319.996 380.400,319.840 380.400 C 319.683 380.400,319.874 379.860,320.264 379.200 C 320.654 378.540,321.114 378.000,321.286 378.000 C 321.459 378.000,321.600 377.730,321.600 377.400 C 321.600 377.070,321.774 376.800,321.987 376.800 C 322.201 376.800,322.272 376.532,322.146 376.203 C 322.018 375.869,322.186 375.503,322.529 375.372 C 322.869 375.241,323.077 374.798,322.995 374.375 C 322.914 373.956,323.062 373.475,323.324 373.306 C 324.005 372.868,324.884 370.485,325.098 368.500 C 325.198 367.565,325.442 366.800,325.640 366.800 C 325.838 366.800,326.000 365.911,326.000 364.824 C 326.000 363.737,326.180 362.736,326.400 362.600 C 326.953 362.258,326.953 260.542,326.400 260.200 C 326.180 260.064,326.000 259.189,326.000 258.256 C 326.000 257.323,325.821 256.381,325.602 256.162 C 325.384 255.944,325.164 255.278,325.115 254.682 C 325.066 254.087,324.874 253.600,324.689 253.600 C 324.504 253.600,324.460 253.427,324.590 253.216 C 324.720 253.005,324.657 252.510,324.449 252.116 C 324.241 251.722,323.576 250.365,322.970 249.100 C 322.365 247.835,321.719 246.800,321.535 246.800 C 321.351 246.800,321.243 246.665,321.295 246.500 C 321.448 246.016,318.985 242.711,317.425 241.307 C 316.634 240.595,316.015 239.882,316.048 239.721 C 316.081 239.561,315.776 239.243,315.369 239.015 C 314.963 238.787,313.973 237.970,313.169 237.200 C 312.364 236.430,311.469 235.744,311.179 235.675 C 310.888 235.606,310.348 235.201,309.978 234.775 C 309.609 234.349,309.012 234.000,308.653 234.000 C 308.294 234.000,308.000 233.841,308.000 233.647 C 308.000 233.319,306.530 232.675,305.938 232.744 C 305.794 232.761,305.457 232.510,305.189 232.187 C 304.921 231.864,304.274 231.600,303.751 231.600 C 303.228 231.600,302.800 231.420,302.800 231.200 C 302.800 230.980,302.260 230.800,301.600 230.800 C 300.940 230.800,300.400 230.620,300.400 230.400 C 300.400 230.180,299.500 230.000,298.400 230.000 C 297.300 230.000,296.400 229.831,296.400 229.624 C 296.400 229.406,293.962 229.247,290.609 229.247 C 287.421 229.247,284.714 229.416,284.585 229.624 C 284.457 229.831,283.553 230.000,282.576 230.000 C 281.599 230.000,280.800 230.180,280.800 230.400 C 280.800 230.620,280.260 230.800,279.600 230.800 C 278.940 230.800,278.400 230.942,278.400 231.115 C 278.400 231.288,277.822 231.474,277.116 231.528 C 276.409 231.582,275.692 231.845,275.522 232.113 C 275.324 232.424,275.210 232.267,275.206 231.676 C 275.203 231.149,275.024 230.861,274.790 231.006 C 274.565 231.145,274.420 231.111,274.469 230.930 C 274.823 229.621,272.438 225.993,268.313 221.566 C 267.716 220.925,267.353 220.400,267.506 220.400 C 267.660 220.400,267.069 219.913,266.193 219.318 C 265.317 218.723,264.201 217.837,263.713 217.349 C 263.225 216.861,262.460 216.346,262.013 216.204 C 261.566 216.062,261.200 215.778,261.200 215.573 C 261.200 215.368,260.840 215.200,260.400 215.200 C 259.960 215.200,259.600 215.062,259.600 214.894 C 259.600 214.581,256.526 213.123,256.242 213.301 C 256.155 213.355,255.674 213.040,255.173 212.600 C 254.672 212.160,254.397 212.029,254.561 212.310 C 254.742 212.620,254.338 212.534,253.530 212.090 C 252.798 211.688,251.577 211.318,250.816 211.267 C 250.054 211.216,249.317 210.989,249.176 210.761 C 248.689 209.972,232.425 210.670,230.200 211.575 C 226.118 213.235,226.305 213.291,224.579 209.905 C 223.768 208.313,222.766 206.717,222.352 206.358 C 221.938 206.000,221.600 205.502,221.600 205.253 C 221.600 205.004,221.420 204.800,221.200 204.800 C 220.980 204.800,220.800 204.623,220.800 204.407 C 220.800 203.932,215.729 198.804,215.492 199.041 C 215.401 199.133,214.838 198.756,214.242 198.204 C 213.646 197.652,212.988 197.200,212.779 197.200 C 212.571 197.200,212.400 197.054,212.400 196.875 C 212.400 196.696,211.770 196.302,211.000 196.000 C 210.230 195.698,209.600 195.304,209.600 195.125 C 209.600 194.946,209.240 194.800,208.800 194.800 C 208.360 194.800,208.000 194.641,208.000 194.447 C 208.000 194.092,206.721 193.560,205.600 193.448 C 205.270 193.415,204.730 193.216,204.400 193.005 C 203.715 192.568,203.422 192.497,200.400 192.038 C 199.190 191.855,197.945 191.802,197.634 191.920 C 197.274 192.058,197.174 191.966,197.358 191.668 C 197.710 191.099,187.400 190.993,185.926 191.550 C 185.417 191.743,184.055 192.030,182.900 192.188 L 180.800 192.475 180.800 173.087 C 180.800 156.340,180.718 153.630,180.200 153.200 C 179.306 152.458,179.308 124.769,180.202 123.054 C 180.923 121.673,181.108 101.200,180.400 101.200 C 180.180 101.200,180.000 100.491,180.000 99.624 C 180.000 98.757,179.820 97.936,179.600 97.800 C 179.380 97.664,179.200 97.113,179.200 96.576 C 179.200 96.039,179.020 95.600,178.800 95.600 C 178.580 95.600,178.400 95.060,178.400 94.400 C 178.400 93.740,178.220 93.200,178.000 93.200 C 177.780 93.200,177.600 92.840,177.600 92.400 C 177.600 91.960,177.454 91.600,177.275 91.600 C 177.096 91.600,176.702 90.970,176.400 90.200 C 176.098 89.430,175.704 88.800,175.525 88.800 C 175.346 88.800,175.200 88.462,175.200 88.049 C 175.200 87.636,174.949 87.090,174.643 86.836 C 174.337 86.581,173.865 85.839,173.595 85.187 C 173.324 84.534,172.855 84.000,172.551 84.000 C 172.248 84.000,172.000 83.792,172.000 83.537 C 172.000 82.218,162.974 74.800,161.369 74.800 C 161.030 74.800,160.864 74.620,161.000 74.400 C 161.136 74.180,160.877 74.000,160.424 74.000 C 159.971 74.000,159.600 73.820,159.600 73.600 C 159.600 73.380,159.240 73.200,158.800 73.200 C 158.360 73.200,158.000 73.020,158.000 72.800 C 158.000 72.580,157.449 72.400,156.776 72.400 C 156.063 72.400,155.656 72.233,155.800 72.000 C 155.947 71.761,155.463 71.600,154.600 71.600 C 153.737 71.600,153.253 71.439,153.400 71.200 C 153.553 70.952,152.812 70.800,151.447 70.800 C 150.237 70.800,149.136 70.620,149.000 70.400 C 148.853 70.162,146.337 70.000,142.800 70.000 C 139.263 70.000,136.747 70.162,136.600 70.400 M146.600 95.200 C 146.456 95.433,146.863 95.600,147.576 95.600 C 148.249 95.600,148.800 95.780,148.800 96.000 C 148.800 96.220,149.081 96.400,149.424 96.400 C 149.767 96.400,149.936 96.580,149.800 96.800 C 149.664 97.020,149.842 97.200,150.195 97.200 C 151.025 97.200,152.800 98.975,152.800 99.805 C 152.800 100.158,152.980 100.336,153.200 100.200 C 153.420 100.064,153.600 100.233,153.600 100.576 C 153.600 100.919,153.780 101.200,154.000 101.200 C 154.220 101.200,154.400 101.545,154.400 101.967 C 154.400 102.388,154.577 102.793,154.794 102.867 C 155.010 102.940,155.219 103.848,155.258 104.884 C 155.297 105.920,155.480 106.674,155.664 106.560 C 155.849 106.446,156.000 145.783,156.000 193.976 C 156.000 252.125,156.135 281.600,156.400 281.600 C 156.620 281.600,156.800 281.960,156.800 282.400 C 156.800 282.840,156.980 283.200,157.200 283.200 C 157.420 283.200,157.600 283.571,157.600 284.024 C 157.600 284.477,157.780 284.736,158.000 284.600 C 158.220 284.464,158.400 284.540,158.400 284.769 C 158.400 285.470,161.089 288.000,161.833 288.000 C 162.218 288.000,162.416 288.117,162.273 288.261 C 161.344 289.189,169.552 290.865,170.637 289.968 C 170.877 289.770,171.626 289.547,172.301 289.473 C 172.977 289.399,173.989 289.037,174.551 288.669 C 175.112 288.301,175.758 288.000,175.986 288.000 C 176.214 288.000,176.400 287.820,176.400 287.600 C 176.400 287.380,176.640 287.200,176.932 287.200 C 177.225 287.200,177.702 286.756,177.993 286.214 C 178.283 285.671,178.673 285.322,178.860 285.437 C 179.047 285.553,179.200 285.277,179.200 284.824 C 179.200 284.371,179.380 284.000,179.600 284.000 C 179.820 284.000,180.000 283.730,180.000 283.400 C 180.000 283.070,180.180 282.800,180.400 282.800 C 180.620 282.800,180.800 282.350,180.800 281.800 C 180.800 281.250,180.980 280.800,181.200 280.800 C 181.463 280.800,181.600 271.332,181.600 253.195 C 181.600 233.088,181.726 225.346,182.062 224.695 C 183.036 222.810,183.200 222.392,183.200 221.782 C 183.200 221.436,183.335 221.235,183.500 221.334 C 183.801 221.517,184.577 220.860,184.722 220.300 C 184.765 220.135,184.893 220.003,185.007 220.007 C 185.120 220.010,185.851 219.376,186.629 218.597 C 187.408 217.818,188.215 217.286,188.423 217.414 C 188.630 217.542,188.801 217.502,188.803 217.324 C 188.809 216.680,191.005 216.000,193.080 216.000 C 194.246 216.000,195.200 216.141,195.200 216.313 C 195.200 216.485,195.661 216.664,196.224 216.710 C 197.119 216.784,198.947 217.874,201.300 219.735 C 201.685 220.039,202.000 220.594,202.000 220.968 C 202.000 221.341,202.180 221.536,202.400 221.400 C 202.620 221.264,202.800 221.433,202.800 221.776 C 202.800 222.119,202.980 222.400,203.200 222.400 C 203.420 222.400,203.600 222.760,203.600 223.200 C 203.600 223.640,203.780 224.000,204.000 224.000 C 204.220 224.000,204.400 224.799,204.400 225.776 C 204.400 226.753,204.580 227.664,204.800 227.800 C 205.060 227.961,205.200 237.271,205.200 254.424 C 205.200 271.741,205.337 280.800,205.600 280.800 C 205.820 280.800,206.000 281.160,206.000 281.600 C 206.000 282.040,206.180 282.400,206.400 282.400 C 206.620 282.400,206.800 282.678,206.800 283.017 C 206.800 283.808,211.007 288.000,211.800 288.000 C 212.130 288.000,212.400 288.180,212.400 288.400 C 212.400 288.620,212.940 288.800,213.600 288.800 C 214.260 288.800,214.800 288.949,214.800 289.132 C 214.800 289.315,216.150 289.468,217.800 289.473 C 219.450 289.478,220.800 289.328,220.800 289.141 C 220.800 288.953,221.263 288.800,221.828 288.800 C 223.631 288.800,229.200 284.359,229.200 282.922 C 229.200 282.635,229.380 282.400,229.600 282.400 C 229.820 282.400,230.000 281.759,230.000 280.976 C 230.000 280.129,230.162 279.653,230.400 279.800 C 230.664 279.963,230.800 273.960,230.800 262.090 C 230.800 252.214,230.925 244.009,231.077 243.856 C 231.229 243.704,231.415 243.179,231.489 242.690 C 231.563 242.200,231.798 241.740,232.012 241.667 C 232.225 241.593,232.400 241.272,232.400 240.953 C 232.400 240.634,232.985 239.800,233.700 239.100 C 234.415 238.399,234.951 237.672,234.890 237.483 C 234.830 237.295,234.953 237.247,235.164 237.378 C 235.376 237.508,235.965 237.207,236.474 236.707 C 238.209 235.005,245.600 233.785,245.600 235.200 C 245.600 235.420,245.960 235.600,246.400 235.600 C 246.840 235.600,247.200 235.780,247.200 236.000 C 247.200 236.220,247.498 236.400,247.862 236.400 C 248.227 236.400,249.217 237.106,250.062 237.969 C 250.908 238.831,251.601 239.416,251.602 239.269 C 251.603 239.121,252.053 239.886,252.602 240.968 C 253.209 242.166,253.600 243.613,253.600 244.668 C 253.600 245.621,253.780 246.400,254.000 246.400 C 254.260 246.400,254.400 252.192,254.400 262.976 C 254.400 273.596,254.544 279.642,254.800 279.800 C 255.020 279.936,255.200 280.453,255.200 280.948 C 255.200 281.444,255.560 282.236,256.000 282.708 C 256.440 283.180,256.800 283.754,256.800 283.983 C 256.800 284.212,256.980 284.400,257.200 284.400 C 257.420 284.400,257.600 284.670,257.600 285.000 C 257.600 285.330,257.842 285.600,258.138 285.600 C 258.434 285.600,259.002 285.960,259.400 286.400 C 259.798 286.840,260.366 287.200,260.662 287.200 C 260.958 287.200,261.200 287.343,261.200 287.517 C 261.200 288.501,269.472 289.278,271.105 288.447 C 271.487 288.252,272.340 287.847,273.000 287.547 C 274.429 286.895,278.400 282.925,278.400 282.146 C 278.400 281.846,278.580 281.600,278.800 281.600 C 279.020 281.600,279.200 281.161,279.200 280.624 C 279.200 280.087,279.380 279.536,279.600 279.400 C 279.847 279.248,280.000 275.863,280.000 270.576 C 280.000 265.125,280.146 262.000,280.400 262.000 C 280.620 262.000,280.800 261.462,280.800 260.803 C 280.800 260.040,281.090 259.426,281.600 259.107 C 282.040 258.832,282.400 258.381,282.400 258.104 C 282.400 257.827,282.580 257.600,282.800 257.600 C 283.020 257.600,283.200 257.319,283.200 256.976 C 283.200 256.633,283.380 256.464,283.600 256.600 C 283.820 256.736,284.000 256.556,284.000 256.200 C 284.000 255.844,284.169 255.657,284.375 255.785 C 284.582 255.912,284.897 255.788,285.075 255.508 C 285.548 254.769,287.791 253.600,288.738 253.600 C 289.186 253.600,289.664 253.420,289.800 253.200 C 289.936 252.980,290.667 252.800,291.424 252.800 C 292.181 252.800,292.800 252.980,292.800 253.200 C 292.800 253.420,293.430 253.600,294.200 253.600 C 294.970 253.600,295.600 253.780,295.600 254.000 C 295.600 254.220,295.869 254.400,296.197 254.400 C 297.751 254.400,302.938 260.129,302.123 260.944 C 301.982 261.085,302.077 261.200,302.333 261.200 C 302.598 261.200,302.800 261.794,302.800 262.576 C 302.800 263.333,302.980 264.064,303.200 264.200 C 304.107 264.761,303.709 356.000,302.800 356.000 C 302.133 356.000,302.000 356.267,302.000 357.600 C 302.000 358.480,301.820 359.200,301.600 359.200 C 301.380 359.200,301.200 359.725,301.200 360.367 C 301.200 361.008,301.012 361.596,300.782 361.673 C 300.552 361.749,300.335 362.202,300.299 362.678 C 300.263 363.155,300.091 363.456,299.917 363.349 C 299.743 363.241,299.600 363.480,299.600 363.880 C 299.600 364.280,299.240 364.832,298.800 365.107 C 298.360 365.382,298.000 365.836,298.000 366.115 C 298.000 366.395,297.618 366.888,297.151 367.212 C 296.684 367.535,296.075 368.016,295.799 368.281 C 295.522 368.545,295.184 368.650,295.048 368.514 C 294.911 368.378,294.800 368.477,294.800 368.733 C 294.800 368.990,294.530 369.200,294.200 369.200 C 293.870 369.200,293.600 369.380,293.600 369.600 C 293.600 369.820,293.229 370.000,292.776 370.000 C 292.323 370.000,292.064 370.180,292.200 370.400 C 292.347 370.638,291.871 370.800,291.024 370.800 C 290.241 370.800,289.600 370.980,289.600 371.200 C 289.600 371.465,264.667 371.600,215.600 371.600 C 166.533 371.600,141.600 371.465,141.600 371.200 C 141.600 370.980,141.060 370.800,140.400 370.800 C 139.740 370.800,139.200 370.658,139.200 370.485 C 139.200 370.312,138.825 370.142,138.366 370.107 C 137.908 370.073,137.212 369.675,136.819 369.222 C 136.427 368.770,135.887 368.400,135.620 368.400 C 134.940 368.400,132.400 365.712,132.400 364.993 C 132.400 364.667,132.220 364.400,132.000 364.400 C 131.780 364.400,131.600 364.130,131.600 363.800 C 131.600 363.470,131.420 363.200,131.200 363.200 C 130.980 363.200,130.800 362.750,130.800 362.200 C 130.800 361.650,130.620 361.200,130.400 361.200 C 130.180 361.200,130.000 360.570,130.000 359.800 C 130.000 359.030,129.820 358.400,129.600 358.400 C 129.380 358.400,129.200 357.680,129.200 356.800 C 129.200 355.920,129.020 355.200,128.800 355.200 C 128.580 355.200,128.400 354.480,128.400 353.600 C 128.400 352.720,128.220 352.000,128.000 352.000 C 127.780 352.000,127.600 351.460,127.600 350.800 C 127.600 350.140,127.420 349.600,127.200 349.600 C 126.980 349.600,126.800 349.060,126.800 348.400 C 126.800 347.740,126.620 347.200,126.400 347.200 C 126.180 347.200,126.000 346.761,126.000 346.224 C 126.000 345.687,125.820 345.136,125.600 345.000 C 125.380 344.864,125.200 344.324,125.200 343.800 C 125.200 343.276,125.017 342.734,124.793 342.596 C 124.570 342.458,124.483 342.190,124.600 342.000 C 124.717 341.810,124.630 341.542,124.407 341.404 C 124.183 341.266,124.000 340.722,124.000 340.196 C 124.000 339.670,123.685 339.056,123.300 338.832 C 122.915 338.608,122.740 338.419,122.910 338.412 C 123.081 338.405,122.941 337.860,122.600 337.200 C 122.259 336.540,122.110 336.000,122.270 336.000 C 122.429 336.000,122.344 335.784,122.080 335.520 C 121.816 335.256,121.600 334.705,121.600 334.296 C 121.600 333.887,121.420 333.664,121.200 333.800 C 120.825 334.032,120.623 333.233,120.770 332.100 C 120.806 331.825,120.647 331.600,120.418 331.600 C 120.188 331.600,120.000 331.240,120.000 330.800 C 120.000 330.360,119.864 330.000,119.698 330.000 C 119.531 330.000,119.136 329.415,118.820 328.700 C 118.503 327.985,117.920 327.051,117.522 326.625 C 117.125 326.198,116.800 325.613,116.800 325.325 C 116.800 325.036,116.620 324.800,116.400 324.800 C 116.180 324.800,116.000 324.440,116.000 324.000 C 116.000 323.560,115.820 323.200,115.600 323.200 C 115.380 323.200,115.200 322.930,115.200 322.600 C 115.200 322.270,115.048 322.000,114.863 322.000 C 114.677 322.000,114.109 321.190,113.600 320.200 C 113.091 319.210,112.523 318.400,112.337 318.400 C 112.152 318.400,112.000 318.106,112.000 317.747 C 112.000 317.388,111.683 316.803,111.295 316.447 C 110.907 316.091,110.142 315.126,109.595 314.303 C 109.048 313.479,108.465 312.804,108.300 312.803 C 108.135 312.801,108.000 312.453,108.000 312.029 C 108.000 311.605,107.556 310.909,107.014 310.482 C 106.471 310.055,106.141 309.592,106.280 309.453 C 106.419 309.314,106.313 309.200,106.043 309.200 C 105.773 309.200,105.644 309.053,105.755 308.873 C 105.866 308.693,105.607 308.293,105.179 307.985 C 104.750 307.676,104.400 307.187,104.400 306.899 C 104.400 306.611,104.131 306.272,103.802 306.146 C 103.474 306.019,103.304 305.755,103.426 305.558 C 103.548 305.361,103.461 305.200,103.234 305.200 C 103.007 305.200,102.563 304.705,102.248 304.100 C 101.933 303.495,101.209 302.460,100.638 301.800 C 100.068 301.140,99.601 300.418,99.600 300.196 C 99.600 299.974,99.240 299.568,98.800 299.293 C 98.360 299.018,98.000 298.474,98.000 298.085 C 98.000 297.695,97.640 297.117,97.200 296.800 C 96.760 296.483,96.400 295.993,96.400 295.712 C 96.400 295.430,96.220 295.200,96.000 295.200 C 95.780 295.200,95.600 294.919,95.600 294.576 C 95.600 294.233,95.420 294.064,95.200 294.200 C 94.980 294.336,94.800 294.167,94.800 293.824 C 94.800 293.481,94.620 293.200,94.400 293.200 C 94.180 293.200,94.000 292.970,94.000 292.688 C 94.000 292.407,93.640 291.917,93.200 291.600 C 92.760 291.283,92.400 290.827,92.400 290.587 C 92.400 290.347,92.051 289.776,91.624 289.318 C 91.197 288.860,90.957 288.376,91.091 288.243 C 91.224 288.109,91.145 288.000,90.915 288.000 C 90.685 288.000,90.274 287.462,90.002 286.805 C 89.730 286.148,89.386 285.685,89.238 285.776 C 89.091 285.868,88.720 285.370,88.415 284.671 C 88.110 283.972,87.532 283.109,87.130 282.753 C 86.729 282.397,86.400 281.911,86.400 281.673 C 86.400 281.435,86.085 281.056,85.700 280.832 C 85.315 280.608,85.163 280.419,85.361 280.412 C 85.560 280.405,85.379 280.085,84.958 279.700 C 84.538 279.315,83.940 278.505,83.630 277.900 C 83.319 277.295,82.915 276.800,82.732 276.800 C 82.550 276.800,82.400 276.519,82.400 276.176 C 82.400 275.833,82.220 275.664,82.000 275.800 C 81.780 275.936,81.600 275.806,81.600 275.512 C 81.600 275.217,81.240 274.717,80.800 274.400 C 80.360 274.083,80.000 273.493,80.000 273.088 C 80.000 272.684,79.820 272.464,79.600 272.600 C 79.380 272.736,79.200 272.567,79.200 272.224 C 79.200 271.881,79.020 271.600,78.800 271.600 C 78.580 271.600,78.400 271.357,78.400 271.059 C 78.400 270.762,77.860 269.954,77.200 269.263 C 76.540 268.572,76.000 267.913,76.000 267.797 C 76.000 267.555,73.196 263.223,72.600 262.545 C 71.336 261.106,70.800 260.347,70.800 259.995 C 70.800 259.778,70.620 259.600,70.400 259.600 C 70.180 259.600,70.000 259.370,70.000 259.088 C 70.000 258.807,69.640 258.317,69.200 258.000 C 68.760 257.683,68.400 257.220,68.400 256.971 C 68.400 256.722,67.905 255.994,67.300 255.352 C 66.695 254.711,65.945 253.694,65.632 253.093 C 65.320 252.492,64.915 252.000,64.732 252.000 C 64.550 252.000,64.400 251.745,64.400 251.434 C 64.400 251.123,63.860 250.358,63.200 249.735 C 62.540 249.112,62.000 248.327,62.000 247.990 C 62.000 247.652,61.640 247.117,61.200 246.800 C 60.760 246.483,60.400 245.983,60.400 245.688 C 60.400 245.394,60.220 245.264,60.000 245.400 C 59.780 245.536,59.600 245.367,59.600 245.024 C 59.600 244.681,59.420 244.400,59.200 244.400 C 58.980 244.400,58.800 244.040,58.800 243.600 C 58.800 243.160,58.620 242.800,58.400 242.800 C 58.180 242.800,58.000 242.260,58.000 241.600 C 58.000 240.940,57.853 240.400,57.672 240.400 C 57.064 240.400,58.003 234.615,58.905 232.800 C 59.926 230.746,60.922 229.647,62.500 228.832 C 63.105 228.520,63.600 228.115,63.600 227.932 C 63.600 227.750,63.960 227.600,64.400 227.600 C 64.840 227.600,65.200 227.420,65.200 227.200 C 65.200 225.800,74.058 227.380,74.733 228.900 C 74.807 229.065,75.152 229.200,75.500 229.200 C 75.848 229.200,76.032 229.301,75.909 229.424 C 75.702 229.632,76.026 230.047,78.549 232.800 C 79.052 233.350,79.804 234.385,80.219 235.100 C 80.633 235.815,81.114 236.400,81.286 236.400 C 81.459 236.400,81.600 236.790,81.600 237.267 C 81.600 237.743,81.711 238.022,81.848 237.886 C 82.166 237.567,83.200 238.593,83.200 239.228 C 83.200 239.495,83.740 240.229,84.400 240.860 C 85.060 241.491,85.600 242.185,85.600 242.403 C 85.600 242.622,85.780 242.800,86.000 242.800 C 86.220 242.800,86.400 243.070,86.400 243.400 C 86.400 243.730,86.580 244.000,86.800 244.000 C 87.020 244.000,87.200 244.243,87.200 244.541 C 87.200 244.838,87.740 245.646,88.400 246.337 C 89.060 247.028,89.600 247.792,89.600 248.036 C 89.600 248.280,90.110 248.956,90.734 249.540 C 91.358 250.123,92.168 251.230,92.534 252.000 C 92.900 252.770,93.660 253.940,94.223 254.600 C 94.786 255.260,95.596 256.205,96.021 256.700 C 96.447 257.195,96.678 257.600,96.536 257.600 C 96.394 257.600,96.654 257.926,97.114 258.325 C 97.574 258.724,98.006 259.301,98.075 259.607 C 98.187 260.108,98.829 260.924,100.609 262.834 C 100.934 263.182,101.200 263.677,101.200 263.934 C 101.200 264.190,101.336 264.400,101.502 264.400 C 101.669 264.400,102.048 264.950,102.346 265.623 C 102.644 266.296,102.985 266.748,103.104 266.629 C 103.382 266.351,104.371 267.641,104.387 268.304 C 104.394 268.581,104.940 269.372,105.600 270.063 C 106.260 270.754,106.800 271.573,106.800 271.883 C 106.800 272.193,106.980 272.336,107.200 272.200 C 107.420 272.064,107.600 272.233,107.600 272.576 C 107.600 272.919,107.780 273.200,108.000 273.200 C 108.220 273.200,108.400 273.430,108.400 273.712 C 108.400 273.993,108.750 274.476,109.179 274.785 C 109.607 275.093,109.866 275.493,109.755 275.673 C 109.644 275.853,109.827 276.000,110.162 276.000 C 110.498 276.000,110.965 276.360,111.200 276.800 C 111.435 277.240,111.892 277.600,112.214 277.600 C 112.536 277.600,112.800 277.780,112.800 278.000 C 112.800 278.220,113.160 278.400,113.600 278.400 C 114.040 278.400,114.400 278.560,114.400 278.755 C 114.400 278.950,116.470 279.138,119.000 279.173 C 121.977 279.215,123.600 279.089,123.600 278.819 C 123.600 278.588,123.960 278.400,124.400 278.400 C 124.840 278.400,125.200 278.220,125.200 278.000 C 125.200 277.780,125.474 277.600,125.809 277.600 C 126.508 277.600,130.800 273.510,130.800 272.843 C 130.800 272.599,130.980 272.400,131.200 272.400 C 131.420 272.400,131.600 271.860,131.600 271.200 C 131.600 270.540,131.780 270.000,132.000 270.000 C 132.265 270.000,132.400 242.000,132.400 186.800 C 132.400 131.600,132.535 103.600,132.800 103.600 C 133.020 103.600,133.200 103.240,133.200 102.800 C 133.200 102.360,133.388 102.000,133.618 102.000 C 133.847 102.000,133.988 101.775,133.930 101.500 C 133.809 100.925,135.133 98.800,135.612 98.800 C 135.787 98.800,136.576 98.174,137.365 97.408 C 138.153 96.642,139.249 95.903,139.799 95.764 C 140.350 95.626,140.800 95.353,140.800 95.157 C 140.800 94.960,142.161 94.800,143.824 94.800 C 145.737 94.800,146.756 94.947,146.600 95.200 " stroke="none" fill="#f4c493" fill-rule="evenodd"></path><path id="path3" d="M106.489 136.600 C 106.434 144.520,106.289 151.450,106.167 152.000 C 105.983 152.827,106.020 152.884,106.377 152.327 C 106.673 151.867,106.775 146.979,106.700 136.927 L 106.590 122.200 106.489 136.600 M180.084 138.076 C 180.038 146.148,180.135 152.836,180.300 152.939 C 180.572 153.107,180.560 137.310,180.281 127.400 C 180.219 125.200,180.131 130.004,180.084 138.076 " stroke="none" fill="#cca47c" fill-rule="evenodd"></path><path id="path4" d="M106.600 137.200 C 106.600 145.738,106.735 152.640,106.900 152.538 C 107.288 152.298,107.282 122.748,106.894 122.138 C 106.732 121.884,106.600 128.662,106.600 137.200 M179.695 138.251 C 179.607 151.605,179.653 152.744,180.300 153.251 C 180.919 153.736,180.943 153.726,180.505 153.165 C 180.138 152.694,179.982 148.826,179.900 138.165 L 179.790 123.800 179.695 138.251 M67.300 200.676 C 67.685 200.776,68.315 200.776,68.700 200.676 C 69.085 200.575,68.770 200.493,68.000 200.493 C 67.230 200.493,66.915 200.575,67.300 200.676 " stroke="none" fill="#d4ac84" fill-rule="evenodd"></path></g></svg>