<svg id="svg" version="1.1" xmlns="http://www.w3.org/2000/svg" xmlns:xlink="http://www.w3.org/1999/xlink" width="400" height="386.71875" viewBox="0, 0, 400,386.71875"><g id="svgg"><path id="path0" d="M194.487 35.483 C 195.179 35.569,196.310 35.569,197.002 35.483 C 197.693 35.397,197.128 35.327,195.745 35.327 C 194.362 35.327,193.796 35.397,194.487 35.483 M204.163 35.477 C 204.644 35.569,205.341 35.566,205.711 35.469 C 206.080 35.372,205.687 35.296,204.836 35.301 C 203.985 35.305,203.682 35.384,204.163 35.477 M192.843 41.831 C 191.992 42.028,190.338 42.382,189.168 42.617 C 186.722 43.108,184.488 43.786,182.574 44.619 C 181.839 44.938,180.193 45.595,178.917 46.079 C 159.098 53.583,137.830 79.258,128.962 106.383 C 128.441 107.979,127.865 109.632,127.683 110.058 C 127.500 110.484,126.970 112.137,126.505 113.733 C 126.039 115.329,125.342 117.592,124.956 118.762 C 124.223 120.981,122.984 125.945,122.250 129.594 C 122.015 130.764,121.671 132.331,121.485 133.075 C 121.299 133.820,120.952 135.648,120.714 137.137 C 120.475 138.627,120.113 140.846,119.908 142.070 C 118.191 152.329,118.075 153.087,117.582 157.253 C 116.750 164.291,115.480 167.765,114.059 166.887 C 113.595 166.600,112.573 164.335,112.573 163.595 C 112.573 163.212,112.417 162.499,112.226 162.010 C 112.035 161.522,111.670 160.338,111.415 159.381 C 111.159 158.424,110.793 157.338,110.601 156.968 C 110.409 156.599,110.251 155.869,110.251 155.347 C 110.251 154.825,110.077 154.290,109.865 154.159 C 109.652 154.027,109.478 153.505,109.478 152.998 C 109.478 152.491,109.304 151.969,109.091 151.838 C 108.878 151.706,108.704 151.204,108.704 150.723 C 108.704 150.241,108.182 148.769,107.544 147.451 C 106.905 146.133,106.383 144.807,106.383 144.504 C 106.383 144.201,106.209 143.845,105.996 143.714 C 105.783 143.582,105.609 143.175,105.609 142.809 C 105.609 141.857,101.094 133.009,98.918 129.697 C 91.072 117.753,78.537 118.467,76.592 130.969 C 75.075 140.724,80.508 154.027,91.514 167.505 C 92.470 168.675,93.663 170.242,94.166 170.986 C 94.669 171.731,96.663 173.994,98.598 176.015 C 100.533 178.037,102.118 179.796,102.122 179.925 C 102.134 180.392,111.161 188.395,111.677 188.395 C 111.853 188.395,112.736 189.091,113.639 189.942 C 114.543 190.793,115.543 191.489,115.862 191.489 C 116.180 191.489,116.441 191.663,116.441 191.876 C 116.441 192.089,116.789 192.263,117.215 192.263 C 117.640 192.263,117.988 192.118,117.988 191.942 C 117.988 191.765,118.467 191.374,119.052 191.074 C 119.637 190.773,120.398 190.222,120.742 189.848 C 121.086 189.474,121.539 189.168,121.748 189.168 C 121.958 189.168,122.675 188.646,123.343 188.008 C 124.011 187.369,124.735 186.847,124.952 186.847 C 125.168 186.847,125.892 186.325,126.560 185.687 C 127.228 185.048,127.930 184.526,128.121 184.526 C 128.312 184.526,128.904 184.091,129.436 183.559 C 129.967 183.027,130.561 182.592,130.754 182.592 C 130.948 182.592,131.524 182.174,132.034 181.664 C 132.544 181.154,133.466 180.474,134.082 180.154 C 134.699 179.833,135.625 179.119,136.141 178.567 C 136.657 178.015,137.277 177.563,137.519 177.563 C 137.761 177.563,138.460 177.041,139.072 176.402 C 139.683 175.764,140.379 175.242,140.619 175.242 C 140.858 175.242,141.555 174.720,142.166 174.081 C 142.778 173.443,143.427 172.921,143.609 172.921 C 144.010 172.921,146.796 170.936,149.175 168.956 C 150.133 168.158,151.063 167.505,151.240 167.505 C 151.418 167.505,152.392 166.721,153.406 165.764 C 154.419 164.807,155.392 164.023,155.567 164.023 C 155.743 164.023,156.703 163.240,157.703 162.282 C 158.702 161.325,159.657 160.542,159.824 160.542 C 159.992 160.542,160.701 159.970,161.399 159.272 C 162.098 158.574,163.453 157.461,164.410 156.799 C 165.368 156.137,166.586 155.120,167.118 154.540 C 167.650 153.961,169.652 152.307,171.567 150.866 C 173.482 149.425,175.648 147.618,176.381 146.850 C 177.115 146.083,177.870 145.455,178.059 145.455 C 178.919 145.455,201.543 123.671,201.551 122.836 C 201.554 122.617,202.380 121.558,203.389 120.482 C 204.397 119.407,205.828 117.754,206.569 116.807 C 207.310 115.861,208.217 114.739,208.585 114.313 C 211.220 111.264,212.404 109.768,213.784 107.737 C 219.038 100.009,220.457 97.807,221.637 95.551 C 222.361 94.168,223.054 92.950,223.179 92.843 C 223.687 92.407,224.371 90.870,224.371 90.163 C 224.371 89.748,224.545 89.300,224.758 89.168 C 224.971 89.037,225.145 88.670,225.145 88.353 C 225.145 88.036,225.469 87.107,225.864 86.289 C 226.260 85.470,226.820 83.999,227.109 83.019 C 227.398 82.039,227.771 81.238,227.937 81.238 C 228.104 81.238,228.240 80.639,228.240 79.907 C 228.240 79.175,228.414 78.468,228.627 78.337 C 228.839 78.205,229.014 77.335,229.014 76.402 C 229.014 75.470,229.188 74.600,229.400 74.468 C 229.628 74.327,229.787 72.022,229.787 68.859 C 229.787 65.696,229.628 63.390,229.400 63.250 C 229.188 63.118,229.014 62.409,229.014 61.674 C 229.014 60.939,228.857 60.035,228.666 59.666 C 228.475 59.296,227.569 57.450,226.652 55.563 C 223.247 48.550,217.364 44.198,209.091 42.569 C 207.814 42.317,206.140 41.950,205.371 41.752 C 203.609 41.299,194.904 41.354,192.843 41.831 M228.240 45.068 C 228.962 45.812,229.639 46.422,229.746 46.422 C 229.852 46.422,229.348 45.812,228.627 45.068 C 227.905 44.323,227.227 43.714,227.121 43.714 C 227.015 43.714,227.518 44.323,228.240 45.068 M150.665 59.284 L 148.356 61.702 150.774 59.393 C 153.020 57.248,153.369 56.867,153.083 56.867 C 153.023 56.867,151.935 57.955,150.665 59.284 M236.474 64.410 C 236.477 65.474,236.552 65.863,236.641 65.275 C 236.730 64.687,236.728 63.817,236.636 63.341 C 236.544 62.865,236.471 63.346,236.474 64.410 M236.461 70.213 C 236.465 71.064,236.545 71.366,236.637 70.885 C 236.730 70.404,236.726 69.708,236.629 69.338 C 236.533 68.968,236.457 69.362,236.461 70.213 M299.130 104.351 C 301.630 104.418,305.721 104.418,308.221 104.351 C 310.721 104.283,308.675 104.228,303.675 104.228 C 298.675 104.228,296.630 104.283,299.130 104.351 M287.137 105.113 C 287.722 105.201,288.680 105.201,289.265 105.113 C 289.850 105.024,289.371 104.952,288.201 104.952 C 287.031 104.952,286.552 105.024,287.137 105.113 M317.122 105.109 C 317.604 105.202,318.300 105.198,318.670 105.101 C 319.040 105.005,318.646 104.929,317.795 104.933 C 316.944 104.937,316.641 105.017,317.122 105.109 M287.911 111.292 C 288.283 111.389,288.893 111.389,289.265 111.292 C 289.637 111.195,289.333 111.115,288.588 111.115 C 287.843 111.115,287.539 111.195,287.911 111.292 M98.259 120.116 C 98.981 120.861,99.659 121.470,99.765 121.470 C 99.871 121.470,99.368 120.861,98.646 120.116 C 97.924 119.371,97.247 118.762,97.140 118.762 C 97.034 118.762,97.537 119.371,98.259 120.116 M210.424 121.373 L 209.091 122.824 210.542 121.491 C 211.892 120.250,212.170 119.923,211.875 119.923 C 211.810 119.923,211.157 120.575,210.424 121.373 M361.315 122.752 C 361.315 122.818,361.881 123.384,362.573 124.009 L 363.830 125.145 362.694 123.888 C 361.634 122.716,361.315 122.453,361.315 122.752 M366.731 127.853 C 367.887 129.023,368.919 129.981,369.026 129.981 C 369.132 129.981,368.274 129.023,367.118 127.853 C 365.962 126.683,364.930 125.725,364.823 125.725 C 364.717 125.725,365.575 126.683,366.731 127.853 M212.285 132.016 C 211.488 132.459,210.902 132.888,210.982 132.968 C 211.109 133.094,213.842 131.707,214.281 131.293 C 214.714 130.885,213.574 131.298,212.285 132.016 M194.190 138.008 L 190.522 141.779 194.294 138.112 C 197.797 134.706,198.242 134.236,197.961 134.236 C 197.904 134.236,196.207 135.933,194.190 138.008 M378.723 141.586 C 379.178 142.224,379.637 142.747,379.743 142.747 C 379.850 142.747,379.565 142.224,379.110 141.586 C 378.656 140.948,378.197 140.426,378.090 140.426 C 377.984 140.426,378.269 140.948,378.723 141.586 M185.469 145.938 L 184.333 147.195 185.590 146.059 C 186.762 145.000,187.025 144.681,186.726 144.681 C 186.660 144.681,186.094 145.247,185.469 145.938 M181.474 149.371 C 180.504 150.232,180.035 150.870,180.374 150.870 C 180.698 150.870,181.512 150.357,182.183 149.730 C 182.854 149.103,183.526 148.566,183.675 148.537 C 184.178 148.440,184.175 148.259,183.668 148.065 C 183.391 147.958,182.404 148.546,181.474 149.371 M44.391 169.719 C 45.082 169.805,46.214 169.805,46.905 169.719 C 47.597 169.633,47.031 169.563,45.648 169.563 C 44.265 169.563,43.699 169.633,44.391 169.719 M38.008 170.103 C 38.593 170.192,39.550 170.192,40.135 170.103 C 40.721 170.014,40.242 169.942,39.072 169.942 C 37.901 169.942,37.423 170.014,38.008 170.103 M50.580 170.099 C 51.059 170.191,51.842 170.191,52.321 170.099 C 52.800 170.007,52.408 169.931,51.451 169.931 C 50.493 169.931,50.102 170.007,50.580 170.099 M93.230 178.917 C 93.952 179.662,94.630 180.271,94.736 180.271 C 94.842 180.271,94.339 179.662,93.617 178.917 C 92.895 178.172,92.218 177.563,92.111 177.563 C 92.005 177.563,92.508 178.172,93.230 178.917 M11.971 181.335 L 10.638 182.785 12.089 181.452 C 13.439 180.211,13.718 179.884,13.422 179.884 C 13.357 179.884,12.705 180.537,11.971 181.335 M95.164 181.166 C 95.164 181.232,95.730 181.798,96.422 182.423 L 97.679 183.559 96.543 182.302 C 95.484 181.130,95.164 180.867,95.164 181.166 M394.704 184.720 C 394.706 185.996,394.778 186.472,394.864 185.776 C 394.951 185.081,394.949 184.037,394.861 183.455 C 394.772 182.874,394.702 183.443,394.704 184.720 M97.131 184.119 C 96.735 184.364,96.814 184.506,97.464 184.713 C 98.498 185.041,98.850 184.790,98.159 184.217 C 97.868 183.975,97.431 183.934,97.131 184.119 M395.513 196.712 C 395.513 199.903,395.573 201.157,395.646 199.499 C 395.718 197.840,395.718 195.229,395.645 193.696 C 395.571 192.163,395.512 193.520,395.513 196.712 M113.346 200.643 C 112.389 201.390,110.968 202.595,110.189 203.321 C 109.410 204.048,108.656 204.642,108.514 204.642 C 108.037 204.642,93.235 220.247,93.222 220.765 C 93.217 220.940,92.303 222.055,91.191 223.242 C 90.078 224.430,88.921 225.866,88.619 226.434 C 88.317 227.002,87.926 227.466,87.749 227.466 C 87.572 227.466,87.427 227.684,87.426 227.950 C 87.425 228.216,86.902 228.990,86.265 229.670 C 85.628 230.349,85.106 231.068,85.106 231.266 C 85.106 231.465,84.858 231.833,84.554 232.085 C 84.250 232.337,83.531 233.447,82.957 234.550 C 82.382 235.654,81.800 236.644,81.662 236.750 C 81.250 237.070,78.136 243.482,78.140 244.004 C 78.142 244.270,77.969 244.487,77.756 244.487 C 77.544 244.487,77.369 244.888,77.369 245.377 C 77.369 245.867,77.231 246.432,77.062 246.634 C 76.701 247.064,76.100 248.926,75.444 251.644 C 75.187 252.708,74.800 253.950,74.584 254.405 C 73.260 257.189,74.748 266.124,77.015 269.006 C 78.774 271.241,84.010 272.727,86.175 271.606 C 86.545 271.414,87.699 270.849,88.739 270.348 C 90.531 269.487,93.285 266.944,97.031 262.690 C 99.024 260.427,104.263 250.199,105.563 246.035 C 106.061 244.439,106.798 242.464,107.200 241.646 C 107.602 240.828,107.930 239.838,107.930 239.445 C 107.930 239.052,108.104 238.623,108.317 238.491 C 108.530 238.360,108.704 237.576,108.704 236.750 C 108.704 235.925,108.878 235.141,109.091 235.010 C 109.304 234.878,109.478 234.269,109.478 233.656 C 109.478 233.043,109.652 232.433,109.865 232.302 C 110.077 232.170,110.251 231.561,110.251 230.948 C 110.251 230.335,110.426 229.725,110.638 229.594 C 110.851 229.462,111.031 228.799,111.037 228.120 C 111.062 225.651,112.051 225.095,113.903 226.507 C 115.801 227.955,116.360 229.944,116.837 236.944 C 117.341 244.318,117.833 249.256,118.381 252.418 C 118.602 253.694,118.952 255.783,119.158 257.060 C 119.790 260.977,120.226 263.182,120.686 264.797 C 120.929 265.648,121.438 267.650,121.817 269.246 C 122.552 272.336,122.812 273.200,124.384 277.756 C 124.935 279.352,125.817 281.963,126.345 283.559 C 126.873 285.155,127.454 286.809,127.636 287.234 C 127.819 287.660,128.225 288.617,128.541 289.362 C 130.186 293.248,131.372 295.876,131.994 297.014 C 132.376 297.712,132.689 298.435,132.689 298.622 C 132.689 298.914,135.082 303.302,138.065 308.480 C 139.326 310.668,141.919 314.482,143.216 316.054 C 143.830 316.799,145.038 318.279,145.900 319.342 C 148.501 322.552,157.313 331.407,159.920 333.430 C 162.981 335.806,170.434 340.812,170.909 340.812 C 171.105 340.812,172.377 341.358,173.737 342.024 C 175.096 342.690,176.644 343.407,177.176 343.616 C 177.708 343.826,178.445 344.151,178.815 344.339 C 179.184 344.527,179.837 344.681,180.266 344.681 C 180.694 344.681,181.044 344.855,181.044 345.068 C 181.044 345.280,181.567 345.455,182.205 345.455 C 182.843 345.455,183.366 345.629,183.366 345.841 C 183.366 346.054,183.853 346.228,184.449 346.228 C 185.044 346.228,185.697 346.384,185.899 346.575 C 186.737 347.367,199.667 348.201,202.708 347.659 C 206.505 346.983,208.355 346.506,209.174 345.992 C 209.645 345.696,210.274 345.455,210.571 345.455 C 215.273 345.455,227.466 333.745,227.466 329.230 C 227.466 328.877,227.622 328.423,227.813 328.221 C 228.635 327.351,229.366 316.639,228.653 315.925 C 228.426 315.698,228.240 314.861,228.240 314.065 C 228.240 313.269,228.066 312.511,227.853 312.379 C 227.640 312.248,227.466 311.551,227.466 310.832 C 227.466 310.112,227.292 309.416,227.079 309.284 C 226.867 309.153,226.692 308.631,226.692 308.124 C 226.692 307.617,226.518 307.095,226.306 306.963 C 226.093 306.832,225.919 306.426,225.919 306.063 C 225.919 304.016,218.273 290.589,214.206 285.493 C 213.612 284.749,213.000 283.965,212.846 283.752 C 211.514 281.912,209.561 279.534,207.940 277.776 C 204.094 273.606,180.203 250.091,179.567 249.851 C 179.209 249.715,178.201 248.845,177.325 247.916 C 174.904 245.348,170.027 240.752,169.540 240.579 C 169.302 240.495,168.090 239.468,166.847 238.298 C 165.603 237.128,163.952 235.694,163.177 235.112 C 162.403 234.530,161.536 233.834,161.252 233.565 C 160.968 233.296,160.097 232.599,159.318 232.017 C 158.538 231.436,157.668 230.736,157.384 230.464 C 157.099 230.191,155.558 228.991,153.959 227.797 C 152.361 226.603,150.471 225.082,149.760 224.418 C 149.049 223.754,148.354 223.211,148.214 223.211 C 148.075 223.211,147.527 222.808,146.996 222.316 C 146.465 221.824,145.753 221.258,145.413 221.059 C 145.073 220.859,144.030 220.044,143.094 219.247 C 140.875 217.356,134.178 212.220,131.365 210.251 C 130.149 209.400,127.990 207.833,126.569 206.768 C 125.148 205.704,123.333 204.398,122.536 203.867 C 121.740 203.336,121.087 202.771,121.086 202.611 C 121.084 202.452,120.866 202.319,120.600 202.317 C 120.334 202.315,119.246 201.620,118.182 200.774 C 115.851 198.919,115.567 198.912,113.346 200.643 M395.098 205.996 C 395.100 207.485,395.170 208.047,395.253 207.245 C 395.337 206.442,395.336 205.224,395.250 204.537 C 395.165 203.850,395.096 204.507,395.098 205.996 M94.778 210.058 C 94.291 210.372,94.317 210.434,94.934 210.439 C 95.659 210.445,95.659 210.459,94.934 211.309 C 94.288 212.066,94.283 212.105,94.895 211.631 C 96.532 210.360,96.430 208.990,94.778 210.058 M84.502 224.468 L 83.366 225.725 84.623 224.589 C 85.795 223.530,86.058 223.211,85.759 223.211 C 85.692 223.211,85.127 223.777,84.502 224.468 M36.847 224.638 C 37.220 224.735,37.829 224.735,38.201 224.638 C 38.574 224.541,38.269 224.461,37.524 224.461 C 36.779 224.461,36.475 224.541,36.847 224.638 M46.712 224.644 C 47.191 224.737,47.974 224.737,48.453 224.644 C 48.931 224.552,48.540 224.477,47.582 224.477 C 46.625 224.477,46.233 224.552,46.712 224.644 M388.457 233.866 C 387.809 235.288,387.933 235.592,388.634 234.298 C 388.961 233.695,389.156 233.128,389.068 233.040 C 388.979 232.951,388.705 233.323,388.457 233.866 M171.605 236.074 C 171.720 236.339,172.367 236.989,173.044 237.517 C 173.911 238.193,174.103 238.257,173.694 237.734 C 173.165 237.058,173.176 237.016,173.811 237.254 C 174.240 237.415,174.415 237.364,174.266 237.123 C 174.132 236.907,173.786 236.778,173.497 236.837 C 173.208 236.896,172.975 236.789,172.979 236.600 C 172.987 236.243,172.160 235.606,171.676 235.596 C 171.523 235.593,171.491 235.808,171.605 236.074 M184.139 246.615 C 184.861 247.360,185.539 247.969,185.645 247.969 C 185.751 247.969,185.248 247.360,184.526 246.615 C 183.804 245.870,183.127 245.261,183.020 245.261 C 182.914 245.261,183.417 245.870,184.139 246.615 M110.721 247.655 C 110.463 247.913,110.251 248.296,110.251 248.507 C 110.251 248.718,110.500 248.553,110.804 248.140 C 111.260 247.520,111.390 247.490,111.547 247.969 C 112.051 249.504,112.155 249.624,112.077 248.579 C 111.983 247.320,111.431 246.944,110.721 247.655 M366.331 254.449 L 364.217 256.673 366.441 254.559 C 368.508 252.594,368.843 252.224,368.555 252.224 C 368.495 252.224,367.494 253.225,366.331 254.449 M107.993 253.595 C 107.345 255.017,107.469 255.321,108.170 254.028 C 108.497 253.424,108.692 252.857,108.604 252.769 C 108.515 252.680,108.241 253.052,107.993 253.595 M370.205 261.025 L 366.538 264.797 370.309 261.129 C 372.384 259.112,374.081 257.415,374.081 257.358 C 374.081 257.077,373.611 257.522,370.205 261.025 M203.868 265.184 C 206.308 267.631,208.392 269.632,208.498 269.632 C 208.604 269.632,206.695 267.631,204.255 265.184 C 201.815 262.737,199.732 260.735,199.626 260.735 C 199.519 260.735,201.429 262.737,203.868 265.184 M363.805 267.021 L 362.669 268.279 363.926 267.142 C 364.618 266.517,365.184 265.952,365.184 265.885 C 365.184 265.586,364.865 265.849,363.805 267.021 M95.530 273.017 L 94.197 274.468 95.648 273.135 C 96.998 271.894,97.277 271.567,96.981 271.567 C 96.916 271.567,96.264 272.220,95.530 273.017 M354.545 273.527 C 353.907 273.936,353.583 274.272,353.826 274.273 C 354.068 274.274,354.677 273.932,355.180 273.514 C 356.330 272.556,356.053 272.562,354.545 273.527 M211.605 273.235 C 211.605 273.302,212.171 273.868,212.863 274.492 L 214.120 275.629 212.984 274.371 C 211.925 273.199,211.605 272.936,211.605 273.235 M285.687 281.238 C 286.112 281.421,286.721 281.570,287.041 281.570 C 287.406 281.570,287.335 281.447,286.847 281.238 C 286.422 281.055,285.812 280.905,285.493 280.905 C 285.127 280.905,285.199 281.028,285.687 281.238 M307.060 281.898 C 307.539 281.990,308.322 281.990,308.801 281.898 C 309.279 281.806,308.888 281.730,307.930 281.730 C 306.973 281.730,306.581 281.806,307.060 281.898 M223.985 288.975 C 224.439 289.613,224.898 290.135,225.004 290.135 C 225.111 290.135,224.826 289.613,224.371 288.975 C 223.917 288.337,223.458 287.814,223.352 287.814 C 223.245 287.814,223.530 288.337,223.985 288.975 M309.574 288.081 C 309.947 288.178,310.556 288.178,310.928 288.081 C 311.301 287.984,310.996 287.904,310.251 287.904 C 309.507 287.904,309.202 287.984,309.574 288.081 M297.969 288.486 C 298.980 288.565,300.633 288.565,301.644 288.486 C 302.655 288.406,301.828 288.341,299.807 288.341 C 297.785 288.341,296.958 288.406,297.969 288.486 M235.680 319.536 C 235.680 320.280,235.759 320.585,235.857 320.213 C 235.954 319.840,235.954 319.231,235.857 318.859 C 235.759 318.486,235.680 318.791,235.680 319.536 M235.314 323.211 C 235.317 324.275,235.392 324.664,235.481 324.076 C 235.570 323.488,235.567 322.617,235.475 322.142 C 235.384 321.666,235.311 322.147,235.314 323.211 M146.228 329.787 C 146.950 330.532,147.628 331.141,147.734 331.141 C 147.840 331.141,147.337 330.532,146.615 329.787 C 145.893 329.043,145.216 328.433,145.109 328.433 C 145.003 328.433,145.506 329.043,146.228 329.787 M231.990 335.982 C 231.637 336.724,231.427 337.331,231.524 337.331 C 231.789 337.331,232.963 334.962,232.786 334.785 C 232.703 334.701,232.344 335.240,231.990 335.982 M152.031 335.518 C 152.031 335.584,152.597 336.150,153.288 336.775 L 154.545 337.911 153.409 336.654 C 152.350 335.482,152.031 335.219,152.031 335.518 M226.294 343.810 L 223.791 346.422 226.402 343.918 C 227.838 342.541,229.014 341.366,229.014 341.307 C 229.014 341.022,228.620 341.385,226.294 343.810 M202.031 354.619 C 202.403 354.716,203.013 354.716,203.385 354.619 C 203.757 354.521,203.453 354.442,202.708 354.442 C 201.963 354.442,201.659 354.521,202.031 354.619 " stroke="none" fill="#06a2e8" fill-rule="evenodd"></path><path id="path1" d="M296.132 110.895 C 294.217 110.974,292.389 111.148,292.070 111.281 C 291.750 111.415,289.975 111.542,288.124 111.565 C 286.060 111.590,284.578 111.786,284.291 112.073 C 283.988 112.375,283.226 112.459,282.136 112.310 C 280.847 112.133,280.276 112.236,279.711 112.747 C 279.232 113.181,278.684 113.324,278.152 113.156 C 277.673 113.004,277.074 113.110,276.711 113.411 C 276.370 113.695,275.324 113.931,274.388 113.937 C 273.433 113.943,272.551 114.166,272.380 114.443 C 272.189 114.752,271.708 114.847,271.102 114.695 C 270.455 114.532,269.918 114.663,269.496 115.086 C 269.124 115.457,268.559 115.624,268.132 115.489 C 267.657 115.338,267.318 115.480,267.157 115.898 C 266.963 116.405,266.597 116.488,265.399 116.296 C 264.291 116.119,263.722 116.217,263.278 116.661 C 262.921 117.018,262.365 117.170,261.925 117.031 C 261.500 116.896,261.042 117.009,260.860 117.294 C 260.273 118.217,258.761 118.815,257.640 118.569 C 256.834 118.392,256.447 118.503,256.174 118.990 C 255.931 119.424,255.521 119.578,254.980 119.436 C 254.460 119.300,254.032 119.443,253.819 119.825 C 253.623 120.175,253.222 120.330,252.864 120.192 C 252.524 120.062,251.993 120.209,251.683 120.519 C 251.373 120.829,250.846 121.083,250.511 121.083 C 250.177 121.083,249.903 121.257,249.903 121.470 C 249.903 121.683,249.381 121.857,248.743 121.857 C 248.104 121.857,247.582 122.031,247.582 122.244 C 247.582 122.456,247.234 122.631,246.809 122.631 C 246.383 122.631,246.035 122.805,246.035 123.017 C 246.035 123.230,245.513 123.404,244.874 123.404 C 244.236 123.404,243.714 123.578,243.714 123.791 C 243.714 124.004,243.366 124.178,242.940 124.178 C 242.515 124.178,242.166 124.352,242.166 124.565 C 242.166 124.778,241.557 124.952,240.812 124.952 C 240.068 124.952,239.458 125.126,239.458 125.338 C 239.458 125.551,239.197 125.725,238.878 125.725 C 238.559 125.725,238.298 125.899,238.298 126.112 C 238.298 126.325,237.950 126.499,237.524 126.499 C 237.099 126.499,236.750 126.673,236.750 126.886 C 236.750 127.099,236.141 127.273,235.397 127.273 C 234.652 127.273,234.043 127.447,234.043 127.660 C 234.043 127.872,233.781 128.046,233.462 128.046 C 233.143 128.046,232.882 128.221,232.882 128.433 C 232.882 128.646,232.534 128.820,232.108 128.820 C 231.683 128.820,231.335 128.994,231.335 129.207 C 231.335 129.420,230.986 129.594,230.561 129.594 C 230.135 129.594,229.787 129.768,229.787 129.981 C 229.787 130.193,229.352 130.368,228.820 130.368 C 228.288 130.368,227.853 130.542,227.853 130.754 C 227.853 130.967,227.505 131.141,227.079 131.141 C 226.654 131.141,226.306 131.315,226.306 131.528 C 226.306 131.741,225.957 131.915,225.532 131.915 C 225.106 131.915,224.758 132.089,224.758 132.302 C 224.758 132.515,224.410 132.689,223.985 132.689 C 223.559 132.689,223.211 132.863,223.211 133.075 C 223.211 133.288,222.863 133.462,222.437 133.462 C 222.012 133.462,221.663 133.636,221.663 133.849 C 221.663 134.062,221.315 134.236,220.890 134.236 C 220.464 134.236,220.116 134.410,220.116 134.623 C 220.116 134.836,219.768 135.010,219.342 135.010 C 218.917 135.010,218.569 135.184,218.569 135.397 C 218.569 135.609,218.157 135.783,217.654 135.783 C 217.151 135.783,216.282 136.241,215.723 136.800 C 214.672 137.851,209.910 140.426,209.016 140.426 C 208.738 140.426,208.511 140.600,208.511 140.812 C 208.511 141.025,208.231 141.199,207.889 141.199 C 207.548 141.199,206.944 141.611,206.548 142.115 C 206.024 142.780,205.559 142.980,204.848 142.844 C 204.273 142.734,203.868 142.835,203.868 143.088 C 203.868 143.326,203.520 143.520,203.095 143.520 C 202.669 143.520,202.321 143.676,202.321 143.865 C 202.321 144.055,201.891 144.318,201.365 144.450 C 200.839 144.582,200.227 145.030,200.005 145.445 C 199.768 145.888,199.364 146.108,199.027 145.979 C 198.711 145.858,198.453 145.932,198.453 146.145 C 198.453 146.357,198.022 146.639,197.497 146.771 C 196.971 146.903,196.359 147.351,196.137 147.766 C 195.915 148.181,195.497 148.430,195.208 148.319 C 194.920 148.209,194.576 148.400,194.443 148.745 C 194.311 149.090,194.034 149.268,193.828 149.140 C 193.386 148.867,190.329 150.710,190.329 151.250 C 190.329 151.453,190.089 151.528,189.795 151.415 C 189.502 151.302,188.934 151.626,188.534 152.135 C 188.134 152.644,187.615 152.996,187.381 152.918 C 187.146 152.840,186.657 153.231,186.292 153.788 C 185.924 154.349,185.396 154.710,185.107 154.599 C 184.820 154.489,184.297 154.837,183.946 155.373 C 183.563 155.958,183.082 156.260,182.742 156.130 C 182.430 156.010,182.073 156.180,181.947 156.508 C 181.821 156.836,181.473 157.010,181.173 156.895 C 180.874 156.780,180.530 156.943,180.409 157.258 C 180.288 157.572,180.045 157.740,179.868 157.631 C 179.692 157.521,179.099 157.880,178.552 158.427 C 178.004 158.975,177.410 159.332,177.232 159.222 C 177.053 159.112,176.426 159.624,175.838 160.362 C 175.250 161.099,174.440 161.702,174.038 161.702 C 173.636 161.702,173.308 161.876,173.308 162.089 C 173.308 162.302,172.959 162.476,172.534 162.476 C 172.108 162.476,171.760 162.650,171.760 162.863 C 171.760 163.075,171.450 163.250,171.072 163.250 C 170.693 163.250,170.133 163.598,169.826 164.023 C 169.519 164.449,168.997 164.797,168.665 164.797 C 168.334 164.797,167.812 165.145,167.505 165.571 C 167.198 165.996,166.676 166.344,166.344 166.344 C 166.013 166.344,165.490 166.692,165.184 167.118 C 164.877 167.544,164.316 167.892,163.938 167.892 C 163.559 167.892,163.250 168.066,163.250 168.279 C 163.250 168.491,162.921 168.665,162.519 168.665 C 162.118 168.665,161.378 169.186,160.875 169.822 C 160.278 170.579,159.609 170.981,158.945 170.983 C 158.386 170.985,157.718 171.240,157.461 171.550 C 157.204 171.859,155.703 172.750,154.125 173.530 C 152.548 174.309,151.257 175.100,151.257 175.288 C 151.257 175.475,151.029 175.629,150.750 175.629 C 150.471 175.629,149.905 175.933,149.493 176.306 C 149.080 176.678,148.264 177.230,147.679 177.532 C 147.094 177.833,146.615 178.225,146.615 178.402 C 146.615 178.579,146.375 178.723,146.082 178.723 C 145.789 178.723,145.325 178.993,145.052 179.323 C 144.778 179.653,143.819 180.257,142.919 180.667 C 142.020 181.077,140.867 181.907,140.358 182.513 C 139.848 183.119,139.239 183.550,139.004 183.472 C 138.768 183.393,138.252 183.729,137.857 184.218 C 137.461 184.707,136.963 185.108,136.750 185.110 C 136.050 185.118,133.462 186.541,133.462 186.919 C 133.462 187.601,132.366 188.395,131.750 188.159 C 131.342 188.002,131.141 188.144,131.141 188.588 C 131.141 189.011,130.936 189.172,130.575 189.034 C 130.245 188.907,129.688 189.225,129.237 189.799 C 128.812 190.339,128.297 190.677,128.093 190.551 C 127.889 190.425,127.374 190.763,126.949 191.303 C 126.525 191.843,126.032 192.252,125.855 192.212 C 125.211 192.068,124.178 192.746,124.178 193.313 C 124.178 193.632,123.953 193.807,123.678 193.701 C 122.911 193.407,122.005 194.267,121.768 195.512 C 121.497 196.940,123.662 199.056,125.735 199.387 C 125.846 199.405,126.454 199.898,127.085 200.484 C 127.716 201.069,128.348 201.547,128.489 201.547 C 128.631 201.547,129.483 202.162,130.383 202.914 C 131.282 203.666,132.104 204.195,132.208 204.091 C 132.312 203.987,132.681 204.235,133.027 204.642 C 133.373 205.050,133.911 205.434,134.222 205.496 C 134.534 205.558,135.056 205.907,135.383 206.270 C 135.710 206.633,136.238 206.981,136.557 207.044 C 136.876 207.106,137.338 207.418,137.583 207.737 C 137.827 208.056,138.698 208.665,139.517 209.091 C 140.336 209.516,141.343 210.169,141.756 210.542 C 142.168 210.914,142.696 211.219,142.928 211.219 C 143.160 211.219,143.600 211.567,143.907 211.992 C 144.214 212.418,144.850 212.766,145.320 212.766 C 145.792 212.766,146.276 213.070,146.400 213.443 C 146.614 214.093,150.123 216.634,150.806 216.634 C 150.988 216.634,151.452 216.983,151.838 217.408 C 152.223 217.834,152.745 218.182,152.998 218.182 C 153.251 218.182,153.774 218.530,154.159 218.956 C 154.544 219.381,155.138 219.729,155.479 219.729 C 155.821 219.729,156.318 220.077,156.583 220.503 C 156.849 220.928,157.371 221.277,157.744 221.277 C 158.116 221.277,158.639 221.625,158.904 222.050 C 159.170 222.476,159.734 222.824,160.158 222.824 C 160.582 222.824,160.928 222.998,160.928 223.211 C 160.928 223.424,161.233 223.599,161.605 223.601 C 161.978 223.603,162.694 224.125,163.196 224.762 C 163.699 225.398,164.397 225.919,164.747 225.919 C 165.098 225.919,165.602 226.267,165.868 226.692 C 166.133 227.118,166.679 227.466,167.080 227.466 C 167.481 227.466,167.908 227.724,168.029 228.040 C 168.154 228.366,168.506 228.515,168.844 228.385 C 169.171 228.260,169.439 228.350,169.439 228.585 C 169.439 228.821,169.749 229.014,170.127 229.014 C 170.506 229.014,171.067 229.362,171.373 229.787 C 171.680 230.213,172.241 230.561,172.619 230.561 C 172.998 230.561,173.308 230.735,173.308 230.948 C 173.308 231.161,173.656 231.335,174.081 231.335 C 174.507 231.335,174.855 231.509,174.855 231.721 C 174.855 231.934,175.184 232.108,175.587 232.108 C 175.990 232.108,176.424 232.380,176.552 232.713 C 176.679 233.046,176.966 233.205,177.189 233.068 C 177.412 232.930,177.956 233.278,178.399 233.840 C 178.841 234.403,179.413 234.783,179.668 234.685 C 179.924 234.587,180.339 234.837,180.592 235.242 C 180.844 235.646,181.280 235.977,181.561 235.977 C 181.841 235.977,182.479 236.412,182.979 236.944 C 183.478 237.476,184.061 237.911,184.273 237.911 C 184.485 237.911,184.933 238.147,185.269 238.436 C 186.283 239.307,192.721 242.555,193.041 242.357 C 193.205 242.256,193.623 242.607,193.970 243.137 C 194.318 243.667,194.904 244.101,195.274 244.101 C 195.643 244.101,196.163 244.449,196.429 244.874 C 196.694 245.300,197.258 245.648,197.682 245.648 C 198.106 245.648,198.453 245.824,198.453 246.040 C 198.453 246.255,199.279 246.821,200.290 247.297 C 201.301 247.773,202.409 248.467,202.753 248.839 C 203.097 249.212,203.541 249.516,203.740 249.516 C 204.341 249.516,206.183 250.463,206.187 250.774 C 206.188 250.933,206.538 251.064,206.963 251.064 C 207.389 251.064,207.737 251.238,207.737 251.451 C 207.737 251.663,208.047 251.838,208.425 251.838 C 208.804 251.838,209.364 252.186,209.671 252.611 C 209.978 253.037,210.539 253.385,210.917 253.385 C 211.296 253.385,211.605 253.559,211.605 253.772 C 211.605 253.985,211.954 254.159,212.379 254.159 C 212.805 254.159,213.153 254.333,213.153 254.545 C 213.153 254.758,213.463 254.932,213.841 254.932 C 214.220 254.932,214.780 255.280,215.087 255.706 C 215.394 256.132,215.954 256.480,216.333 256.480 C 216.712 256.480,217.021 256.654,217.021 256.867 C 217.021 257.079,217.369 257.253,217.795 257.253 C 218.221 257.253,218.569 257.427,218.569 257.640 C 218.569 257.853,218.917 258.027,219.342 258.027 C 219.768 258.027,220.116 258.201,220.116 258.414 C 220.116 258.627,220.464 258.801,220.890 258.801 C 221.315 258.801,221.663 258.975,221.663 259.188 C 221.663 259.400,222.012 259.574,222.437 259.574 C 222.863 259.574,223.211 259.749,223.211 259.961 C 223.211 260.174,223.559 260.348,223.985 260.348 C 224.410 260.348,224.758 260.522,224.758 260.735 C 224.758 260.948,225.106 261.122,225.532 261.122 C 225.957 261.122,226.306 261.296,226.306 261.509 C 226.306 261.721,226.654 261.896,227.079 261.896 C 227.505 261.896,227.853 262.070,227.853 262.282 C 227.853 262.495,228.201 262.669,228.627 262.669 C 229.052 262.669,229.400 262.843,229.400 263.056 C 229.400 263.269,229.734 263.443,230.142 263.443 C 230.550 263.443,230.941 263.604,231.012 263.801 C 231.083 263.998,231.402 264.215,231.721 264.284 C 232.041 264.353,232.389 264.509,232.495 264.630 C 232.800 264.976,237.949 267.310,238.438 267.324 C 238.680 267.330,239.918 267.852,241.189 268.484 C 242.461 269.116,243.717 269.632,243.982 269.632 C 244.247 269.632,245.084 269.981,245.841 270.406 C 246.599 270.832,247.551 271.180,247.958 271.180 C 248.364 271.180,248.805 271.354,248.936 271.567 C 249.068 271.779,249.687 271.954,250.313 271.954 C 250.939 271.954,251.451 272.128,251.451 272.340 C 251.451 272.553,251.973 272.727,252.611 272.727 C 253.250 272.727,253.772 272.901,253.772 273.114 C 253.772 273.327,254.284 273.501,254.909 273.501 C 255.535 273.501,256.155 273.675,256.286 273.888 C 256.418 274.101,257.027 274.275,257.640 274.275 C 258.253 274.275,258.863 274.449,258.994 274.662 C 259.126 274.874,259.648 275.048,260.155 275.048 C 260.662 275.048,261.184 275.222,261.315 275.435 C 261.447 275.648,262.032 275.822,262.615 275.822 C 263.198 275.822,263.840 275.966,264.043 276.142 C 264.245 276.317,265.193 276.681,266.151 276.949 C 267.108 277.218,268.414 277.667,269.052 277.948 C 270.586 278.623,275.945 279.463,276.984 279.191 C 277.495 279.058,277.883 279.184,278.015 279.527 C 278.158 279.899,278.839 280.077,280.119 280.077 C 281.160 280.077,282.012 280.251,282.012 280.464 C 282.012 280.685,283.172 280.851,284.720 280.851 C 286.209 280.851,287.427 280.999,287.427 281.180 C 287.427 282.391,310.701 282.253,311.167 281.039 C 311.289 280.720,311.988 280.633,313.365 280.765 C 314.995 280.922,315.453 280.833,315.751 280.301 C 316.056 279.756,316.469 279.687,318.159 279.898 C 319.818 280.105,320.241 280.039,320.432 279.541 C 320.608 279.084,320.974 278.992,321.891 279.175 C 322.823 279.361,323.205 279.260,323.490 278.749 C 323.747 278.290,324.147 278.149,324.755 278.301 C 325.358 278.453,325.720 278.328,325.878 277.916 C 326.048 277.473,326.410 277.373,327.211 277.549 C 327.969 277.716,328.466 277.602,328.813 277.184 C 329.095 276.845,329.619 276.674,330.003 276.796 C 330.380 276.916,330.798 276.838,330.932 276.622 C 331.339 275.962,333.807 274.949,334.426 275.187 C 334.747 275.310,335.010 275.250,335.010 275.054 C 335.010 274.507,337.634 273.386,338.309 273.645 C 338.644 273.774,339.000 273.634,339.117 273.327 C 339.233 273.026,339.630 272.803,340.000 272.831 C 340.957 272.903,343.525 271.617,343.787 270.935 C 343.908 270.620,344.252 270.456,344.552 270.571 C 344.852 270.686,345.196 270.522,345.317 270.206 C 345.438 269.891,345.867 269.632,346.270 269.632 C 346.672 269.632,347.002 269.448,347.002 269.223 C 347.002 268.997,347.175 268.920,347.386 269.050 C 347.597 269.181,348.214 268.843,348.757 268.299 C 349.300 267.756,349.979 267.311,350.264 267.311 C 350.550 267.311,351.195 266.791,351.697 266.154 C 352.200 265.518,352.914 264.996,353.285 264.994 C 353.655 264.992,354.176 264.642,354.442 264.217 C 354.708 263.791,355.175 263.443,355.480 263.443 C 355.785 263.443,357.032 262.398,358.251 261.122 C 359.469 259.845,360.734 258.801,361.062 258.801 C 361.390 258.801,361.886 258.487,362.164 258.104 C 362.442 257.721,363.100 257.112,363.626 256.750 C 364.152 256.389,364.453 256.093,364.294 256.093 C 364.136 256.093,364.964 255.135,366.134 253.965 C 367.304 252.795,368.396 251.836,368.560 251.835 C 368.917 251.832,370.382 249.448,370.283 249.033 C 370.244 248.873,370.439 248.743,370.716 248.743 C 371.266 248.743,373.498 245.440,373.505 244.617 C 373.507 244.337,373.630 244.149,373.779 244.201 C 374.189 244.343,375.216 242.835,375.229 242.070 C 375.236 241.697,375.434 241.393,375.670 241.393 C 375.906 241.393,376.003 241.145,375.887 240.842 C 375.764 240.522,376.072 240.031,376.619 239.672 C 377.138 239.332,377.563 238.710,377.563 238.289 C 377.563 237.868,377.737 237.524,377.950 237.524 C 378.162 237.524,378.337 237.176,378.337 236.750 C 378.337 236.325,378.511 235.977,378.723 235.977 C 378.936 235.977,379.110 235.629,379.110 235.203 C 379.110 234.778,379.284 234.429,379.497 234.429 C 379.710 234.429,379.884 234.081,379.884 233.656 C 379.884 233.230,380.058 232.882,380.271 232.882 C 380.484 232.882,380.658 232.534,380.658 232.108 C 380.658 231.683,380.832 231.335,381.044 231.335 C 381.257 231.335,381.431 230.851,381.431 230.259 C 381.431 229.628,381.751 228.954,382.205 228.627 C 382.631 228.320,382.979 227.770,382.979 227.404 C 382.979 227.038,383.153 226.631,383.366 226.499 C 383.578 226.368,383.752 225.835,383.752 225.316 C 383.752 224.796,383.926 224.371,384.139 224.371 C 384.352 224.371,384.526 223.675,384.526 222.824 C 384.526 221.973,384.700 221.277,384.913 221.277 C 385.126 221.277,385.300 220.580,385.300 219.729 C 385.300 218.878,385.474 218.182,385.687 218.182 C 385.899 218.182,386.074 217.485,386.074 216.634 C 386.074 215.783,386.248 215.087,386.460 215.087 C 386.675 215.087,386.847 214.055,386.847 212.766 C 386.847 211.476,387.019 210.445,387.234 210.445 C 387.465 210.445,387.621 208.954,387.621 206.747 C 387.621 204.380,387.760 203.135,388.008 203.288 C 388.260 203.444,388.395 201.172,388.395 196.757 C 388.395 192.662,388.242 189.893,388.008 189.749 C 387.795 189.617,387.621 187.943,387.621 186.028 C 387.621 183.805,387.481 182.633,387.234 182.785 C 386.994 182.934,386.847 182.201,386.847 180.851 C 386.847 179.501,386.701 178.768,386.460 178.917 C 386.220 179.065,386.074 178.341,386.074 177.005 C 386.074 175.823,385.899 174.855,385.687 174.855 C 385.474 174.855,385.300 174.256,385.300 173.524 C 385.300 172.792,385.126 172.085,384.913 171.954 C 384.700 171.822,384.526 171.300,384.526 170.793 C 384.526 170.286,384.352 169.764,384.139 169.632 C 383.926 169.501,383.752 168.979,383.752 168.472 C 383.752 167.965,383.578 167.443,383.366 167.311 C 383.153 167.180,382.979 166.734,382.979 166.321 C 382.979 165.908,382.805 165.571,382.592 165.571 C 382.379 165.571,382.205 165.146,382.205 164.626 C 382.205 164.107,382.031 163.574,381.818 163.443 C 381.605 163.311,381.431 162.882,381.431 162.490 C 381.431 161.629,379.870 158.607,379.425 158.607 C 379.252 158.607,379.110 158.278,379.110 157.875 C 379.110 157.472,378.852 157.044,378.537 156.923 C 378.210 156.797,378.061 156.446,378.191 156.107 C 378.317 155.780,378.227 155.513,377.991 155.513 C 377.756 155.513,377.563 155.164,377.563 154.739 C 377.563 154.313,377.389 153.965,377.176 153.965 C 376.963 153.965,376.789 153.686,376.789 153.344 C 376.789 153.002,376.352 152.379,375.818 151.959 C 375.284 151.539,374.951 151.028,375.077 150.824 C 375.203 150.620,374.873 150.111,374.343 149.695 C 373.658 149.156,373.443 148.696,373.598 148.102 C 373.733 147.586,373.665 147.361,373.420 147.513 C 372.797 147.897,371.702 146.443,372.010 145.640 C 372.182 145.193,372.131 145.032,371.870 145.193 C 371.419 145.472,370.421 144.462,370.412 143.719 C 370.409 143.461,369.849 142.780,369.168 142.206 C 368.487 141.632,368.016 140.938,368.122 140.663 C 368.227 140.387,367.529 139.460,366.571 138.602 C 365.612 137.744,364.937 136.933,365.070 136.800 C 365.204 136.666,365.012 136.557,364.645 136.557 C 364.278 136.557,364.085 136.383,364.217 136.170 C 364.351 135.953,364.045 135.783,363.519 135.783 C 362.893 135.783,361.980 135.140,360.772 133.849 C 359.777 132.785,358.729 131.915,358.443 131.915 C 358.158 131.915,357.295 131.219,356.526 130.368 C 355.757 129.516,354.886 128.820,354.591 128.820 C 354.297 128.820,353.426 128.124,352.657 127.273 C 351.888 126.422,351.111 125.725,350.931 125.725 C 350.177 125.725,348.217 124.493,347.543 123.596 C 347.144 123.065,346.511 122.631,346.136 122.631 C 345.761 122.631,345.455 122.456,345.455 122.244 C 345.455 122.031,345.106 121.857,344.681 121.857 C 344.255 121.857,343.907 121.683,343.907 121.470 C 343.907 121.257,343.559 121.083,343.133 121.083 C 342.708 121.083,342.360 120.909,342.360 120.696 C 342.360 120.484,342.116 120.309,341.819 120.309 C 341.521 120.309,340.285 119.787,339.072 119.149 C 337.858 118.511,336.545 117.988,336.154 117.988 C 335.762 117.988,335.335 117.814,335.203 117.602 C 335.072 117.389,334.549 117.215,334.043 117.215 C 333.536 117.215,333.014 117.041,332.882 116.828 C 332.751 116.615,332.213 116.441,331.686 116.441 C 331.160 116.441,330.630 116.181,330.508 115.863 C 330.386 115.545,330.129 115.382,329.937 115.501 C 329.745 115.620,329.306 115.434,328.961 115.089 C 328.616 114.745,328.082 114.559,327.774 114.677 C 327.467 114.795,326.946 114.622,326.616 114.292 C 326.209 113.886,325.658 113.771,324.903 113.937 C 324.083 114.117,323.728 114.019,323.553 113.563 C 323.361 113.062,322.956 112.992,321.426 113.195 C 319.821 113.408,319.536 113.349,319.536 112.802 C 319.536 112.257,319.251 112.197,317.659 112.408 C 316.091 112.616,315.740 112.546,315.525 111.985 C 315.297 111.391,314.904 111.345,312.124 111.587 C 310.156 111.759,308.893 111.718,308.744 111.477 C 308.466 111.027,301.133 110.688,296.132 110.895 " stroke="none" fill="#fbfb04" fill-rule="evenodd"></path><path id="path2" d="M194.971 35.597 C 193.162 35.773,190.986 36.087,190.135 36.295 C 189.284 36.502,187.718 36.855,186.654 37.079 C 182.136 38.028,173.864 41.541,169.950 44.174 C 169.060 44.772,168.226 45.261,168.096 45.261 C 167.616 45.261,163.242 48.548,157.993 52.855 C 154.261 55.916,149.831 60.309,146.921 63.833 C 146.132 64.789,144.957 66.203,144.310 66.976 C 143.663 67.748,143.133 68.493,143.133 68.631 C 143.133 68.768,142.301 69.964,141.284 71.288 C 137.767 75.866,127.273 94.639,127.273 96.353 C 127.273 96.540,126.750 97.833,126.112 99.226 C 125.474 100.620,124.952 101.982,124.952 102.253 C 124.952 102.525,124.809 102.912,124.634 103.114 C 124.460 103.316,123.920 104.787,123.434 106.383 C 122.948 107.979,122.395 109.587,122.204 109.956 C 122.013 110.326,121.857 111.055,121.857 111.577 C 121.857 112.100,121.683 112.634,121.470 112.766 C 121.257 112.897,121.083 113.420,121.083 113.926 C 121.083 114.433,120.929 114.943,120.741 115.059 C 120.553 115.176,120.302 115.752,120.184 116.340 C 120.067 116.927,119.775 118.191,119.535 119.149 C 119.032 121.164,118.431 124.167,118.142 126.112 C 118.031 126.857,117.789 127.814,117.604 128.240 C 117.419 128.665,117.162 129.623,117.033 130.368 C 116.813 131.637,116.600 132.735,115.643 137.524 C 115.430 138.588,115.107 140.851,114.924 142.553 C 114.741 144.255,114.410 146.257,114.188 147.002 C 113.967 147.747,113.666 148.748,113.521 149.226 C 112.934 151.157,112.251 149.891,110.807 144.197 C 108.459 134.933,102.338 123.795,96.830 118.760 C 87.154 109.917,74.834 114.040,70.818 127.466 C 70.047 130.043,70.680 142.779,71.608 143.352 C 71.798 143.470,71.954 143.948,71.954 144.415 C 71.954 146.257,74.992 153.484,77.055 156.549 C 77.653 157.439,78.143 158.253,78.143 158.359 C 78.143 158.816,82.229 165.167,83.693 166.985 C 89.442 174.124,91.519 176.617,94.872 180.403 C 96.946 182.743,98.562 184.739,98.463 184.838 C 98.229 185.072,95.469 183.982,90.135 181.548 C 88.965 181.014,87.660 180.444,87.234 180.282 C 86.220 179.896,84.843 179.327,83.172 178.602 C 77.983 176.353,65.975 172.603,59.961 171.353 C 58.791 171.110,57.050 170.715,56.093 170.475 C 55.025 170.207,50.837 170.051,45.261 170.072 L 36.170 170.105 30.754 171.535 C 15.211 175.639,6.846 183.900,4.754 197.215 C 3.827 203.111,9.416 212.437,17.204 217.995 C 24.666 223.320,42.016 226.234,53.260 224.052 C 54.499 223.811,57.776 223.241,60.541 222.784 C 65.681 221.935,74.324 219.553,77.271 218.174 C 78.174 217.752,80.437 216.782,82.300 216.020 C 84.163 215.257,87.930 213.510,90.671 212.137 C 96.141 209.398,97.022 209.227,95.284 211.237 C 94.650 211.972,93.659 213.443,93.082 214.507 C 92.505 215.571,91.214 217.324,90.214 218.403 C 86.487 222.424,83.714 225.708,82.431 227.622 C 81.704 228.707,80.994 229.681,80.854 229.787 C 80.483 230.069,77.369 234.732,77.369 235.006 C 77.369 235.134,76.538 236.492,75.522 238.025 C 74.507 239.558,73.442 241.335,73.156 241.973 C 72.871 242.611,72.483 243.436,72.295 243.805 C 72.107 244.175,71.954 244.817,71.954 245.233 C 71.954 245.649,71.800 246.084,71.611 246.201 C 71.423 246.317,71.173 246.893,71.055 247.481 C 70.937 248.068,70.646 249.333,70.409 250.290 C 70.171 251.248,69.788 252.814,69.557 253.772 C 68.969 256.212,68.709 266.929,69.226 267.446 C 69.449 267.670,69.632 268.168,69.632 268.554 C 69.632 272.916,77.724 280.042,82.158 279.584 C 92.201 278.546,101.051 269.476,108.477 252.611 C 110.696 247.572,110.800 247.389,111.424 247.389 C 111.933 247.389,112.660 249.941,113.352 254.159 C 114.043 258.375,114.507 260.963,114.910 262.863 C 115.137 263.926,115.469 265.667,115.648 266.731 C 115.828 267.795,116.090 269.101,116.229 269.632 C 117.106 272.971,117.334 273.775,117.602 274.468 C 117.766 274.894,118.094 275.982,118.331 276.886 C 118.568 277.790,118.956 279.270,119.193 280.174 C 119.430 281.078,119.767 282.166,119.941 282.592 C 120.116 283.017,120.627 284.497,121.076 285.880 C 121.526 287.263,122.059 288.697,122.262 289.066 C 122.465 289.436,122.631 289.910,122.631 290.120 C 122.631 290.331,123.153 291.643,123.791 293.037 C 124.429 294.430,124.952 295.750,124.952 295.968 C 124.952 296.499,131.833 309.880,133.491 312.573 C 139.549 322.411,150.300 334.704,157.834 340.405 C 160.356 342.313,166.462 346.228,166.918 346.228 C 167.005 346.228,168.096 346.826,169.341 347.556 C 182.684 355.376,203.440 356.970,215.591 351.109 C 233.699 342.375,239.538 326.253,232.420 304.642 C 230.650 299.269,223.955 288.086,218.407 281.238 C 217.114 279.642,215.795 278.001,215.475 277.591 C 213.987 275.682,204.373 265.516,198.632 259.780 C 197.440 258.589,193.150 254.772,190.751 252.767 C 190.026 252.161,188.367 250.616,187.066 249.334 C 185.764 248.051,183.838 246.306,182.785 245.455 C 180.228 243.388,173.774 238.045,172.405 236.861 C 169.390 234.254,172.668 236.058,180.757 241.457 C 200.680 254.754,203.769 256.659,217.795 264.309 C 218.965 264.948,220.793 265.950,221.857 266.537 C 222.921 267.124,224.923 268.093,226.306 268.691 C 227.689 269.288,229.255 270.060,229.787 270.406 C 230.796 271.062,236.451 273.490,243.234 276.179 C 247.160 277.736,261.329 282.422,265.571 283.566 C 269.655 284.668,271.267 285.055,273.501 285.471 C 274.884 285.728,276.799 286.089,277.756 286.273 C 308.233 292.125,339.472 285.624,361.238 268.901 C 362.791 267.708,364.532 266.374,365.106 265.938 C 369.056 262.939,379.472 250.717,382.069 246.035 C 382.718 244.865,384.192 242.253,385.345 240.232 C 400.204 214.179,398.278 170.389,381.157 145.023 C 374.721 135.489,373.308 133.869,363.830 125.165 C 352.835 115.068,334.967 107.509,315.861 104.871 C 311.969 104.334,296.330 104.318,291.362 104.847 C 284.452 105.582,281.057 106.010,279.110 106.391 C 278.046 106.599,276.219 106.951,275.048 107.172 C 271.284 107.883,269.473 108.260,267.892 108.662 C 267.041 108.879,265.648 109.215,264.797 109.410 C 263.177 109.782,259.996 110.804,258.511 111.431 C 257.288 111.947,255.681 112.609,254.545 113.063 C 254.014 113.276,253.143 113.624,252.611 113.837 C 252.079 114.049,251.252 114.374,250.774 114.559 C 250.295 114.743,249.425 115.091,248.839 115.332 C 248.254 115.573,247.384 115.922,246.905 116.106 C 245.214 116.757,243.899 117.309,243.235 117.647 C 242.866 117.835,242.300 117.988,241.978 117.988 C 241.656 117.988,241.393 118.162,241.393 118.375 C 241.393 118.588,241.148 118.762,240.849 118.762 C 240.550 118.762,239.549 119.135,238.625 119.591 C 237.700 120.046,236.596 120.552,236.170 120.713 C 235.745 120.875,233.917 121.700,232.108 122.546 C 230.300 123.392,228.124 124.389,227.273 124.761 C 223.852 126.256,217.468 129.439,215.280 130.739 C 214.004 131.498,212.437 132.372,211.799 132.680 C 211.161 132.989,210.173 133.554,209.605 133.937 C 209.037 134.319,207.644 135.129,206.510 135.737 C 203.419 137.394,198.389 140.462,197.279 141.367 C 196.106 142.324,193.494 143.630,191.102 144.457 C 190.144 144.787,187.385 146.366,184.971 147.964 C 182.557 149.563,180.381 150.865,180.136 150.858 C 179.891 150.851,179.972 150.632,180.315 150.370 C 180.913 149.915,182.506 148.521,189.362 142.452 C 227.707 108.508,244.495 73.690,233.254 51.422 C 227.708 40.435,211.994 33.940,194.971 35.597 M205.371 41.752 C 206.140 41.950,207.814 42.317,209.091 42.569 C 217.364 44.198,223.247 48.550,226.652 55.563 C 227.569 57.450,228.475 59.296,228.666 59.666 C 228.857 60.035,229.014 60.939,229.014 61.674 C 229.014 62.409,229.188 63.118,229.400 63.250 C 229.628 63.390,229.787 65.696,229.787 68.859 C 229.787 72.022,229.628 74.327,229.400 74.468 C 229.188 74.600,229.014 75.470,229.014 76.402 C 229.014 77.335,228.839 78.205,228.627 78.337 C 228.414 78.468,228.240 79.175,228.240 79.907 C 228.240 80.639,228.104 81.238,227.937 81.238 C 227.771 81.238,227.398 82.039,227.109 83.019 C 226.820 83.999,226.260 85.470,225.864 86.289 C 225.469 87.107,225.145 88.036,225.145 88.353 C 225.145 88.670,224.971 89.037,224.758 89.168 C 224.545 89.300,224.371 89.748,224.371 90.163 C 224.371 90.870,223.687 92.407,223.179 92.843 C 223.054 92.950,222.361 94.168,221.637 95.551 C 220.457 97.807,219.038 100.009,213.784 107.737 C 212.404 109.768,211.220 111.264,208.585 114.313 C 208.217 114.739,207.310 115.861,206.569 116.807 C 205.828 117.754,204.397 119.407,203.389 120.482 C 202.380 121.558,201.554 122.617,201.551 122.836 C 201.543 123.671,178.919 145.455,178.059 145.455 C 177.870 145.455,177.115 146.083,176.381 146.850 C 175.648 147.618,173.482 149.425,171.567 150.866 C 169.652 152.307,167.650 153.961,167.118 154.540 C 166.586 155.120,165.368 156.137,164.410 156.799 C 163.453 157.461,162.098 158.574,161.399 159.272 C 160.701 159.970,159.992 160.542,159.824 160.542 C 159.657 160.542,158.702 161.325,157.703 162.282 C 156.703 163.240,155.743 164.023,155.567 164.023 C 155.392 164.023,154.419 164.807,153.406 165.764 C 152.392 166.721,151.418 167.505,151.240 167.505 C 151.063 167.505,150.133 168.158,149.175 168.956 C 146.796 170.936,144.010 172.921,143.609 172.921 C 143.427 172.921,142.778 173.443,142.166 174.081 C 141.555 174.720,140.858 175.242,140.619 175.242 C 140.379 175.242,139.683 175.764,139.072 176.402 C 138.460 177.041,137.761 177.563,137.519 177.563 C 137.277 177.563,136.657 178.015,136.141 178.567 C 135.625 179.119,134.699 179.833,134.082 180.154 C 133.466 180.474,132.544 181.154,132.034 181.664 C 131.524 182.174,130.948 182.592,130.754 182.592 C 130.561 182.592,129.967 183.027,129.436 183.559 C 128.904 184.091,128.312 184.526,128.121 184.526 C 127.930 184.526,127.228 185.048,126.560 185.687 C 125.892 186.325,125.168 186.847,124.952 186.847 C 124.735 186.847,124.011 187.369,123.343 188.008 C 122.675 188.646,121.958 189.168,121.748 189.168 C 121.539 189.168,121.086 189.474,120.742 189.848 C 120.398 190.222,119.637 190.773,119.052 191.074 C 118.467 191.374,117.988 191.765,117.988 191.942 C 117.988 192.118,117.640 192.263,117.215 192.263 C 116.789 192.263,116.441 192.089,116.441 191.876 C 116.441 191.663,116.180 191.489,115.862 191.489 C 115.543 191.489,114.543 190.793,113.639 189.942 C 112.736 189.091,111.808 188.395,111.578 188.395 C 111.348 188.395,110.738 187.942,110.222 187.389 C 109.706 186.836,108.240 185.549,106.963 184.528 C 104.675 182.698,95.249 172.664,93.936 170.662 C 93.565 170.096,92.478 168.675,91.519 167.505 C 86.385 161.236,80.045 150.716,78.347 145.648 C 72.008 126.738,81.901 114.266,94.754 124.963 C 97.987 127.653,105.609 140.184,105.609 142.809 C 105.609 143.175,105.783 143.582,105.996 143.714 C 106.209 143.845,106.383 144.201,106.383 144.504 C 106.383 144.807,106.905 146.133,107.544 147.451 C 108.182 148.769,108.704 150.241,108.704 150.723 C 108.704 151.204,108.878 151.706,109.091 151.838 C 109.304 151.969,109.478 152.491,109.478 152.998 C 109.478 153.505,109.652 154.027,109.865 154.159 C 110.077 154.290,110.251 154.825,110.251 155.347 C 110.251 155.869,110.409 156.599,110.601 156.968 C 110.793 157.338,111.159 158.424,111.415 159.381 C 111.670 160.338,112.035 161.522,112.226 162.010 C 112.417 162.499,112.573 163.212,112.573 163.595 C 112.573 164.335,113.595 166.600,114.059 166.887 C 115.480 167.765,116.750 164.291,117.582 157.253 C 118.075 153.087,118.191 152.329,119.908 142.070 C 120.113 140.846,120.475 138.627,120.714 137.137 C 120.952 135.648,121.299 133.820,121.485 133.075 C 121.671 132.331,122.015 130.764,122.250 129.594 C 122.984 125.945,124.223 120.981,124.956 118.762 C 125.342 117.592,126.039 115.329,126.505 113.733 C 126.970 112.137,127.500 110.484,127.683 110.058 C 127.865 109.632,128.441 107.979,128.962 106.383 C 137.830 79.258,159.098 53.583,178.917 46.079 C 180.193 45.595,181.839 44.938,182.574 44.619 C 184.488 43.786,186.722 43.108,189.168 42.617 C 190.338 42.382,191.992 42.028,192.843 41.831 C 194.904 41.354,203.609 41.299,205.371 41.752 M311.259 111.041 C 318.456 111.622,326.827 113.613,335.977 116.919 C 355.659 124.030,374.367 143.173,382.579 164.603 C 382.742 165.029,383.064 165.812,383.294 166.344 C 383.524 166.876,384.093 168.530,384.557 170.019 C 385.021 171.509,385.541 173.075,385.711 173.501 C 385.881 173.926,386.128 174.884,386.258 175.629 C 386.388 176.373,386.671 177.940,386.887 179.110 C 388.680 188.848,388.361 214.368,386.421 216.422 C 386.230 216.624,386.074 217.353,386.074 218.043 C 386.074 218.733,385.899 219.404,385.687 219.536 C 385.474 219.667,385.300 220.192,385.300 220.701 C 385.300 221.210,385.148 222.027,384.962 222.516 C 384.777 223.004,384.405 224.101,384.137 224.952 C 383.868 225.803,383.306 227.282,382.888 228.240 C 382.470 229.197,381.957 230.416,381.747 230.948 C 380.144 235.018,373.285 246.555,370.949 249.109 C 370.610 249.480,369.804 250.551,369.159 251.488 C 368.514 252.425,367.126 253.975,366.073 254.932 C 362.362 258.308,358.014 262.184,356.867 263.138 C 355.503 264.272,347.445 269.632,347.103 269.632 C 346.975 269.632,346.595 269.861,346.259 270.140 C 345.923 270.419,344.865 270.978,343.907 271.382 C 342.950 271.785,341.496 272.527,340.677 273.031 C 338.945 274.095,333.140 276.596,332.401 276.596 C 331.785 276.596,323.476 279.232,322.539 279.724 C 322.170 279.918,321.456 280.077,320.953 280.077 C 320.450 280.077,319.533 280.247,318.917 280.454 C 317.075 281.072,308.266 282.012,304.314 282.012 C 302.288 282.012,300.219 282.168,299.715 282.360 C 299.181 282.563,298.002 282.567,296.885 282.369 C 295.832 282.183,292.882 281.850,290.329 281.630 C 285.608 281.224,282.200 280.788,278.723 280.147 C 273.509 279.186,270.087 278.427,268.859 277.959 C 267.479 277.432,264.108 276.436,262.182 275.986 C 261.595 275.849,261.019 275.582,260.902 275.392 C 260.785 275.203,260.275 275.048,259.768 275.048 C 259.261 275.048,258.739 274.874,258.607 274.662 C 258.476 274.449,257.867 274.275,257.253 274.275 C 256.640 274.275,256.031 274.101,255.899 273.888 C 255.768 273.675,255.246 273.501,254.739 273.501 C 254.232 273.501,253.710 273.327,253.578 273.114 C 253.447 272.901,252.999 272.727,252.583 272.727 C 252.167 272.727,251.525 272.575,251.155 272.388 C 250.786 272.201,249.787 271.838,248.936 271.581 C 244.457 270.229,235.448 266.444,227.273 262.481 C 224.081 260.934,220.513 259.211,219.342 258.653 C 217.049 257.558,215.011 256.421,214.700 256.064 C 214.594 255.942,213.723 255.419,212.766 254.903 C 211.809 254.387,210.967 253.835,210.896 253.675 C 210.825 253.515,210.625 253.385,210.452 253.385 C 210.279 253.385,208.991 252.689,207.590 251.838 C 206.189 250.986,204.892 250.290,204.707 250.290 C 204.521 250.290,203.216 249.550,201.805 248.646 C 193.247 243.160,190.639 241.569,187.245 239.764 C 185.655 238.918,183.740 237.746,182.989 237.159 C 182.239 236.573,179.552 235.014,177.018 233.696 C 174.485 232.379,171.934 230.960,171.349 230.544 C 170.765 230.128,170.096 229.787,169.863 229.787 C 169.630 229.787,169.439 229.613,169.439 229.400 C 169.439 229.188,169.268 229.014,169.060 229.014 C 168.851 229.014,165.326 226.755,161.226 223.995 C 152.238 217.944,150.376 216.693,146.615 214.181 C 143.644 212.195,134.659 206.103,127.084 200.935 C 123.147 198.250,120.696 196.125,120.696 195.395 C 120.696 195.023,127.232 190.365,131.063 188.008 C 132.619 187.050,136.015 184.883,138.609 183.191 C 150.750 175.277,153.698 173.396,156.157 171.999 C 159.336 170.193,167.754 164.881,173.198 161.246 C 175.372 159.795,177.225 158.607,177.317 158.607 C 177.489 158.607,179.961 157.120,185.687 153.571 C 201.916 143.512,224.268 131.371,233.849 127.410 C 235.126 126.883,236.692 126.222,237.331 125.941 C 238.297 125.517,243.223 123.473,246.228 122.249 C 246.654 122.076,247.849 121.558,248.884 121.099 C 265.651 113.659,291.685 109.461,311.259 111.041 M53.965 176.789 C 54.097 177.002,54.967 177.176,55.899 177.176 C 56.832 177.176,57.702 177.350,57.834 177.563 C 57.965 177.776,58.836 177.950,59.768 177.950 C 60.700 177.950,61.571 178.124,61.702 178.337 C 61.834 178.549,62.364 178.723,62.881 178.723 C 63.998 178.723,69.658 180.223,70.213 180.666 C 70.426 180.836,71.296 181.099,72.147 181.249 C 75.797 181.895,82.055 183.825,83.437 184.730 C 83.914 185.044,84.568 185.300,84.890 185.300 C 85.211 185.300,86.614 185.822,88.008 186.460 C 89.401 187.099,90.714 187.621,90.924 187.621 C 91.134 187.621,91.609 187.775,91.978 187.963 C 92.754 188.357,94.621 189.145,95.745 189.552 C 96.170 189.706,97.275 190.205,98.199 190.661 C 99.123 191.116,100.201 191.489,100.594 191.489 C 100.987 191.489,101.416 191.663,101.547 191.876 C 101.679 192.089,102.201 192.263,102.708 192.263 C 103.215 192.263,103.737 192.437,103.868 192.650 C 104.000 192.863,104.448 193.037,104.864 193.037 C 105.280 193.037,105.922 193.191,106.292 193.378 C 106.661 193.566,107.485 193.958,108.124 194.248 C 110.889 195.506,110.012 197.161,105.362 199.459 C 103.796 200.233,102.515 201.019,102.515 201.207 C 102.515 201.394,102.297 201.546,102.031 201.544 C 101.765 201.541,98.936 202.824,95.745 204.393 C 92.553 205.962,88.810 207.728,87.427 208.317 C 86.044 208.906,83.829 209.887,82.503 210.497 C 81.178 211.106,79.993 211.605,79.871 211.605 C 79.748 211.605,78.852 211.968,77.879 212.412 C 76.905 212.855,75.518 213.314,74.796 213.431 C 74.073 213.548,73.389 213.795,73.275 213.979 C 73.162 214.163,72.654 214.313,72.147 214.313 C 71.640 214.313,71.118 214.487,70.986 214.700 C 70.855 214.913,70.333 215.087,69.826 215.087 C 69.319 215.087,68.797 215.261,68.665 215.474 C 68.534 215.687,67.838 215.861,67.118 215.861 C 66.398 215.861,65.702 216.035,65.571 216.248 C 65.439 216.460,64.569 216.634,63.636 216.634 C 62.704 216.634,61.834 216.809,61.702 217.021 C 61.571 217.234,60.352 217.408,58.994 217.408 C 57.636 217.408,56.418 217.582,56.286 217.795 C 56.155 218.008,54.961 218.182,53.633 218.182 C 52.305 218.182,51.036 218.364,50.813 218.587 C 50.296 219.104,38.710 218.826,35.203 218.212 C 33.820 217.970,32.035 217.672,31.235 217.549 C 30.436 217.427,29.686 217.171,29.569 216.980 C 29.451 216.790,29.073 216.634,28.729 216.634 C 24.249 216.634,12.379 206.572,12.379 202.775 C 12.379 202.338,12.205 201.872,11.992 201.741 C 11.489 201.430,11.489 195.578,11.992 194.579 C 12.205 194.156,12.553 193.465,12.766 193.042 C 12.979 192.619,13.153 192.037,13.153 191.747 C 13.153 188.436,25.312 178.723,29.457 178.723 C 29.826 178.723,30.236 178.549,30.368 178.337 C 30.499 178.124,31.195 177.950,31.915 177.950 C 32.634 177.950,33.331 177.776,33.462 177.563 C 33.594 177.350,34.605 177.173,35.709 177.170 C 36.814 177.167,37.979 176.995,38.298 176.789 C 39.081 176.283,53.652 176.283,53.965 176.789 M118.182 200.774 C 119.246 201.620,120.334 202.315,120.600 202.317 C 120.866 202.319,121.084 202.452,121.086 202.611 C 121.087 202.771,121.740 203.336,122.536 203.867 C 123.333 204.398,125.148 205.704,126.569 206.768 C 127.990 207.833,130.149 209.400,131.365 210.251 C 134.178 212.220,140.875 217.356,143.094 219.247 C 144.030 220.044,145.073 220.859,145.413 221.059 C 145.753 221.258,146.465 221.824,146.996 222.316 C 147.527 222.808,148.075 223.211,148.214 223.211 C 148.354 223.211,149.049 223.754,149.760 224.418 C 150.471 225.082,152.361 226.603,153.959 227.797 C 155.558 228.991,157.099 230.191,157.384 230.464 C 157.668 230.736,158.538 231.436,159.318 232.017 C 160.097 232.599,160.968 233.296,161.252 233.565 C 161.536 233.834,162.403 234.530,163.177 235.112 C 163.952 235.694,165.603 237.128,166.847 238.298 C 168.090 239.468,169.302 240.495,169.540 240.579 C 170.027 240.752,174.904 245.348,177.325 247.916 C 178.201 248.845,179.209 249.715,179.567 249.851 C 180.203 250.091,204.094 273.606,207.940 277.776 C 209.561 279.534,211.514 281.912,212.846 283.752 C 213.000 283.965,213.612 284.749,214.206 285.493 C 218.273 290.589,225.919 304.016,225.919 306.063 C 225.919 306.426,226.093 306.832,226.306 306.963 C 226.518 307.095,226.692 307.617,226.692 308.124 C 226.692 308.631,226.867 309.153,227.079 309.284 C 227.292 309.416,227.466 310.112,227.466 310.832 C 227.466 311.551,227.640 312.248,227.853 312.379 C 228.066 312.511,228.240 313.269,228.240 314.065 C 228.240 314.861,228.426 315.698,228.653 315.925 C 229.366 316.639,228.635 327.351,227.813 328.221 C 227.622 328.423,227.466 328.877,227.466 329.230 C 227.466 333.745,215.273 345.455,210.571 345.455 C 210.274 345.455,209.645 345.696,209.174 345.992 C 208.355 346.506,206.505 346.983,202.708 347.659 C 199.667 348.201,186.737 347.367,185.899 346.575 C 185.697 346.384,185.044 346.228,184.449 346.228 C 183.853 346.228,183.366 346.054,183.366 345.841 C 183.366 345.629,182.843 345.455,182.205 345.455 C 181.567 345.455,181.044 345.280,181.044 345.068 C 181.044 344.855,180.694 344.681,180.266 344.681 C 179.837 344.681,179.184 344.527,178.815 344.339 C 178.445 344.151,177.708 343.826,177.176 343.616 C 176.644 343.407,175.096 342.690,173.737 342.024 C 172.377 341.358,171.105 340.812,170.909 340.812 C 170.434 340.812,162.981 335.806,159.920 333.430 C 157.313 331.407,148.501 322.552,145.900 319.342 C 145.038 318.279,143.830 316.799,143.216 316.054 C 141.919 314.482,139.326 310.668,138.065 308.480 C 135.082 303.302,132.689 298.914,132.689 298.622 C 132.689 298.435,132.376 297.712,131.994 297.014 C 131.372 295.876,130.186 293.248,128.541 289.362 C 128.225 288.617,127.819 287.660,127.636 287.234 C 127.454 286.809,126.873 285.155,126.345 283.559 C 125.817 281.963,124.935 279.352,124.384 277.756 C 122.812 273.200,122.552 272.336,121.817 269.246 C 121.438 267.650,120.929 265.648,120.686 264.797 C 120.226 263.182,119.790 260.977,119.158 257.060 C 118.952 255.783,118.602 253.694,118.381 252.418 C 117.833 249.256,117.341 244.318,116.837 236.944 C 116.360 229.944,115.801 227.955,113.903 226.507 C 112.051 225.095,111.062 225.651,111.037 228.120 C 111.031 228.799,110.851 229.462,110.638 229.594 C 110.426 229.725,110.251 230.335,110.251 230.948 C 110.251 231.561,110.077 232.170,109.865 232.302 C 109.652 232.433,109.478 233.043,109.478 233.656 C 109.478 234.269,109.304 234.878,109.091 235.010 C 108.878 235.141,108.704 235.925,108.704 236.750 C 108.704 237.576,108.530 238.360,108.317 238.491 C 108.104 238.623,107.930 239.052,107.930 239.445 C 107.930 239.838,107.602 240.828,107.200 241.646 C 106.798 242.464,106.061 244.439,105.563 246.035 C 104.263 250.199,99.024 260.427,97.031 262.690 C 93.285 266.944,90.531 269.487,88.739 270.348 C 87.699 270.849,86.545 271.414,86.175 271.606 C 84.010 272.727,78.774 271.241,77.015 269.006 C 74.748 266.124,73.260 257.189,74.584 254.405 C 74.800 253.950,75.187 252.708,75.444 251.644 C 76.100 248.926,76.701 247.064,77.062 246.634 C 77.231 246.432,77.369 245.867,77.369 245.377 C 77.369 244.888,77.544 244.487,77.756 244.487 C 77.969 244.487,78.142 244.270,78.140 244.004 C 78.136 243.482,81.250 237.070,81.662 236.750 C 81.800 236.644,82.382 235.654,82.957 234.550 C 83.531 233.447,84.250 232.337,84.554 232.085 C 84.858 231.833,85.106 231.465,85.106 231.266 C 85.106 231.068,85.628 230.349,86.265 229.670 C 86.902 228.990,87.425 228.216,87.426 227.950 C 87.427 227.684,87.572 227.466,87.749 227.466 C 87.926 227.466,88.317 227.002,88.619 226.434 C 88.921 225.866,90.078 224.430,91.191 223.242 C 92.303 222.055,93.217 220.940,93.222 220.765 C 93.235 220.247,108.037 204.642,108.514 204.642 C 108.656 204.642,109.410 204.048,110.189 203.321 C 114.940 198.890,115.565 198.691,118.182 200.774 " stroke="none" fill="#181818" fill-rule="evenodd"></path><path id="path3" d="M0.000 193.424 L 0.000 386.847 200.000 386.847 L 400.000 386.847 400.000 193.424 L 400.000 0.000 200.000 0.000 L 0.000 0.000 0.000 193.424 M208.704 35.737 C 244.799 41.221,246.189 81.101,211.650 120.258 C 210.455 121.612,208.948 123.353,208.300 124.126 C 207.652 124.899,203.387 129.194,198.822 133.670 C 191.709 140.644,189.250 142.940,184.025 147.485 C 182.472 148.837,184.292 148.139,187.222 146.259 C 188.854 145.213,191.159 144.074,192.344 143.730 C 193.529 143.385,195.432 142.451,196.572 141.654 C 198.971 139.977,208.384 134.236,208.735 134.236 C 208.865 134.236,209.454 133.892,210.044 133.472 C 212.248 131.903,231.348 122.244,232.248 122.244 C 232.353 122.244,233.713 121.664,235.272 120.956 C 236.830 120.248,238.714 119.431,239.458 119.141 C 240.203 118.850,241.383 118.298,242.081 117.914 C 242.779 117.529,243.521 117.215,243.730 117.215 C 243.938 117.215,244.934 116.849,245.942 116.402 C 247.892 115.538,249.114 115.024,250.677 114.410 C 251.209 114.201,251.946 113.876,252.316 113.688 C 252.685 113.500,253.338 113.346,253.767 113.346 C 254.195 113.346,254.545 113.172,254.545 112.959 C 254.545 112.747,254.883 112.573,255.296 112.573 C 255.709 112.573,256.155 112.398,256.286 112.186 C 256.418 111.973,256.915 111.799,257.392 111.799 C 257.869 111.799,258.425 111.645,258.627 111.457 C 259.168 110.954,263.555 109.478,264.510 109.478 C 264.962 109.478,265.439 109.304,265.571 109.091 C 265.702 108.878,266.374 108.704,267.063 108.704 C 267.753 108.704,268.483 108.548,268.685 108.357 C 268.887 108.166,269.749 107.912,270.600 107.792 C 272.302 107.552,275.253 107.027,278.530 106.380 C 291.332 103.855,309.313 103.374,320.116 105.267 C 327.225 106.513,336.396 109.072,340.619 110.988 C 355.236 117.620,359.145 120.220,369.175 129.981 C 383.953 144.363,393.081 164.046,395.087 185.855 C 395.931 195.036,395.450 210.843,394.185 215.474 C 393.982 216.219,393.396 218.569,392.882 220.696 C 390.411 230.939,388.642 235.382,384.043 242.903 C 383.209 244.265,382.388 245.748,382.217 246.198 C 381.155 248.990,368.646 263.774,365.571 265.872 C 365.039 266.235,363.733 267.238,362.669 268.101 C 360.315 270.011,354.764 273.901,353.965 274.201 C 353.646 274.320,351.984 275.242,350.273 276.249 C 328.519 289.044,294.683 292.113,266.151 283.880 C 263.917 283.236,260.957 282.384,259.574 281.987 C 251.516 279.676,238.934 274.896,230.948 271.113 C 223.196 267.440,215.006 263.188,213.093 261.844 C 212.528 261.447,211.866 261.122,211.621 261.122 C 211.376 261.122,210.151 260.426,208.897 259.574 C 207.644 258.723,206.528 258.027,206.416 258.027 C 205.922 258.027,196.398 252.167,193.037 249.794 C 192.505 249.419,187.979 246.428,182.979 243.149 C 177.979 239.869,173.659 236.984,173.379 236.736 C 173.099 236.488,172.787 236.368,172.686 236.469 C 172.585 236.570,173.424 237.414,174.549 238.344 C 175.675 239.274,176.785 240.210,177.016 240.424 C 177.248 240.638,178.629 241.770,180.086 242.940 C 181.542 244.110,184.685 246.896,187.069 249.130 C 189.453 251.364,192.814 254.410,194.537 255.899 C 214.490 273.146,230.102 294.392,234.193 309.865 C 242.082 339.703,218.186 360.523,184.255 353.375 C 173.313 351.069,160.903 344.088,151.368 334.874 C 144.558 328.293,136.903 318.854,133.493 312.832 C 133.051 312.051,132.314 310.759,131.857 309.961 C 128.459 304.036,125.734 298.502,124.570 295.164 C 124.311 294.420,123.746 293.027,123.315 292.070 C 122.200 289.590,122.005 289.080,121.090 286.267 C 120.641 284.884,120.107 283.450,119.904 283.081 C 119.702 282.711,119.536 282.069,119.536 281.653 C 119.536 281.237,119.362 280.789,119.149 280.658 C 118.936 280.526,118.762 279.962,118.762 279.405 C 118.762 278.468,118.313 276.739,117.580 274.855 C 117.415 274.429,117.166 273.646,117.027 273.114 C 116.889 272.582,116.608 271.538,116.402 270.793 C 116.197 270.048,115.860 268.482,115.653 267.311 C 115.446 266.141,115.093 264.313,114.869 263.250 C 114.474 261.379,114.172 259.628,113.398 254.739 C 113.003 252.236,111.867 248.389,111.350 247.798 C 111.169 247.591,110.577 248.512,109.982 249.926 C 101.900 269.116,91.834 279.614,81.376 279.758 C 78.981 279.792,71.954 275.323,71.954 273.766 C 71.954 273.639,71.528 272.908,71.007 272.141 C 69.004 269.188,68.133 259.355,69.397 253.965 C 71.482 245.076,72.612 242.128,75.920 236.944 C 81.515 228.177,83.542 225.421,87.608 221.048 C 89.654 218.848,92.038 215.867,92.907 214.423 C 93.776 212.980,94.753 211.494,95.079 211.122 C 96.092 209.964,94.569 210.276,91.812 211.791 C 90.465 212.532,86.882 214.205,83.850 215.511 C 80.818 216.816,77.824 218.147,77.198 218.468 C 68.721 222.817,41.588 226.212,32.495 224.062 C 31.325 223.785,29.584 223.371,28.627 223.143 C 18.379 220.700,6.190 210.725,6.190 204.782 C 6.190 204.305,6.035 203.818,5.845 203.701 C 4.947 203.146,4.625 196.804,5.343 193.810 C 5.573 192.853,5.886 191.547,6.038 190.909 C 6.190 190.271,6.661 189.139,7.085 188.395 C 7.509 187.650,8.221 186.356,8.667 185.520 C 10.075 182.878,16.604 176.789,18.028 176.789 C 18.185 176.789,18.589 176.546,18.925 176.249 C 19.777 175.495,24.288 173.192,25.919 172.678 C 27.362 172.223,28.929 171.794,32.755 170.806 C 38.211 169.397,51.203 169.290,57.253 170.604 C 66.731 172.662,78.146 176.168,83.859 178.776 C 85.194 179.385,86.514 179.884,86.792 179.884 C 87.071 179.884,87.401 179.986,87.526 180.111 C 87.956 180.541,95.229 183.705,96.356 183.953 C 97.954 184.304,97.826 184.038,94.681 180.489 C 89.016 174.097,81.775 165.047,80.501 162.766 C 78.548 159.271,77.989 158.328,77.005 156.868 C 75.063 153.989,72.891 148.810,71.649 144.101 C 71.425 143.250,71.053 141.837,70.824 140.961 C 70.039 137.968,70.293 128.614,71.231 125.945 C 76.320 111.465,91.081 109.895,100.763 122.802 C 102.522 125.147,107.157 132.986,107.157 133.616 C 107.157 133.734,107.690 134.995,108.343 136.420 C 108.995 137.844,110.057 140.938,110.703 143.296 C 112.095 148.384,112.439 149.323,112.910 149.323 C 113.639 149.323,114.502 146.240,114.914 142.166 C 115.085 140.464,115.413 138.114,115.641 136.944 C 115.869 135.774,116.166 134.072,116.300 133.163 C 116.434 132.254,116.695 131.417,116.879 131.303 C 117.064 131.189,117.215 130.444,117.215 129.648 C 117.215 128.852,117.371 128.036,117.562 127.834 C 117.753 127.632,118.005 126.770,118.123 125.919 C 118.394 123.952,118.977 120.996,119.535 118.762 C 119.775 117.805,120.067 116.540,120.184 115.953 C 120.302 115.365,120.553 114.789,120.741 114.673 C 120.929 114.556,121.083 114.046,121.083 113.540 C 121.083 113.033,121.257 112.511,121.470 112.379 C 121.683 112.248,121.857 111.713,121.857 111.190 C 121.857 110.668,122.014 109.939,122.206 109.569 C 122.398 109.200,122.778 108.114,123.049 107.157 C 123.321 106.199,123.650 105.242,123.780 105.029 C 123.910 104.816,124.238 103.946,124.510 103.095 C 124.781 102.244,125.165 101.156,125.364 100.677 C 125.563 100.198,125.920 99.328,126.157 98.743 C 126.395 98.158,126.743 97.377,126.931 97.007 C 127.119 96.638,127.273 96.072,127.273 95.750 C 127.273 95.428,127.447 95.164,127.660 95.164 C 127.872 95.164,128.046 94.901,128.046 94.579 C 128.046 94.257,128.207 93.691,128.402 93.322 C 128.598 92.952,129.746 90.648,130.954 88.201 C 132.161 85.754,134.107 82.203,135.278 80.310 C 136.449 78.417,137.782 76.204,138.239 75.392 C 139.036 73.981,144.362 66.774,147.930 62.280 C 149.552 60.237,156.306 53.793,158.132 52.546 C 158.615 52.217,159.660 51.351,160.453 50.624 C 161.246 49.896,162.505 48.876,163.250 48.358 C 163.994 47.839,164.834 47.191,165.115 46.918 C 165.396 46.645,165.775 46.422,165.957 46.422 C 166.140 46.422,166.524 46.204,166.812 45.938 C 167.497 45.305,169.134 44.350,171.760 43.053 C 172.930 42.474,173.946 41.864,174.017 41.697 C 174.088 41.530,174.409 41.393,174.731 41.393 C 175.053 41.393,175.778 41.082,176.343 40.702 C 176.907 40.322,177.892 39.779,178.530 39.496 C 179.168 39.213,179.993 38.828,180.362 38.640 C 180.732 38.452,181.350 38.298,181.736 38.298 C 182.121 38.298,182.603 38.154,182.805 37.978 C 183.007 37.802,184.826 37.284,186.847 36.826 C 188.868 36.369,191.219 35.834,192.070 35.639 C 194.469 35.087,204.830 35.149,208.704 35.737 M289.942 111.412 C 290.073 111.625,290.509 111.799,290.909 111.799 C 291.310 111.799,291.745 111.625,291.876 111.412 C 292.016 111.186,291.615 111.025,290.909 111.025 C 290.203 111.025,289.802 111.186,289.942 111.412 M308.704 111.412 C 308.704 111.625,309.390 111.799,310.229 111.799 C 311.067 111.799,311.861 111.625,311.992 111.412 C 312.138 111.176,311.545 111.025,310.468 111.025 C 309.498 111.025,308.704 111.199,308.704 111.412 M282.785 112.186 C 282.785 112.398,283.036 112.573,283.343 112.573 C 283.649 112.573,284.008 112.398,284.139 112.186 C 284.271 111.973,284.020 111.799,283.582 111.799 C 283.144 111.799,282.785 111.973,282.785 112.186 M315.667 112.186 C 315.667 112.398,316.190 112.573,316.828 112.573 C 317.466 112.573,317.988 112.398,317.988 112.186 C 317.988 111.973,317.466 111.799,316.828 111.799 C 316.190 111.799,315.667 111.973,315.667 112.186 M278.143 112.959 C 278.143 113.172,278.394 113.346,278.701 113.346 C 279.007 113.346,279.366 113.172,279.497 112.959 C 279.629 112.747,279.378 112.573,278.940 112.573 C 278.502 112.573,278.143 112.747,278.143 112.959 M319.536 112.959 C 319.536 113.172,320.058 113.346,320.696 113.346 C 321.335 113.346,321.857 113.172,321.857 112.959 C 321.857 112.747,321.335 112.573,320.696 112.573 C 320.058 112.573,319.536 112.747,319.536 112.959 M275.048 113.733 C 275.048 113.946,275.299 114.120,275.606 114.120 C 275.912 114.120,276.271 113.946,276.402 113.733 C 276.534 113.520,276.283 113.346,275.845 113.346 C 275.407 113.346,275.048 113.520,275.048 113.733 M323.598 113.733 C 323.729 113.946,324.098 114.120,324.417 114.120 C 324.736 114.120,324.890 113.946,324.758 113.733 C 324.627 113.520,324.258 113.346,323.939 113.346 C 323.620 113.346,323.466 113.520,323.598 113.733 M330.474 115.798 C 330.555 116.045,331.043 116.306,331.558 116.377 C 332.074 116.448,332.661 116.666,332.863 116.861 C 333.065 117.055,333.620 117.215,334.097 117.215 C 334.574 117.215,335.072 117.389,335.203 117.602 C 335.335 117.814,335.762 117.988,336.154 117.988 C 336.545 117.988,337.858 118.511,339.072 119.149 C 340.285 119.787,341.521 120.309,341.819 120.309 C 342.116 120.309,342.360 120.484,342.360 120.696 C 342.360 120.909,342.693 121.083,343.101 121.083 C 343.509 121.083,343.909 121.283,343.991 121.528 C 344.073 121.773,344.392 121.886,344.700 121.780 C 345.272 121.584,339.260 118.372,336.371 117.331 C 332.425 115.908,330.331 115.363,330.474 115.798 M265.184 116.054 C 265.049 116.273,265.366 116.441,265.912 116.441 C 266.444 116.441,266.986 116.267,267.118 116.054 C 267.253 115.836,266.936 115.667,266.390 115.667 C 265.858 115.667,265.315 115.841,265.184 116.054 M258.801 117.854 C 258.056 118.189,257.665 118.545,257.931 118.645 C 258.489 118.855,260.735 117.943,260.735 117.507 C 260.735 117.091,260.340 117.161,258.801 117.854 M254.739 119.149 C 254.607 119.362,254.858 119.536,255.296 119.536 C 255.734 119.536,256.093 119.362,256.093 119.149 C 256.093 118.936,255.842 118.762,255.535 118.762 C 255.229 118.762,254.870 118.936,254.739 119.149 M249.710 121.062 C 248.485 121.642,248.344 121.801,249.033 121.826 C 249.512 121.843,249.903 121.683,249.903 121.470 C 249.903 121.257,250.251 121.083,250.677 121.083 C 251.103 121.083,251.451 120.909,251.451 120.696 C 251.451 120.213,251.548 120.192,249.710 121.062 M244.874 123.017 C 244.405 123.321,244.461 123.394,245.164 123.398 C 245.643 123.402,246.035 123.230,246.035 123.017 C 246.035 122.533,245.624 122.533,244.874 123.017 M347.002 122.850 C 347.002 123.551,349.962 125.725,350.916 125.725 C 351.105 125.725,351.888 126.422,352.657 127.273 C 353.426 128.124,354.297 128.820,354.591 128.820 C 354.886 128.820,355.757 129.516,356.526 130.368 C 357.295 131.219,358.158 131.915,358.443 131.915 C 358.729 131.915,359.777 132.785,360.772 133.849 C 361.859 135.011,362.908 135.779,363.399 135.772 C 364.076 135.763,363.922 135.513,362.506 134.322 C 361.565 133.530,359.986 132.186,358.997 131.335 C 354.419 127.394,347.002 122.148,347.002 122.850 M241.006 124.565 C 240.537 124.868,240.592 124.941,241.296 124.946 C 241.775 124.949,242.166 124.778,242.166 124.565 C 242.166 124.080,241.756 124.080,241.006 124.565 M235.590 126.886 C 235.121 127.189,235.176 127.262,235.880 127.267 C 236.359 127.270,236.750 127.099,236.750 126.886 C 236.750 126.401,236.340 126.401,235.590 126.886 M230.368 129.092 C 229.161 129.722,228.644 130.174,228.994 130.293 C 229.303 130.398,229.622 130.283,229.703 130.039 C 229.785 129.794,230.185 129.594,230.593 129.594 C 231.001 129.594,231.335 129.420,231.335 129.207 C 231.335 128.994,231.683 128.820,232.108 128.820 C 232.534 128.820,232.882 128.646,232.882 128.433 C 232.882 127.872,232.525 127.966,230.368 129.092 M214.967 136.821 C 214.858 136.995,213.457 137.828,211.854 138.673 C 208.103 140.649,208.352 140.978,212.170 139.092 C 214.975 137.706,215.769 137.110,215.358 136.699 C 215.252 136.593,215.075 136.648,214.967 136.821 M368.118 140.759 C 367.904 141.105,369.707 142.995,369.985 142.716 C 370.074 142.626,369.736 142.076,369.234 141.492 C 368.732 140.909,368.229 140.579,368.118 140.759 M205.467 142.121 C 204.741 142.524,204.673 142.676,205.141 142.855 C 205.469 142.981,206.030 142.750,206.407 142.334 C 207.184 141.474,206.793 141.386,205.467 142.121 M370.474 143.797 C 370.341 144.013,370.575 144.502,370.996 144.883 C 371.866 145.671,372.021 145.185,371.239 144.116 C 370.929 143.692,370.619 143.562,370.474 143.797 M371.944 145.857 C 371.791 146.104,372.036 146.676,372.487 147.127 C 373.091 147.731,373.304 147.797,373.295 147.378 C 373.275 146.461,372.270 145.330,371.944 145.857 M373.576 148.299 C 373.430 148.681,373.708 149.195,374.325 149.680 C 374.865 150.105,375.209 150.610,375.090 150.803 C 374.971 150.996,375.217 151.465,375.638 151.846 C 376.772 152.872,376.567 152.064,375.106 149.746 C 374.162 148.248,373.747 147.855,373.576 148.299 M185.311 153.950 C 184.998 154.148,184.872 154.440,185.030 154.598 C 185.189 154.757,185.613 154.592,185.972 154.232 C 186.671 153.533,186.253 153.354,185.311 153.950 M377.563 154.868 C 377.563 155.222,377.756 155.513,377.991 155.513 C 378.227 155.513,378.317 155.780,378.191 156.107 C 378.061 156.446,378.210 156.797,378.537 156.923 C 378.852 157.044,379.110 157.472,379.110 157.875 C 379.110 158.278,379.279 158.607,379.485 158.607 C 379.919 158.607,379.661 157.806,378.612 155.899 C 377.667 154.182,377.563 154.080,377.563 154.868 M183.200 155.347 C 182.790 155.646,182.577 156.013,182.726 156.163 C 182.875 156.312,183.287 156.144,183.642 155.789 C 184.477 154.954,184.165 154.641,183.200 155.347 M174.163 160.880 C 173.038 161.646,172.333 162.344,172.596 162.432 C 172.860 162.520,173.142 162.392,173.224 162.147 C 173.305 161.902,173.674 161.702,174.044 161.702 C 174.641 161.702,176.649 159.853,176.334 159.592 C 176.265 159.535,175.288 160.115,174.163 160.880 M168.882 164.229 C 168.460 164.548,168.345 164.797,168.619 164.797 C 168.888 164.797,169.369 164.536,169.688 164.217 C 170.429 163.475,169.867 163.484,168.882 164.229 M166.560 165.776 C 166.139 166.095,166.024 166.344,166.298 166.344 C 166.567 166.344,167.048 166.083,167.367 165.764 C 168.108 165.022,167.546 165.031,166.560 165.776 M164.194 167.299 C 163.723 167.655,163.633 167.872,163.954 167.879 C 164.235 167.886,164.726 167.631,165.046 167.311 C 165.791 166.566,165.175 166.557,164.194 167.299 M159.574 170.264 C 158.719 170.793,158.599 170.983,159.119 170.984 C 159.781 170.986,161.188 169.932,160.878 169.667 C 160.799 169.600,160.213 169.868,159.574 170.264 M386.098 177.930 C 386.081 178.846,386.199 179.140,386.472 178.866 C 386.736 178.602,386.744 178.152,386.497 177.532 C 386.145 176.652,386.121 176.676,386.098 177.930 M386.847 182.034 C 386.847 182.579,387.005 182.927,387.198 182.808 C 387.391 182.689,387.457 182.243,387.346 181.818 C 387.068 180.753,386.847 180.849,386.847 182.034 M132.346 187.404 C 131.747 187.724,131.579 187.993,131.866 188.171 C 132.109 188.321,132.588 188.163,132.931 187.821 C 133.761 186.991,133.485 186.794,132.346 187.404 M128.723 189.586 C 128.351 189.803,128.046 190.146,128.046 190.348 C 128.046 190.970,128.609 190.756,129.117 189.942 C 129.667 189.061,129.650 189.046,128.723 189.586 M126.402 191.254 C 125.696 191.791,125.516 192.263,126.019 192.263 C 126.181 192.263,126.530 191.915,126.796 191.489 C 127.359 190.588,127.315 190.561,126.402 191.254 M121.289 195.084 C 121.123 195.466,121.096 195.887,121.229 196.019 C 121.622 196.412,121.938 195.860,121.758 195.098 C 121.597 194.422,121.576 194.422,121.289 195.084 M387.621 204.232 C 387.621 204.883,387.688 205.416,387.769 205.416 C 388.097 205.416,388.267 203.449,387.956 203.256 C 387.772 203.142,387.621 203.582,387.621 204.232 M386.874 211.702 C 386.897 212.756,386.955 212.834,387.234 212.186 C 387.693 211.117,387.693 210.445,387.234 210.445 C 387.021 210.445,386.859 211.011,386.874 211.702 M145.068 213.042 C 145.387 213.160,145.870 213.432,146.140 213.646 C 146.509 213.938,146.571 213.876,146.389 213.401 C 146.255 213.052,145.772 212.780,145.316 212.796 C 144.751 212.817,144.672 212.895,145.068 213.042 M162.083 224.354 C 162.612 224.760,163.111 225.025,163.193 224.944 C 163.447 224.690,162.172 223.597,161.633 223.606 C 161.352 223.611,161.554 223.947,162.083 224.354 M168.665 228.555 C 168.665 228.728,169.362 229.242,170.213 229.696 C 171.064 230.150,171.760 230.431,171.760 230.320 C 171.760 229.883,170.621 229.014,170.047 229.014 C 169.713 229.014,169.439 228.839,169.439 228.627 C 169.439 228.414,169.265 228.240,169.052 228.240 C 168.839 228.240,168.665 228.382,168.665 228.555 M381.889 228.871 C 381.608 229.175,381.450 229.723,381.538 230.089 C 381.659 230.596,381.806 230.488,382.155 229.637 C 382.689 228.337,382.604 228.094,381.889 228.871 M172.147 230.723 C 172.147 230.982,174.580 232.382,175.532 232.671 C 176.056 232.829,176.402 232.770,176.402 232.521 C 176.402 232.294,176.054 232.108,175.629 232.108 C 175.203 232.108,174.855 231.934,174.855 231.721 C 174.855 231.509,174.507 231.335,174.081 231.335 C 173.656 231.335,173.308 231.161,173.308 230.948 C 173.308 230.735,173.046 230.561,172.727 230.561 C 172.408 230.561,172.147 230.634,172.147 230.723 M177.265 233.341 C 177.349 233.594,177.625 233.870,177.877 233.954 C 178.160 234.048,178.247 233.871,178.102 233.495 C 177.832 232.791,177.033 232.645,177.265 233.341 M379.884 233.656 C 379.884 234.081,379.710 234.429,379.497 234.429 C 379.284 234.429,379.111 234.734,379.113 235.106 C 379.115 235.590,379.334 235.453,379.884 234.623 C 380.743 233.326,380.842 232.882,380.271 232.882 C 380.058 232.882,379.884 233.230,379.884 233.656 M376.224 239.980 C 375.754 240.323,375.657 240.591,375.937 240.764 C 376.172 240.909,376.552 240.674,376.783 240.243 C 377.277 239.320,377.185 239.277,376.224 239.980 M366.047 253.994 C 364.925 255.148,364.148 256.093,364.319 256.093 C 364.490 256.093,365.575 255.135,366.731 253.965 C 367.887 252.795,368.664 251.851,368.459 251.866 C 368.253 251.882,367.168 252.840,366.047 253.994 M214.143 255.500 C 215.128 256.246,215.690 256.254,214.949 255.513 C 214.630 255.193,214.149 254.932,213.880 254.932 C 213.606 254.932,213.721 255.181,214.143 255.500 M358.667 260.597 C 356.341 263.007,356.897 263.131,359.431 260.768 C 360.574 259.702,361.248 258.836,360.928 258.844 C 360.609 258.851,359.592 259.640,358.667 260.597 M354.430 264.235 C 353.947 265.009,353.958 265.013,354.917 264.384 C 356.014 263.666,356.131 263.443,355.412 263.443 C 355.144 263.443,354.702 263.800,354.430 264.235 M352.089 265.611 C 351.300 266.502,351.723 266.582,352.810 265.746 C 353.439 265.263,353.571 265.010,353.191 265.014 C 352.872 265.017,352.376 265.286,352.089 265.611 M336.074 274.143 C 334.395 275.027,334.833 275.448,336.750 274.795 C 337.708 274.469,338.491 274.044,338.491 273.851 C 338.491 273.349,337.312 273.491,336.074 274.143 M332.112 275.735 C 331.476 276.068,331.170 276.412,331.432 276.499 C 332.084 276.717,334.623 275.846,334.623 275.405 C 334.623 274.885,333.441 275.040,332.112 275.735 M325.919 277.756 C 325.783 277.977,326.116 278.143,326.692 278.143 C 327.269 278.143,327.602 277.977,327.466 277.756 C 327.335 277.544,326.986 277.369,326.692 277.369 C 326.398 277.369,326.050 277.544,325.919 277.756 M323.598 278.530 C 323.466 278.743,323.717 278.917,324.155 278.917 C 324.593 278.917,324.952 278.743,324.952 278.530 C 324.952 278.317,324.701 278.143,324.394 278.143 C 324.088 278.143,323.729 278.317,323.598 278.530 M320.487 279.329 C 320.118 279.926,320.413 280.079,321.423 279.815 C 322.086 279.641,322.179 279.501,321.793 279.256 C 321.102 278.818,320.792 278.836,320.487 279.329 M315.845 280.103 C 315.434 280.768,315.879 280.919,317.407 280.632 C 318.408 280.445,318.682 280.264,318.317 280.033 C 317.585 279.570,316.149 279.610,315.845 280.103 M311.219 280.850 C 310.844 281.457,310.997 281.492,312.766 281.209 C 313.617 281.072,313.936 280.936,313.475 280.906 C 313.013 280.876,312.378 280.752,312.063 280.631 C 311.748 280.510,311.368 280.609,311.219 280.850 M304.545 281.891 C 304.918 281.989,305.527 281.989,305.899 281.891 C 306.272 281.794,305.967 281.715,305.222 281.715 C 304.478 281.715,304.173 281.794,304.545 281.891 " stroke="none" fill="#fbfbfb" fill-rule="evenodd"></path><path id="path4" d="M295.078 110.922 C 295.988 111.004,297.380 111.003,298.173 110.919 C 298.965 110.836,298.221 110.770,296.518 110.771 C 294.816 110.772,294.168 110.840,295.078 110.922 M305.319 110.915 C 305.904 111.004,306.862 111.004,307.447 110.915 C 308.032 110.827,307.553 110.754,306.383 110.754 C 305.213 110.754,304.734 110.827,305.319 110.915 M38.298 176.789 C 37.979 176.995,36.814 177.167,35.709 177.170 C 34.605 177.173,33.594 177.350,33.462 177.563 C 33.331 177.776,32.634 177.950,31.915 177.950 C 31.195 177.950,30.499 178.124,30.368 178.337 C 30.236 178.549,29.826 178.723,29.457 178.723 C 28.632 178.723,22.632 181.703,21.066 182.891 C 20.437 183.368,19.400 184.147,18.762 184.623 C 16.047 186.648,13.153 190.324,13.153 191.747 C 13.153 192.037,12.979 192.619,12.766 193.042 C 12.553 193.465,12.205 194.156,11.992 194.579 C 11.489 195.578,11.489 201.430,11.992 201.741 C 12.205 201.872,12.379 202.338,12.379 202.775 C 12.379 206.572,24.249 216.634,28.729 216.634 C 29.073 216.634,29.451 216.790,29.569 216.980 C 29.686 217.171,30.436 217.427,31.235 217.549 C 32.035 217.672,33.820 217.970,35.203 218.212 C 38.710 218.826,50.296 219.104,50.813 218.587 C 51.036 218.364,52.305 218.182,53.633 218.182 C 54.961 218.182,56.155 218.008,56.286 217.795 C 56.418 217.582,57.636 217.408,58.994 217.408 C 60.352 217.408,61.571 217.234,61.702 217.021 C 61.834 216.809,62.704 216.634,63.636 216.634 C 64.569 216.634,65.439 216.460,65.571 216.248 C 65.702 216.035,66.398 215.861,67.118 215.861 C 67.838 215.861,68.534 215.687,68.665 215.474 C 68.797 215.261,69.319 215.087,69.826 215.087 C 70.333 215.087,70.855 214.913,70.986 214.700 C 71.118 214.487,71.640 214.313,72.147 214.313 C 72.654 214.313,73.162 214.163,73.275 213.979 C 73.389 213.795,74.073 213.548,74.796 213.431 C 75.518 213.314,76.905 212.855,77.879 212.412 C 78.852 211.968,79.748 211.605,79.871 211.605 C 79.993 211.605,81.178 211.106,82.503 210.497 C 83.829 209.887,86.044 208.906,87.427 208.317 C 88.810 207.728,92.553 205.962,95.745 204.393 C 98.936 202.824,101.765 201.541,102.031 201.544 C 102.297 201.546,102.515 201.394,102.515 201.207 C 102.515 201.019,103.796 200.233,105.362 199.459 C 110.012 197.161,110.889 195.506,108.124 194.248 C 107.485 193.958,106.661 193.566,106.292 193.378 C 105.922 193.191,105.280 193.037,104.864 193.037 C 104.448 193.037,104.000 192.863,103.868 192.650 C 103.737 192.437,103.215 192.263,102.708 192.263 C 102.201 192.263,101.679 192.089,101.547 191.876 C 101.416 191.663,100.987 191.489,100.594 191.489 C 100.201 191.489,99.123 191.116,98.199 190.661 C 97.275 190.205,96.170 189.706,95.745 189.552 C 94.621 189.145,92.754 188.357,91.978 187.963 C 91.609 187.775,91.134 187.621,90.924 187.621 C 90.714 187.621,89.401 187.099,88.008 186.460 C 86.614 185.822,85.211 185.300,84.890 185.300 C 84.568 185.300,83.914 185.044,83.437 184.730 C 82.055 183.825,75.797 181.895,72.147 181.249 C 71.296 181.099,70.426 180.836,70.213 180.666 C 69.658 180.223,63.998 178.723,62.881 178.723 C 62.364 178.723,61.834 178.549,61.702 178.337 C 61.571 178.124,60.700 177.950,59.768 177.950 C 58.836 177.950,57.965 177.776,57.834 177.563 C 57.702 177.350,56.832 177.176,55.899 177.176 C 54.967 177.176,54.097 177.002,53.965 176.789 C 53.652 176.283,39.081 176.283,38.298 176.789 " stroke="none" fill="#ec1c24" fill-rule="evenodd"></path></g></svg>